<svg xmlns="http://www.w3.org/2000/svg" width="90" height="21" viewBox="0 0 90 21">
    <g fill="#FFF">
        <path d="M16.95 10.69c-1.388 0-2.523 1.094-2.523 2.44v5.258c0 1.345.967 2.27 2.565 2.439h7.655c1.64-.168 2.566-1.094 2.566-2.44v-3.953H18.8V17h5.72v.63c0 .59-.505 1.052-1.136 1.052H18.17c-.631 0-1.136-.463-1.136-1.051v-3.618c0-.588.547-1.093 1.178-1.093h9.043v-2.187L16.95 10.69zM52.174 17.507c0 .589-.547 1.051-1.178 1.051H45.53c-.631 0-1.178-.462-1.178-1.051V14.1c0-.673.547-1.178 1.22-1.178h5.425c.673 0 1.178.463 1.178 1.052v3.533zm.042-6.814h-7.949c-1.682.168-2.692 1.094-2.692 2.44v5.257c.168 1.556 1.052 2.271 2.734 2.44h7.907c1.809-.085 2.692-1.094 2.692-2.44v-5.257c0-1.346-1.094-2.272-2.692-2.44M72.128 20.899L74.871 20.899 74.871 10.765 72.128 10.765z"/>
        <path d="M12.071 10.136L7.613 2.776 3.197 10.136 0.126 10.136 6.183 0.084 9.085 0.084 15.141 10.136z" transform="matrix(1 0 0 -1 55.44 20.947)"/>
        <path d="M2.566 2.355L2.566 10.094 0 10.094 0 0.21 10.935 0.21 10.935 2.355z" transform="matrix(1 0 0 -1 29.71 20.885)"/>
        <path d="M85.348 14.412h1.85c1.515.084 2.524.631 2.524 2.482v1.514c0 1.892-1.052 2.397-2.524 2.481h-9.631V18.66h8.874s.505.042.505-.589v-.546c0-.59-.463-.547-.463-.547H79.46c-.546-.042-2.229-.253-2.187-2.398v-1.388c0-1.892 1.094-2.481 2.608-2.481h9.632v2.229h-8.749s-.673-.042-.673.505v.547c0 .504.757.42.757.42h4.5z"/>
        <path d="M4.669 4.374L1.514 4.374 1.514 6.982 0.042 6.982 0.042 0.252 1.514 0.252 1.514 3.028 4.669 3.028 4.669 0.252 6.141 0.252 6.141 6.982 4.669 6.982z" transform="matrix(1 0 0 -1 .155 7.582)"/>
        <path d="M38.34 1.894h2.734V3.87H37.96V2.314c0-.084 0-.21.042-.294.085-.126.21-.126.337-.126M36.826.968c-.295.337-.337.757-.337 1.052v5.3h1.472V5.173h3.113V7.32h1.472V.59H37.96c-.42 0-.84.085-1.135.38M26.39.579h-4.585v6.73h1.472V1.882h2.776c.126 0 .252 0 .337.084.084.084.042.21.042.294v5.047h1.472v-5.3c0-.252-.042-.714-.337-1.05-.294-.295-.715-.337-1.177-.38M19.012 5.61c0 .083 0 .21-.042.293-.084.085-.168.085-.337.085h-2.776V.604h-1.43v6.73h4.585c.42 0 .841-.085 1.135-.379.295-.337.337-.757.337-1.052V.604h-1.472v5.005zM33.816 5.61c0 .083 0 .21-.042.293-.084.085-.168.085-.336.085h-2.776v-4.08h2.776c.126 0 .252 0 .336.084.084.084.042.21.042.294V5.61zm1.472-3.576c0-.252 0-.715-.336-1.051-.294-.337-.715-.379-1.136-.379H29.19v6.73h4.584c.42 0 .842-.085 1.136-.379.294-.294.336-.757.336-1.052l.042-3.869z"/>
        <path d="M3.701 4.122L1.935 7.066 0.168 7.066 2.902 2.818 2.902 0.336 4.458 0.336 4.458 2.818 7.192 7.066 5.468 7.066z" transform="matrix(1 0 0 -1 6.666 7.666)"/>
        <path d="M45.661 0.631L44.111 0.631 44.111 7.307 45.661 7.307z"/>
    </g>
</svg>
