<svg xmlns="http://www.w3.org/2000/svg" xmlns:xlink="http://www.w3.org/1999/xlink" width="47" height="54" viewBox="0 0 47 54">
    <defs>
        <path id="prefix__a" d="M0 0.603L46.81 0.603 46.81 54 0 54z"/>
    </defs>
    <g fill="none" fill-rule="evenodd">
        <mask id="prefix__b" fill="#fff">
            <use xlink:href="#prefix__a"/>
        </mask>
        <path fill="#004F9E" d="M46.81 42.43V.604H0V54h35.108c6.463 0 11.702-5.18 11.702-11.57" mask="url(#prefix__b)"/>
        <path fill="#FFF" d="M16.788 47.21h-.599c-.235 0-.348.037-.404.255l-.077.301c-.02.078-.016.132.01.166.038.047.123.068.278.068h.806v-.004c.002-.014 0-.037-.018-.057-.03-.033-.091-.051-.175-.051h-.465c-.072 0-.126-.008-.154-.042-.028-.036-.016-.08-.007-.12l.06-.23c.014-.052.044-.175.203-.175h.37c.054 0 .093.015.116.043.013.016.025.043.015.086-.011.042-.05.114-.184.114h-.353l-.111.108h.463c.356 0 .438-.172.457-.246.015-.059.008-.107-.02-.143-.037-.047-.113-.073-.21-.073zm-5.884-.616c.276-.196.506-.339.988-.385.556-.054 1.694-.046 1.694-.046l.027-.105s-1.186-.063-1.348-.063c-.743 0-1.086.139-1.307.278-.222.138-.459.298-.742.316-.306.018-.73.018-1.033.076-.683.128-1.06.505-1.158.68-.01.015-.017.03-.025.045h.575c.11-.15.29-.352.601-.427.415-.1.882-.043 1.109-.078.195-.036.357-.107.62-.291zm-.696.616h-.76l-.005.039c-.008.064.042.141.213.141h.418c.125 0 .123.028.106.095l-.086.337h-.492c-.036 0-.094-.01-.079-.068.015-.059.077-.072.126-.072h.296l.18-.178H9.65c-.349 0-.432.177-.451.253-.038.148.06.243.246.243h.811c.076 0 .122-.034.14-.103l.109-.427c.055-.216-.08-.26-.298-.26zm3.62.302l-.044.172-.005.02c-.017.067-.051.116-.15.116h-.291c-.102 0-.102-.055-.09-.105l.008-.032.042-.167c.018-.067.046-.126.145-.126h.305c.105 0 .097.054.08.122zm.077-.302h-2.319l-.131.513c-.017.07-.03.097-.154.097h-.269c-.125 0-.123-.028-.105-.097l.131-.513h-.209c-.075 0-.121.034-.14.103l-.108.427c-.047.183.038.259.291.26h.45c.22 0 .375-.044.43-.26l.088-.343h.408l-.13.501c-.001.008-.01.045.015.074.016.018.042.028.077.028h.089c.035 0 .066-.01.092-.029.038-.028.05-.065.052-.074l.13-.5h.42c-.009.022-.017.046-.024.072l-.066.26c-.052.2.043.271.258.271h.501c.237 0 .357-.052.417-.288l.058-.228c.047-.186.01-.274-.252-.274zm4.71-.167c-.08 0-.145-.063-.145-.142 0-.079.064-.142.144-.142.08 0 .144.063.144.142 0 .079-.065.142-.144.142zm0-.424c-.159 0-.287.126-.287.282 0 .156.128.282.286.282.158 0 .286-.126.286-.282 0-.156-.128-.282-.286-.282zm-.553.285h-.1c-.028 0-.053.007-.074.023-.032.022-.04.054-.042.057l-.244.958s-.006.027.007.042c.012.013.035.016.052.016h.099c.029 0 .054-.008.076-.023.032-.023.04-.056.04-.058l.244-.956c0-.002.007-.028-.006-.043-.012-.013-.035-.016-.052-.016zm-.466.016c-.011-.013-.035-.016-.051-.016h-.1c-.029 0-.054.007-.075.023-.032.023-.04.054-.04.057l-.245.958s-.007.027.007.042c.011.013.034.016.052.016h.099c.029 0 .054-.008.075-.023.032-.023.041-.056.041-.058l.244-.956c0-.001.007-.027-.007-.043zm-2.28.592l-.054.213c-.018.07-.059.164-.21.164h-.323c-.062 0-.104-.016-.13-.048-.03-.04-.023-.09-.013-.124l.1-.395h.499c.06 0 .1.014.123.044.034.044.019.106.008.146zm.073-.302h-.671l.063-.249s.006-.026-.008-.041c-.011-.013-.034-.016-.051-.016h-.1c-.029 0-.053.007-.075.023-.03.022-.04.054-.04.057l-.197.77c-.022.085-.018.145.011.181.035.044.11.065.232.065h.558c.24 0 .357-.042.42-.287l.065-.253c.025-.099.03-.152-.003-.191-.038-.047-.077-.059-.204-.059zm6.858-5.92c0 .046.018.085.051.117.034.032.076.048.126.048.117 0 .176-.058.176-.174 0-.116-.059-.173-.176-.173-.118 0-.177.06-.177.182zm-5.525.015c0 .046.017.085.051.116.034.03.076.046.126.046.052 0 .094-.017.126-.052.008-.008.006-.022.012-.032.005.008.004.017.01.024.034.032.075.048.126.048.117 0 .175-.058.175-.174 0-.116-.058-.173-.175-.173-.06 0-.104.015-.133.046-.018-.032-.042-.061-.075-.086-.073-.054-.167-.08-.282-.08-.24 0-.42.11-.54.332-.08.145-.123.38-.134.708h-.125c-.047 0-.07.012-.07.035 0 .018.007.028.023.03.016.004.072.005.168.005v1.471l.004.05c0 .01-.003.018-.008.023-.013.016-.087.023-.222.023-.037 0-.056.011-.056.032 0 .017.024.027.07.027h.427l.322-.004c.01.002.023.004.04.004.03 0 .046-.01.046-.027 0-.008-.002-.013-.004-.017-.01-.012-.07-.017-.182-.015-.072 0-.107-.017-.107-.054v-1.517h.232c.066 0 .1-.01.1-.033 0-.022-.025-.033-.078-.033h-.254v-.19c0-.244.011-.416.035-.514.046-.186.141-.279.286-.279.086 0 .128.03.128.09 0 .01-.003.022-.011.034-.034.052-.051.097-.051.136zm-1.324 2.341c-.023-.005-.037-.017-.041-.035-.004-.017-.006-.078-.006-.181v-1.244c0-.103-.01-.173-.031-.212l-.038.023c-.124.073-.272.113-.445.12-.043.003-.065.012-.065.027 0 .019.014.027.043.027h.153c.028 0 .045.007.049.018.003.011.007.05.01.114v1.173c0 .096-.005.149-.014.16-.01.012-.064.019-.163.022-.052 0-.078.014-.078.04 0 .02.014.03.043.03.018 0 .033-.006.047-.016h.407c.052 0 .118.002.196.008l.094.008c.045 0 .067-.012.067-.036 0-.02-.02-.03-.056-.03-.075 0-.133-.005-.172-.016zm1.631-.01c-.009.012-.064.019-.162.022-.053 0-.079.014-.079.04 0 .02.014.03.043.03.02 0 .034-.006.048-.016h.406c.053 0 .118.002.197.008l.093.008c.045 0 .067-.012.067-.036 0-.02-.018-.03-.055-.03-.075 0-.133-.005-.172-.016-.024-.005-.037-.017-.041-.035-.004-.017-.006-.078-.006-.181v-1.244c0-.103-.01-.173-.031-.212l-.038.023c-.124.073-.272.113-.444.12-.045.003-.067.012-.067.027 0 .019.014.027.043.027h.154c.028 0 .044.007.049.018.003.011.007.05.009.114v1.173c0 .096-.004.149-.014.16zm3.24-.505c0 .153-.007.243-.022.271-.068.124-.156.186-.266.186-.072 0-.132-.027-.18-.08-.048-.052-.072-.12-.072-.202 0-.12.042-.214.126-.285.083-.071.222-.128.415-.173v.283zm.612.43c-.047.051-.107.077-.18.077-.063 0-.101-.046-.114-.139-.002-.02-.004-.09-.004-.209v-.724c0-.175-.011-.293-.035-.352-.065-.155-.241-.232-.529-.232-.19 0-.34.048-.446.143-.097.087-.145.192-.145.313 0 .062.02.114.058.153.039.04.088.06.147.06.114 0 .17-.056.17-.17 0-.038-.012-.073-.037-.104-.026-.032-.054-.047-.087-.047-.032 0-.047-.01-.047-.03 0-.076.03-.137.091-.187.062-.049.138-.073.23-.073.145 0 .24.066.282.197.023.073.035.222.035.449v.098c-.217.04-.37.082-.458.123-.256.123-.384.292-.384.503 0 .104.036.188.109.253.073.067.165.1.277.1.207 0 .36-.096.46-.287.007.183.101.275.28.275.085 0 .175-.024.266-.072.094-.048.14-.094.14-.137 0-.016-.008-.023-.02-.023-.014 0-.033.013-.059.042zm-2.006-1.165c0 .108.058.163.173.163.117 0 .176-.06.176-.179 0-.105-.06-.198-.178-.278-.119-.08-.255-.12-.41-.12-.24 0-.44.087-.598.261-.16.175-.239.394-.239.66 0 .248.075.453.225.616.15.161.34.243.57.243.183 0 .332-.06.45-.182.092-.092.137-.156.137-.19 0-.02-.013-.03-.04-.03-.01 0-.021.006-.034.02-.063.087-.114.146-.153.177-.086.067-.184.1-.293.1-.162 0-.288-.074-.376-.222-.09-.148-.134-.359-.134-.633 0-.242.043-.431.13-.565.086-.134.207-.201.364-.201.08 0 .148.017.201.05.054.034.08.077.08.128 0 .018-.003.036-.011.054-.026.057-.04.1-.04.128zm-7.412-.356c.214 0 .326.155.337.464h-.733c.052-.31.184-.464.396-.464zm.062.53h.275c.138.003.249-.002.332-.016-.007-.167-.074-.305-.2-.412-.124-.107-.28-.16-.466-.16-.224 0-.411.087-.561.26-.15.172-.226.388-.226.645 0 .248.08.456.237.623.158.169.355.252.59.252.188 0 .338-.056.45-.17.042-.041.083-.095.123-.16.041-.066.06-.112.06-.138 0-.018-.01-.027-.03-.027-.018 0-.033.01-.043.03-.073.132-.142.222-.203.268-.063.046-.147.07-.251.07-.183 0-.325-.07-.426-.21-.1-.14-.15-.341-.15-.6 0-.077.006-.159.02-.244l.469-.011zm15.074 1.1c-.06 0-.098-.008-.114-.024-.008-.008-.012-.052-.012-.136v-.881c0-.218-.023-.365-.07-.443-.084-.136-.22-.204-.408-.204-.214 0-.388.087-.524.26v-.187c0-.049-.01-.073-.028-.073-.012 0-.031.01-.054.03-.037.035-.101.064-.193.09-.091.026-.176.04-.254.042-.055 0-.082.013-.082.037 0 .02.026.03.078.03h.113c.061 0 .093.015.099.046.005.03.007.192.007.486v.841l-.012.059c-.007.017-.031.026-.07.026h-.097c-.048.005-.071.015-.071.031s.02.024.058.024h.713c.032 0 .047-.01.047-.027 0-.018-.013-.027-.04-.027l-.12-.005c-.055-.002-.082-.019-.082-.05v-1.204c0-.06.012-.105.038-.14.09-.113.199-.169.33-.169.133 0 .221.057.266.174.02.053.031.221.031.502v.741c0 .072-.004.114-.012.126-.007.01-.036.018-.086.02-.086.004-.136.006-.15.009-.015.002-.022.01-.022.023 0 .017.017.027.051.027h.72c.04 0 .059-.01.059-.029 0-.017-.013-.026-.04-.026h-.07zm-2.429-.097c-.057.09-.146.135-.266.135-.156 0-.278-.073-.366-.218-.087-.146-.131-.35-.131-.61 0-.263.041-.47.123-.617.082-.149.197-.223.342-.223.155 0 .264.058.33.174.088.157.133.378.133.662 0 .294-.055.526-.165.697zm-.305-1.591c-.233 0-.426.085-.582.255-.155.17-.233.385-.233.643 0 .25.08.46.24.629.158.169.357.253.595.253.229 0 .421-.084.575-.253.154-.17.23-.379.23-.63 0-.254-.078-.468-.236-.64-.158-.172-.354-.257-.59-.257zm-10.664.333c0 .04.016.076.047.103.031.027.07.04.118.04.057 0 .104-.02.14-.058.037-.038.056-.088.056-.147 0-.075-.028-.138-.083-.188-.054-.05-.124-.075-.207-.075-.152 0-.269.088-.353.263v-.077c0-.063-.005-.124-.016-.186l-.03.01-.052.025c-.117.054-.224.08-.321.08l-.051-.005c-.039-.004-.078-.006-.117-.006h-.028c-.026 0-.039.01-.039.027 0 .018.016.028.048.028.093.002.161.014.205.036.043.023.064.105.064.247v1.07c0 .086-.002.134-.007.144-.016.02-.069.031-.157.031h-.054c-.035 0-.051.008-.051.024 0 .015.02.023.062.023h.76c.033 0 .05-.01.05-.027s-.014-.026-.043-.032c-.111-.002-.179-.007-.201-.015-.022-.007-.034-.027-.034-.058v-.762c0-.285.03-.48.09-.586.053-.089.115-.134.189-.134.057 0 .086.02.086.058 0 .01-.012.028-.035.054-.024.026-.036.056-.036.093zm8.756 1.173c-.107.095-.203.143-.289.143-.102 0-.162-.046-.18-.138-.018-.092-.028-.318-.028-.679v-.716h.16c.213 0 .318-.019.318-.056 0-.022-.01-.033-.032-.033-.007 0-.016.001-.027.004-.046.013-.141.02-.285.02-.055 0-.094-.003-.118-.008-.01-.031-.016-.101-.016-.21v-.08c0-.019-.01-.028-.027-.028-.023 0-.043.011-.059.035-.113.18-.271.28-.474.298-.029.003-.043.013-.043.031 0 .018.03.027.086.027h.15c.025.003.04.017.042.042v1.151c0 .201.021.322.063.363.073.072.181.108.325.108.154 0 .287-.05.4-.15.064-.06.098-.102.098-.124 0-.013-.01-.02-.028-.02-.013 0-.025.007-.036.02zm.71.158c-.024-.005-.038-.017-.042-.035-.004-.017-.005-.078-.005-.181v-1.244c0-.103-.01-.173-.031-.212l-.039.023c-.124.073-.272.113-.444.12-.045.003-.066.012-.066.027 0 .019.014.027.043.027h.153c.029 0 .045.007.049.018.004.011.007.05.01.114v1.173c0 .096-.005.149-.014.16-.01.012-.064.019-.163.022-.052 0-.078.014-.078.04 0 .02.014.03.043.03.018 0 .034-.006.047-.016h.407c.053 0 .118.002.196.008l.094.008c.044 0 .067-.012.067-.036 0-.02-.018-.03-.055-.03-.076 0-.133-.005-.172-.016zm-12.282-.793c0-.039-.012-.059-.038-.059-.024 0-.041.032-.051.093-.03.155-.078.298-.145.43-.06.114-.147.203-.258.269-.113.066-.237.099-.372.099-.264 0-.476-.103-.635-.31-.183-.237-.274-.571-.274-1.002 0-.483.11-.85.332-1.1.123-.138.29-.208.502-.208.274 0 .475.102.603.309.062.101.11.254.145.461.008.05.024.073.05.073.014 0 .025-.004.032-.011.008-.008.012-.036.012-.085 0-.341.014-.573.043-.698.005-.022.008-.04.008-.05 0-.02-.011-.03-.031-.03-.021 0-.049.036-.083.108-.02.042-.043.062-.066.062-.03 0-.072-.017-.13-.05-.117-.068-.215-.112-.295-.134-.08-.021-.186-.033-.32-.033-.366 0-.663.129-.895.385-.23.257-.346.588-.346.993 0 .402.126.737.378 1 .252.265.57.397.954.397.263 0 .49-.082.677-.243.036.025.073.08.11.166.016.039.033.058.055.058.02 0 .03-.017.03-.05v-.035c0-.067-.002-.125-.007-.172-.005-.048-.008-.08-.008-.095 0-.14.006-.284.016-.434l.007-.104zm20.58-.828c-.021 0-.039.002-.054.007-.014.005-.044.008-.09.008h-.111c-.057 0-.13-.003-.22-.01-.007-.004-.017-.005-.03-.005-.032 0-.048.008-.048.027 0 .02.013.03.04.03.092 0 .148.003.168.009.019.005.029.019.029.042 0 .039-.125.446-.376 1.224-.032-.088-.062-.163-.088-.226-.077-.201-.124-.33-.142-.388l-.069-.192-.065-.186c-.054-.138-.08-.216-.08-.236 0-.023.04-.036.121-.039.097-.002.145-.013.145-.033 0-.022-.015-.032-.043-.032l-.2.005c-.096.003-.172.007-.227.01h-.07c-.032 0-.077-.003-.137-.008-.06-.005-.105-.007-.134-.007-.033 0-.05.01-.05.03 0 .026.034.039.103.039.07 0 .112.007.128.02.01.002.062.131.157.386.135.374.3.813.493 1.312-.042.15-.1.319-.172.508-.05.126-.086.19-.11.19-.016 0-.036-.023-.059-.067-.031-.056-.082-.084-.152-.084-.053 0-.095.015-.128.046-.032.03-.049.07-.049.12 0 .056.02.103.06.14.041.035.093.053.155.053.147 0 .261-.11.345-.329.136-.36.307-.87.513-1.524l.165-.53.031-.098.028-.07c.013-.037.027-.06.045-.067.016-.009.056-.014.119-.017.063-.002.094-.012.094-.03 0-.02-.012-.028-.036-.028zM28.7 43.523c-.073.115-.187.174-.342.174-.163 0-.258-.054-.287-.163-.018-.066-.028-.277-.028-.633 0-.34.012-.543.036-.61.023-.067.068-.123.133-.168.066-.045.136-.068.209-.068.14 0 .248.066.325.198.077.13.116.318.116.56 0 .3-.054.537-.162.71zm-.21-1.541c-.199 0-.348.073-.447.22v-1.215h-.015c-.016 0-.044.01-.083.027-.133.06-.271.09-.415.09h-.054c-.029 0-.044.008-.044.027 0 .02.032.03.095.03.088 0 .139.004.152.012.034.02.051.161.051.422v2.012c0 .085.01.128.031.128.019 0 .046-.012.082-.036.037-.025.07-.037.099-.037.03 0 .091.017.18.05s.173.05.254.05c.233 0 .43-.094.595-.282.165-.189.247-.417.247-.686 0-.244-.067-.441-.2-.59-.133-.148-.31-.222-.528-.222zm-13.738 1.506c0-.013-.009-.02-.027-.02-.014 0-.025.007-.035.02-.107.095-.204.143-.29.143-.102 0-.162-.046-.18-.138-.02-.092-.027-.318-.027-.679v-.716h.16c.211 0 .317-.019.317-.056 0-.022-.01-.033-.031-.033-.009 0-.017.001-.028.004-.047.013-.142.02-.286.02-.055 0-.094-.003-.117-.008-.01-.031-.015-.101-.015-.21v-.08c0-.019-.01-.028-.028-.028-.023 0-.043.011-.058.035-.115.18-.273.28-.475.298-.029.003-.043.013-.043.031 0 .018.029.027.086.027h.15c.025.003.04.017.042.042v1.151c0 .201.021.322.063.363.073.072.181.108.324.108.155 0 .288-.05.4-.15.066-.06.098-.102.098-.124zm.227-2.198c0 .046.017.085.051.117.034.032.076.048.125.048.118 0 .177-.058.177-.174 0-.116-.06-.173-.177-.173-.117 0-.176.06-.176.182zm-3.698-23.1h10.464c.984 0 1.575-.438 1.804-1.334l1.404-5.506C25.662 8.566 23.932 8 21.115 8H11.31l-.065.488c-.113.848.538 1.836 2.746 1.836h5.396c1.609 0 1.582.355 1.36 1.233l-1.105 4.329h-6.355c-.463 0-1.211-.113-1.02-.864.198-.77.995-.934 1.63-.934h3.817l2.317-2.29h-6.117c-4.496 0-5.563 2.276-5.81 3.255-.488 1.907.76 3.137 3.176 3.137z"/>
    </g>
</svg>
