<svg xmlns="http://www.w3.org/2000/svg" xmlns:xlink="http://www.w3.org/1999/xlink" width="698" height="395" viewBox="0 0 691 395">
    <defs>
        <circle id="prefix__c" cx="10" cy="13" r="10"/>
        <circle id="prefix__e" cx="10" cy="13" r="10"/>
        <circle id="prefix__f" cx="10" cy="13" r="10"/>
        <path id="prefix__a" d="M0 0L646 0 646 242 0 242z"/>
    </defs>
    <g fill="none" fill-rule="evenodd">
        <g>
            <g>
                <g transform="translate(-2 -3) translate(3 49) translate(16 20) translate(2 37)">
                    <mask id="prefix__b" fill="#fff">
                        <use xlink:href="#prefix__a"/>
                    </mask>
                    <use fill="#7892D5" xlink:href="#prefix__a"/>
                    <path fill="#FF7F7F" d="M646 209.263L0 6 0 242 646 245z" mask="url(#prefix__b)"/>
                </g>
                <path fill="#E7E7E7" fill-opacity=".5" d="M0 37.559L648 37.559 648 35.515 0 35.515zM0 72.335L648 72.335 648 70.292 0 70.292zM0 2.782L648 2.782 648 .739 0 .739zM0 107.11L648 107.11 648 105.066 0 105.066zM0 141.886L648 141.886 648 139.843 0 139.843zM0 176.661L648 176.661 648 174.617 0 174.617zM0 211.437L648 211.437 648 209.394 0 209.394z" transform="translate(-2 -3) translate(3 49) translate(16 20)"/>
            </g>
            <g fill="#E7E7E7" fill-opacity=".5">
                <path d="M0.171 266.223L647.171 266.223 647.171 264.223 0.171 264.223z" transform="translate(-2 -3) translate(3 49) translate(16)"/>
                <path d="M141.171 299.967L143.21 299.967 143.21.537 141.171.537zM281.707 299.967L283.747 299.967 283.747.537 281.707.537zM422.242 299.967L424.281 299.967 424.281.537 422.242.537zM562.781 299.967L564.82 299.967 564.82.537 562.781.537z" transform="translate(-2 -3) translate(3 49) translate(16)"/>
            </g>
            <path fill="#777" d="M14 1L14 302 665 302 665 297.925 17.914 297.925 17.914 1zM14 319L18 319 18 302 14 302zM92 319L96 319 96 302 92 302zM170 319L174 319 174 302 170 302zM246 319L250 319 250 302 246 302zM327 319L331 319 331 302 327 302zM412 319L416 319 416 302 412 302zM493 319L497 319 497 302 493 302zM578 319L582 319 582 302 578 302zM661 319L665 319 665 302 661 302z" transform="translate(-2 -3) translate(3 49)"/>
            <g>
                <path fill="#FFF" d="M28.868 16.49c0 6.853-5.55 12.412-12.397 12.412-6.846 0-12.396-5.559-12.396-12.412 0-6.854 5.55-12.411 12.396-12.411 6.847 0 12.397 5.557 12.397 12.411" transform="translate(-2 -3) translate(3 49) translate(0 46)"/>
                <path fill="#3F64C3" d="M16.471 8.159c-4.588 0-8.32 3.737-8.32 8.331 0 4.595 3.732 8.332 8.32 8.332 4.589 0 8.322-3.737 8.322-8.332 0-4.594-3.733-8.331-8.322-8.331m0 24.824C7.388 32.983 0 25.585 0 16.49 0 7.396 7.388-.002 16.471-.002c9.084 0 16.472 7.398 16.472 16.492 0 9.095-7.388 16.493-16.472 16.493" transform="translate(-2 -3) translate(3 49) translate(0 46)"/>
                <path fill="#FFF" d="M674.868 222.49c0 6.853-5.55 12.412-12.397 12.412-6.846 0-12.396-5.559-12.396-12.412 0-6.854 5.55-12.411 12.396-12.411 6.847 0 12.397 5.557 12.397 12.411" transform="translate(-2 -3) translate(3 49) translate(0 46)"/>
                <path fill="#3F64C3" d="M662.471 214.159c-4.588 0-8.32 3.737-8.32 8.331 0 4.595 3.732 8.332 8.32 8.332 4.589 0 8.322-3.737 8.322-8.332 0-4.594-3.733-8.331-8.322-8.331m0 24.824c-9.083 0-16.471-7.398-16.471-16.493 0-9.094 7.388-16.492 16.471-16.492 9.084 0 16.472 7.398 16.472 16.492 0 9.095-7.388 16.493-16.472 16.493" transform="translate(-2 -3) translate(3 49) translate(0 46)"/>
                <path fill="#3F64C3" d="M28.868 24.822L159.21 61.886 297.369 105.5 429.061 148.617 558.5 189.266 650.075 218.223 654.15 210.079 558.5 179.741 429.061 140.5 297.369 96.732 164.593 55.028 32.943 16.49z" transform="translate(-2 -3) translate(3 49) translate(0 46)"/>
            </g>
        </g>
        <text fill="#FFF" font-family="AppleSDGothicNeo-Bold, Apple SD Gothic Neo" font-size="20" font-weight="bold" transform="translate(-2 -3)">
            <tspan x="77.2" y="243">이자</tspan>
        </text>
        <text fill="#FFF" font-family="AppleSDGothicNeo-Bold, Apple SD Gothic Neo" font-size="20" font-weight="bold" transform="translate(-2 -3)">
            <tspan x="556.2" y="200">원금</tspan>
        </text>
        <text fill="#333" font-family="NotoSansKR-Regular, Noto Sans KR Regular" font-size="16" transform="translate(-2 -3)">
            <tspan x="155.84" y="396">6개월</tspan>
        </text>
        <text fill="#333" font-family="NotoSansKR-Regular, Noto Sans KR Regular" font-size="16" transform="translate(-2 -3)">
            <tspan x="233.34" y="396">9개월</tspan>
        </text>
        <text fill="#333" font-family="NotoSansKR-Regular, Noto Sans KR Regular" font-size="16" transform="translate(-2 -3)">
            <tspan x="77.84" y="396">3개월</tspan>
        </text>
        <text fill="#333" font-family="NotoSansKR-Regular, Noto Sans KR Regular" font-size="16" transform="translate(-2 -3)">
            <tspan x=".84" y="396">1개월</tspan>
        </text>
        <text fill="#333" font-family="NotoSansKR-Regular, Noto Sans KR Regular" font-size="16" transform="translate(-2 -3)">
            <tspan x="309.9" y="396">12개월</tspan>
        </text>
        <text fill="#333" font-family="NotoSansKR-Regular, Noto Sans KR Regular" font-size="16" transform="translate(-2 -3)">
            <tspan x="393.9" y="396">18개월</tspan>
        </text>
        <text fill="#333" font-family="NotoSansKR-Regular, Noto Sans KR Regular" font-size="16" transform="translate(-2 -3)">
            <tspan x="477.9" y="396">24개월</tspan>
        </text>
        <text fill="#333" font-family="NotoSansKR-Regular, Noto Sans KR Regular" font-size="16" transform="translate(-2 -3)">
            <tspan x="561.9" y="396">30개월</tspan>
        </text>
        <text fill="#333" font-family="NotoSansKR-Regular, Noto Sans KR Regular" font-size="16" transform="translate(-2 -3)">
            <tspan x="647.4" y="396">36개월</tspan>
        </text>
        <text fill="#777" font-family="NotoSansKR-Regular, Noto Sans KR Regular" font-size="18" transform="translate(-2 -3)">
            <tspan x="17" y="21">대출기간(개월)</tspan>
        </text>
        <g transform="translate(-2 -3) translate(412)">
            <mask id="prefix__d" fill="#fff">
                <use xlink:href="#prefix__c"/>
            </mask>
            <use fill="red" fill-opacity=".5" xlink:href="#prefix__c"/>
            <path fill="#7892D5" d="M41 31.916L-6 3 -6 36.573 41 37z" mask="url(#prefix__d)"/>
            <text fill="#777" font-family="NotoSansKR-Regular, Noto Sans KR Regular" font-size="18">
                <tspan x="28" y="21">월 납입금</tspan>
            </text>
            <g transform="translate(115)">
                <use fill="#7892D5" xlink:href="#prefix__e"/>
                <text fill="#777" font-family="NotoSansKR-Regular, Noto Sans KR Regular" font-size="18">
                    <tspan x="28" y="21">원금</tspan>
                </text>
            </g>
            <g transform="translate(193)">
                <text fill="#777" font-family="NotoSansKR-Regular, Noto Sans KR Regular" font-size="18">
                    <tspan x="28" y="21">이자</tspan>
                </text>
                <use fill="red" fill-opacity=".5" xlink:href="#prefix__f"/>
            </g>
        </g>
    </g>
</svg>
