<svg xmlns="http://www.w3.org/2000/svg" width="107" height="179" viewBox="0 0 107 179">
    <g fill="none" fill-rule="evenodd">
        <path fill="#3F64C3" d="M102.218 0c2.209 0 4 1.79 4 4v171c0 2.21-1.791 4-4 4h-98c-2.21 0-4-1.79-4-4v-7c3.866 0 7-3.134 7-7s-3.134-7-7-7v-10c3.866 0 7-3.134 7-7s-3.134-7-7-7v-9c3.866 0 7-3.134 7-7s-3.134-7-7-7V97c3.866 0 7-3.134 7-7s-3.134-7-7-7v-9c3.866 0 7-3.134 7-7s-3.134-7-7-7v-9c3.866 0 7-3.134 7-7s-3.134-7-7-7v-9c3.866 0 7-3.134 7-7s-3.134-7-7-7V4c0-2.21 1.79-4 4-4h98z"/>
        <g fill="#FFF">
            <path d="M69.537 18.488l-.523 2.052-.058.231c-.207.809-.614 1.393-1.802 1.393H63.65c-1.228 0-1.232-.658-1.079-1.257l.099-.386.503-1.976c.207-.805.536-1.51 1.725-1.51h3.683c1.248 0 1.163.646.957 1.453m.915-3.591H42.556l-1.564 6.12c-.205.81-.348 1.139-1.847 1.139H35.91c-1.498 0-1.474-.329-1.268-1.139l1.56-6.12h-2.507c-.918 0-1.466.4-1.678 1.228l-1.294 5.083c-.559 2.185.458 3.082 3.51 3.095l5.42.001c2.625 0 4.508-.526 5.162-3.096l1.04-4.082h4.912c-.158.616-1.54 5.955-1.544 5.963-.022.094-.115.54.176.878.197.223.508.337.93.337h1.068c.423 0 .795-.114 1.106-.34.46-.335.597-.787.623-.885.002-.006 1.382-5.337 1.539-5.953h5.061c-.108.256-.201.54-.282.858l-.79 3.097c-.607 2.378.527 3.223 3.104 3.223l6.037.002c2.851 0 4.289-.625 5.006-3.436l.691-2.71c.566-2.221.107-3.263-3.041-3.263M50.65 0c-8.835 0-12.893 1.641-15.529 3.277-2.635 1.635-5.445 3.528-8.808 3.727-3.638.214-8.661.22-12.256.894C5.943 9.414 1.467 13.864.296 15.924c-.116.184-.211.364-.296.541h6.824c1.303-1.777 3.454-4.16 7.138-5.038 4.928-1.177 10.479-.505 13.163-.925 2.322-.42 4.241-1.257 7.355-3.442 3.285-2.304 6.013-3.989 11.738-4.538 6.6-.636 20.108-.535 20.108-.535l.318-1.241S52.561 0 50.651 0M26.123 14.897h-8.99l-.06.452c-.101.781.498 1.693 2.523 1.693h4.949c1.475 0 1.451.329 1.249 1.14l-1.003 3.996h-5.83c-.422 0-1.11-.104-.935-.797.179-.712.91-.862 1.492-.862h3.5l2.12-2.115h-5.61c-4.124 0-5.097 2.101-5.321 3.005-.443 1.76.705 2.897 2.921 2.897h9.596c.903 0 1.444-.404 1.651-1.232l1.275-5.083c.645-2.571-.943-3.094-3.527-3.094M84.262 22.947h-3.854c-.726 0-1.223-.186-1.522-.571-.377-.488-.284-1.102-.18-1.52l1.185-4.798h5.937c.701 0 1.178.177 1.457.539.418.536.232 1.284.11 1.776l-.64 2.592c-.208.852-.698 1.982-2.493 1.982zm-8.832-1.631c-.254 1.03-.208 1.75.141 2.202.41.53 1.311.785 2.753.785l6.64.003c2.854 0 4.252-.503 4.99-3.492l.758-3.075c.297-1.197.348-1.842-.034-2.326-.451-.577-.918-.71-2.43-.71h-7.983l.737-3.02s.078-.32-.084-.512c-.136-.16-.41-.194-.617-.194h-1.176c-.347 0-.65.092-.897.28-.372.278-.477.654-.485.696l-2.313 9.363zM112.548 10.977c-.353 0-.662.092-.913.28-.38.28-.483.653-.493.694l-2.923 11.645c-.003.011-.078.326.084.516.137.16.418.194.628.194h1.194c.353 0 .66-.093.913-.278.39-.29.491-.688.495-.704L114.45 11.7c0-.007.083-.335-.08-.528-.14-.161-.42-.195-.629-.195h-1.193zM118.819 10.977c-.353 0-.66.092-.912.28-.38.279-.484.654-.494.696l-2.92 11.643c-.004.012-.082.325.083.516.137.16.417.194.627.194h1.195c.353 0 .66-.093.91-.278.392-.29.493-.685.497-.702l2.916-11.626c.004-.016.083-.336-.081-.528-.138-.161-.417-.195-.626-.195h-1.195zM107.083 15.766c-.44-.561-1.321-.869-2.482-.869H97.53c-2.763 0-4.107.437-4.757 3.036l-.895 3.585c-.23.921-.186 1.57.137 1.982.436.557 1.44.806 3.257.806h9.5l.007-.051c.023-.173.004-.434-.21-.677-.346-.392-1.08-.607-2.066-.607h-5.481c-.848 0-1.481-.088-1.81-.51-.33-.422-.199-.947-.084-1.41l.688-2.75c.157-.624.522-2.083 2.392-2.083h4.355c.648 0 1.11.17 1.377.509.148.19.299.522.176 1.022-.128.506-.577 1.355-2.164 1.355h-4.17l-1.3 1.302h5.457c4.2 0 5.166-2.06 5.388-2.945.173-.697.09-1.266-.244-1.695M126.231 7.84c-1.731 0-3.135 1.403-3.135 3.136s1.404 3.137 3.135 3.137c1.732 0 3.137-1.404 3.137-3.137s-1.405-3.135-3.137-3.135m1.579 3.136c0 .872-.706 1.579-1.579 1.579-.872 0-1.577-.707-1.577-1.58 0-.873.705-1.579 1.577-1.579.873 0 1.579.706 1.579 1.58" transform="rotate(-90 99.309 57.809)"/>
        </g>
    </g>
</svg>
