<svg xmlns="http://www.w3.org/2000/svg" width="19" height="17" viewBox="0 0 19 17">
    <path fill="#444" fill-rule="nonzero" d="M9.488 16.883c-.27 0-.53-.098-.733-.275-.767-.67-1.506-1.3-2.158-1.856l-.003-.003c-1.912-1.63-3.563-3.037-4.712-4.422C.598 8.777 0 7.308 0 5.703c0-1.56.535-2.998 1.505-4.05A5.103 5.103 0 0 1 5.301 0C6.397 0 7.4.346 8.283 1.03a6.1 6.1 0 0 1 1.205 1.258 6.1 6.1 0 0 1 1.206-1.259A4.773 4.773 0 0 1 13.676 0c1.465 0 2.813.587 3.795 1.652.971 1.053 1.506 2.492 1.506 4.051 0 1.605-.598 3.074-1.882 4.623-1.149 1.386-2.8 2.793-4.711 4.422-.654.557-1.394 1.188-2.162 1.86a1.114 1.114 0 0 1-.734.275zM5.301 1.112c-1.151 0-2.209.46-2.978 1.294-.781.847-1.212 2.018-1.212 3.297 0 1.35.502 2.557 1.627 3.914 1.087 1.312 2.704 2.69 4.576 4.286l.004.003c.655.557 1.397 1.19 2.169 1.865.777-.676 1.52-1.31 2.176-1.869 1.872-1.595 3.489-2.973 4.576-4.285 1.125-1.357 1.626-2.564 1.626-3.914 0-1.28-.43-2.45-1.21-3.297a4.003 4.003 0 0 0-2.98-1.294c-.843 0-1.617.268-2.301.797-.61.47-1.034 1.067-1.283 1.484a.696.696 0 0 1-.603.342.696.696 0 0 1-.602-.342c-.25-.417-.674-1.013-1.283-1.484A3.687 3.687 0 0 0 5.3 1.112z"/>
</svg>
