<svg xmlns="http://www.w3.org/2000/svg" xmlns:xlink="http://www.w3.org/1999/xlink" width="15" height="17" viewBox="0 0 15 17">
    <defs>
        <path id="a" d="M0 .004h12.91v16.99H0z"/>
    </defs>
    <g fill="none" fill-rule="evenodd">
        <g>
            <mask id="b" fill="#fff">
                <use xlink:href="#a"/>
            </mask>
            <path fill="#000" d="M2.386 10.156l-1.174 1.445c-.26.302-.428.537-.271.846.065.126.162.24.296.335l3.31 2.976c.337.243.829.54 1.383.258.132-.065.25-.153.345-.263l5.091-5.612c.441-.49.595-1.618.59-2.27l.068-5.997a.976.976 0 0 0-.108-.458c-.169-.325-.317-.365-.633-.547h-7.41a.972.972 0 0 0-.432.097c-.14.22-.278.355-.221.879l-.018 5.46c.034.478.079 1.002-.089 1.506-.17.502-.412.979-.727 1.344l-.338-.279.338.28zm1.677 6.212L.717 13.483a1.806 1.806 0 0 1-.568-.647c-.317-.609-.102-1.101.387-1.66l1.174-1.58c.21-.24.423-.637.561-1.054.062-.475.072-.859.047-1.174l.018-5.462c-.057-.739.074-1.404.706-1.712.249-.122.533-.19.83-.19h7.41c.745 0 1.113.282 1.425.888.133.257.206.684.204.99l-.069 5.998c-.024.935-.19 2.097-.799 2.818l-5.091 5.613c-.177.203-.391.363-.623.477-.665.325-1.368.319-2.266-.42z" mask="url(#b)"/>
        </g>
        <path fill="#000" d="M2.217 9.691c-.158-.166.128-.8.301-.95l8.77-7.635a.439.439 0 0 1 .601.027.395.395 0 0 1-.028.575l-9.043 8.01a.42.42 0 0 1-.102.066l-.664.204c-.165.075.11-.208.143-.506l.022.21z"/>
        <path fill="#000" d="M8.64 16.474l-1.231-.887a.412.412 0 0 1-.021-.593.436.436 0 0 1 .606-.02l1.24.896.01.009c.31.303.97.31 1.16.178a.99.99 0 0 0 .258-.182l3.199-3.146a.924.924 0 0 0-.024-1.35L3.134 1.723a.412.412 0 0 1-.017-.593.436.436 0 0 1 .606-.017l10.703 9.655a1.749 1.749 0 0 1 .044 2.55l-3.2 3.147a1.897 1.897 0 0 1-2.629.008"/>
    </g>
</svg>
