<svg xmlns="http://www.w3.org/2000/svg" width="70" height="96" viewBox="0 0 70 96">
    <g fill="none" fill-rule="evenodd" stroke-linecap="round" stroke-linejoin="round" stroke-width="3.6">
        <path stroke="#4C5772" d="M10.617 90.424H3.072C1.712 90.424.6 89.31.6 87.952v-37.37c0-1.36 1.114-2.472 2.473-2.472h7.545c1.36 0 2.472 1.113 2.472 2.472v37.37c0 1.36-1.113 2.472-2.472 2.472z" transform="translate(2 2)"/>
        <path stroke="#4C5772" d="M13.088 52.004s6.978.66 6.978-5.895c0-6.557 4.96-13.443 4.96-17.135 0-3.692.44-6.501 3.691-6.501 3.25 0 6.61 3.47 6.61 9.642 0 6.17-3.911 9.53 1.214 15.702M13.088 86.438s5.124.385 11.725 3.691c2.692 1.158 4.59 2.039 9.012 2.039h15.388c6.28 0 8.65-8.429 7.106-11.018M52.188 80.819c2.148 0 8.98-1.543 6.887-10.799M52.188 70.295s12.34 1.323 9.475-10.468M32.244 48.477L59.469 48.477M60.837 59.827L52.188 59.827M60.345 48.477c3.135 0 5.675 2.54 5.675 5.675s-2.54 5.675-5.675 5.675" transform="translate(2 2)"/>
        <path stroke="#3F64C3" d="M6.844 24.298L16.54 24.298M28.717.6L28.717 10.295M11.96 8.297L18.816 15.153M45.474 8.297L38.617 15.153M50.589 24.298L40.895 24.298" transform="translate(2 2)"/>
        <path stroke="#4C5772" d="M6.844 84.292L6.844 73.341" transform="translate(2 2)"/>
    </g>
</svg>
