<svg xmlns="http://www.w3.org/2000/svg" xmlns:xlink="http://www.w3.org/1999/xlink" width="50" height="85" viewBox="0 0 50 85">
    <defs>
        <path id="prefix__a" d="M0 0.24L49.329 0.24 49.329 85 0 85z"/>
    </defs>
    <g fill="none" fill-rule="evenodd">
        <g transform="translate(0 -1) translate(0 .76)">
            <mask id="prefix__b" fill="#fff">
                <use xlink:href="#prefix__a"/>
            </mask>
            <path fill="#4C5772" d="M30.816 6.874H18.512c-.828 0-1.5.67-1.5 1.5 0 .829.672 1.5 1.5 1.5h12.304c.828 0 1.5-.671 1.5-1.5 0-.83-.672-1.5-1.5-1.5zm15.513 71.71c0 1.884-1.532 3.416-3.415 3.416H6.416C4.532 82 3 80.468 3 78.585V6.655C3 4.773 4.532 3.24 6.416 3.24h36.498c1.883 0 3.415 1.532 3.415 3.416v71.929zM42.914.24H6.416C2.873.24 0 3.112 0 6.656v71.929C0 82.128 2.873 85 6.416 85h36.498c3.543 0 6.415-2.872 6.415-6.415V6.655c0-3.543-2.872-6.415-6.415-6.415z" mask="url(#prefix__b)"/>
        </g>
        <path fill="#3F64C3" d="M31.08 50.452l-1.157-3.173h2.176l-1.018 3.173zm-7.174-6.173l.743-2.02.749 2.02h-1.492zm-5.465 6.205l-1.024-3.205h2.19l-1.166 3.205zm21.793-6.205h-3.507l2.29-6.403h-3.904l-2.053 6.403h-4.232l-2.291-6.275h-3.552L20.7 44.279h-4.244l-2.048-6.403h-4.097l2.29 6.403H9.096v3h4.582l2.588 7.237h3.872l2.665-7.237h3.709l2.682 7.237h3.87l2.59-7.237h4.58v-3z" transform="translate(0 -1)"/>
    </g>
</svg>
