<svg xmlns="http://www.w3.org/2000/svg" width="15" height="17" viewBox="0 0 15 17">
    <path fill="#000" fill-rule="nonzero" d="M14.163 13.882c-2.049-1.78-2.927-4.083-2.938-7.7a4.192 4.192 0 0 0-1.24-2.948 4.076 4.076 0 0 0-1.128-.791v-.708C8.857.778 8.08 0 7.122 0c-.956 0-1.734.778-1.734 1.735v.75a4.06 4.06 0 0 0-2.26 3.629c0 1.865-.23 3.375-.704 4.617-.467 1.221-1.197 2.252-2.233 3.15a.51.51 0 0 0-.143.561.51.51 0 0 0 .476.33H4.58A2.417 2.417 0 0 0 6.986 17c1.269 0 2.31-.983 2.406-2.228h4.439a.51.51 0 0 0 .475-.33.51.51 0 0 0-.143-.56zM6.386 1.735a.737.737 0 0 1 1.473 0v.391a3.966 3.966 0 0 0-1.473.018v-.41zm.6 14.267a1.417 1.417 0 0 1-1.403-1.23H8.39a1.418 1.418 0 0 1-1.403 1.23zm-5.263-2.228a8.553 8.553 0 0 0 1.633-2.687c.519-1.358.77-2.984.77-4.973a3.059 3.059 0 0 1 3.025-3.05 2.978 2.978 0 0 1 2.133.88c.596.59.94 1.407.943 2.24.006 1.967.26 3.578.78 4.926a8.57 8.57 0 0 0 1.625 2.664H1.722z"/>
</svg>
