<svg xmlns="http://www.w3.org/2000/svg" width="49" height="65" viewBox="0 0 49 65">
    <g fill="none" fill-rule="evenodd">
        <path fill="#FFF" d="M29.395 49.932v14.72h-9.474v-14.72s1.21 2.838 4.664 2.838c3.453 0 4.81-2.838 4.81-2.838"/>
        <path fill="#FFE000" d="M19.774 48.134v16.518H.9v-7.843c0-3.65 3.461-8.675 9.106-8.675h9.77zM29.395 48.134v16.518H48.27v-7.843c0-3.65-3.46-8.675-9.105-8.675h-9.77z"/>
        <g>
            <path fill="#4C5772" d="M9.693 30.542c-.024-.3-.048-.6-.048-.9V24.11c-.12-.06-.216-.132-.276-.252-.024-.024-.3-.564-.624-1.464-1.643.624-2.735 2.208-2.735 3.96 0 2.148 1.608 3.912 3.683 4.188zm18.96 17.352v-3.888c-1.295.36-2.651.576-4.068.576-1.404 0-2.771-.216-4.067-.576v3.948c.036 2.22 1.848 4.008 4.067 4.008 2.244 0 4.069-1.824 4.069-4.068zm9.672-18.252v-7.836c0-1.776-1.344-4.284-1.907-5.256-3.252 1.104-7.308 1.704-11.485 1.704-4.212 0-8.315-.612-11.592-1.74-.623.684-2.28 2.7-2.496 5.328v7.8c0 7.572 6.169 13.74 13.74 13.74 7.573 0 13.74-6.168 13.74-13.74zm1.2-8.22C40.64 18.17 41.902 11.354 35.54 6.17L34.15 7.646c-.132.144-.336.216-.53.18-.191-.024-.358-.144-.443-.324-.011-.024-1.188-2.352-2.592-3.816-.635.468-1.86 1.464-2.46 2.484-.12.216-.36.336-.611.288-.241-.036-.433-.216-.493-.444 0-.024-.552-2.22-2.436-4.392-1.883 2.184-2.423 4.368-2.435 4.38-.061.24-.253.42-.492.456-.252.036-.481-.072-.613-.288-.6-1.02-1.824-2.016-2.46-2.484-1.404 1.464-2.58 3.792-2.592 3.816-.083.18-.252.3-.443.324-.192.024-.396-.036-.53-.18L13.63 6.17c-6.384 5.22-5.088 12.072-3.971 15.3.01-.072.035-.132.07-.192.482-3.456 2.94-5.796 3.049-5.904.168-.156.408-.192.612-.12 3.204 1.164 7.308 1.8 11.544 1.8 4.236 0 8.34-.636 11.544-1.8.264-.096.564 0 .708.24.096.144 1.896 3.024 2.269 5.484.048.084.07.168.07.264v.18zm-.048 9.12c2.077-.276 3.685-2.04 3.685-4.188 0-1.68-.996-3.204-2.544-3.876-.073-.036-.121-.084-.168-.132-.348.924-.625 1.476-.648 1.512-.061.12-.157.192-.277.24v5.544c0 .3-.023.6-.048.9zm9.396 26.736v6.624c0 .324-.276.6-.6.6-.336 0-.6-.276-.6-.6v-6.624c0-4.908-3.996-8.904-8.915-8.904l-8.904.12v15.408c0 .324-.265.6-.6.6-.325 0-.6-.276-.6-.6V51.218c-.048.072-.11.12-.157.18-.095.108-.191.204-.287.3-.144.132-.29.252-.444.372-.108.084-.204.168-.325.24-.168.108-.348.192-.527.288-.108.06-.217.12-.348.168-.204.084-.421.144-.637.204-.108.024-.204.072-.311.096-.337.06-.685.096-1.033.096-.348 0-.696-.036-1.031-.096-.11-.024-.204-.072-.313-.096-.216-.06-.431-.12-.635-.204-.133-.048-.24-.108-.348-.168-.181-.096-.361-.18-.53-.288-.118-.072-.214-.156-.322-.24-.156-.12-.3-.24-.444-.372-.096-.096-.193-.192-.29-.3-.047-.06-.106-.108-.154-.168v12.672c0 .324-.264.6-.6.6-.325 0-.6-.276-.6-.6V48.494l-8.916-.12c-4.91 0-8.905 3.996-8.905 8.904v6.624c0 .324-.264.6-.6.6-.324 0-.6-.276-.6-.6v-6.624c0-5.58 4.536-10.104 10.117-10.104l8.904.108v-3.684c-5.004-1.896-8.725-6.396-9.504-11.844-2.796-.228-5.004-2.544-5.004-5.4 0-2.268 1.427-4.308 3.552-5.1-1.13-3.804-2.03-11.028 4.956-16.368.24-.18.588-.156.803.072l1.2 1.26c.552-.972 1.608-2.676 2.808-3.756.204-.192.504-.204.733-.06.07.048 1.452.984 2.507 2.184.433-1.056 1.272-2.7 2.785-4.26.227-.24.635-.24.864 0 1.51 1.56 2.35 3.204 2.784 4.26 1.056-1.2 2.435-2.136 2.508-2.184.227-.144.527-.12.73.06 1.2 1.08 2.257 2.784 2.81 3.756l1.2-1.26c.216-.228.564-.252.804-.072 7.03 5.376 6.07 12.672 4.93 16.452.097-.012.205-.012.313.036 1.98.864 3.265 2.82 3.265 4.98 0 2.856-2.208 5.172-5.004 5.4-.781 5.448-4.5 9.948-9.504 11.844v3.684l8.904-.108c5.579 0 10.115 4.524 10.115 10.104z" transform="translate(0 .151)"/>
            <path fill="#FFF" d="M43.161 26.354c0 2.148-1.608 3.912-3.684 4.188.024-.3.048-.6.048-.9v-5.544c.12-.048.215-.12.276-.24.024-.036.3-.588.648-1.512.047.048.095.096.168.132 1.548.672 2.544 2.196 2.544 3.876" transform="translate(0 .151)"/>
            <path fill="#E9EBF2" d="M35.54 6.17c6.362 5.184 5.1 12 3.985 15.252v-.18c0-.096-.023-.18-.071-.264-.373-2.46-2.173-5.34-2.27-5.484-.143-.24-.443-.336-.707-.24-3.204 1.164-7.308 1.8-11.544 1.8-4.236 0-8.34-.636-11.544-1.8-.204-.072-.444-.036-.612.12-.108.108-2.567 2.448-3.048 5.904-.036.06-.06.12-.071.192-1.117-3.228-2.413-10.08 3.97-15.3l1.393 1.476c.133.144.337.204.529.18.19-.024.36-.144.443-.324.013-.024 1.188-2.352 2.592-3.816.636.468 1.86 1.464 2.46 2.484.132.216.36.324.613.288.239-.036.43-.216.492-.456.012-.012.552-2.196 2.435-4.38 1.884 2.172 2.436 4.368 2.436 4.392.06.228.252.408.493.444.252.048.492-.072.61-.288.6-1.02 1.826-2.016 2.46-2.484 1.405 1.464 2.582 3.792 2.593 3.816.085.18.252.3.444.324.193.036.396-.036.529-.18l1.39-1.476z" transform="translate(0 .151)"/>
            <path fill="#FFF" d="M20.302 24.842c0-1.032-.636-1.872-1.418-1.872-.778 0-1.414.84-1.414 1.872 0 1.044.636 1.872 1.414 1.872.782 0 1.418-.828 1.418-1.872m9.442 10.344c.158-.288.062-.648-.226-.816-.278-.168-.648-.072-.816.216-.852 1.464-2.426 2.376-4.118 2.376-1.692 0-3.262-.912-4.114-2.376-.168-.288-.542-.384-.816-.216-.288.168-.384.528-.228.816 1.066 1.836 3.036 2.976 5.158 2.976 2.112 0 4.092-1.14 5.16-2.976m1.958-10.344c0-1.032-.636-1.872-1.418-1.872-.778 0-1.414.84-1.414 1.872 0 1.044.636 1.872 1.414 1.872.782 0 1.418-.828 1.418-1.872m6.624-3.036v7.836c0 7.572-6.168 13.74-13.742 13.74-7.57 0-13.74-6.168-13.74-13.74v-7.8c.218-2.628 1.874-4.644 2.496-5.328 3.278 1.128 7.382 1.74 11.592 1.74 4.178 0 8.234-.6 11.486-1.704.562.972 1.908 3.48 1.908 5.256" transform="translate(0 .151)"/>
            <path fill="#4C5772" d="M30.285 22.97c.78 0 1.417.84 1.417 1.872 0 1.044-.637 1.872-1.417 1.872-.779 0-1.416-.828-1.416-1.872 0-1.032.637-1.872 1.416-1.872M29.517 34.37c.288.168.384.528.227.816-1.067 1.836-3.048 2.976-5.159 2.976-2.124 0-4.093-1.14-5.16-2.976-.156-.288-.06-.648.228-.816.276-.168.648-.072.816.216.852 1.464 2.423 2.376 4.116 2.376 1.692 0 3.264-.912 4.116-2.376.168-.288.54-.384.816-.216" transform="translate(0 .151)"/>
            <path fill="#FFF" d="M28.653 44.006v3.888c0 2.243-1.825 4.068-4.069 4.068-2.219 0-4.03-1.788-4.067-4.008v-3.948c1.296.36 2.663.575 4.067.575 1.417 0 2.773-.215 4.07-.575" transform="translate(0 .151)"/>
            <path fill="#4C5772" d="M18.885 22.97c.78 0 1.417.84 1.417 1.872 0 1.044-.637 1.872-1.417 1.872-.779 0-1.416-.828-1.416-1.872 0-1.032.637-1.872 1.416-1.872" transform="translate(0 .151)"/>
            <path fill="#FFF" d="M9.645 29.642c0 .3.025.6.048.9-2.075-.276-3.683-2.04-3.683-4.188 0-1.752 1.092-3.336 2.735-3.96.325.9.6 1.44.625 1.464.059.12.155.192.275.252v5.532z" transform="translate(0 .151)"/>
        </g>
    </g>
</svg>
