<svg xmlns="http://www.w3.org/2000/svg" xmlns:xlink="http://www.w3.org/1999/xlink" width="25" height="25" viewBox="0 0 25 25">
    <defs>
        <path id="a" d="M0 0h24.951v25H0z"/>
    </defs>
    <g fill="none" fill-rule="evenodd">
        <g>
            <mask id="b" fill="#fff">
                <use xlink:href="#a"/>
            </mask>
            <path fill="#FFF" d="M6.213 16.199l-2.718 1.522.287-2.955a.733.733 0 0 0-.203-.582 7.466 7.466 0 0 1-2.117-5.168 7.45 7.45 0 0 1 2.176-5.333 7.419 7.419 0 0 1 5.305-2.218c1.986 0 3.857.772 5.267 2.174a7.506 7.506 0 0 1 1.435 1.986c-2.239.09-4.334 1-5.934 2.59a8.912 8.912 0 0 0-2.644 6.283 8.989 8.989 0 0 0 .157 1.758 7.369 7.369 0 0 1-.444-.119.73.73 0 0 0-.567.062zm14.956 4.184l.287 2.955-2.718-1.522a.73.73 0 0 0-.567-.062 7.475 7.475 0 0 1-2.417.314 7.42 7.42 0 0 1-5.14-2.31A7.464 7.464 0 0 1 8.53 14.51a7.455 7.455 0 0 1 2.212-5.255 7.427 7.427 0 0 1 5.268-2.174c2.004 0 3.888.788 5.305 2.218a7.45 7.45 0 0 1 2.175 5.333 7.466 7.466 0 0 1-2.117 5.168.734.734 0 0 0-.203.582zm1.487.187a8.925 8.925 0 0 0 2.295-5.926 8.908 8.908 0 0 0-2.6-6.376 8.87 8.87 0 0 0-5.072-2.56 8.94 8.94 0 0 0-2.039-3.11A8.878 8.878 0 0 0 8.943 0 8.87 8.87 0 0 0 2.6 2.651 8.908 8.908 0 0 0 0 9.027a8.925 8.925 0 0 0 2.295 5.926l-.3 3.09A1.218 1.218 0 0 0 3.8 19.227l2.861-1.601c.335.088.674.156 1.016.205a8.99 8.99 0 0 0 1.88 2.94 8.873 8.873 0 0 0 6.147 2.761 8.952 8.952 0 0 0 2.584-.29l2.86 1.602a1.215 1.215 0 0 0 1.262-.044c.38-.25.59-.686.546-1.14l-.301-3.09z" mask="url(#b)"/>
        </g>
        <path fill="#FFF" d="M12.454 12.288h2.776c.403 0 .73-.316.73-.706a.719.719 0 0 0-.73-.706h-2.776a.719.719 0 0 0-.73.706c0 .39.326.706.73.706M19.609 13.7h-7.156a.719.719 0 0 0-.73.707c0 .39.327.706.73.706h7.156c.403 0 .73-.316.73-.706a.719.719 0 0 0-.73-.706M19.609 16.667h-7.156a.719.719 0 0 0-.73.706c0 .39.327.706.73.706h7.156c.403 0 .73-.316.73-.706a.719.719 0 0 0-.73-.706"/>
    </g>
</svg>
