<svg xmlns="http://www.w3.org/2000/svg" xmlns:xlink="http://www.w3.org/1999/xlink" width="48" height="39" viewBox="0 0 48 39">
    <defs>
        <path id="prefix__a" d="M0.001 0.898L47.944 0.898 47.944 39.6 0.001 39.6z"/>
    </defs>
    <g fill="none" fill-rule="evenodd">
        <path fill="#FFF" d="M35.953 1.59c-8.737 0-11.981 9.249-11.981 9.249s-3.244-9.25-11.981-9.25C3.252 1.59.37 10.573.37 14.092c0 3.52 3.283 16.4 23.6 25.14 20.319-8.74 23.601-21.62 23.601-25.14 0-3.519-2.883-12.501-11.619-12.501" transform="translate(0 -1)"/>
        <g transform="translate(0 -1) translate(0 .203)">
            <mask id="prefix__b" fill="#fff">
                <use xlink:href="#prefix__a"/>
            </mask>
            <path fill="#4C5772" d="M38.937 29.733L36.58 32.09v-6.856c0-1.122-.91-2.032-2.032-2.032-1.123 0-2.033.91-2.033 2.032v6.856l-2.355-2.357c-.795-.794-2.08-.794-2.875 0-.793.793-.793 2.082 0 2.875l5.826 5.825c.397.397.917.595 1.437.595s1.04-.198 1.437-.595l5.827-5.825c.794-.793.794-2.082 0-2.875-.794-.794-2.08-.794-2.875 0m-10.934 6.68c-1.283.693-2.639 1.375-4.03 2.03C5.077 29.545 1.1 19.788 1.1 13.16c0-6.155 5.006-11.161 11.16-11.161 6.155 0 11.162 5.006 11.162 11.16 0 .304.245.55.55.55.303 0 .55-.246.55-.55 0-6.154 5.005-11.16 11.16-11.16 6.154 0 11.16 5.006 11.16 11.16 0 4.678-1.92 9.199-5.705 13.438-.202.227-.182.575.044.777.227.201.575.183.777-.044 3.97-4.448 5.985-9.215 5.985-14.17 0-6.761-5.5-12.261-12.262-12.261-5.494 0-10.157 3.633-11.71 8.625C22.42 4.531 17.758.898 12.263.898 5.5.898 0 6.398 0 13.158c0 6.977 4.118 17.219 23.739 26.39.073.035.153.052.233.052.08 0 .158-.017.232-.051 1.493-.698 2.946-1.426 4.32-2.166.267-.144.367-.478.223-.746-.145-.268-.479-.365-.745-.223" mask="url(#prefix__b)"/>
        </g>
    </g>
</svg>
