<svg xmlns="http://www.w3.org/2000/svg" xmlns:xlink="http://www.w3.org/1999/xlink" width="45" height="49" viewBox="0 0 45 49">
    <defs>
        <path id="prefix__a" d="M0 0.595L44.478 0.595 44.478 49.5 0 49.5z"/>
    </defs>
    <g fill="none" fill-rule="evenodd">
        <path fill="#FFF" d="M15.962 15.324v12.39l-5.518-5.268s-4.381-2.54-7.479.249c-3.098 2.788-3.471 5.948-.868 8.985C4.7 34.716 19.262 48.72 19.262 48.72s1.123.682 3.346.744c0 0 2.276-.265 5.267-2.726 2.99-2.463 15.059-15.554 15.059-15.554s2.974-3.47-1.117-8.117c-4.09-4.649-9.047.928-11.835 3.655l-1.487.991.022-12.39H15.962z" transform="translate(0 -1)"/>
        <g transform="translate(0 -1) translate(0 .505)">
            <mask id="prefix__b" fill="#fff">
                <use xlink:href="#prefix__a"/>
            </mask>
            <path fill="#4C5772" d="M18.418 8.607H12.12V5.876h5.717V4.462H12.12V2.007h6.006V.595h-7.681v9.425h7.735l.238-1.413zm5.794 1.413l2.416-7.287 2.39 7.287h1.834L34.033.595h-1.795l-2.284 7.433-2.442-7.38h-1.69L23.395 8 21.124.595h-1.862l3.182 9.425h1.768zM42.478 22.5c-2.659-2.66-6.99-2.66-9.655 0l-3.755 3.756v-10.89c0-.303-.247-.55-.55-.55-.305 0-.55.247-.55.55v12.217c0 .224.134.424.339.509.204.084.443.038.6-.12L33.6 23.28c2.234-2.232 5.867-2.23 8.1 0 1.08 1.082 1.677 2.52 1.677 4.05 0 1.531-.596 2.97-1.678 4.052L26.357 46.723c-1.082 1.082-2.52 1.677-4.05 1.677-1.529 0-2.968-.595-4.05-1.677L2.777 31.244c-1.08-1.082-1.677-2.52-1.677-4.05 0-1.53.597-2.969 1.678-4.051 2.232-2.232 5.864-2.234 8.1 0l4.695 4.697c.16.157.395.202.6.118.205-.084.34-.284.34-.508V15.368c0-.304-.247-.55-.55-.55-.305 0-.55.246-.55.55v10.755l-3.757-3.758c-2.663-2.66-6.995-2.659-9.656 0-1.29 1.29-2 3.005-2 4.829 0 1.824.71 3.539 2 4.828l15.478 15.48c1.29 1.288 3.005 1.998 4.83 1.998 1.823 0 3.538-.71 4.827-1.999l15.343-15.343c1.29-1.289 2-3.004 2-4.829 0-1.824-.71-3.538-2-4.828z" mask="url(#prefix__b)"/>
        </g>
    </g>
</svg>
