<svg xmlns="http://www.w3.org/2000/svg" xmlns:xlink="http://www.w3.org/1999/xlink" width="116" height="105" viewBox="0 0 116 105">
    <defs>
        <path id="b" d="M0 0h70v44H0z"/>
        <path id="a" d="M70 32h46v46H70z"/>
        <mask id="d" width="46" height="46" x="0" y="0" fill="#fff">
            <use xlink:href="#a"/>
        </mask>
    </defs>
    <g fill="none" fill-rule="evenodd" transform="translate(0 -11)">
        <path fill="#7892D5" stroke="#3F64C3" stroke-width="2" d="M1 32h44v44H1z"/>
        <g transform="translate(24)">
            <mask id="c" fill="#fff">
                <use xlink:href="#b"/>
            </mask>
            <path fill="#3F64C3" d="M55.973 25.15l-3.594-12.3a.662.662 0 0 0-.56-.47.652.652 0 0 0-.647.336l-2.036 3.711c-8.77-7.235-21.503-7.237-30.273-.001l-2.034-3.71a.655.655 0 0 0-.648-.336.66.66 0 0 0-.559.47l-3.595 12.3a.654.654 0 0 0 .167.654.653.653 0 0 0 .65.17l12.23-3.616a.659.659 0 0 0 .47-.564.655.655 0 0 0-.336-.65l-2.924-1.62c6.9-5.285 16.53-5.285 23.43 0l-2.922 1.62a.66.66 0 0 0-.336.65.66.66 0 0 0 .468.564l12.231 3.616a.653.653 0 0 0 .65-.17.655.655 0 0 0 .168-.653" mask="url(#c)"/>
        </g>
        <use fill="#FFF" stroke="#3F64C3" stroke-dasharray="8,8" stroke-width="4" mask="url(#d)" xlink:href="#a"/>
        <g fill-rule="nonzero">
            <path fill="#000" d="M41.05 79.363h-.087a4.76 4.76 0 0 0-3.184 1.196c-.708-1.933-2.506-3.323-4.612-3.323a4.814 4.814 0 0 0-3.418 1.452c-.822-1.644-2.472-2.76-4.368-2.76h-.092a4.523 4.523 0 0 0-2.813.926V65.136c0-2.832-2.233-5.136-4.949-5.136-2.712 0-4.934 2.302-4.935 5.132l-.023 23.25-1.333-1.598a6.748 6.748 0 0 0-4.75-2.463 6.664 6.664 0 0 0-4.954 1.731l-1.159.949a1.01 1.01 0 0 0-.257 1.253l11.273 21.397c2.062 3.91 5.983 6.349 10.235 6.349H34.33v-.01c6.441 0 11.664-5.52 11.67-12.297.003-3.032-.009-5.292-.007-7.124.007-4.9.002-6.708-.01-12.107-.007-2.826-2.224-5.099-4.933-5.099z"/>
            <path fill="#FFF" d="M43.916 96.562l-.008 7.134c-.006 5.656-4.33 10.268-9.64 10.268H21.625c-3.48 0-6.702-2.02-8.406-5.254L2.329 88.048l.538-.442.04-.036a4.61 4.61 0 0 1 3.434-1.218 4.695 4.695 0 0 1 3.3 1.725l3.155 3.79c.275.333.733.458 1.143.313.41-.144.683-.528.683-.957l.019-26.09c0-1.708 1.31-3.098 2.887-3.098 1.579 0 2.887 1.391 2.887 3.1v15.731l-.002.166.002.071v6.726c0 .562.462 1.017 1.03 1.017.57 0 1.031-.455 1.031-1.017V80.9c0-1.648 1.276-2.936 2.813-2.936h.092c1.579 0 2.893 1.36 2.893 3.069v6.154c0 .562.461 1.017 1.03 1.017.57 0 1.031-.455 1.031-1.017v-4.829c0-1.71 1.251-3.1 2.839-3.1 1.578 0 2.83 1.39 2.83 3.1v4.556c0 .562.461 1.017 1.03 1.017.57 0 1.03-.455 1.03-1.017v-2.467c0-1.71 1.32-3.048 2.9-3.048h.085c1.576 0 2.86 1.36 2.863 3.065.013 5.395.01 7.201.004 12.098z"/>
            <path fill="#000" d="M10.008 65a1.01 1.01 0 0 0 1.008-1.01c.016-3.856 3.139-6.973 6.984-6.973 3.846 0 6.968 3.117 6.984 6.973 0 .558.452 1.01 1.008 1.01A1.01 1.01 0 0 0 27 63.99c-.019-4.97-4.042-8.99-9-8.99-4.957 0-8.981 4.02-9 8.99 0 .558.451 1.01 1.008 1.01z"/>
        </g>
    </g>
</svg>
