<svg xmlns="http://www.w3.org/2000/svg" xmlns:xlink="http://www.w3.org/1999/xlink" width="94" height="93" viewBox="0 0 94 93">
    <defs>
        <path id="a" d="M.034.125H30.45v1.89H.034z"/>
        <path id="c" d="M0 .018h82.964V64.67H0z"/>
        <path id="e" d="M0 .01h82.878V69H0z"/>
        <path id="g" d="M0 .01h82.878v9.876H0z"/>
        <path id="i" d="M0 69h83V0H0z"/>
    </defs>
    <g fill="none" fill-rule="evenodd">
        <path fill="#D6D6D6" d="M61.525 79H43.442L42 90h21z"/>
        <g transform="translate(37.24 90.128)">
            <mask id="b" fill="#fff">
                <use xlink:href="#a"/>
            </mask>
            <path fill="#CCC" d="M.034 2.015C.032.971.811.125 1.774.125h26.931c.962 0 1.743.846 1.745 1.89H.034z" mask="url(#b)"/>
        </g>
        <g transform="translate(11 15)">
            <mask id="d" fill="#fff">
                <use xlink:href="#c"/>
            </mask>
            <path fill="#242424" d="M80.984.018H2.208C1.111.018.218.916.214 2.024L0 62.664a1.989 1.989 0 0 0 1.98 2.006h78.776c1.098 0 1.99-.898 1.995-2.006l.213-60.64a1.988 1.988 0 0 0-1.98-2.006" mask="url(#d)"/>
        </g>
        <path fill="#333838" d="M89.657 20.168H15.5l-.192 54.352h74.159z"/>
        <path fill="gray" d="M53.248 17.486c0 .438-.298.793-.663.793-.365 0-.66-.355-.659-.793.002-.437.3-.792.664-.792.366 0 .66.355.658.792"/>
        <g>
            <mask id="f" fill="#fff">
                <use xlink:href="#e"/>
            </mask>
            <path fill="#FFF" d="M79.163.01H3.715A3.722 3.722 0 0 0 0 3.74v61.532A3.722 3.722 0 0 0 3.715 69h75.448a3.722 3.722 0 0 0 3.715-3.729V3.74A3.722 3.722 0 0 0 79.163.01" mask="url(#f)"/>
            <mask id="h" fill="#fff">
                <use xlink:href="#g"/>
            </mask>
            <path fill="gray" d="M82.878 9.886V2.129c0-1.17-1.202-2.118-2.684-2.118H2.684C1.202.01 0 .959 0 2.129v7.757h82.878z" mask="url(#h)"/>
            <path fill="#FF2844" d="M3 5a2 2 0 1 0 4 0 2 2 0 0 0-4 0"/>
            <path fill="#FFC700" d="M8 5a2 2 0 1 0 4 0 2 2 0 0 0-4 0"/>
            <path fill="#39B54A" d="M13 5a2 2 0 1 0 4 0 2 2 0 0 0-4 0"/>
            <mask id="j" fill="#fff">
                <use xlink:href="#i"/>
            </mask>
            <path fill="#E2E2E2" d="M20 39h42v-7H20z" mask="url(#j)"/>
            <path fill="#B3B3B3" d="M23 35.153V34h.354v1.16c0 .472.283.62.646.62.37 0 .66-.148.66-.62V34H25v1.153c0 .63-.431.847-1 .847-.568 0-1-.217-1-.847M25 35.735l.113-.212c.118.133.237.226.4.226.178 0 .266-.134.266-.296 0-.196-.16-.283-.31-.361-.19-.098-.404-.23-.404-.55 0-.306.174-.542.468-.542.169 0 .316.097.421.214l-.11.207c-.093-.097-.189-.17-.309-.17-.17 0-.249.128-.249.274 0 .18.147.25.3.33.196.104.414.216.414.578 0 .31-.175.567-.494.567-.193 0-.379-.115-.506-.265M27.824 34.846c0-.382-.106-.59-.29-.59-.166 0-.314.216-.339.59h.629zm-.824.156c0-.62.258-1.002.53-1.002.3 0 .47.35.47.894 0 .068-.004.136-.01.183h-.793c.014.404.167.666.392.666.113 0 .206-.059.293-.152l.071.211c-.103.11-.229.198-.389.198-.314 0-.564-.372-.564-.998zM29 34.048h.254l.026.356h.01c.126-.248.312-.404.516-.404.08 0 .137.01.194.04l-.057.29a.476.476 0 0 0-.177-.032c-.153 0-.336.118-.459.449V36H29v-1.952zM30 34.048h.175l.017.282h.008c.119-.184.247-.33.419-.33.263 0 .381.265.381.763V36h-.212v-1.194c0-.364-.07-.52-.235-.52-.128 0-.216.103-.342.3V36H30v-1.952zM32.784 35.488v-.53c-.428.077-.572.234-.572.477 0 .217.098.305.223.305.124 0 .225-.09.349-.252m-.784-.03c0-.415.24-.623.784-.711 0-.245-.055-.481-.264-.481-.147 0-.28.104-.38.204l-.085-.221c.118-.115.297-.249.502-.249.311 0 .443.31.443.784v1.169h-.178l-.019-.228h-.007c-.122.151-.264.275-.422.275-.214 0-.374-.198-.374-.542M34 34.048h.202l.021.283h.008c.127-.185.279-.331.451-.331.221 0 .34.143.4.372.15-.22.301-.372.477-.372.298 0 .441.265.441.763V36h-.245v-1.194c0-.364-.085-.52-.27-.52-.112 0-.228.1-.362.3V36h-.246v-1.194c0-.364-.085-.52-.269-.52-.109 0-.229.1-.363.3V36H34v-1.952zM36.824 34.846c0-.382-.106-.59-.29-.59-.166 0-.314.216-.339.59h.629zm-.824.156c0-.62.258-1.002.53-1.002.3 0 .47.35.47.894 0 .068-.004.136-.01.183h-.793c.014.404.167.666.392.666.113 0 .206-.059.293-.152l.071.211c-.103.11-.229.198-.389.198-.314 0-.564-.372-.564-.998z" mask="url(#j)"/>
            <path fill="#E2E2E2" d="M20 48h42v-7H20z" mask="url(#j)"/>
            <path fill="#B3B3B3" d="M24.417 45c.265 0 .39-.127.39-.411 0-.289-.133-.383-.4-.383h-.215V45h.225zM24 44h.432c.34 0 .568.15.568.589 0 .42-.228.618-.559.618h-.249V46H24v-2zM25.784 45.488v-.53c-.428.077-.572.234-.572.477 0 .217.098.305.223.305.124 0 .225-.09.349-.252m-.784-.03c0-.415.24-.623.784-.711 0-.245-.055-.481-.263-.481-.148 0-.281.104-.381.204l-.085-.221c.118-.115.297-.249.502-.249.311 0 .443.31.443.784v1.169h-.178l-.019-.228h-.007c-.121.151-.264.275-.422.275-.214 0-.374-.198-.374-.542M27 45.735l.113-.212c.118.133.237.226.4.226.178 0 .266-.133.266-.296 0-.196-.16-.283-.31-.361-.19-.098-.404-.23-.404-.55 0-.306.174-.542.468-.542.169 0 .316.097.421.214l-.11.207c-.093-.097-.189-.17-.309-.17-.17 0-.249.128-.249.274 0 .18.147.25.3.33.196.104.414.216.414.578 0 .31-.175.567-.494.567-.193 0-.379-.115-.506-.265M28 45.735l.113-.212c.118.133.237.226.4.226.178 0 .266-.133.266-.296 0-.196-.16-.283-.31-.361-.19-.098-.404-.23-.404-.55 0-.306.174-.542.468-.542.169 0 .316.097.421.214l-.11.207c-.093-.097-.189-.17-.309-.17-.17 0-.249.128-.249.274 0 .18.147.25.3.33.196.104.414.216.414.578 0 .31-.175.567-.494.567-.193 0-.379-.115-.506-.265M30 44h.25l.216 1.155c.031.19.058.37.086.558h.012c.031-.188.063-.37.099-.558L30.887 44h.239l.226 1.155c.036.19.067.37.101.558h.012c.031-.188.058-.368.09-.558L31.766 44H32l-.39 2h-.298l-.21-1.075c-.034-.189-.062-.373-.097-.576h-.012c-.031.203-.06.392-.1.582L30.69 46h-.287L30 44zM33.623 45.002c0-.436-.252-.733-.623-.733s-.623.297-.623.733c0 .437.252.73.623.73s.623-.293.623-.73m-1.623 0c0-.635.471-1.002 1-1.002s1 .367 1 1.002c0 .631-.471.998-1 .998s-1-.367-1-.998M34 44.048h.254l.026.356h.01c.126-.248.312-.404.516-.404.08 0 .137.01.194.04l-.057.29a.475.475 0 0 0-.176-.032c-.154 0-.337.118-.46.449V46H34v-1.952zM35.807 45.439v-1.055c-.098-.153-.186-.21-.28-.21-.182 0-.327.31-.327.77 0 .482.113.77.314.77.105 0 .197-.091.293-.275M35 44.946c0-.652.234-1.058.494-1.058.133 0 .22.088.32.233l-.007-.345V43H36v2.95h-.16l-.016-.237h-.007c-.088.156-.21.287-.346.287-.286 0-.471-.383-.471-1.054" mask="url(#j)"/>
            <path fill="#303030" d="M52.316 65H29.684c-.378 0-.684-.285-.684-.638v-4.724c0-.352.306-.638.684-.638h22.632c.378 0 .684.286.684.638v4.724c0 .353-.306.638-.684.638" mask="url(#j)"/>
            <path fill="#FFF" d="M34 63.57l.22-.253c.209.217.498.359.8.359.38 0 .605-.189.605-.47 0-.296-.21-.39-.483-.51l-.416-.183c-.27-.115-.587-.32-.587-.745 0-.442.386-.768.912-.768.343 0 .65.149.853.358l-.196.237a.925.925 0 0 0-.657-.271c-.325 0-.54.163-.54.422 0 .28.253.383.48.479l.412.179c.335.144.597.343.597.774 0 .457-.378.822-.987.822-.406 0-.76-.166-1.013-.43M36.793 64h.414v-3h-.414zM38 62.503c0-.934.51-1.503 1.208-1.503.365 0 .605.182.76.357l-.185.24c-.133-.152-.302-.273-.566-.273-.53 0-.871.448-.871 1.169 0 .727.313 1.183.874 1.183.19 0 .37-.062.475-.17v-.753h-.558v-.306H40v1.217c-.17.194-.458.336-.811.336-.695 0-1.189-.558-1.189-1.497M41 61h.37l1.016 1.886.303.621h.017c-.018-.302-.046-.64-.046-.954V61H43v3h-.37l-1.016-1.888-.303-.62h-.017c.018.304.046.624.046.938V64H41v-3zM45.793 64h.414v-3h-.414zM47 61h.37l1.016 1.886.303.621h.017c-.018-.302-.046-.64-.046-.954V61H49v3h-.37l-1.016-1.888-.303-.62h-.017c.018.304.045.624.045.938V64H47v-3z" mask="url(#j)"/>
            <path fill="#E2E2E2" d="M49 20.5a7.5 7.5 0 1 1-15 0 7.5 7.5 0 0 1 15 0" mask="url(#j)"/>
            <path fill="#B3B3B3" d="M42.933 22.31a3.498 3.498 0 0 0 1.427-2.834c0-1.92-1.518-3.476-3.39-3.476s-3.39 1.557-3.39 3.476c0 1.179.573 2.22 1.447 2.848-1.66.611-2.856 1.971-3.027 3.587A7.045 7.045 0 0 0 41 28c1.946 0 3.71-.797 5-2.09-.172-1.627-1.386-2.996-3.067-3.6" mask="url(#j)"/>
            <path fill="#999" d="M23.416 51.085l.144-.132L24 52h-.208l-.376-.915zm.01-.137c.224 0 .348-.126.348-.385 0-.263-.124-.357-.348-.357h-.242v.742h.242zM23 50h.452c.294 0 .505.146.505.563 0 .4-.21.592-.505.592h-.268V52H23v-2zM24.824 51.423c0-.19-.106-.295-.29-.295a.33.33 0 0 0-.339.295h.629zm-.824.078c0-.31.258-.501.53-.501.3 0 .47.174.47.447a.42.42 0 0 1-.01.092h-.793c.014.202.167.333.392.333.113 0 .206-.03.293-.077l.071.106a.81.81 0 0 1-.389.099c-.314 0-.564-.186-.564-.499zM26 51.024h.203l.02.142h.008a.769.769 0 0 1 .45-.166c.222 0 .341.072.4.186.151-.11.302-.186.479-.186.297 0 .44.133.44.382V52h-.245v-.597c0-.182-.085-.26-.27-.26-.112 0-.228.05-.362.15V52h-.245v-.597c0-.182-.086-.26-.27-.26-.108 0-.229.05-.363.15V52H26v-.976zM28.824 51.423c0-.19-.106-.295-.29-.295a.33.33 0 0 0-.339.295h.629zm-.824.078c0-.31.259-.501.53-.501.3 0 .47.174.47.447a.412.412 0 0 1-.01.092h-.793c.014.202.167.333.392.333.113 0 .206-.03.293-.077l.071.106a.81.81 0 0 1-.389.099c-.314 0-.564-.186-.564-.499z" mask="url(#j)"/>
            <path fill="#999" d="M29 51.024h.202l.021.142h.008a.769.769 0 0 1 .45-.166c.222 0 .341.072.4.186.151-.11.302-.186.478-.186.298 0 .441.133.441.382V52h-.245v-.597c0-.182-.085-.26-.27-.26-.112 0-.228.05-.362.15V52h-.246v-.597c0-.182-.085-.26-.27-.26-.108 0-.228.05-.362.15V52H29v-.976zM31.8 51.278c0-.297-.086-.495-.301-.495-.097 0-.197.062-.306.183v.703c.1.102.203.14.279.14.189 0 .328-.2.328-.531m-.62.55h-.007l-.018.139H31V50h.193v.538l-.006.24c.105-.105.232-.186.359-.186.295 0 .454.269.454.683 0 .458-.234.725-.495.725-.106 0-.225-.064-.326-.172M33.824 51.423c0-.19-.106-.295-.29-.295a.33.33 0 0 0-.339.295h.629zm-.824.078c0-.31.259-.501.53-.501.3 0 .47.174.47.447a.421.421 0 0 1-.01.092h-.793c.014.202.167.333.392.333.113 0 .206-.03.293-.077l.071.106a.81.81 0 0 1-.389.099c-.314 0-.564-.186-.564-.499z" mask="url(#j)"/>
            <path fill="#999" d="M34 51.024h.254l.026.178h.01a.738.738 0 0 1 .516-.202.75.75 0 0 1 .194.02l-.057.145a.91.91 0 0 0-.177-.016.566.566 0 0 0-.459.224V52H34v-.976zM35 51.024h.203l.02.142h.008a.77.77 0 0 1 .45-.166c.222 0 .34.072.4.186.151-.11.302-.186.478-.186.298 0 .441.133.441.382V52h-.245v-.597c0-.182-.085-.26-.27-.26-.112 0-.229.05-.362.15V52h-.246v-.597c0-.182-.085-.26-.269-.26-.109 0-.229.05-.363.15V52H35v-.976z" mask="url(#j)"/>
            <path fill="#999" d="M37.824 51.423c0-.19-.106-.295-.29-.295a.33.33 0 0 0-.339.295h.629zm-.824.078c0-.31.258-.501.53-.501.3 0 .47.174.47.447a.421.421 0 0 1-.01.092h-.793c.014.202.167.333.392.333.113 0 .206-.03.293-.077l.071.106a.81.81 0 0 1-.389.099c-.314 0-.564-.186-.564-.499z" mask="url(#j)"/>
            <path fill="#29ABE2" d="M44 50h1v.216h-.78v.674h.662v.215h-.661V52H44zM45.811 51.501c0-.218-.125-.367-.311-.367s-.311.149-.311.367c0 .219.125.365.31.365.187 0 .312-.146.312-.365m-.811 0c0-.318.235-.501.5-.501.264 0 .5.183.5.501a.482.482 0 0 1-.5.499.482.482 0 0 1-.5-.499" mask="url(#j)"/>
            <path fill="#29ABE2" d="M46 51.024h.254l.026.178h.01a.738.738 0 0 1 .516-.202.75.75 0 0 1 .194.02l-.058.145a.908.908 0 0 0-.176-.016.566.566 0 0 0-.459.224V52H46v-.976zM47.68 50.48c0-.196-.103-.315-.231-.315s-.231.117-.231.315c0 .196.106.32.231.32.126 0 .231-.124.231-.32m.14 1.088c0-.124-.077-.167-.22-.167h-.187a.512.512 0 0 1-.142-.02.298.298 0 0 0-.11.226c0 .145.117.236.315.236.207 0 .344-.134.344-.275m-.82.07c0-.114.06-.223.16-.304v-.01a.266.266 0 0 1-.098-.222c0-.111.063-.2.12-.25v-.01a.514.514 0 0 1-.141-.362c0-.295.187-.48.408-.48.06 0 .114.015.154.033h.38v.176h-.224a.442.442 0 0 1 .088.277c0 .288-.176.467-.398.467a.328.328 0 0 1-.162-.046.212.212 0 0 0-.07.16c0 .085.046.146.191.146h.212c.253 0 .38.098.38.321 0 .25-.214.466-.55.466-.266 0-.45-.13-.45-.361M49.811 51.501c0-.218-.125-.367-.311-.367s-.311.149-.311.367c0 .219.125.365.31.365.187 0 .312-.146.312-.365m-.811 0c0-.318.235-.501.5-.501.264 0 .5.183.5.501a.482.482 0 0 1-.5.499.482.482 0 0 1-.5-.499M50.24 51.488v-.847H50v-.196l.253-.015.032-.43h.229v.43h.437v.21h-.437v.853c0 .187.063.296.25.296.057 0 .131-.02.183-.041l.053.195c-.09.03-.199.057-.3.057-.343 0-.46-.207-.46-.512M51.417 51c.265 0 .39-.126.39-.411 0-.289-.133-.383-.4-.383h-.215V51h.225zM51 50h.432c.339 0 .568.15.568.589 0 .42-.228.618-.559.618h-.249V52H51v-2zM53.784 51.744v-.265c-.428.039-.573.117-.573.239 0 .108.099.152.224.152.124 0 .226-.045.35-.126M53 51.729c0-.208.24-.311.784-.356 0-.122-.055-.24-.263-.24a.862.862 0 0 0-.381.102l-.085-.11c.118-.058.297-.125.502-.125.311 0 .443.155.443.392v.584h-.178l-.019-.114h-.007a.806.806 0 0 1-.422.138c-.214 0-.374-.099-.374-.27" mask="url(#j)"/>
            <path fill="#29ABE2" d="M54 51.868l.113-.106a.767.767 0 0 0 .4.112c.178 0 .266-.066.266-.147 0-.099-.16-.142-.31-.181-.19-.049-.403-.115-.403-.275 0-.153.173-.271.467-.271a.88.88 0 0 1 .421.107l-.11.103a.647.647 0 0 0-.308-.084c-.171 0-.25.064-.25.136 0 .09.147.125.3.166.196.051.414.107.414.289 0 .154-.175.283-.494.283-.193 0-.379-.057-.506-.132M55 51.868l.113-.106a.767.767 0 0 0 .4.112c.178 0 .267-.066.267-.147 0-.099-.16-.142-.31-.181-.19-.049-.404-.115-.404-.275 0-.153.173-.271.467-.271a.88.88 0 0 1 .421.107l-.11.103a.647.647 0 0 0-.308-.084c-.171 0-.25.064-.25.136 0 .09.148.125.3.166.196.051.414.107.414.289 0 .154-.175.283-.494.283-.193 0-.379-.057-.506-.132M56 51h.25l.216.578c.031.095.059.185.086.279h.012c.031-.094.063-.186.099-.28l.224-.577h.24l.225.578c.036.095.067.185.101.279h.012c.032-.094.058-.184.09-.28l.211-.577H58l-.389 1h-.299l-.209-.537c-.035-.095-.063-.187-.098-.288h-.012c-.031.101-.06.196-.1.29L56.69 52h-.287L56 51zM58.811 51.501c0-.218-.125-.367-.311-.367s-.311.149-.311.367c0 .219.125.365.31.365.187 0 .312-.146.312-.365m-.811 0c0-.318.235-.501.5-.501.264 0 .5.183.5.501a.482.482 0 0 1-.5.499.482.482 0 0 1-.5-.499" mask="url(#j)"/>
            <path fill="#29ABE2" d="M59 51.024h.254l.026.178h.01a.738.738 0 0 1 .516-.202.75.75 0 0 1 .194.02l-.057.145a.908.908 0 0 0-.176-.016.567.567 0 0 0-.46.224V52H59v-.976zM60.807 51.626v-.704c-.098-.102-.186-.14-.28-.14-.182 0-.327.208-.327.514 0 .321.113.513.313.513.106 0 .198-.06.294-.183M60 51.298c0-.436.234-.706.494-.706.133 0 .22.059.32.155l-.007-.23V50H61v1.967h-.16l-.016-.159h-.007c-.088.105-.21.192-.346.192-.286 0-.471-.255-.471-.702M61.296 51.82c0-.108.08-.183.176-.183.096 0 .175.075.175.183 0 .106-.079.18-.175.18a.174.174 0 0 1-.176-.18m.467-1.344c0-.154-.096-.279-.285-.279a.457.457 0 0 0-.339.165L61 50.238a.676.676 0 0 1 .506-.238c.298 0 .494.177.494.46 0 .379-.475.53-.427.933h-.215c-.063-.447.405-.612.405-.917" mask="url(#j)"/>
            <path fill="#999" d="M20.198 51.802h1.604v-1.604h-1.604v1.604zM20 52h2v-2h-2v2z" mask="url(#j)"/>
        </g>
    </g>
</svg>
