<svg xmlns="http://www.w3.org/2000/svg" xmlns:xlink="http://www.w3.org/1999/xlink" width="115" height="102" viewBox="0 0 115 102">
    <defs>
        <path id="a" d="M40.557 10.952L4.37 24.977.277 14.216 36.463.19z"/>
        <path id="c" d="M40.557 10.952L4.37 24.977.277 14.216 36.463.19z"/>
    </defs>
    <g fill="none" fill-rule="evenodd">
        <path fill="#FFF" stroke="#E7E7E7" d="M44.5.5v94h70V.5h-70z"/>
        <path fill="#1C1C15" d="M61.602 84.127L17.81 101.1a.341.341 0 0 1-.443-.2L.5 56.56a.347.347 0 0 1 .197-.447L44.489 39.14a.342.342 0 0 1 .442.199L61.8 83.68a.347.347 0 0 1-.197.447"/>
        <path fill="#363528" d="M61.248 83.197L17.456 100.17a.342.342 0 0 1-.443-.199L.146 55.63a.347.347 0 0 1 .197-.447L44.135 38.21a.342.342 0 0 1 .442.2l16.868 44.34a.347.347 0 0 1-.197.447"/>
        <path fill="#91A678" d="M45.915 54.36L9.729 68.387l-4.22-11.094 36.186-14.024z"/>
        <path fill="#CAE8A5" d="M45.915 54.36L10.132 68.23 6.04 57.467 41.82 43.6z"/>
        <g transform="translate(5.358 43.408)">
            <mask id="b" fill="#fff">
                <use xlink:href="#a"/>
            </mask>
            <path fill="#FFF" d="M20.889 33.805l-7.86-.475 1.774-29.902 7.86.475z" mask="url(#b)"/>
        </g>
        <g transform="translate(5.358 43.408)">
            <mask id="d" fill="#fff">
                <use xlink:href="#c"/>
            </mask>
            <path fill="#FFF" d="M26.57 29.842l-3.929-.237L24.415-.297l3.93.237z" mask="url(#d)"/>
        </g>
        <path fill="#001C5C" d="M54.143 77.258l-6.126 2.374a.678.678 0 0 0-.385.873l1.222 3.213c.133.349.52.523.865.389l6.126-2.375a.677.677 0 0 0 .385-.872l-1.222-3.214a.667.667 0 0 0-.865-.388m-2.383-6.265l-6.126 2.375a.677.677 0 0 0-.385.873l1.222 3.213c.133.348.52.522.865.388l6.127-2.374a.678.678 0 0 0 .384-.873l-1.222-3.213a.668.668 0 0 0-.865-.389m-2.383-6.264l-6.126 2.375a.678.678 0 0 0-.385.873l1.222 3.212c.133.349.52.523.865.389l6.127-2.374a.677.677 0 0 0 .384-.873l-1.222-3.213a.667.667 0 0 0-.865-.389m-2.383-6.264l-6.126 2.374a.678.678 0 0 0-.385.873l1.222 3.213c.133.349.52.523.865.389l6.126-2.375a.678.678 0 0 0 .385-.873l-1.222-3.213a.667.667 0 0 0-.865-.388m-4.842 16.252l-6.126 2.375a.678.678 0 0 0-.385.873l1.222 3.213c.133.348.52.522.865.389l6.126-2.375a.678.678 0 0 0 .385-.873l-1.222-3.213a.668.668 0 0 0-.865-.389M37.386 62.19l-6.126 2.374a.678.678 0 0 0-.385.873l1.222 3.213c.133.349.52.522.865.389l6.126-2.375a.678.678 0 0 0 .385-.873l-1.222-3.213a.667.667 0 0 0-.865-.388m2.383 6.264l-6.126 2.374a.678.678 0 0 0-.385.874l1.222 3.213c.133.348.52.522.865.388l6.126-2.375a.678.678 0 0 0 .386-.872l-1.223-3.213a.668.668 0 0 0-.865-.389m4.766 12.529l-6.126 2.374a.677.677 0 0 0-.385.873l1.222 3.213c.133.349.52.523.865.389l6.126-2.375a.677.677 0 0 0 .385-.873L45.4 81.37a.668.668 0 0 0-.865-.388m-23.987-5.079l-6.126 2.374a.678.678 0 0 0-.386.873l1.223 3.213c.132.349.52.523.864.389l6.127-2.375a.678.678 0 0 0 .385-.873l-1.222-3.213a.667.667 0 0 0-.865-.388m2.383 6.264l-6.126 2.375a.678.678 0 0 0-.386.873l1.223 3.213c.132.348.52.522.865.388l6.126-2.374a.678.678 0 0 0 .385-.873l-1.222-3.213a.668.668 0 0 0-.865-.389m4.845-16.253l-6.127 2.374a.678.678 0 0 0-.385.873l1.222 3.213c.133.348.52.522.865.389l6.127-2.375a.678.678 0 0 0 .385-.873l-1.223-3.213a.667.667 0 0 0-.864-.388m-9.611 3.724l-6.127 2.375a.678.678 0 0 0-.384.873l1.222 3.213c.132.348.52.522.865.389l6.126-2.375a.678.678 0 0 0 .385-.873l-1.222-3.213a.668.668 0 0 0-.865-.389m7.149 18.794l-6.127 2.374a.678.678 0 0 0-.384.873l1.222 3.213c.132.349.52.523.865.389l6.126-2.375a.678.678 0 0 0 .385-.873L26.18 88.82a.668.668 0 0 0-.865-.388m4.844-16.254l-6.126 2.374a.678.678 0 0 0-.385.874l1.222 3.212c.133.349.52.523.865.389l6.127-2.375a.677.677 0 0 0 .384-.873l-1.221-3.212a.668.668 0 0 0-.866-.389m2.384 6.264l-6.127 2.375a.677.677 0 0 0-.385.873l1.222 3.213c.133.348.52.522.865.388l6.127-2.374a.678.678 0 0 0 .385-.873l-1.223-3.213a.668.668 0 0 0-.864-.389m3.247 6.653l1.223 3.213a.678.678 0 0 1-.385.873L30.5 91.556a.667.667 0 0 1-.865-.389l-1.222-3.213a.678.678 0 0 1 .385-.873l6.127-2.374a.668.668 0 0 1 .864.388"/>
        <path fill="#4F4F4F" d="M27.377 65.424L21.251 67.8a.678.678 0 0 0-.386.873l1.223 3.213c.132.348.52.522.865.388l6.126-2.374a.678.678 0 0 0 .385-.873l-1.222-3.213a.668.668 0 0 0-.865-.389M39.37 67.964l-6.126 2.374a.678.678 0 0 0-.385.873l1.222 3.213c.133.349.52.523.865.389l6.127-2.375a.678.678 0 0 0 .385-.873l-1.223-3.213a.668.668 0 0 0-.864-.388M41.754 74.228l-6.127 2.375a.678.678 0 0 0-.385.873l1.223 3.213c.132.348.52.522.864.388l6.127-2.374a.678.678 0 0 0 .385-.873l-1.223-3.213a.667.667 0 0 0-.864-.389M29.76 71.689l-6.127 2.374a.678.678 0 0 0-.384.873l1.222 3.213c.132.349.52.523.865.389l6.126-2.375a.678.678 0 0 0 .385-.873l-1.222-3.213a.668.668 0 0 0-.865-.388M20.15 75.414l-6.127 2.374a.678.678 0 0 0-.385.873l1.222 3.213c.133.349.52.523.865.389l6.126-2.375a.678.678 0 0 0 .385-.873l-1.222-3.213a.668.668 0 0 0-.865-.388M22.532 81.678l-6.126 2.374a.678.678 0 0 0-.385.874l1.222 3.213c.133.348.52.522.865.388l6.126-2.374a.678.678 0 0 0 .385-.873l-1.222-3.213a.668.668 0 0 0-.865-.389M17.766 69.15l-6.126 2.374a.678.678 0 0 0-.385.873l1.222 3.213c.133.348.52.522.865.388l6.126-2.374a.678.678 0 0 0 .385-.873l-1.222-3.213a.668.668 0 0 0-.865-.389M32.143 77.953l-6.127 2.374a.678.678 0 0 0-.384.874l1.222 3.213c.132.348.52.522.865.388l6.126-2.374a.678.678 0 0 0 .385-.873l-1.222-3.213a.668.668 0 0 0-.865-.389"/>
        <path fill="#8C5F79" d="M53.743 76.765l-6.126 2.375a.678.678 0 0 0-.385.873l1.222 3.212c.133.349.52.523.865.389l6.126-2.374a.678.678 0 0 0 .385-.873l-1.222-3.213a.668.668 0 0 0-.865-.389"/>
        <path fill="#4F4F4F" d="M34.526 84.218L28.4 86.592a.678.678 0 0 0-.386.873l1.223 3.213c.132.348.52.522.865.388l6.126-2.374a.678.678 0 0 0 .385-.873l-1.222-3.213a.668.668 0 0 0-.865-.388M24.915 87.942l-6.126 2.375a.678.678 0 0 0-.385.873l1.222 3.213c.133.348.52.522.865.388l6.126-2.374a.678.678 0 0 0 .385-.873L25.78 88.33a.668.668 0 0 0-.865-.389M44.137 80.493l-6.127 2.374a.678.678 0 0 0-.385.873l1.223 3.213c.132.349.52.523.864.389l6.127-2.375a.678.678 0 0 0 .385-.873l-1.222-3.213a.668.668 0 0 0-.865-.388"/>
        <path fill="#E26A00" d="M46.594 57.972l-6.126 2.374a.678.678 0 0 0-.385.873l1.222 3.213c.133.349.52.523.865.389l6.126-2.374a.678.678 0 0 0 .385-.874L47.46 58.36a.668.668 0 0 0-.865-.388"/>
        <path fill="#8C5F79" d="M48.977 64.236l-6.126 2.375a.678.678 0 0 0-.385.873l1.222 3.213c.133.348.52.522.865.388l6.126-2.374a.678.678 0 0 0 .385-.873l-1.222-3.213a.668.668 0 0 0-.865-.389M51.36 70.5l-6.126 2.375a.678.678 0 0 0-.385.873l1.222 3.213c.133.349.52.523.865.389l6.126-2.375a.678.678 0 0 0 .385-.873l-1.222-3.213a.668.668 0 0 0-.865-.388"/>
        <path fill="#FFF" d="M19.698 85.102a1.624 1.624 0 0 1-.235-.223.777.777 0 0 1-.061-.087l.655-.641.115-.045.518 1.36.342-.132a.932.932 0 0 1 .154.405l-1.145.444a.947.947 0 0 1-.154-.405l.348-.135-.292-.767-.245.226zM22.492 90.845c-.071.027-.11.091-.117.19-.007.1.021.235.086.404.063.168.131.286.204.355.072.07.143.09.212.063.068-.026.106-.09.113-.189.007-.1-.022-.233-.085-.4-.065-.17-.133-.289-.204-.359-.071-.069-.14-.09-.209-.064m-.15-.41a.693.693 0 0 1 .338-.05c.105.013.201.05.29.11.088.059.167.14.236.24.069.102.128.217.178.347.049.13.08.255.093.375a.937.937 0 0 1-.019.336.653.653 0 0 1-.147.276.73.73 0 0 1-.287.19.705.705 0 0 1-.336.051.632.632 0 0 1-.288-.107.923.923 0 0 1-.235-.237 1.567 1.567 0 0 1-.178-.343 1.57 1.57 0 0 1-.095-.378.96.96 0 0 1 .018-.34.66.66 0 0 1 .433-.47M18.725 78.76a.94.94 0 0 1 .152.399l-.142.055.121.318a.783.783 0 0 1-.104.06 1.486 1.486 0 0 1-.214.084.875.875 0 0 1-.12.026l-.121-.318-.851.33-.076-.064.128-1.834a1.16 1.16 0 0 1 .222-.032.703.703 0 0 1 .235.031l-.075 1.272.265-.103-.115-.302a.813.813 0 0 1 .107-.062 1.635 1.635 0 0 1 .214-.083.77.77 0 0 1 .117-.026l.115.303.142-.055zM27.482 73.991c.044.07.077.132.099.188.023.063.042.135.054.217l-.564.219.102.283a.227.227 0 0 1 .043-.023l.05-.02a.788.788 0 0 1 .256-.055.528.528 0 0 1 .419.172c.055.06.101.138.137.232a.769.769 0 0 1 .055.316.61.61 0 0 1-.08.276.767.767 0 0 1-.206.228 1.292 1.292 0 0 1-.53.232 1.662 1.662 0 0 1-.298.037.766.766 0 0 1-.026-.113 1.496 1.496 0 0 1-.014-.33 1.91 1.91 0 0 0 .212-.016.774.774 0 0 0 .174-.044.58.58 0 0 0 .155-.085.352.352 0 0 0 .086-.097.21.21 0 0 0 .027-.1.278.278 0 0 0-.018-.1.219.219 0 0 0-.135-.137c-.063-.022-.148-.014-.253.027a.749.749 0 0 0-.266.18l-.087-.018-.369-1.09.977-.379zM37.062 71.303a.236.236 0 0 0-.14.132c-.025.062-.022.136.01.222.037.096.085.16.145.192a.21.21 0 0 0 .185.012.24.24 0 0 0 .138-.13c.027-.063.023-.14-.012-.234-.037-.098-.085-.16-.144-.188a.22.22 0 0 0-.182-.006m-.032-1.207c.02.009.042.029.07.061.025.032.049.074.069.126a.833.833 0 0 1 .036.12.427.427 0 0 1 .01.092.905.905 0 0 0-.183.116.78.78 0 0 0-.14.148.694.694 0 0 0-.09.171.51.51 0 0 0-.029.185l.01.002a.285.285 0 0 1 .081-.112.697.697 0 0 1 .408-.155.502.502 0 0 1 .411.185c.059.066.11.154.15.264a.79.79 0 0 1 .058.31.654.654 0 0 1-.232.48.842.842 0 0 1-.246.144c-.225.087-.42.089-.587.005-.167-.084-.3-.257-.401-.52a1.625 1.625 0 0 1-.103-.458 1.118 1.118 0 0 1 .278-.846c.107-.124.25-.23.43-.318M29.442 82.541l-.062-.066.236-.816c.04-.144.065-.261.076-.353a.483.483 0 0 0-.019-.23.175.175 0 0 0-.11-.11.273.273 0 0 0-.187.015.534.534 0 0 0-.176.11c-.05.047-.092.093-.128.138a2.109 2.109 0 0 1-.148-.163.822.822 0 0 1-.114-.185 1.122 1.122 0 0 1 .471-.328 1 1 0 0 1 .265-.066.627.627 0 0 1 .24.02.49.49 0 0 1 .197.115.579.579 0 0 1 .138.219c.025.064.04.129.046.192a1.08 1.08 0 0 1-.027.37 8.61 8.61 0 0 1-.04.171l-.071.275.468-.181c.045.07.078.132.1.188.023.062.041.135.054.216l-1.209.47zM38.612 77.412a.968.968 0 0 1-.155-.408l1.132-.439.077.057-.129.81a.508.508 0 0 1 .364.052.568.568 0 0 1 .238.303c.042.111.06.218.053.32a.666.666 0 0 1-.083.281.771.771 0 0 1-.199.229c-.084.067-.18.121-.29.163-.049.02-.096.037-.14.05a1.076 1.076 0 0 1-.133.033 1.362 1.362 0 0 1-.29.024.827.827 0 0 1-.038-.217c-.004-.077-.001-.149.009-.214a2.38 2.38 0 0 0 .217-.018.896.896 0 0 0 .207-.054.459.459 0 0 0 .225-.162c.045-.066.051-.144.018-.232a.212.212 0 0 0-.154-.137.32.32 0 0 0-.108-.008.399.399 0 0 0-.112.026.718.718 0 0 0-.189.101l-.092-.066.11-.703-.538.209zM41.332 84.734a2.651 2.651 0 0 1-.056-.092.61.61 0 0 1-.07-.186 2.625 2.625 0 0 1-.02-.109l1.548-.6a.692.692 0 0 1 .147.386l-1.55.6zm-.221-.581a2.97 2.97 0 0 1-.055-.092.61.61 0 0 1-.071-.186 2.625 2.625 0 0 1-.02-.108l1.549-.6a.658.658 0 0 1 .147.386l-1.55.6zM24.692 68.525a.223.223 0 0 0 .103.123c.048.026.101.038.16.038a.322.322 0 0 0 .099-.137.227.227 0 0 0-.007-.162.181.181 0 0 0-.088-.1c-.043-.022-.093-.022-.152 0-.059.024-.097.058-.115.103a.18.18 0 0 0 0 .135m.739.708a.256.256 0 0 0-.133-.147.448.448 0 0 0-.209-.04.419.419 0 0 0-.124.17.27.27 0 0 0 .003.197.23.23 0 0 0 .118.133c.055.026.12.025.195-.004.079-.03.13-.074.151-.13a.238.238 0 0 0-.001-.179m.038-1.006c.03.081.04.162.029.243a.536.536 0 0 1-.092.23c.1.014.192.05.28.11.087.06.153.15.198.269.039.1.052.194.041.28a.56.56 0 0 1-.087.235.724.724 0 0 1-.18.186 1.043 1.043 0 0 1-.5.194.698.698 0 0 1-.255-.018.544.544 0 0 1-.22-.116.567.567 0 0 1-.155-.235.558.558 0 0 1-.03-.332.676.676 0 0 1 .13-.27.498.498 0 0 1-.222-.11.502.502 0 0 1-.136-.202.51.51 0 0 1 .03-.444.622.622 0 0 1 .15-.18.769.769 0 0 1 .221-.129.776.776 0 0 1 .252-.054.608.608 0 0 1 .23.033.518.518 0 0 1 .316.31M34.629 65.056a.235.235 0 0 0 .14-.131c.026-.062.022-.136-.01-.222-.037-.096-.085-.16-.144-.193a.21.21 0 0 0-.186-.011.24.24 0 0 0-.137.13c-.028.063-.024.14.012.234.037.097.085.16.143.188a.22.22 0 0 0 .182.005m.033 1.208a.217.217 0 0 1-.07-.061.44.44 0 0 1-.069-.127.837.837 0 0 1-.036-.119.427.427 0 0 1-.01-.092.918.918 0 0 0 .182-.116.806.806 0 0 0 .14-.147.632.632 0 0 0 .09-.171.53.53 0 0 0 .03-.187l-.01-.002a.284.284 0 0 1-.082.112.7.7 0 0 1-.408.155.512.512 0 0 1-.41-.184.85.85 0 0 1-.152-.264.789.789 0 0 1-.056-.31.648.648 0 0 1 .232-.48.846.846 0 0 1 .245-.145c.225-.087.42-.088.588-.004.167.084.3.257.4.52.058.151.093.304.104.458a1.133 1.133 0 0 1-.278.845c-.108.125-.25.231-.43.32M14.592 72.253a.865.865 0 0 1-.104-.2 1.028 1.028 0 0 1-.05-.208l1.299-.504.068.058-.044 2.183c-.082.01-.16.017-.231.018a1.015 1.015 0 0 1-.243-.03l.035-1.6-.73.283zM48.091 74.394a.47.47 0 0 1-.013-.24l2.056-.797a.366.366 0 0 1 .142.187.54.54 0 0 1 .027.106.371.371 0 0 1-.007.132l-2.056.796a.46.46 0 0 1-.149-.184M43.1 61.895a.413.413 0 0 1 0-.246l2.444-.946a.346.346 0 0 1 .153.182.34.34 0 0 1 .008.242l-2.443.947a.408.408 0 0 1-.162-.179M47.031 67.554l.947.425c.022.087.022.156-.001.208-.023.05-.073.097-.151.138l-.947-.425-.422.956c-.086.022-.154.022-.204-.001-.051-.023-.098-.074-.139-.153l.422-.956-.948-.426a.276.276 0 0 1 .01-.204.272.272 0 0 1 .143-.142l.947.426.422-.957a.275.275 0 0 1 .114-.014.32.32 0 0 1 .086.023.272.272 0 0 1 .143.145l-.422.957zM51.805 80.322l.372.978c-.045.077-.094.125-.147.145-.051.02-.119.017-.203-.01l-.372-.977-.968.375c-.076-.045-.124-.094-.143-.145-.02-.053-.018-.123.009-.208l.968-.375-.372-.977a.272.272 0 0 1 .237-.157.271.271 0 0 1 .113.021l.372.977.968-.375c.04.021.071.045.09.07a.317.317 0 0 1 .064.168.275.275 0 0 1-.02.115l-.968.375zM32.368 88.292c-.074-.196.005-.384.188-.455.184-.072.362.017.437.213.072.19.006.38-.188.456-.184.07-.364-.023-.437-.214M43.838 60.689c-.062-.163.004-.32.156-.378.153-.06.3.014.363.177.06.158.005.316-.156.379-.153.059-.303-.02-.363-.178M44.454 62.308c-.062-.163.003-.32.156-.379s.3.015.362.178c.06.158.006.316-.156.378-.152.06-.302-.019-.362-.177"/>
        <g fill="#D7D7D7">
            <path d="M103.915 45.097H54.15a.905.905 0 0 1-.899-.912c0-.503.402-.912.899-.912h49.765c.496 0 .898.409.898.912a.905.905 0 0 1-.898.912M103.915 55.896H54.15a.905.905 0 0 1-.899-.912c0-.503.402-.912.899-.912h49.765c.496 0 .898.409.898.912a.905.905 0 0 1-.898.912M103.915 20.975H54.15a.905.905 0 0 1-.899-.912c0-.504.402-.912.899-.912h49.765c.496 0 .898.408.898.912a.905.905 0 0 1-.898.912M103.915 33.091H54.15a.905.905 0 0 1-.899-.912c0-.503.402-.912.899-.912h49.765c.496 0 .898.409.898.912a.905.905 0 0 1-.898.912"/>
        </g>
        <g fill="#F55158">
            <path d="M99.244 67.004a8 8 0 1 0-.488 15.992 8 8 0 0 0 .488-15.992"/>
            <path d="M98.995 66a8.956 8.956 0 0 0-8.99 8.726c-.152 4.96 3.76 9.119 8.72 9.27a8.965 8.965 0 0 0 9.27-8.721 8.942 8.942 0 0 0-2.44-6.442A8.94 8.94 0 0 0 98.995 66m.01 19c-.103 0-.206-.001-.31-.005-5.511-.168-9.858-4.788-9.69-10.3.169-5.54 4.72-9.865 10.3-9.69a9.932 9.932 0 0 1 6.978 3.143 9.933 9.933 0 0 1 2.712 7.157A9.951 9.951 0 0 1 99.005 85"/>
        </g>
        <path fill="#FFF" d="M98.368 79L95 75.327l1.521-1.467 1.932 2.106 4.11-3.966L104 73.566z"/>
    </g>
</svg>
