<svg xmlns="http://www.w3.org/2000/svg" xmlns:xlink="http://www.w3.org/1999/xlink" width="107" height="87" viewBox="0 0 107 87">
    <defs>
        <path id="a" d="M.034.125H30.45v1.89H.034z"/>
        <path id="c" d="M0 .018h82.964V64.67H0z"/>
        <path id="e" d="M0 .036h31.964V32H0z"/>
    </defs>
    <g fill="none" fill-rule="evenodd">
        <path fill="#D6D6D6" d="M50.525 64H32.442L31 75h21z"/>
        <g transform="translate(26.24 75.128)">
            <mask id="b" fill="#fff">
                <use xlink:href="#a"/>
            </mask>
            <path fill="#CCC" d="M.034 2.015C.032.971.811.125 1.774.125h26.931c.962 0 1.743.846 1.745 1.89H.034z" mask="url(#b)"/>
        </g>
        <g>
            <mask id="d" fill="#fff">
                <use xlink:href="#c"/>
            </mask>
            <path fill="#242424" d="M80.984.018H2.208C1.111.018.218.916.214 2.024L0 62.664a1.989 1.989 0 0 0 1.98 2.006h78.776c1.098 0 1.99-.898 1.995-2.006l.213-60.64a1.988 1.988 0 0 0-1.98-2.006" mask="url(#d)"/>
        </g>
        <path fill="#333838" d="M78.657 5.168H4.5L4.307 59.52h74.159z"/>
        <path fill="gray" d="M42.248 2.486c0 .438-.298.793-.663.793-.365 0-.66-.355-.659-.793.002-.437.3-.792.664-.792.366 0 .66.355.658.792"/>
        <g>
            <path fill="#FFE600" d="M100.356 40.583c-5.202-1.854-10.92.86-12.772 6.06-1.855 5.202.857 10.92 6.06 12.774 5.199 1.854 10.92-.859 12.773-6.062 1.854-5.2-.86-10.918-6.06-12.772"/>
            <path fill="#FFF" d="M100.02 41.525a8.995 8.995 0 0 0-11.495 5.453 8.996 8.996 0 0 0 5.454 11.497 8.999 8.999 0 0 0 11.497-5.455c1.668-4.68-.776-9.827-5.456-11.495"/>
            <path fill="#FFE600" d="M90 56.88a9.837 9.837 0 0 0 3.766 2.517c5.153 1.917 10.82-.888 12.658-6.267.467-1.367.64-2.769.555-4.13-5.786 2.348-11.328 5.23-16.979 7.88"/>
            <path fill="#FFE600" d="M87 54c.983 2.873 3.107 5.271 6.01 6.379 3.557 1.356 7.359.417 9.99-2.099-5.32-1.486-10.652-2.95-16-4.28"/>
            <path fill="#FFE600" d="M87 51.123c.337 3.668 2.814 6.991 6.626 8.31 5.219 1.804 10.96-.837 12.821-5.901a9.47 9.47 0 0 0 .553-2.526c-6.667-.026-13.327.04-20 .117"/>
            <path fill="#F2C400" d="M99.483 52.49l-1.146 1.801.241-2.125.905.324zm-2.265-1.854l.462-.727-.094.858-.368-.13zm-1.669.447l-1.136 1.797.24-2.118.896.321zm-3.22-2.195l-.329.926 1.504.537-.54 4.832 1.12.4 2.603-4.093.794.284-.537 4.829 1.108.397 2.603-4.092 1.481.53.328-.925-1.259-.45L103 49.226l-1.182-.422-1.804 2.832-1.31-.468.374-3.344-1.195-.428-1.794 2.837-1.32-.472.373-3.344L93.98 46l-.364 3.348-1.287-.46z"/>
            <path fill="#FFF538" d="M99 83.996C99 82.341 97.81 81 96.332 81H82.668C81.19 81 80 82.341 80 83.996 80 85.656 81.19 87 82.668 87h13.664C97.81 87 99 85.656 99 83.996"/>
            <path fill="#FFE038" d="M84 85.384c0 .341-.223.616-.5.616s-.5-.275-.5-.616v-2.77c0-.339.223-.614.5-.614s.5.275.5.614v2.77zM88 85.384c0 .341-.223.616-.5.616-.276 0-.5-.275-.5-.616v-2.77c0-.339.224-.614.5-.614.277 0 .5.275.5.614v2.77zM91 85.384c0 .341-.224.616-.5.616s-.5-.275-.5-.616v-2.77c0-.339.224-.614.5-.614s.5.275.5.614v2.77zM94 85.384c0 .341-.223.616-.5.616s-.5-.275-.5-.616v-2.77c0-.339.223-.614.5-.614s.5.275.5.614v2.77zM97 85.384c0 .341-.223.616-.5.616s-.5-.275-.5-.616v-2.77c0-.339.223-.614.5-.614s.5.275.5.614v2.77z"/>
            <path fill="#FFE038" d="M96.444 81H90v6h6.444C97.86 87 99 85.656 99 83.996 99 82.341 97.86 81 96.444 81"/>
            <path fill="#FFF538" d="M99 76.995C99 75.34 97.81 74 96.332 74H82.668C81.19 74 80 75.341 80 76.995 80 78.656 81.19 80 82.668 80h13.664C97.81 80 99 78.656 99 76.995"/>
            <path fill="#FFE038" d="M84 79.384c0 .34-.223.616-.5.616s-.5-.276-.5-.616v-2.77c0-.339.223-.614.5-.614s.5.275.5.614v2.77zM88 79.384c0 .34-.223.616-.5.616-.276 0-.5-.276-.5-.616v-2.77c0-.339.224-.614.5-.614.277 0 .5.275.5.614v2.77zM91 79.384c0 .34-.224.616-.5.616s-.5-.276-.5-.616v-2.77c0-.339.224-.614.5-.614s.5.275.5.614v2.77zM94 79.384c0 .34-.223.616-.5.616s-.5-.276-.5-.616v-2.77c0-.339.223-.614.5-.614s.5.275.5.614v2.77zM97 79.384c0 .34-.223.616-.5.616s-.5-.276-.5-.616v-2.77c0-.339.223-.614.5-.614s.5.275.5.614v2.77z"/>
            <path fill="#FFE038" d="M96.444 74H90v6h6.444C97.86 80 99 78.656 99 76.995 99 75.34 97.86 74 96.444 74"/>
            <path fill="#FFF538" d="M99.79 71.677c.572-1.703-.065-3.482-1.434-3.976l-12.641-4.574c-1.368-.493-2.933.49-3.504 2.191-.574 1.707.063 3.487 1.43 3.982l12.642 4.572c1.369.494 2.934-.488 3.508-2.195"/>
            <path fill="#FFE038" d="M85.133 67.565c-.103.335-.432.514-.737.401-.305-.111-.469-.473-.365-.81l.836-2.721c.103-.334.433-.513.737-.402.305.114.468.476.365.81l-.836 2.722zM88.133 68.565c-.104.335-.433.514-.738.402-.303-.113-.467-.476-.365-.81l.838-2.723c.102-.334.432-.513.735-.4.305.112.47.474.366.808l-.836 2.723zM91.133 69.565c-.103.335-.434.514-.737.401-.305-.112-.468-.473-.365-.808l.836-2.724c.103-.334.433-.513.737-.4.304.113.468.474.366.809l-.837 2.722zM94.133 70.565c-.103.335-.433.513-.738.402-.304-.113-.467-.475-.365-.81l.837-2.722c.103-.334.432-.514.737-.401.305.113.469.474.365.808l-.836 2.723zM97.132 71.565c-.102.334-.432.514-.736.402-.304-.114-.468-.475-.365-.81l.836-2.724c.104-.333.433-.512.736-.4.305.114.469.475.367.81l-.838 2.722z"/>
            <path fill="#FFE038" d="M98.347 67.106L92.086 65 90 70.774l6.262 2.106c1.376.463 2.95-.456 3.527-2.053.575-1.594-.066-3.258-1.442-3.72"/>
            <path fill="#FFF538" d="M79 83.996C79 82.341 77.81 81 76.331 81H62.667C61.19 81 60 82.341 60 83.996 60 85.656 61.19 87 62.667 87h13.664C77.809 87 79 85.656 79 83.996"/>
            <path fill="#FFE038" d="M64 85.384c0 .341-.223.616-.5.616-.276 0-.5-.275-.5-.616v-2.77c0-.339.224-.614.5-.614.277 0 .5.275.5.614v2.77zM67 85.384c0 .341-.224.616-.5.616s-.5-.275-.5-.616v-2.77c0-.339.224-.614.5-.614s.5.275.5.614v2.77zM70 85.384c0 .341-.223.616-.5.616-.276 0-.5-.275-.5-.616v-2.77c0-.339.224-.614.5-.614.277 0 .5.275.5.614v2.77zM73 85.384c0 .341-.224.616-.5.616s-.5-.275-.5-.616v-2.77c0-.339.224-.614.5-.614s.5.275.5.614v2.77zM76 85.384c0 .341-.224.616-.5.616s-.5-.275-.5-.616v-2.77c0-.339.224-.614.5-.614s.5.275.5.614v2.77z"/>
            <path fill="#FFE038" d="M75.444 81H69v6h6.444C76.86 87 78 85.656 78 83.996 78 82.341 76.86 81 75.444 81"/>
            <path fill="#FFF538" d="M79 76.997C79 75.343 77.81 74 76.331 74H62.667C61.19 74 60 75.343 60 76.997 60 78.657 61.19 80 62.667 80h13.664C77.809 80 79 78.657 79 76.997"/>
            <path fill="#FFE038" d="M64 78.385c0 .34-.223.615-.5.615-.276 0-.5-.276-.5-.615v-2.77c0-.34.224-.615.5-.615.277 0 .5.274.5.615v2.77zM67 78.385c0 .34-.224.615-.5.615s-.5-.276-.5-.615v-2.77c0-.34.224-.615.5-.615s.5.274.5.615v2.77zM76 75.846c0 .085-1.563.154-3.497.154S69 75.931 69 75.846v-.692c0-.085 1.57-.154 3.503-.154 1.934 0 3.497.069 3.497.154v.692z"/>
            <path fill="#FFE038" d="M73 78.385c0 .34-.224.615-.5.615s-.5-.276-.5-.615v-2.77c0-.34.224-.615.5-.615s.5.274.5.615v2.77zM76 78.385c0 .34-.224.615-.5.615s-.5-.276-.5-.615v-2.77c0-.34.224-.615.5-.615s.5.274.5.615v2.77z"/>
            <path fill="#FFE038" d="M75.444 74H69v6h6.444C76.86 80 78 78.657 78 76.997 78 75.343 76.86 74 75.444 74"/>
            <path fill="#FFF538" d="M79 70.995C79 69.341 77.81 68 76.331 68H62.667C61.19 68 60 69.34 60 70.995 60 72.657 61.19 74 62.667 74h13.664C77.809 74 79 72.657 79 70.995"/>
            <path fill="#FFE038" d="M64 72.384c0 .339-.223.616-.5.616-.276 0-.5-.277-.5-.616v-2.77c0-.34.224-.614.5-.614.277 0 .5.274.5.615v2.769zM67 72.384c0 .339-.224.616-.5.616s-.5-.277-.5-.616v-2.77c0-.34.224-.614.5-.614s.5.274.5.615v2.769zM70 72.384c0 .339-.223.616-.5.616-.276 0-.5-.277-.5-.616v-2.77c0-.34.224-.614.5-.614.277 0 .5.274.5.615v2.769zM73 72.384c0 .339-.224.616-.5.616s-.5-.277-.5-.616v-2.77c0-.34.224-.614.5-.614s.5.274.5.615v2.769zM76 72.384c0 .339-.224.616-.5.616s-.5-.277-.5-.616v-2.77c0-.34.224-.614.5-.614s.5.274.5.615v2.769z"/>
            <path fill="#FFE038" d="M75.444 68H69v6h6.444C76.86 74 78 72.657 78 70.995 78 69.341 76.86 68 75.444 68"/>
            <path fill="#FFF538" d="M79 63.997C79 62.341 77.81 61 76.331 61H62.667C61.19 61 60 62.341 60 63.997 60 65.657 61.19 67 62.667 67h13.664C77.809 67 79 65.656 79 63.997"/>
            <path fill="#FFE038" d="M64 65.384c0 .34-.223.616-.5.616-.276 0-.5-.276-.5-.616v-2.77c0-.34.224-.614.5-.614.277 0 .5.274.5.615v2.769zM67 65.384c0 .34-.224.616-.5.616s-.5-.276-.5-.616v-2.77c0-.34.224-.614.5-.614s.5.274.5.615v2.769zM70 65.384c0 .34-.223.616-.5.616-.276 0-.5-.276-.5-.616v-2.77c0-.34.224-.614.5-.614.277 0 .5.274.5.615v2.769zM73 65.384c0 .34-.224.616-.5.616s-.5-.276-.5-.616v-2.77c0-.34.224-.614.5-.614s.5.274.5.615v2.769zM76 65.384c0 .34-.224.616-.5.616s-.5-.276-.5-.616v-2.77c0-.34.224-.614.5-.614s.5.274.5.615v2.769z"/>
            <path fill="#FFE038" d="M75.444 61H69v6h6.444C76.86 67 78 65.656 78 63.997 78 62.341 76.86 61 75.444 61"/>
            <path fill="#FFF538" d="M79 57.996C79 56.341 77.81 55 76.331 55H62.667C61.19 55 60 56.341 60 57.996 60 59.656 61.19 61 62.667 61h13.664C77.809 61 79 59.656 79 57.996"/>
            <path fill="#FFE038" d="M64 59.385c0 .34-.223.615-.5.615-.276 0-.5-.275-.5-.615v-2.77c0-.34.224-.615.5-.615.277 0 .5.275.5.614v2.77zM67 59.385c0 .34-.224.615-.5.615s-.5-.275-.5-.615v-2.77c0-.34.224-.615.5-.615s.5.275.5.614v2.77zM70 59.385c0 .34-.223.615-.5.615-.276 0-.5-.275-.5-.615v-2.77c0-.34.224-.615.5-.615.277 0 .5.275.5.614v2.77zM73 59.385c0 .34-.224.615-.5.615s-.5-.275-.5-.615v-2.77c0-.34.224-.615.5-.615s.5.275.5.614v2.77zM76 59.385c0 .34-.224.615-.5.615s-.5-.275-.5-.615v-2.77c0-.34.224-.615.5-.615s.5.275.5.614v2.77z"/>
            <path fill="#FFE038" d="M75.444 55H69v6h6.444C76.86 61 78 59.656 78 57.996 78 56.341 76.86 55 75.444 55"/>
            <path fill="#FFF538" d="M79 50.997C79 49.342 77.81 48 76.331 48H62.667C61.19 48 60 49.342 60 50.997 60 52.657 61.19 54 62.667 54h13.664C77.809 54 79 52.657 79 50.997"/>
            <path fill="#FFE038" d="M64 52.385c0 .34-.223.615-.5.615-.276 0-.5-.275-.5-.615v-2.77c0-.34.224-.615.5-.615.277 0 .5.275.5.615v2.77zM67 52.385c0 .34-.224.615-.5.615s-.5-.275-.5-.615v-2.77c0-.34.224-.615.5-.615s.5.275.5.615v2.77zM70 52.385c0 .34-.223.615-.5.615-.276 0-.5-.275-.5-.615v-2.77c0-.34.224-.615.5-.615.277 0 .5.275.5.615v2.77zM73 52.385c0 .34-.224.615-.5.615s-.5-.275-.5-.615v-2.77c0-.34.224-.615.5-.615s.5.275.5.615v2.77zM76 52.385c0 .34-.224.615-.5.615s-.5-.275-.5-.615v-2.77c0-.34.224-.615.5-.615s.5.275.5.615v2.77z"/>
            <path fill="#FFE038" d="M75.444 48H69v6h6.444C76.86 54 78 52.657 78 50.997 78 49.342 76.86 48 75.444 48"/>
        </g>
        <g>
            <g transform="translate(26 15)">
                <mask id="f" fill="#fff">
                    <use xlink:href="#e"/>
                </mask>
                <path fill="#F55158" d="M31.964 16.018C31.964 24.845 24.808 32 15.982 32 7.155 32 0 24.845 0 16.018 0 7.192 7.155.036 15.982.036c8.826 0 15.982 7.156 15.982 15.982" mask="url(#f)"/>
            </g>
            <path fill="#FFF" d="M40.53 39L32 31.022l3.638-3.403 4.892 4.575L50.362 23 54 26.403z"/>
            <path fill="#FFF" d="M40.53 39L32 31.022l3.638-3.403 4.892 4.575L50.362 23 54 26.403z"/>
            <path fill="#FFF" d="M40.53 39L32 31.022l3.638-3.403 4.892 4.575L50.362 23 54 26.403z"/>
        </g>
    </g>
</svg>
