<svg xmlns="http://www.w3.org/2000/svg" xmlns:xlink="http://www.w3.org/1999/xlink" width="138" height="90" viewBox="0 0 138 90">
    <defs>
        <path id="a" d="M2.97 0C.688 0-.738 2.77.403 4.985L2.97 9.971l2.568-4.986C6.68 2.77 5.253 0 2.97 0z"/>
        <path id="c" d="M2.97 0C.688 0-.738 2.77.403 4.985L2.97 9.971l2.568-4.986C6.68 2.77 5.253 0 2.97 0z"/>
        <path id="e" d="M.034.125H30.45v1.89H.034z"/>
        <path id="g" d="M0 .018h82.964V64.67H0z"/>
        <path id="i" d="M.232.095C0 .207-.107.5.217.925c.251.331.601.766 1.185 1.25.705.582 1.195.975 1.496.664C3.308 2.417.703.22.703.22.62.136.537.049.41.049a.411.411 0 0 0-.177.046"/>
        <path id="k" d="M3.5.576C1.592 1.803.05 4.776.058 7.218.06 8.431.445 9.285 1.065 9.686L3.03 10.96c-.62-.402 4.264-9.786 4.892-9.38L5.957.309c-.264-.171-.57-.26-.908-.26-.466 0-.993.17-1.55.528"/>
        <linearGradient id="l" x1="64.401%" x2="37.661%" y1="82.065%" y2="12.701%">
            <stop offset="0%" stop-color="#262628"/>
            <stop offset="100%" stop-color="#3D3D42"/>
        </linearGradient>
        <path id="n" d="M3.719.092c-.26.048-.547.175-.844.375C1.315 1.51.002 4.148.007 6.225c0 .061.001.132.005.208C.042 7.026.216 8 1.03 8c.313 0 .684-.137 1.072-.397 1.56-1.044 2.873-3.682 2.868-5.76C4.97 1.31 4.866.07 3.947.07c-.073 0-.149.007-.228.023z"/>
        <path id="p" d="M3.719.092c-.26.048-.547.175-.844.375C1.315 1.51.002 4.148.007 6.225c0 .061.001.132.005.208C.042 7.026.216 8 1.03 8c.313 0 .684-.137 1.072-.397 1.56-1.044 2.873-3.682 2.868-5.76C4.97 1.31 4.866.07 3.947.07c-.073 0-.149.007-.228.023z"/>
        <path id="r" d="M3.719.092c-.26.048-.547.175-.844.375C1.315 1.51.002 4.148.007 6.225c0 .061.001.132.005.208C.042 7.026.216 8 1.03 8c.313 0 .684-.137 1.072-.397 1.56-1.044 2.873-3.682 2.868-5.76C4.97 1.31 4.866.07 3.947.07c-.073 0-.149.007-.228.023z"/>
        <path id="t" d="M3.719.092c-.26.048-.547.175-.844.375C1.315 1.51.002 4.148.007 6.225c0 .061.001.132.005.208C.042 7.026.216 8 1.03 8c.313 0 .684-.137 1.072-.397 1.56-1.044 2.873-3.682 2.868-5.76C4.97 1.31 4.866.07 3.947.07c-.073 0-.149.007-.228.023z"/>
        <path id="v" d="M3.719.092c-.26.048-.547.175-.844.375C1.315 1.51.002 4.148.007 6.225c0 .061.001.132.005.208C.042 7.026.216 8 1.03 8c.313 0 .684-.137 1.072-.397 1.56-1.044 2.873-3.682 2.868-5.76C4.97 1.31 4.866.07 3.947.07c-.073 0-.149.007-.228.023z"/>
        <path id="x" d="M3.719.092c-.26.048-.547.175-.844.375C1.315 1.51.002 4.148.007 6.225c0 .061.001.132.005.208C.042 7.026.216 8 1.03 8c.313 0 .684-.137 1.072-.397 1.56-1.044 2.873-3.682 2.868-5.76C4.97 1.31 4.866.07 3.947.07c-.073 0-.149.007-.228.023"/>
        <path id="z" d="M3.719.092c-.26.048-.547.175-.844.375C1.315 1.51.002 4.148.007 6.225c0 .061.001.132.005.208C.042 7.026.216 8 1.03 8c.313 0 .684-.137 1.072-.397 1.56-1.044 2.873-3.682 2.868-5.76C4.97 1.31 4.866.07 3.947.07c-.073 0-.149.007-.228.023z"/>
        <path id="B" d="M3.719.092c-.26.048-.547.175-.844.375C1.315 1.51.002 4.148.007 6.225c0 .061.001.132.005.208C.042 7.026.216 8 1.03 8c.313 0 .684-.137 1.072-.397 1.56-1.044 2.873-3.682 2.868-5.76C4.97 1.31 4.866.07 3.947.07c-.073 0-.149.007-.228.023"/>
        <path id="D" d="M3.719.092c-.26.048-.547.175-.844.375C1.315 1.51.002 4.148.007 6.225c0 .061.001.132.005.208C.042 7.026.216 8 1.03 8c.313 0 .684-.137 1.072-.397 1.56-1.044 2.873-3.682 2.868-5.76C4.97 1.31 4.866.07 3.947.07c-.073 0-.149.007-.228.023z"/>
        <path id="F" d="M3.719.092c-.26.048-.547.175-.844.375C1.315 1.51.002 4.148.007 6.225c0 .061.001.132.005.208C.042 7.026.216 8 1.03 8c.313 0 .684-.137 1.072-.397 1.56-1.044 2.873-3.682 2.868-5.76C4.97 1.31 4.866.07 3.947.07c-.073 0-.149.007-.228.023"/>
        <path id="H" d="M3.719.092c-.26.048-.547.175-.844.375C1.315 1.51.002 4.148.007 6.225c0 .061.001.132.005.208C.042 7.026.216 8 1.03 8c.313 0 .684-.137 1.072-.397 1.56-1.044 2.873-3.682 2.868-5.76C4.97 1.31 4.866.07 3.947.07c-.073 0-.149.007-.228.023z"/>
        <path id="J" d="M3.719.092c-.26.048-.547.175-.844.375C1.315 1.51.002 4.148.007 6.225c0 .061.001.132.005.208C.042 7.026.216 8 1.03 8c.313 0 .684-.137 1.072-.397 1.56-1.044 2.873-3.682 2.868-5.76C4.97 1.31 4.866.07 3.947.07c-.073 0-.149.007-.228.023"/>
        <path id="L" d="M3.719.092c-.26.048-.547.175-.844.375C1.315 1.51.002 4.148.007 6.225c0 .061.001.132.005.208C.042 7.026.216 8 1.03 8c.313 0 .684-.137 1.072-.397 1.56-1.044 2.873-3.682 2.868-5.76C4.97 1.31 4.866.07 3.947.07c-.073 0-.149.007-.228.023"/>
        <path id="N" d="M3.719.092c-.26.048-.547.175-.844.375C1.315 1.51.002 4.148.007 6.225c0 .061.001.132.005.208C.042 7.026.216 8 1.03 8c.313 0 .684-.137 1.072-.397 1.56-1.044 2.873-3.682 2.868-5.76C4.97 1.31 4.866.07 3.947.07c-.073 0-.149.007-.228.023"/>
        <path id="P" d="M3.719.092c-.26.048-.547.175-.844.375C1.315 1.51.002 4.148.007 6.225c0 .061.001.132.005.208C.042 7.026.216 8 1.03 8c.313 0 .684-.137 1.072-.397 1.56-1.044 2.873-3.682 2.868-5.76C4.97 1.31 4.866.07 3.947.07c-.073 0-.149.007-.228.023"/>
        <path id="R" d="M3.719.092c-.26.048-.547.175-.844.375C1.315 1.51.002 4.148.007 6.225c0 .061.001.132.005.208C.042 7.026.216 8 1.03 8c.313 0 .684-.137 1.072-.397 1.56-1.044 2.873-3.682 2.868-5.76C4.97 1.31 4.866.07 3.947.07c-.073 0-.149.007-.228.023z"/>
        <path id="T" d="M3.719.092c-.26.048-.547.175-.844.375C1.315 1.51.002 4.148.007 6.225c0 .061.001.132.005.208C.042 7.026.216 8 1.03 8c.313 0 .684-.137 1.072-.397 1.56-1.044 2.873-3.682 2.868-5.76C4.97 1.31 4.866.07 3.947.07c-.073 0-.149.007-.228.023z"/>
        <path id="V" d="M3.719.092c-.26.048-.547.175-.844.375C1.315 1.51.002 4.148.007 6.225c0 .061.001.132.005.208C.042 7.026.216 8 1.03 8c.313 0 .684-.137 1.072-.397 1.56-1.044 2.873-3.682 2.868-5.76C4.97 1.31 4.866.07 3.947.07c-.073 0-.149.007-.228.023z"/>
        <path id="X" d="M3.719.092c-.26.048-.547.175-.844.375C1.315 1.51.002 4.148.007 6.225c0 .061.001.132.005.208C.042 7.026.216 8 1.03 8c.313 0 .684-.137 1.072-.397 1.56-1.044 2.873-3.682 2.868-5.76C4.97 1.31 4.866.07 3.947.07c-.073 0-.149.007-.228.023z"/>
        <path id="Z" d="M3.719.092c-.26.048-.547.175-.844.375C1.315 1.51.002 4.148.007 6.225c0 .061.001.132.005.208C.042 7.026.216 8 1.03 8c.313 0 .684-.137 1.072-.397 1.56-1.044 2.873-3.682 2.868-5.76C4.97 1.31 4.866.07 3.947.07c-.073 0-.149.007-.228.023z"/>
        <path id="ab" d="M3.719.092c-.26.048-.547.175-.844.375C1.315 1.51.002 4.148.007 6.225c0 .061.001.132.005.208C.042 7.026.216 8 1.03 8c.313 0 .684-.137 1.072-.397 1.56-1.044 2.873-3.682 2.868-5.76C4.97 1.31 4.866.07 3.947.07c-.073 0-.149.007-.228.023z"/>
        <path id="ad" d="M3.719.092c-.26.048-.547.175-.844.375C1.315 1.51.002 4.148.007 6.225c0 .061.001.132.005.208C.042 7.026.216 8 1.03 8c.313 0 .684-.137 1.072-.397 1.56-1.044 2.873-3.682 2.868-5.76C4.97 1.31 4.866.07 3.947.07c-.073 0-.149.007-.228.023z"/>
        <path id="af" d="M3.719.092c-.26.048-.547.175-.844.375C1.315 1.51.002 4.148.007 6.225c0 .061.001.132.005.208C.042 7.026.216 8 1.03 8c.313 0 .684-.137 1.072-.397 1.56-1.044 2.873-3.682 2.868-5.76C4.97 1.31 4.866.07 3.947.07c-.073 0-.149.007-.228.023z"/>
        <path id="ah" d="M3.719.092c-.26.048-.547.175-.844.375C1.315 1.51.002 4.148.007 6.225c0 .061.001.132.005.208C.042 7.026.216 8 1.03 8c.313 0 .684-.137 1.072-.397 1.56-1.044 2.873-3.682 2.868-5.76C4.97 1.31 4.866.07 3.947.07c-.073 0-.149.007-.228.023z"/>
        <path id="aj" d="M3.719.092c-.26.048-.547.175-.844.375C1.315 1.51.002 4.148.007 6.225c0 .061.001.132.005.208C.042 7.026.216 8 1.03 8c.313 0 .684-.137 1.072-.397 1.56-1.044 2.873-3.682 2.868-5.76C4.97 1.31 4.866.07 3.947.07c-.073 0-.149.007-.228.023"/>
        <path id="al" d="M3.719.092c-.26.048-.547.175-.844.375C1.315 1.51.002 4.148.007 6.225c0 .061.001.132.005.208C.042 7.026.216 8 1.03 8c.313 0 .684-.137 1.072-.397 1.56-1.044 2.873-3.682 2.868-5.76C4.97 1.31 4.866.07 3.947.07c-.073 0-.149.007-.228.023"/>
        <path id="an" d="M3.719.092c-.26.048-.547.175-.844.375C1.315 1.51.002 4.148.007 6.225c0 .061.001.132.005.208C.042 7.026.216 8 1.03 8c.313 0 .684-.137 1.072-.397 1.56-1.044 2.873-3.682 2.868-5.76C4.97 1.31 4.866.07 3.947.07c-.073 0-.149.007-.228.023"/>
        <path id="ap" d="M3.719.092c-.26.048-.547.175-.844.375C1.315 1.51.002 4.148.007 6.225c0 .061.001.132.005.208C.042 7.026.216 8 1.03 8c.313 0 .684-.137 1.072-.397 1.56-1.044 2.873-3.682 2.868-5.76C4.97 1.31 4.866.07 3.947.07c-.073 0-.149.007-.228.023"/>
        <path id="ar" d="M3.719.092c-.26.048-.547.175-.844.375C1.315 1.51.002 4.148.007 6.225c0 .061.001.132.005.208C.042 7.026.216 8 1.03 8c.313 0 .684-.137 1.072-.397 1.56-1.044 2.873-3.682 2.868-5.76C4.97 1.31 4.866.07 3.947.07c-.073 0-.149.007-.228.023"/>
        <path id="at" d="M3.501.603C1.574 1.83.016 4.803.023 7.245.026 8.458.414 9.312 1.04 9.713l1.986 1.273C2.4 10.584 7.337 1.2 7.97 1.607L5.985.335a1.674 1.674 0 0 0-.917-.26c-.472 0-1.004.17-1.567.528"/>
        <linearGradient id="au" x1="64.708%" x2="37.397%" y1="82.065%" y2="12.702%">
            <stop offset="0%" stop-color="#262628"/>
            <stop offset="100%" stop-color="#3D3D42"/>
        </linearGradient>
        <path id="aw" d="M.058.082h7.955v10.935H.058z"/>
        <path id="ay" d="M3.705.025c-.254.048-.537.176-.83.375C1.343 1.445.05 4.081.056 6.158c0 .061.002.132.006.208.03.593.2 1.566 1 1.566.308 0 .672-.137 1.054-.397 1.534-1.044 2.825-3.682 2.82-5.76C4.934 1.244 4.833.003 3.93.003c-.072 0-.147.008-.225.023z"/>
        <path id="aA" d="M3.705.025c-.254.048-.537.176-.83.375C1.343 1.445.05 4.081.056 6.158c0 .061.002.132.006.208.03.593.2 1.566 1 1.566.308 0 .672-.137 1.054-.397 1.534-1.044 2.825-3.682 2.82-5.76C4.934 1.244 4.833.003 3.93.003c-.072 0-.147.008-.225.023z"/>
        <path id="aC" d="M3.705.025c-.254.048-.537.176-.83.375C1.343 1.445.05 4.081.056 6.158c0 .061.002.132.006.208.03.593.2 1.566 1 1.566.308 0 .672-.137 1.054-.397 1.534-1.044 2.825-3.682 2.82-5.76C4.934 1.244 4.833.003 3.93.003c-.072 0-.147.008-.225.023z"/>
        <path id="aE" d="M3.705.025c-.254.048-.537.176-.83.375C1.343 1.445.05 4.081.056 6.158c0 .061.002.132.006.208.03.593.2 1.566 1 1.566.308 0 .672-.137 1.054-.397 1.534-1.044 2.825-3.682 2.82-5.76C4.934 1.244 4.833.003 3.93.003c-.072 0-.147.008-.225.023z"/>
        <path id="aG" d="M3.705.025c-.254.048-.537.176-.83.375C1.343 1.445.05 4.081.056 6.158c0 .061.002.132.006.208.03.593.2 1.566 1 1.566.308 0 .672-.137 1.054-.397 1.534-1.044 2.825-3.682 2.82-5.76C4.934 1.244 4.833.003 3.93.003c-.072 0-.147.008-.225.023z"/>
        <path id="aI" d="M3.705.025c-.254.048-.537.176-.83.375C1.343 1.445.05 4.081.056 6.158c0 .061.002.132.006.208.03.593.2 1.566 1 1.566.308 0 .672-.137 1.054-.397 1.534-1.044 2.825-3.682 2.82-5.76C4.934 1.244 4.833.003 3.93.003c-.072 0-.147.008-.225.023"/>
        <path id="aK" d="M3.705.025c-.254.048-.537.176-.83.375C1.343 1.445.05 4.081.056 6.158c0 .061.002.132.006.208.03.593.2 1.566 1 1.566.308 0 .672-.137 1.054-.397 1.534-1.044 2.825-3.682 2.82-5.76C4.934 1.244 4.833.003 3.93.003c-.072 0-.147.008-.225.023z"/>
        <path id="aM" d="M3.705.025c-.254.048-.537.176-.83.375C1.343 1.445.05 4.081.056 6.158c0 .061.002.132.006.208.03.593.2 1.566 1 1.566.308 0 .672-.137 1.054-.397 1.534-1.044 2.825-3.682 2.82-5.76C4.934 1.244 4.833.003 3.93.003c-.072 0-.147.008-.225.023"/>
        <path id="aO" d="M3.705.025c-.254.048-.537.176-.83.375C1.343 1.445.05 4.081.056 6.158c0 .061.002.132.006.208.03.593.2 1.566 1 1.566.308 0 .672-.137 1.054-.397 1.534-1.044 2.825-3.682 2.82-5.76C4.934 1.244 4.833.003 3.93.003c-.072 0-.147.008-.225.023z"/>
        <path id="aQ" d="M3.705.025c-.254.048-.537.176-.83.375C1.343 1.445.05 4.081.056 6.158c0 .061.002.132.006.208.03.593.2 1.566 1 1.566.308 0 .672-.137 1.054-.397 1.534-1.044 2.825-3.682 2.82-5.76C4.934 1.244 4.833.003 3.93.003c-.072 0-.147.008-.225.023"/>
        <path id="aS" d="M3.705.025c-.254.048-.537.176-.83.375C1.343 1.445.05 4.081.056 6.158c0 .061.002.132.006.208.03.593.2 1.566 1 1.566.308 0 .672-.137 1.054-.397 1.534-1.044 2.825-3.682 2.82-5.76C4.934 1.244 4.833.003 3.93.003c-.072 0-.147.008-.225.023z"/>
        <path id="aU" d="M3.705.025c-.254.048-.537.176-.83.375C1.343 1.445.05 4.081.056 6.158c0 .061.002.132.006.208.03.593.2 1.566 1 1.566.308 0 .672-.137 1.054-.397 1.534-1.044 2.825-3.682 2.82-5.76C4.934 1.244 4.833.003 3.93.003c-.072 0-.147.008-.225.023"/>
        <path id="aW" d="M3.705.025c-.254.048-.537.176-.83.375C1.343 1.445.05 4.081.056 6.158c0 .061.002.132.006.208.03.593.2 1.566 1 1.566.308 0 .672-.137 1.054-.397 1.534-1.044 2.825-3.682 2.82-5.76C4.934 1.244 4.833.003 3.93.003c-.072 0-.147.008-.225.023"/>
        <path id="aY" d="M3.705.025c-.254.048-.537.176-.83.375C1.343 1.445.05 4.081.056 6.158c0 .061.002.132.006.208.03.593.2 1.566 1 1.566.308 0 .672-.137 1.054-.397 1.534-1.044 2.825-3.682 2.82-5.76C4.934 1.244 4.833.003 3.93.003c-.072 0-.147.008-.225.023"/>
        <path id="ba" d="M3.705.025c-.254.048-.537.176-.83.375C1.343 1.445.05 4.081.056 6.158c0 .061.002.132.006.208.03.593.2 1.566 1 1.566.308 0 .672-.137 1.054-.397 1.534-1.044 2.825-3.682 2.82-5.76C4.934 1.244 4.833.003 3.93.003c-.072 0-.147.008-.225.023"/>
        <path id="bc" d="M3.705.025c-.254.048-.537.176-.83.375C1.343 1.445.05 4.081.056 6.158c0 .061.002.132.006.208.03.593.2 1.566 1 1.566.308 0 .672-.137 1.054-.397 1.534-1.044 2.825-3.682 2.82-5.76C4.934 1.244 4.833.003 3.93.003c-.072 0-.147.008-.225.023z"/>
        <path id="be" d="M3.705.025c-.254.048-.537.176-.83.375C1.343 1.445.05 4.081.056 6.158c0 .061.002.132.006.208.03.593.2 1.566 1 1.566.308 0 .672-.137 1.054-.397 1.534-1.044 2.825-3.682 2.82-5.76C4.934 1.244 4.833.003 3.93.003c-.072 0-.147.008-.225.023z"/>
        <path id="bg" d="M3.705.025c-.254.048-.537.176-.83.375C1.343 1.445.05 4.081.056 6.158c0 .061.002.132.006.208.03.593.2 1.566 1 1.566.308 0 .672-.137 1.054-.397 1.534-1.044 2.825-3.682 2.82-5.76C4.934 1.244 4.833.003 3.93.003c-.072 0-.147.008-.225.023z"/>
        <path id="bi" d="M3.705.025c-.254.048-.537.176-.83.375C1.343 1.445.05 4.081.056 6.158c0 .061.002.132.006.208.03.593.2 1.566 1 1.566.308 0 .672-.137 1.054-.397 1.534-1.044 2.825-3.682 2.82-5.76C4.934 1.244 4.833.003 3.93.003c-.072 0-.147.008-.225.023z"/>
        <path id="bk" d="M3.705.025c-.254.048-.537.176-.83.375C1.343 1.445.05 4.081.056 6.158c0 .061.002.132.006.208.03.593.2 1.566 1 1.566.308 0 .672-.137 1.054-.397 1.534-1.044 2.825-3.682 2.82-5.76C4.934 1.244 4.833.003 3.93.003c-.072 0-.147.008-.225.023z"/>
        <path id="bm" d="M3.705.025c-.254.048-.537.176-.83.375C1.343 1.445.05 4.081.056 6.158c0 .061.002.132.006.208.03.593.2 1.566 1 1.566.308 0 .672-.137 1.054-.397 1.534-1.044 2.825-3.682 2.82-5.76C4.934 1.244 4.833.003 3.93.003c-.072 0-.147.008-.225.023z"/>
        <path id="bo" d="M3.705.025c-.254.048-.537.176-.83.375C1.343 1.445.05 4.081.056 6.158c0 .061.002.132.006.208.03.593.2 1.566 1 1.566.308 0 .672-.137 1.054-.397 1.534-1.044 2.825-3.682 2.82-5.76C4.934 1.244 4.833.003 3.93.003c-.072 0-.147.008-.225.023z"/>
        <path id="bq" d="M3.705.025c-.254.048-.537.176-.83.375C1.343 1.445.05 4.081.056 6.158c0 .061.002.132.006.208.03.593.2 1.566 1 1.566.308 0 .672-.137 1.054-.397 1.534-1.044 2.825-3.682 2.82-5.76C4.934 1.244 4.833.003 3.93.003c-.072 0-.147.008-.225.023z"/>
        <path id="bs" d="M3.705.025c-.254.048-.537.176-.83.375C1.343 1.445.05 4.081.056 6.158c0 .061.002.132.006.208.03.593.2 1.566 1 1.566.308 0 .672-.137 1.054-.397 1.534-1.044 2.825-3.682 2.82-5.76C4.934 1.244 4.833.003 3.93.003c-.072 0-.147.008-.225.023z"/>
        <path id="bu" d="M3.705.025c-.254.048-.537.176-.83.375C1.343 1.445.05 4.081.056 6.158c0 .061.002.132.006.208.03.593.2 1.566 1 1.566.308 0 .672-.137 1.054-.397 1.534-1.044 2.825-3.682 2.82-5.76C4.934 1.244 4.833.003 3.93.003c-.072 0-.147.008-.225.023"/>
        <path id="bw" d="M3.705.025c-.254.048-.537.176-.83.375C1.343 1.445.05 4.081.056 6.158c0 .061.002.132.006.208.03.593.2 1.566 1 1.566.308 0 .672-.137 1.054-.397 1.534-1.044 2.825-3.682 2.82-5.76C4.934 1.244 4.833.003 3.93.003c-.072 0-.147.008-.225.023"/>
        <path id="by" d="M3.705.025c-.254.048-.537.176-.83.375C1.343 1.445.05 4.081.056 6.158c0 .061.002.132.006.208.03.593.2 1.566 1 1.566.308 0 .672-.137 1.054-.397 1.534-1.044 2.825-3.682 2.82-5.76C4.934 1.244 4.833.003 3.93.003c-.072 0-.147.008-.225.023"/>
        <path id="bA" d="M3.705.025c-.254.048-.537.176-.83.375C1.343 1.445.05 4.081.056 6.158c0 .061.002.132.006.208.03.593.2 1.566 1 1.566.308 0 .672-.137 1.054-.397 1.534-1.044 2.825-3.682 2.82-5.76C4.934 1.244 4.833.003 3.93.003c-.072 0-.147.008-.225.023"/>
        <path id="bC" d="M3.705.025c-.254.048-.537.176-.83.375C1.343 1.445.05 4.081.056 6.158c0 .061.002.132.006.208.03.593.2 1.566 1 1.566.308 0 .672-.137 1.054-.397 1.534-1.044 2.825-3.682 2.82-5.76C4.934 1.244 4.833.003 3.93.003c-.072 0-.147.008-.225.023"/>
        <path id="bE" d="M.079.09h15.518v8.912H.08z"/>
        <path id="bG" d="M.072 1.887c.69.306 1.074 1.075 1.074 2.229l.043.816.477-.308s.773-1.26 1.017-1.875c.244-.613.255-2.695.255-2.695L.072 1.887z"/>
        <linearGradient id="bH" x1="40.879%" x2="72.987%" y1="36.402%" y2="63.948%">
            <stop offset="0%" stop-color="#36363B"/>
            <stop offset="100%" stop-color="#231714"/>
        </linearGradient>
        <path id="bJ" d="M.09 1.007c.015.062.122.335.705.565.363.144.72.36 1.445.408.673.046 1.146-.288 1.452-.548.075-.065.32-.322.182-.816a.834.834 0 0 0-.182-.34c-.132-.147-.28-.191-.31-.158C3.047.49 2.38.706 1.891.603c0 0-1.726-.501-1.746-.561 0 0-.185.474-.056.965"/>
        <path id="bL" d="M.193.087s-.2.111-.08.3c.142.225.271.236 1.33.437.77.146.968.195 1.312-.133.137-.13.177-.264.177-.264S1.016.05.387.05C.28.05.21.061.193.087"/>
        <linearGradient id="bM" x1="50.451%" x2="48.749%" y1="46.364%" y2="54.006%">
            <stop offset="0%" stop-color="#E6EDF6"/>
            <stop offset="100%" stop-color="#BFCCD8"/>
        </linearGradient>
        <path id="bO" d="M15.73 5.13L7.516 15.277c-1.131-.657-4.906-2.868-6.233-3.836C.576 10.925.176 10.27.095 9.492c-.111-1.08.412-2.354 1.437-3.494.086-.096.174-.2.258-.301.097-.114.187-.222.269-.31C4.757 2.485 6.839.64 7.501.072c.615.445 2.174 1.497 5.882 3.697.824.49 1.61.943 2.346 1.36z"/>
        <path id="bQ" d="M.122 4.011c-.144.645-.11 1.419-.11 1.419.178.905.597 1.488.628 1.507 0 0 .964-.797 1.051-1.078.035-.11.034-.899-.027-1.4C1.272 1.21 1.95.071 1.95.071S.522 2.219.122 4.01"/>
        <path id="bS" d="M.122 4.011c-.144.645-.11 1.419-.11 1.419.178.905.597 1.488.628 1.507 0 0 .964-.797 1.051-1.078.035-.11.034-.899-.027-1.4C1.272 1.21 1.95.071 1.95.071S.522 2.219.122 4.01"/>
        <path id="bU" d="M.122 4.011c-.144.645-.11 1.419-.11 1.419.178.905.597 1.488.628 1.507 0 0 .964-.797 1.051-1.078.035-.11.034-.899-.027-1.4C1.272 1.21 1.95.071 1.95.071S.522 2.219.122 4.01"/>
        <path id="bW" d="M.122 4.011c-.144.645-.11 1.419-.11 1.419.178.905.597 1.488.628 1.507 0 0 .964-.797 1.051-1.078.035-.11.034-.899-.027-1.4C1.272 1.21 1.95.071 1.95.071S.522 2.219.122 4.01"/>
        <path id="bY" d="M0 .056h81.83v30.712H0z"/>
    </defs>
    <g fill="none" fill-rule="evenodd">
        <g transform="matrix(-1 0 0 1 39 20)">
            <mask id="b" fill="#fff">
                <use xlink:href="#a"/>
            </mask>
            <path d="M2.97 0C.688 0-.738 2.77.403 4.985L2.97 9.971l2.568-4.986C6.68 2.77 5.253 0 2.97 0z" mask="url(#b)"/>
        </g>
        <path fill="#FFF" d="M35 23a2 2 0 1 1 4 0 2 2 0 0 1-4 0"/>
        <g transform="matrix(-1 0 0 1 58 47)">
            <mask id="d" fill="#fff">
                <use xlink:href="#c"/>
            </mask>
            <path d="M2.97 0C.688 0-.738 2.77.403 4.985L2.97 9.971l2.568-4.986C6.68 2.77 5.253 0 2.97 0z" mask="url(#d)"/>
        </g>
        <path fill="#FFF" d="M54 50a2 2 0 1 1 4 0 2 2 0 0 1-4 0"/>
        <g>
            <path fill="#D6D6D6" d="M79.525 64H61.442L60 75h21z"/>
            <g transform="translate(55.24 75.128)">
                <mask id="f" fill="#fff">
                    <use xlink:href="#e"/>
                </mask>
                <path fill="#CCC" d="M.034 2.015C.032.971.811.125 1.774.125h26.931c.962 0 1.743.846 1.745 1.89H.034z" mask="url(#f)"/>
            </g>
            <g transform="translate(29)">
                <mask id="h" fill="#fff">
                    <use xlink:href="#g"/>
                </mask>
                <path fill="#242424" d="M80.984.018H2.208C1.111.018.218.916.214 2.024L0 62.664a1.989 1.989 0 0 0 1.98 2.006h78.776c1.098 0 1.99-.898 1.995-2.006l.213-60.64a1.988 1.988 0 0 0-1.98-2.006" mask="url(#h)"/>
            </g>
            <path fill="#333838" d="M107.657 5.168H33.5l-.192 54.352h74.159z"/>
            <path fill="gray" d="M71.248 2.486c0 .438-.298.793-.663.793-.365 0-.66-.355-.659-.793.002-.437.3-.792.664-.792.366 0 .66.355.658.792"/>
        </g>
        <g>
            <path fill="#BABABA" d="M99.596 87.249l3.735-3.64 22.196-12.66 4.93-1.3 3.333-2.29c2.947-1.696 2.947-5.55 0-7.246l-13.346-7.717a2.946 2.946 0 0 0-2.936-.008l-40.03 22.88c-1.965 1.123-1.972 3.948-.012 5.08l10.558 6.101c2.48 1.428 9.092 2.228 11.572.8"/>
            <path fill="#262729" d="M126 57.867L136 64v-4.867L126 53zM95 74.867L105 81v-4.867L95 70z"/>
            <path fill="#BFCCD9" d="M77.024 79.114c.247.918 1.173 2.15 2.879 3.284 1.639 1.09 4.896 3.046 6.804 3.955 1.99.948 6.069 3.551 9.417 2.167l-.195-1.873 1.985-9.787c-1.428-1.129-7.374-3.154-15.008-6.545l-3.88-.914c-.812 1.74-1.278 2.953-1.532 4.236-.023.117-.322.298-.427.454a.197.197 0 0 0-.035.078c-.066.399.242 4.35.25 4.408.021.163-.303.37-.258.537M87.16 58.8c.024.25.151.857.526 1.3.588.699 1.397 1.14 2.13 1.021 0 0 .187-.082.301-.307l.327-.787c-.01.032-.156-.014-.156-.014a.854.854 0 0 1-.747-.218s-2.036-2.564-1.979-2.763c0 0-.164.252-.311.631-.04.102-.155.51-.092 1.137"/>
            <path fill="#F7F9FC" d="M87.25 57.663c.032.08.076.164.137.255.254.378.621.867 1.224 1.414.728.66 1.403.883 1.833.695.056-.024-.732-.052-.903-.232 0 0-2.128-2.609-2.004-2.736 0 0-.139.225-.286.604"/>
            <g transform="translate(87 56)">
                <mask id="j" fill="#fff">
                    <use xlink:href="#i"/>
                </mask>
                <path d="M.232.095C0 .207-.107.5.217.925c.251.331.601.766 1.185 1.25.705.582 1.195.975 1.496.664C3.308 2.417.703.22.703.22.62.136.537.049.41.049a.411.411 0 0 0-.177.046" mask="url(#j)"/>
            </g>
            <path fill="#F7F9FC" d="M98.073 75.98l4.234-3.053c1.977-1.304-1.793-3.365-9.185-7.642-4.554-2.636-5.276-6.002-5.276-6.446 0 0-6.306 5.35-7.497 6.862-.52.662-1.017 1.815-1.245 2.45-.231.641.305 5.79 1.171 6.68 1.136 1.168 6.323 4.02 6.323 4.02 1 .388 7.26.148 11.475-2.872"/>
            <path fill="#F7F9FC" d="M85.757 61.438s2.844 2.839 8.111 6.08c7.52 4.626 9.379 4.449 9.379 4.449l6.293-11.565-14.67-8.996s-2.374 2.08-5.649 5.806c-1.37 1.558-3.464 4.226-3.464 4.226"/>
            <path fill="#36373B" d="M88.877 57.9c-1.7 2-2.244 4.617-.194 6.199 1.155.89 3.422 2.334 5.185 3.418 1.736 1.069 2.642 1.6 3.821 2.217 2.669 1.397 5.569.224 6.975-2.572 1.78-3.54 4.457-7.006 4.457-7.006l-14.1-8.672s-2.346 2.049-5.62 5.774c-.16.183-.348.435-.524.642"/>
            <path fill="#4F4E52" d="M98.4 54.616l-8.448 5.918-1.683 1.178c-.444.284-.439.13-.172-.432.572-1.211 1.194-2.494 1.855-3.774.365-.708.743-1.415 1.131-2.109 2.366-2.54 3.937-3.913 3.937-3.913l4.181 2.57-.8.562z"/>
            <path fill="#BEBCC2" d="M88.877 57.9c.176-.207.363-.46.524-.642 3.274-3.725 5.62-5.774 5.62-5.774l14.1 8.672-.041.055-13.565-8.343s-2.346 2.049-5.62 5.774c-.16.183-.348.435-.524.642-1.645 1.937-2.208 4.452-.38 6.046-.11-.08-.213-.158-.308-.231-2.05-1.582-1.505-4.199.194-6.2"/>
            <path fill="#262729" d="M109.121 60.156s-.416.54-1.03 1.41c-.32-.16-3.766-1.88-8.545-4.88-3.938-2.473-5.402-3.547-5.887-3.928.861-.837 1.361-1.274 1.361-1.274l14.101 8.672z"/>
            <path fill="#F7F9FC" d="M109.54 60.402l2.515-2.357 16.86-9.563-13.663-8.424s-6.12 2.693-15.926 8.172c-.851.476-2.941 1.976-3.928 2.757l-.529.419s.859.812 6.1 4.103c5.021 3.152 8.571 4.893 8.571 4.893"/>
            <g transform="translate(126 60)">
                <mask id="m" fill="#fff">
                    <use xlink:href="#k"/>
                </mask>
                <path fill="url(#l)" d="M3.5.576C1.592 1.803.05 4.776.058 7.218.06 8.431.445 9.285 1.065 9.686L3.03 10.96c-.62-.402 4.264-9.786 4.892-9.38L5.957.309c-.264-.171-.57-.26-.908-.26-.466 0-.993.17-1.55.528" mask="url(#m)"/>
            </g>
            <path fill="#231F20" d="M132.43 59.242"/>
            <path fill="#303030" d="M126.08 66.12c.013-.18.029-.404.095-.782.05-.292.063-.34.18-.795a9.712 9.712 0 0 1 .988-2.32 8.99 8.99 0 0 1 1.231-1.648c.086-.09.205-.204.294-.29.093-.093.226-.208.329-.288a9.19 9.19 0 0 1 .556-.4 3.3 3.3 0 0 1 .378-.215c.119-.054.275-.13.398-.174a4.24 4.24 0 0 1 .46-.133c.11-.024.263-.039.376-.05.15-.014.434.007.565.04a1.85 1.85 0 0 1 .5.177c-.67-.335-1.555-.239-2.526.37-2.077 1.307-3.756 4.472-3.75 7.072.004 1.291.423 2.2 1.098 2.627a2.027 2.027 0 0 1-.392-.323 2.398 2.398 0 0 1-.292-.382 2.881 2.881 0 0 1-.264-.552 3.91 3.91 0 0 1-.158-.593 5.473 5.473 0 0 1-.066-1.34"/>
            <path fill="#262729" d="M132.045 60.967c1.046-.657 1.993-.718 2.678-.285.18.118.725.477 1.013 1.458.176.604.173 1.183.172 1.373 0 .164-.01.428-.051.759-.052.425-.138.78-.138.783a12.23 12.23 0 0 1-.219.788c-.147.45-.296.788-.298.791-.052.116-.117.274-.174.387-.058.114-.132.267-.191.38-.06.112-.145.258-.207.369-.094.17-.347.56-.456.706-.076.103-.174.243-.255.342-.151.184-.359.424-.519.6a5.827 5.827 0 0 1-.293.29 5.84 5.84 0 0 1-.886.689c-.11.07-.262.154-.377.214-.076.04-.182.084-.26.12-.002 0-.27.12-.597.187-.197.04-.39.058-.572.052a2.069 2.069 0 0 1-.734-.154 3.784 3.784 0 0 1-.288-.15c-.676-.428-1.094-1.337-1.098-2.628-.007-2.6 1.672-5.765 3.75-7.07"/>
            <path fill="#1F2023" d="M132.26 61.372c1.959-1.231 3.552-.243 3.559 2.207.006 2.45-1.577 5.436-3.536 6.667-1.959 1.231-3.552.242-3.558-2.208-.007-2.45 1.576-5.435 3.535-6.666"/>
            <path fill="#3A3B40" d="M129.585 68.035c0 .062.002.134.006.212.033.602.22 1.59 1.1 1.59.34 0 .741-.139 1.162-.402 1.689-1.062 3.11-3.742 3.105-5.853-.002-.542-.113-1.802-1.107-1.802a1.37 1.37 0 0 0-.247.023c-.28.049-.592.178-.914.381-1.688 1.061-3.11 3.74-3.105 5.851"/>
            <path fill="#51545C" d="M130.122 69.218c.34 0 .74-.14 1.161-.404 1.689-1.06 3.11-3.74 3.105-5.852 0-.275-.03-.734-.187-1.12.672.259.755 1.27.757 1.74.005 2.111-1.417 4.791-3.106 5.852-.42.265-.821.404-1.16.404-.49 0-.765-.306-.919-.682a.96.96 0 0 0 .35.062"/>
            <path fill="#656871" d="M129.86 67.561c0 .054.001.116.005.184.098.389.317.764.8.764.268 0 .586-.11.92-.32 1.337-.84 2.462-2.962 2.458-4.633 0-.394-.075-1.265-.693-1.407a2.264 2.264 0 0 0-.794.33c-1.466.923-2.7 3.25-2.696 5.082"/>
            <path fill="#A8ADBD" d="M130.182 69.596l.055-.132a.738.738 0 0 0 .285.053c.3 0 .665-.128 1.054-.372 1.63-1.024 3.002-3.611 2.997-5.649-.002-.51-.092-1.322-.625-1.522.016-.016.315-.076.322-.077.453.379.517 1.192.518 1.599.005 2.11-1.416 4.79-3.105 5.852-.42.264-.822.404-1.161.404a.953.953 0 0 1-.37-.07.304.304 0 0 0 .03-.086"/>
            <g>
                <g transform="translate(130 62)">
                    <mask id="o" fill="#fff">
                        <use xlink:href="#n"/>
                    </mask>
                    <path fill="#C9CCD4" d="M3.687 4.57l.257.35-.15-.005-.398-.541z" mask="url(#o)"/>
                </g>
                <g transform="translate(130 62)">
                    <mask id="q" fill="#fff">
                        <use xlink:href="#p"/>
                    </mask>
                    <path fill="#C9CCD4" d="M3.59 4.068l.29.197-.644-.146-.291-.197z" mask="url(#q)"/>
                </g>
                <g transform="translate(130 62)">
                    <mask id="s" fill="#fff">
                        <use xlink:href="#r"/>
                    </mask>
                    <path fill="#C9CCD4" d="M2.728 4.94l.217.86.242.362-.159-.003-.374-.555-.217-.86z" mask="url(#s)"/>
                </g>
                <g transform="translate(130 62)">
                    <mask id="u" fill="#fff">
                        <use xlink:href="#t"/>
                    </mask>
                    <path fill="#C9CCD4" d="M2.938 4.264a.101.101 0 0 0 .03.032L2.676 4.1a.103.103 0 0 1-.03-.032l.292.196z" mask="url(#u)"/>
                </g>
                <g transform="translate(130 62)">
                    <mask id="w" fill="#fff">
                        <use xlink:href="#v"/>
                    </mask>
                    <path fill="#C9CCD4" d="M3.696 2.926l.917-1.08.119.4-.745.876-.848.632-.292-.196z" mask="url(#w)"/>
                </g>
                <g transform="translate(130 62)">
                    <mask id="y" fill="#fff">
                        <use xlink:href="#x"/>
                    </mask>
                    <path fill="#C9CCD4" d="M3.139 3.754l-.292-.196a.227.227 0 0 0-.038.02l-.029.024.291.196.03-.024a.227.227 0 0 1 .038-.02" mask="url(#y)"/>
                </g>
                <g transform="translate(130 62)">
                    <mask id="A" fill="#fff">
                        <use xlink:href="#z"/>
                    </mask>
                    <path fill="#C9CCD4" d="M1.856 5.946l.298-1.235.292.196-.298 1.235-.631 1.475-.39.035z" mask="url(#A)"/>
                </g>
                <g transform="translate(130 62)">
                    <mask id="C" fill="#fff">
                        <use xlink:href="#B"/>
                    </mask>
                    <path fill="#C9CCD4" d="M2.208 4.493l.291.197a.56.56 0 0 0-.053.217l-.292-.196c0-.066.02-.139.054-.218" mask="url(#C)"/>
                </g>
                <g transform="translate(130 62)">
                    <mask id="E" fill="#fff">
                        <use xlink:href="#D"/>
                    </mask>
                    <path fill="#C9CCD4" d="M3.415 1.936L4.45.72l.211.29-.954 1.123-.56.964-.292-.197z" mask="url(#E)"/>
                </g>
                <g transform="translate(130 62)">
                    <mask id="G" fill="#fff">
                        <use xlink:href="#F"/>
                    </mask>
                    <path fill="#D1D3D4" d="M3.102 3.037l-.291-.196c-.034-.023-.082-.02-.135.015l.292.197c.052-.036.1-.039.134-.016" mask="url(#G)"/>
                </g>
                <g transform="translate(130 62)">
                    <mask id="I" fill="#fff">
                        <use xlink:href="#H"/>
                    </mask>
                    <path fill="#C9CCD4" d="M1.102 5.734l.617-.969.292.197-.618.969L.66 7.656l-.314-.157z" mask="url(#I)"/>
                </g>
                <g transform="translate(130 62)">
                    <mask id="K" fill="#fff">
                        <use xlink:href="#J"/>
                    </mask>
                    <path fill="#C9CCD4" d="M1.659 4.547l.291.197a.4.4 0 0 0-.007.071c0 .07.022.117.056.14l-.292-.197c-.034-.023-.055-.07-.055-.14 0-.022.003-.047.007-.07" mask="url(#K)"/>
                </g>
                <g transform="translate(130 62)">
                    <mask id="M" fill="#fff">
                        <use xlink:href="#L"/>
                    </mask>
                    <path fill="#C9CCD4" d="M2.342 3.262a.425.425 0 0 1 .127-.06l.292.196a.424.424 0 0 0-.128.06.727.727 0 0 0-.127.11l-.292-.196a.734.734 0 0 1 .128-.11" mask="url(#M)"/>
                </g>
                <g transform="translate(130 62)">
                    <mask id="O" fill="#fff">
                        <use xlink:href="#N"/>
                    </mask>
                    <path fill="#C9CCD4" d="M1.947 3.86l.291.196a1.028 1.028 0 0 0-.04.333l-.291-.196a1.022 1.022 0 0 1 .04-.334" mask="url(#O)"/>
                </g>
                <g transform="translate(130 62)">
                    <mask id="Q" fill="#fff">
                        <use xlink:href="#P"/>
                    </mask>
                    <path fill="#C9CCD4" d="M1.999 3.271l.291.196a.493.493 0 0 0-.188.308l-.291-.196a.493.493 0 0 1 .188-.308" mask="url(#Q)"/>
                </g>
                <g transform="translate(130 62)">
                    <mask id="S" fill="#fff">
                        <use xlink:href="#R"/>
                    </mask>
                    <path fill="#D1D3D4" d="M3.271.14L2.98-.058l-.367.245.292.197z" mask="url(#S)"/>
                </g>
                <g transform="translate(130 62)">
                    <mask id="U" fill="#fff">
                        <use xlink:href="#T"/>
                    </mask>
                    <path fill="#C9CCD4" d="M2.684 1.956L2.614.188l.29.197.072 1.768-.215 1.245-.292-.196z" mask="url(#U)"/>
                </g>
                <g transform="translate(130 62)">
                    <mask id="W" fill="#fff">
                        <use xlink:href="#V"/>
                    </mask>
                    <path fill="#C9CCD4" d="M.99 4.737l.917-.544.29.196-.915.545-1.275.208-.291-.196z" mask="url(#W)"/>
                </g>
                <g transform="translate(130 62)">
                    <mask id="Y" fill="#fff">
                        <use xlink:href="#X"/>
                    </mask>
                    <path fill="#D1D3D4" d="M-.284 4.946l.291.196-.112.54-.292-.196z" mask="url(#Y)"/>
                </g>
                <g transform="translate(130 62)">
                    <mask id="aa" fill="#fff">
                        <use xlink:href="#Z"/>
                    </mask>
                    <path fill="#D1D3D4" d="M2.056.562l.291.196-.366.245-.292-.196z" mask="url(#aa)"/>
                </g>
                <g transform="translate(130 62)">
                    <mask id="ac" fill="#fff">
                        <use xlink:href="#ab"/>
                    </mask>
                    <path fill="#C9CCD4" d="M1.98 1.003l.07 1.758.24.706L2 3.271l-.24-.707L1.69.807z" mask="url(#ac)"/>
                </g>
                <g transform="translate(130 62)">
                    <mask id="ae" fill="#fff">
                        <use xlink:href="#ad"/>
                    </mask>
                    <path fill="#C9CCD4" d="M1.265 3.376l.546.203.291.196-.545-.203L.29 3.78l-.292-.197z" mask="url(#ae)"/>
                </g>
                <g transform="translate(130 62)">
                    <mask id="ag" fill="#fff">
                        <use xlink:href="#af"/>
                    </mask>
                    <path fill="#8C8F98" d="M2.01 4.962c-.04-.02-.067-.07-.067-.147 0-.023.003-.047.007-.071l-.748.537-1.307.401.112-.54 1.275-.208.916-.544a1.029 1.029 0 0 1 .04-.334l-.745-.14-1.315.404.112-.54 1.267-.208.545.204a.493.493 0 0 1 .188-.309l-.24-.706-.07-1.758.367-.245-.061 1.857.22.954a.734.734 0 0 1 .127-.11.426.426 0 0 1 .128-.061l.215-1.246L2.905.385 3.27.139 3.21 1.984l-.242 1.069c.08-.055.15-.033.177.044l.561-.964.954-1.123s.028.061.047.185c.02.13.015.213.015.213l-.95.982-.743 1.136a.517.517 0 0 1 .042.272l.03-.024a.216.216 0 0 1 .038-.02l.848-.632.745-.877s.005.094-.011.24c-.017.154-.042.246-.042.246l-.61.63-.783.487a.273.273 0 0 1 .006.053c0 .07-.021.148-.056.218l.645.146.253.25s0 .072-.048.189c-.045.108-.142.216-.142.216l-.257-.35-.634-.265c-.05.016-.09 0-.115-.041-.047.09-.103.174-.162.252.031.024.05.07.05.138l.304.83.324.31s-.017.084-.098.197c-.06.085-.17.17-.17.17l-.24-.36-.218-.86a.366.366 0 0 1-.091.093.148.148 0 0 1-.091.028l-.213 1.149-.457 1.242s-.038.046-.15.097c-.145.066-.21.067-.21.067l.631-1.475.299-1.235c0-.066.02-.138.053-.217a.217.217 0 0 1-.169-.023l-.06.106c-.01.02-.02.04-.032.057l-.65 1.146-.642 1.746s-.045.012-.13-.01C.7 7.685.66 7.657.66 7.657l.733-1.726.618-.968z" mask="url(#ag)"/>
                </g>
                <g transform="translate(130 62)">
                    <mask id="ai" fill="#fff">
                        <use xlink:href="#ah"/>
                    </mask>
                    <path fill="#D1D3D4" d="M-.002 3.583l.292.197-.112.54-.292-.197z" mask="url(#ai)"/>
                </g>
                <g transform="translate(130 62)">
                    <mask id="ak" fill="#fff">
                        <use xlink:href="#aj"/>
                    </mask>
                    <path fill="#51545C" d="M2.12 4.575c.056-.038.102-.008.103.067a.272.272 0 0 1-.103.205c-.056.038-.102.008-.102-.067a.27.27 0 0 1 .102-.205" mask="url(#ak)"/>
                </g>
                <g transform="translate(130 62)">
                    <mask id="am" fill="#fff">
                        <use xlink:href="#al"/>
                    </mask>
                    <path fill="#51545C" d="M2.3 3.618c.056-.038.103-.008.103.068a.271.271 0 0 1-.103.205c-.056.037-.102.007-.102-.068a.27.27 0 0 1 .102-.205" mask="url(#am)"/>
                </g>
                <g transform="translate(130 62)">
                    <mask id="ao" fill="#fff">
                        <use xlink:href="#an"/>
                    </mask>
                    <path fill="#51545C" d="M3 3.155c.056-.038.102-.008.102.068A.272.272 0 0 1 3 3.428c-.056.038-.102.007-.103-.068 0-.075.046-.167.102-.205" mask="url(#ao)"/>
                </g>
                <g transform="translate(130 62)">
                    <mask id="aq" fill="#fff">
                        <use xlink:href="#ap"/>
                    </mask>
                    <path fill="#51545C" d="M3.078 3.898c.056-.038.102-.008.103.068a.271.271 0 0 1-.103.205c-.056.038-.102.007-.102-.068 0-.076.045-.167.102-.205" mask="url(#aq)"/>
                </g>
                <g transform="translate(130 62)">
                    <mask id="as" fill="#fff">
                        <use xlink:href="#ar"/>
                    </mask>
                    <path fill="#51545C" d="M2.634 4.636c.056-.038.102-.008.102.068a.272.272 0 0 1-.102.205c-.056.038-.102.007-.103-.068 0-.076.046-.167.103-.205" mask="url(#as)"/>
                </g>
            </g>
            <g fill="#C9CCD4">
                <path d="M132.875 62.467c.297-.2.585-.327.844-.375.08-.016.156-.023.228-.023.862 0 1.005 1.091 1.02 1.666-.135-.401-.392-.743-.874-.743-.073 0-.15.007-.228.022-.26.048-.547.176-.844.376-1.56 1.044-2.873 3.68-2.868 5.758l.001.107a3.142 3.142 0 0 1-.142-.822 3.783 3.783 0 0 1-.005-.208c-.005-2.077 1.308-4.714 2.868-5.758"/>
                <path d="M130.206 68.224c-.005-2.004 1.263-4.55 2.768-5.558.275-.183.543-.303.778-.347a1.02 1.02 0 0 1 .195-.02c.713 0 .822.968.824 1.544.004 2.006-1.264 4.551-2.769 5.56-.359.239-.695.366-.973.366-.62 0-.787-.734-.818-1.35a3.522 3.522 0 0 1-.005-.195m-.2 0c0 .062.002.133.006.21.03.592.204 1.565 1.017 1.565.313 0 .684-.137 1.072-.397 1.56-1.044 2.873-3.682 2.868-5.76-.001-.532-.103-1.773-1.022-1.773-.072 0-.149.007-.228.023-.26.048-.547.176-.844.375-1.56 1.044-2.873 3.681-2.868 5.758"/>
            </g>
            <g transform="translate(96 78)">
                <mask id="av" fill="#fff">
                    <use xlink:href="#at"/>
                </mask>
                <path fill="url(#au)" d="M3.501.603C1.574 1.83.016 4.803.023 7.245.026 8.458.414 9.312 1.04 9.713l1.986 1.273C2.4 10.584 7.337 1.2 7.97 1.607L5.985.335a1.674 1.674 0 0 0-.917-.26c-.472 0-1.004.17-1.567.528" mask="url(#av)"/>
            </g>
            <g>
                <path fill="#231F20" d="M101.679 77.281c.054.029.107.06.16.095-.048-.03-.104-.063-.16-.095"/>
                <path fill="#303030" d="M95.043 84.399c.014-.187.03-.419.1-.81.053-.301.066-.35.188-.823.001-.003.094-.352.272-.82a9.999 9.999 0 0 1 .761-1.58c.177-.299.235-.382.477-.731a8.959 8.959 0 0 1 .809-.975c.09-.093.214-.21.307-.3.098-.096.236-.215.343-.298.17-.131.402-.3.582-.415.112-.071.264-.163.395-.222.124-.055.288-.135.415-.18.142-.05.335-.106.48-.137a3.72 3.72 0 0 1 .394-.052c.158-.014.454.008.591.041.232.057.232.057.38.116.044.018.093.042.142.068-.7-.347-1.625-.248-2.639.383-2.171 1.352-3.926 4.628-3.919 7.318.004 1.336.442 2.277 1.147 2.72a2.116 2.116 0 0 1-.409-.336 2.486 2.486 0 0 1-.306-.395 2.979 2.979 0 0 1-.275-.57 4.019 4.019 0 0 1-.165-.615 5.61 5.61 0 0 1-.07-1.387"/>
                <g transform="translate(97.3 78.402)">
                    <mask id="ax" fill="#fff">
                        <use xlink:href="#aw"/>
                    </mask>
                    <path fill="#262729" d="M3.976.664C5.07-.016 6.06-.08 6.774.368c.188.122.759.494 1.059 1.509.185.625.181 1.224.18 1.421 0 .17-.011.443-.054.786-.054.44-.143.807-.144.81-.061.247-.149.575-.228.815-.154.466-.31.816-.312.82-.054.12-.122.282-.182.4-.06.118-.137.276-.2.392-.062.117-.15.268-.215.383-.099.175-.363.579-.477.73-.08.107-.182.252-.266.354-.159.191-.376.44-.543.622a6.02 6.02 0 0 1-.307.3c-.084.079-.202.178-.29.254-.002.002-.298.25-.635.459a6.677 6.677 0 0 1-.394.221c-.08.041-.19.087-.271.124a3.41 3.41 0 0 1-.625.194c-.205.041-.406.06-.598.054a2.18 2.18 0 0 1-.767-.16 3.95 3.95 0 0 1-.3-.155C.499 10.258.06 9.318.058 7.98.05 5.291 1.805 2.015 3.976.664" mask="url(#ax)"/>
                </g>
                <path fill="#1F2023" d="M101.502 79.485c2.046-1.274 3.712-.252 3.718 2.284.007 2.536-1.647 5.626-3.694 6.9-2.047 1.274-3.712.25-3.719-2.285-.006-2.536 1.648-5.625 3.695-6.9"/>
                <path fill="#3A3B40" d="M98.707 86.38c0 .065.001.14.006.22.034.623.23 1.646 1.15 1.646.355 0 .774-.144 1.213-.417 1.765-1.099 3.25-3.872 3.245-6.057-.002-.56-.118-1.865-1.156-1.865-.083 0-.17.007-.259.024-.293.05-.618.185-.955.394-1.764 1.099-3.25 3.871-3.244 6.055"/>
                <path fill="#51545C" d="M99.268 87.605c.354 0 .773-.145 1.213-.418 1.765-1.098 3.25-3.872 3.245-6.057-.001-.284-.031-.76-.196-1.16.702.269.79 1.315.79 1.802.007 2.185-1.48 4.958-3.244 6.057-.44.273-.859.418-1.213.418-.512 0-.8-.317-.96-.706.107.04.228.064.365.064"/>
                <path fill="#656871" d="M98.994 85.89c0 .056.001.12.005.19.102.403.332.791.836.791.28 0 .613-.114.96-.33 1.398-.87 2.575-3.067 2.57-4.796-.001-.407-.078-1.31-.725-1.456-.254.044-.536.16-.829.342-1.532.954-2.822 3.362-2.817 5.259"/>
                <path fill="#A8ADBD" d="M99.33 87.996c.02-.045.04-.091.058-.137a.778.778 0 0 0 .297.055c.315 0 .696-.133 1.101-.385 1.703-1.06 3.138-3.737 3.132-5.846-.001-.528-.095-1.368-.653-1.575.017-.017.33-.08.337-.08.474.392.54 1.233.541 1.655.006 2.184-1.48 4.958-3.244 6.057-.44.273-.859.417-1.214.417-.146 0-.274-.026-.386-.072a.308.308 0 0 0 .031-.089"/>
            </g>
            <g>
                <g transform="translate(99 80)">
                    <mask id="az" fill="#fff">
                        <use xlink:href="#ay"/>
                    </mask>
                    <path fill="#C9CCD4" d="M3.674 4.503l.253.35-.148-.004-.391-.542z" mask="url(#az)"/>
                </g>
                <g transform="translate(99 80)">
                    <mask id="aB" fill="#fff">
                        <use xlink:href="#aA"/>
                    </mask>
                    <path fill="#C9CCD4" d="M3.578 4.002l.287.196-.634-.146-.287-.196z" mask="url(#aB)"/>
                </g>
                <g transform="translate(99 80)">
                    <mask id="aD" fill="#fff">
                        <use xlink:href="#aC"/>
                    </mask>
                    <path fill="#C9CCD4" d="M2.73 4.874l.215.86.237.36-.156-.002-.368-.555-.213-.86z" mask="url(#aD)"/>
                </g>
                <g transform="translate(99 80)">
                    <mask id="aF" fill="#fff">
                        <use xlink:href="#aE"/>
                    </mask>
                    <path fill="#C9CCD4" d="M2.937 4.197a.1.1 0 0 0 .03.032l-.287-.196a.1.1 0 0 1-.03-.032l.287.196z" mask="url(#aF)"/>
                </g>
                <g transform="translate(99 80)">
                    <mask id="aH" fill="#fff">
                        <use xlink:href="#aG"/>
                    </mask>
                    <path fill="#C9CCD4" d="M3.683 2.859l.902-1.08.117.4-.733.876-.834.633-.287-.197z" mask="url(#aH)"/>
                </g>
                <g transform="translate(99 80)">
                    <mask id="aJ" fill="#fff">
                        <use xlink:href="#aI"/>
                    </mask>
                    <path fill="#C9CCD4" d="M3.135 3.687l-.287-.196a.222.222 0 0 0-.037.02l-.029.024.287.196.029-.024a.209.209 0 0 1 .037-.02" mask="url(#aJ)"/>
                </g>
                <g transform="translate(99 80)">
                    <mask id="aL" fill="#fff">
                        <use xlink:href="#aK"/>
                    </mask>
                    <path fill="#C9CCD4" d="M1.874 5.88l.293-1.236.287.197-.294 1.234-.62 1.475-.384.036z" mask="url(#aL)"/>
                </g>
                <g transform="translate(99 80)">
                    <mask id="aN" fill="#fff">
                        <use xlink:href="#aM"/>
                    </mask>
                    <path fill="#C9CCD4" d="M2.22 4.427l.286.196a.57.57 0 0 0-.052.218l-.287-.197a.57.57 0 0 1 .052-.217" mask="url(#aN)"/>
                </g>
                <g transform="translate(99 80)">
                    <mask id="aP" fill="#fff">
                        <use xlink:href="#aO"/>
                    </mask>
                    <path fill="#C9CCD4" d="M3.407 1.87L4.423.653l.208.29-.938 1.123-.552.964-.286-.196z" mask="url(#aP)"/>
                </g>
                <g transform="translate(99 80)">
                    <mask id="aR" fill="#fff">
                        <use xlink:href="#aQ"/>
                    </mask>
                    <path fill="#D1D3D4" d="M3.1 2.97l-.287-.196c-.034-.023-.08-.02-.133.016l.287.196c.052-.035.098-.039.132-.015" mask="url(#aR)"/>
                </g>
                <g transform="translate(99 80)">
                    <mask id="aT" fill="#fff">
                        <use xlink:href="#aS"/>
                    </mask>
                    <path fill="#C9CCD4" d="M1.132 5.667l.607-.969.287.197-.607.969-.722 1.725-.309-.157z" mask="url(#aT)"/>
                </g>
                <g transform="translate(99 80)">
                    <mask id="aV" fill="#fff">
                        <use xlink:href="#aU"/>
                    </mask>
                    <path fill="#C9CCD4" d="M1.68 4.48l.286.197a.408.408 0 0 0-.007.071c0 .07.021.117.055.14l-.286-.196c-.034-.023-.055-.071-.055-.14 0-.023.003-.047.007-.071" mask="url(#aV)"/>
                </g>
                <g transform="translate(99 80)">
                    <mask id="aX" fill="#fff">
                        <use xlink:href="#aW"/>
                    </mask>
                    <path fill="#C9CCD4" d="M2.351 3.195a.415.415 0 0 1 .126-.06l.286.196a.416.416 0 0 0-.125.06.722.722 0 0 0-.126.11l-.286-.195a.722.722 0 0 1 .125-.111" mask="url(#aX)"/>
                </g>
                <g transform="translate(99 80)">
                    <mask id="aZ" fill="#fff">
                        <use xlink:href="#aY"/>
                    </mask>
                    <path fill="#C9CCD4" d="M1.963 3.793l.287.196a1.041 1.041 0 0 0-.04.334l-.287-.197a1.042 1.042 0 0 1 .04-.334" mask="url(#aZ)"/>
                </g>
                <g transform="translate(99 80)">
                    <mask id="bb" fill="#fff">
                        <use xlink:href="#ba"/>
                    </mask>
                    <path fill="#C9CCD4" d="M2.014 3.204l.287.197a.494.494 0 0 0-.185.308l-.287-.197a.494.494 0 0 1 .185-.308" mask="url(#bb)"/>
                </g>
                <g transform="translate(99 80)">
                    <mask id="bd" fill="#fff">
                        <use xlink:href="#bc"/>
                    </mask>
                    <path fill="#D1D3D4" d="M3.265.072L2.98-.124l-.36.245.286.197z" mask="url(#bd)"/>
                </g>
                <g transform="translate(99 80)">
                    <mask id="bf" fill="#fff">
                        <use xlink:href="#be"/>
                    </mask>
                    <path fill="#C9CCD4" d="M2.688 1.89L2.618.12l.287.197.07 1.768-.212 1.245-.286-.196z" mask="url(#bf)"/>
                </g>
                <g transform="translate(99 80)">
                    <mask id="bh" fill="#fff">
                        <use xlink:href="#bg"/>
                    </mask>
                    <path fill="#C9CCD4" d="M1.022 4.67l.901-.544.287.197-.901.544-1.253.208-.287-.196z" mask="url(#bh)"/>
                </g>
                <g transform="translate(99 80)">
                    <mask id="bj" fill="#fff">
                        <use xlink:href="#bi"/>
                    </mask>
                    <path fill="#D1D3D4" d="M-.23 4.879l.286.196-.11.54-.287-.196z" mask="url(#bj)"/>
                </g>
                <g transform="translate(99 80)">
                    <mask id="bl" fill="#fff">
                        <use xlink:href="#bk"/>
                    </mask>
                    <path fill="#D1D3D4" d="M2.07.495l.287.196-.36.246L1.71.74z" mask="url(#bl)"/>
                </g>
                <g transform="translate(99 80)">
                    <mask id="bn" fill="#fff">
                        <use xlink:href="#bm"/>
                    </mask>
                    <path fill="#C9CCD4" d="M1.996.937l.07 1.757.235.707-.287-.197-.235-.706L1.709.74z" mask="url(#bn)"/>
                </g>
                <g transform="translate(99 80)">
                    <mask id="bp" fill="#fff">
                        <use xlink:href="#bo"/>
                    </mask>
                    <path fill="#C9CCD4" d="M1.293 3.31l.536.202.287.197-.537-.203-1.246.207-.286-.196z" mask="url(#bp)"/>
                </g>
                <g transform="translate(99 80)">
                    <mask id="br" fill="#fff">
                        <use xlink:href="#bq"/>
                    </mask>
                    <path fill="#8C8F98" d="M2.026 4.895c-.04-.02-.067-.07-.067-.147 0-.023.003-.047.007-.071l-.735.537-1.286.401.11-.54 1.254-.208.9-.544a1.042 1.042 0 0 1 .04-.334l-.733-.14-1.293.404.11-.54 1.246-.207.537.203A.494.494 0 0 1 2.3 3.4l-.236-.707L1.996.937l.36-.246-.06 1.857.216.954a.72.72 0 0 1 .126-.11.415.415 0 0 1 .125-.06l.212-1.246-.07-1.768.36-.246-.06 1.846-.238 1.068c.08-.054.147-.033.174.044l.552-.964.938-1.122s.027.06.046.184c.02.13.015.213.015.213l-.934.982-.73 1.137a.523.523 0 0 1 .04.271c.01-.008.02-.017.03-.023a.21.21 0 0 1 .037-.02l.834-.633.733-.877s.005.094-.011.24c-.017.154-.042.246-.042.246l-.6.63-.769.487a.284.284 0 0 1 .006.053c0 .07-.021.148-.055.218l.634.146.249.25s0 .072-.048.189c-.044.108-.14.216-.14.216l-.252-.35-.623-.265c-.049.016-.09 0-.114-.04a1.7 1.7 0 0 1-.159.25c.03.025.05.071.05.14l.298.83.319.31s-.017.084-.096.196c-.06.085-.167.17-.167.17l-.237-.36-.214-.86a.361.361 0 0 1-.09.093.144.144 0 0 1-.09.029l-.208 1.148-.45 1.242s-.037.046-.147.097a.59.59 0 0 1-.206.067l.62-1.475.294-1.234a.57.57 0 0 1 .052-.218.21.21 0 0 1-.166-.023l-.06.107a.548.548 0 0 1-.031.056L1.61 5.91.98 7.655s-.044.013-.129-.009C.738 7.617.697 7.59.697 7.59l.722-1.725.607-.97z" mask="url(#br)"/>
                </g>
                <g transform="translate(99 80)">
                    <mask id="bt" fill="#fff">
                        <use xlink:href="#bs"/>
                    </mask>
                    <path fill="#D1D3D4" d="M.047 3.516l.286.197-.11.54-.286-.197z" mask="url(#bt)"/>
                </g>
                <g transform="translate(99 80)">
                    <mask id="bv" fill="#fff">
                        <use xlink:href="#bu"/>
                    </mask>
                    <path fill="#51545C" d="M2.133 4.508c.056-.038.101-.008.101.068a.273.273 0 0 1-.1.205c-.056.038-.101.007-.101-.068 0-.075.044-.167.1-.205" mask="url(#bv)"/>
                </g>
                <g transform="translate(99 80)">
                    <mask id="bx" fill="#fff">
                        <use xlink:href="#bw"/>
                    </mask>
                    <path fill="#51545C" d="M2.31 3.551c.056-.038.101-.008.101.068a.273.273 0 0 1-.1.205c-.056.038-.101.007-.101-.068 0-.075.044-.167.1-.205" mask="url(#bx)"/>
                </g>
                <g transform="translate(99 80)">
                    <mask id="bz" fill="#fff">
                        <use xlink:href="#by"/>
                    </mask>
                    <path fill="#51545C" d="M2.998 3.088c.056-.038.101-.007.101.068a.273.273 0 0 1-.1.205c-.056.038-.101.007-.101-.068 0-.075.044-.167.1-.205" mask="url(#bz)"/>
                </g>
                <g transform="translate(99 80)">
                    <mask id="bB" fill="#fff">
                        <use xlink:href="#bA"/>
                    </mask>
                    <path fill="#51545C" d="M3.075 3.831c.055-.038.1-.008.101.068a.273.273 0 0 1-.1.205c-.056.038-.101.007-.101-.068 0-.075.044-.167.1-.205" mask="url(#bB)"/>
                </g>
                <g transform="translate(99 80)">
                    <mask id="bD" fill="#fff">
                        <use xlink:href="#bC"/>
                    </mask>
                    <path fill="#51545C" d="M2.638 4.57c.056-.039.101-.008.101.067a.273.273 0 0 1-.1.205c-.056.038-.101.007-.101-.068 0-.075.045-.167.1-.205" mask="url(#bD)"/>
                </g>
            </g>
            <g>
                <path fill="#C9CCD4" d="M101.597 80.533c.33-.196.647-.321.933-.368.088-.015.173-.022.253-.022.952 0 1.111 1.072 1.129 1.637-.15-.395-.435-.73-.968-.73-.08 0-.165.006-.252.021a2.747 2.747 0 0 0-.933.369c-1.725 1.026-3.177 3.617-3.172 5.657 0 .033 0 .068.002.106a2.777 2.777 0 0 1-.157-.808 3.232 3.232 0 0 1-.006-.205c-.005-2.04 1.447-4.63 3.171-5.657"/>
                <path fill="#C9CCD4" d="M98.646 86.19c-.005-1.97 1.397-4.47 3.062-5.46.303-.181.6-.299.859-.342.074-.012.146-.019.216-.019.788 0 .909.95.91 1.517.006 1.97-1.396 4.47-3.06 5.461-.397.236-.77.36-1.077.36-.684 0-.87-.72-.904-1.326a3.076 3.076 0 0 1-.006-.191m-.22 0c0 .06.002.13.006.205.034.583.225 1.539 1.124 1.539.347 0 .756-.135 1.186-.39 1.725-1.027 3.177-3.618 3.171-5.66-.001-.523-.115-1.742-1.13-1.742-.08 0-.165.008-.252.023a2.746 2.746 0 0 0-.933.368c-1.725 1.027-3.177 3.617-3.172 5.657"/>
                <path fill="#BFCCD9" d="M92.348 87.123c0 .23.737 1.238 2.668.594.159-.053.326-.116.5-.193v-1c0-1.185.558-2.645 1.403-3.97.811-1.272 1.888-2.419 2.992-3.076l.912-.542c1.103-.657 2.162-.781 2.955-.463.827.33 1.364 1.139 1.364 2.324v1.016l20.99-12.488v-.903c0-1.273.508-2.726 1.326-4.038.796-1.275 1.883-2.417 3.084-3.13l.805-.48c1.2-.714 2.289-.867 3.084-.539.818.338 1.326 1.187 1.326 2.46v.903l.566-.34s.831-1.357 1.12-2.035c.29-.678.39-3.012.39-3.012l.109-2.401a4.744 4.744 0 0 0-.241-1.724 48.066 48.066 0 0 0-.212-.618c-.205-.588-.44-1.218-.635-1.627-.103-.217-.19-.379-.264-.422-.708-.41-4.65-3.017-6.365-2.705-.138.025-.265.034-.373.065-1.428.402-12.651 6.252-16.735 8.877-5.473 3.517-9.112 12.846-10.415 14.49-1.216 1.537-4.393 3.437-6.236 4.851a16.905 16.905 0 0 0-3.158 3.214c-.115.156-.28 1.913-.295 2.043-.048.43-.072 1.106-.072 1.298v2.6s-.593.718-.593.971"/>
                <path fill="#909EAB" d="M95.016 87.716v-1.191c0-1.225.541-2.776 1.485-4.255.888-1.391 2.04-2.571 3.16-3.238l.912-.543c.769-.457 1.562-.7 2.293-.7.39 0 .759.069 1.094.203 1.07.428 1.683 1.45 1.683 2.805v.719l-.5.297v-1.016c0-1.185-.538-1.994-1.364-2.324-.794-.318-1.853-.194-2.956.463l-.912.543c-1.104.656-2.18 1.803-2.992 3.075-.845 1.325-1.403 2.785-1.403 3.97v1c-.175.077-.341.14-.5.192M125.631 69.623v-1.2c0-1.331.5-2.864 1.406-4.318.871-1.397 2.027-2.568 3.254-3.298l.806-.48c.85-.505 1.698-.772 2.452-.772.384 0 .744.068 1.068.202.986.407 1.574 1.387 1.635 2.708 0 0-.015.372-.03.853l-.465.28v-.903c0-1.273-.508-2.122-1.326-2.46-.795-.329-1.884-.175-3.084.54l-.805.478c-1.2.714-2.288 1.856-3.084 3.13-.818 1.313-1.327 2.766-1.327 4.04v.902l-.5.298z"/>
                <path fill="#36373B" d="M119.901 42.013c2.145 1.356 11.008 6.678 10.865 6.691.029.125.505.389 1.1.685.679.337 1.512.715 2.009.976 1.717.901 2.294 1.137 2.715 1.054-.211-.156-2.226-1.402-4.683-2.902-3.954-2.414-9.054-5.488-9.628-5.74-.2-.087-4.584-2.16-2.378-.764M104.91 71.641l1.703-1.15 8.55-5.78 1.402-.947 8.37-5.657 1.376-.93.49-.331c2.014-1.458 3.736-5.127 3.736-6.03 0-.51-1.466-.543-4.936.908a41.64 41.64 0 0 0-1.17.51c-2.189.998-5.026 2.495-8.608 4.67a128.51 128.51 0 0 0-2.136 1.323c-2.562 1.617-5.01 5.447-7.074 9.306a116.67 116.67 0 0 0-1.878 3.686c-.27.549-.275.699.175.422"/>
                <path fill="#BEBCC2" d="M104.934 70.815l1.118-.756 20.189-13.644c1.938-1.403 3.605-4.852 3.729-5.916.386.017.568.137.568.316 0 .904-1.723 4.573-3.737 6.03L106.613 70.49l-1.703 1.151c-.45.277-.444.127-.175-.422l.199-.404"/>
                <path fill="#D42250" d="M136.53 53.809l1.061-.047c-.205-.587-.543-1.512-.737-1.92 0 0-.119.252-.552.57-.263.191-.942.704-.942.704-.27.161.18.422.553.58.196.084.406.122.618.113"/>
                <path fill="#FC3A6C" d="M135.36 53.116s.68-.513.942-.705c.433-.317.552-.57.552-.57.049.104.107.24.17.395a2.77 2.77 0 0 1-.271.226c-.263.192-.942.705-.942.705-.27.16.18.421.553.58.057.025.116.045.176.061-.22.01-.431-.028-.627-.111-.374-.16-.824-.42-.553-.58"/>
                <path fill="#F7F9FC" d="M88.78 79.867c.02-.046.632-.124.724-.136-.063.02-.101.04-.108.056-.125.291.294 1.697.294 1.697-.019.066 1.253.859 3.373.467 0 0 1.096-.669 1.566-1.197.219-.247.42-.5.602-.752-.232.478-.556.938-.903 1.381-.53.676-1.427.968-1.427.968-2.172.508-3.846-.72-3.827-.786 0 0-.419-1.406-.294-1.698M77.065 73.221c-.022.058.003.169.003.169.192.98.662 1.658.696 1.678l.395-.33c-.035-.02-.486-.65-.677-1.631 0 0-.006-.132-.004-.335-.022.116-.311.295-.413.45"/>
                <path fill="#262729" d="M104.494 68.073c-1.555 1.998-4.079 2.708-6.425 1.523-1.194-.603-2.11-1.122-3.868-2.165-1.784-1.06-4.078-2.468-5.246-3.338-1.864-1.387-1.609-3.59-.292-5.44l.799.476.97-.168c.414-.072.84.007 1.204.224l2.648 1.574c.375.223.66.578.803 1l.325.957 9.082 5.357z"/>
                <path fill="#BEBCC2" d="M119.901 42.013c2.145 1.356 11.008 6.678 10.865 6.691.029.125.505.389 1.1.685a2.14 2.14 0 0 0 .041-.872c-3.954-2.414-9.054-5.488-9.628-5.74-.2-.087-4.584-2.16-2.378-.764"/>
                <g transform="translate(115.699 40)">
                    <mask id="bF" fill="#fff">
                        <use xlink:href="#bE"/>
                    </mask>
                    <path fill="#F7F9FC" d="M13.885 8.872l.198-.065c.473-.131 1.355.195 1.355.195.216-.394.324-1.496-.43-2.154-1.039-.907-3.49-2.383-4.677-3.09C8.953 2.938 6.176 1.434 4.75.74 3.392.076 1.788-.18.476.457L.079.645l13.806 8.227z" mask="url(#bF)"/>
                </g>
            </g>
            <g transform="translate(135 59)">
                <mask id="bI" fill="#fff">
                    <use xlink:href="#bG"/>
                </mask>
                <path fill="url(#bH)" d="M.072 1.887c.69.306 1.074 1.075 1.074 2.229l.043.816.477-.308s.773-1.26 1.017-1.875c.244-.613.255-2.695.255-2.695L.072 1.887z" mask="url(#bI)"/>
            </g>
            <g>
                <path fill="#36373B" d="M127.602 64.8l-.908.535-1.548 3.573c-.15.381-.42.7-.767.905l-19.2 11.315.01 1.005 21.081-12.42.046-.944c0-1.266.641-2.765 1.286-3.969M95.024 87.104l.002.894c.159-.053.32-.091.502-.192v-.994l-.504.292z"/>
                <path fill="#F7F9FC" d="M119.945 70.164c-3.298 1.738-6.276 3.377-9.574 5.605-1.287.869-4.26 3.159-4.26 3.159l18.678-11.041s-3.199 1.41-4.844 2.277M126.943 57.306c1.643-1.178 3.092-3.805 3.578-5.232-.562 2.08-.836 3.099-.581 3.365.302.316 4.727-2.068 6.424-3.191.322-.214.673.083.673.083s-.03.292-1.647 1.376c-2.726 1.826-6.657 4.343-15.12 9.89-16.551 10.85-23.314 13.342-23.314 13.342s3.951-2.961 5.042-3.644c0 0-1.022.866-.794.941.192.064 4.917-2.998 4.917-2.998l20.822-13.932z"/>
                <path fill="#BFCCD9" d="M104.95 72.051l1.72-1.18v-2.994a119.208 119.208 0 0 0-1.928 3.677c-.27.546-.244.772.207.497"/>
                <path fill="#F7F9FC" d="M137.937 58.485l-2.699 1.59s1.774-1.678 2.692-2.197c.065-.037.007.607.007.607"/>
                <path fill="#303236" d="M114.234 58.421l.539 6.223.483.482.105-7.391c-.46.276-.643.387-1.127.686"/>
                <path fill="#262729" d="M114.65 58.136l.606 6.99 1.408-.942-.886-6.735c-.46.276-.643.387-1.127.687"/>
                <path fill="#303236" d="M124.169 52.889l.448 5.174.452.497.275-6.18c-.369.153-.76.322-1.175.509"/>
                <path fill="#262729" d="M124.563 52.722l.506 5.838 1.382-.925-.713-5.421c-.369.152-.76.32-1.175.508"/>
                <path fill="#909EAB" d="M117.877 72.316a.622.622 0 0 0-.289-.529l-.015-.01a.63.63 0 0 1-.29-.534v-4.454c0-.78-.38-1.508-1.014-1.945l-.293-.201-.76-6.828c-.09.05-.384.226-1.286.81-1.087.702-2.064 1.562-2.679 2.358-.143.186-.294.378-.447.574-.513.653-1.042 1.329-1.508 2.02a55.327 55.327 0 0 0-2.712 4.518c-.224.417-.622 1.203-.74 1.433a.802.802 0 0 0-.086.35l-.032 1.638.105.193c.195.357.23.785.098 1.173-.247.724-.63 2.172-.419 3.731.306 2.254.705 3.238.782 3.413l11.585-6.717v-.993zm-11.625 7.766c-.004-.01-.46-.956-.8-3.46-.214-1.572.172-3.03.421-3.76a1.407 1.407 0 0 0-.094-1.124l-.113-.207.033-1.655a.862.862 0 0 1 .093-.375c.117-.231.516-1.017.74-1.435a55.429 55.429 0 0 1 2.716-4.523c.466-.693.997-1.37 1.51-2.024l.447-.573c.62-.802 1.6-1.667 2.694-2.373 1.183-.765 1.324-.83 1.33-.833l.036-.017.767 6.885.27.186a2.418 2.418 0 0 1 1.039 1.995v4.454a.57.57 0 0 0 .263.483l.015.01a.682.682 0 0 1 .316.58v1.028l-11.642 6.75-.027.016-.014-.028z"/>
                <path fill="#909EAB" d="M117.9 73.364l6.647-4.024 1.744-4.28c.065-.16.202-.413.362-.706.33-.605.74-1.359.74-1.73v-1.98a2.91 2.91 0 0 0-1.277-2.42l-.27-.183-.675-5.617-.036.016c-.018.008-1.867.81-4.35 2.12a106.317 106.317 0 0 0-5.56 3.182l.03.051a106.16 106.16 0 0 1 5.557-3.18 71.38 71.38 0 0 1 4.31-2.102l.669 5.565.01.008.282.19a2.848 2.848 0 0 1 1.25 2.37v1.98c0 .356-.406 1.101-.732 1.7-.16.295-.298.549-.365.712l-1.735 4.262-6.63 4.014.03.052z"/>
                <path fill="#F7F9FC" d="M105.849 70.033l.766.108.075-.31-.347-.05z"/>
                <path fill="#909EAB" d="M105.849 70.454l.766.162v-.475l-.766-.108z"/>
                <path fill="#E6EDF7" d="M115.869 68.22c-.453.267-.821.278-.821.024l1.642-.967c0 .254-.368.676-.821.943"/>
                <path fill="#909EAB" d="M115.869 67.301c.453-.267.82-.278.82-.024l-1.641.967c0-.253.368-.676.82-.943"/>
                <path fill="#909EAB" d="M115.35 68.74l1.476-.87c.067-.04.188-.173.17-.406l-.01-.248-1.792 1.231-.445-.09v.233c0 .047.022.091.058.12.08.08.447.086.542.03"/>
                <path fill="#F7F9FC" d="M116.68 67.215s-.572.926-1.628.963l-.303.179.055.068c.076.094.435.103.538.041l1.547-.92c.083-.049.137-.355.058-.41l-.06-.042-.207.121z"/>
                <path fill="#E6EDF7" d="M125.949 62.269c-.454.267-.821.278-.821.024l1.642-.967c0 .254-.368.676-.821.943"/>
                <path fill="#909EAB" d="M125.949 61.35c.453-.266.82-.277.82-.024l-1.641.967c0-.253.367-.675.82-.942"/>
                <path fill="#909EAB" d="M125.429 62.79l1.476-.87c.067-.04.189-.173.172-.407l-.012-.247-1.79 1.23-.446-.09v.233c0 .047.021.091.057.12.08.08.447.087.543.03"/>
                <path fill="#F7F9FC" d="M126.76 61.265s-.572.925-1.628.962l-.303.18.055.067c.076.095.434.103.538.042l1.547-.92c.083-.05.137-.356.058-.41l-.06-.043-.207.122z"/>
                <path fill="#E6EDF7" d="M106.664 71.162c-.078-.214.096-.28.096-.28.117-.132 2.003.48 2.772.593.136.02.2.142.167.279-.015.067-.073.116-.075.117-.457.425-.72.42-1.627.225-1.179-.252-1.253-.716-1.333-.934"/>
            </g>
            <g transform="translate(107 70)">
                <mask id="bK" fill="#fff">
                    <use xlink:href="#bJ"/>
                </mask>
                <path d="M.09 1.007c.015.062.122.335.705.565.363.144.72.36 1.445.408.673.046 1.146-.288 1.452-.548.075-.065.32-.322.182-.816a.834.834 0 0 0-.182-.34c-.132-.147-.28-.191-.31-.158C3.047.49 2.38.706 1.891.603c0 0-1.726-.501-1.746-.561 0 0-.185.474-.056.965" mask="url(#bK)"/>
            </g>
            <path fill="#F7F9FC" d="M106.04 70.138c-.16.151.19.332.443.431.315.125.57.17 1.556.334.782.13 1.102.18 1.648-.177l.313-.277c-.148-.145-.315-.19-.35-.156-.378.367-1.03.243-1.58.142 0 0-1.774-.376-1.797-.435 0 0-.175.084-.232.138"/>
            <g transform="translate(107 69)">
                <mask id="bN" fill="#fff">
                    <use xlink:href="#bL"/>
                </mask>
                <path fill="url(#bM)" d="M.193.087s-.2.111-.08.3c.142.225.271.236 1.33.437.77.146.968.195 1.312-.133.137-.13.177-.264.177-.264S1.016.05.387.05C.28.05.21.061.193.087" mask="url(#bN)"/>
            </g>
            <g>
                <path fill="#BFCCD9" d="M87.638 77.858l11.415-6.654-.623-.033-10.528 6.114z"/>
                <path fill="#E6EDF7" d="M80.472 73.286l7.358-8.767-.118-.434-7.294 8.784z"/>
                <path fill="#36373B" d="M77.699 78.843s.649 1.36 5.064 3.933c3.197 1.863 3.79 2.101 5.928 2.994a5.03 5.03 0 0 1-.107-.403l-.017-.08a7.604 7.604 0 0 1-.124-.792c-.075-.709.005-1.348.005-1.348s-3.24-1.405-5.411-2.672c-2.128-1.24-3.714-2.305-4.703-3.181a7.457 7.457 0 0 1-.59-.58s-.087.38-.126 1.085c-.016.285.08 1.044.08 1.044"/>
                <path fill="#262729" d="M77.699 78.843s.649 1.36 5.064 3.933c3.197 1.863 3.79 2.101 5.928 2.994a5.03 5.03 0 0 1-.107-.403l-.017-.08c-1.54-.65-2.363-1.049-5.113-2.653-4.416-2.573-5.065-3.933-5.065-3.933s-.097-.759-.082-1.045c.008-.132.017-.253.027-.362a7.457 7.457 0 0 1-.59-.58s-.087.38-.126 1.085c-.016.285.08 1.044.08 1.044"/>
                <path fill="#36373B" d="M78.252 76.357s.865 1.072 4.318 3.027c2.44 1.382 4.207 2.332 5.986 2.834a23.81 23.81 0 0 1-.184-1.004 23.303 23.303 0 0 1-.125-.865 9.989 9.989 0 0 1-.042-.383s-2.183-.84-4.348-2.12c-2.467-1.46-3.63-2.215-4.515-3.046-.166.084-.611.304-1.071.892-.232.296-.02.665-.02.665"/>
                <path fill="#262729" d="M78.271 75.692c.46-.588.905-.808 1.071-.892.069.065.14.129.212.193-.206.138-.469.356-.737.699-.232.296-.02.665-.02.665s.723.983 4.303 2.986c2.18 1.22 3.828 2.15 5.42 2.693l.036.182c-1.779-.502-3.54-1.465-5.986-2.834-3.58-2.004-4.318-3.027-4.318-3.027s-.213-.369.019-.665"/>
                <path fill="#BFCCD9" d="M78.757 75.171c.594.554 2.07 1.778 4.56 3.17 2.073 1.161 3.447 1.862 4.994 2.426-.024-.161-.034-.297-.048-.412-1.307-.497-2.729-1.196-4.476-2.173-2.616-1.465-4.098-2.733-4.67-3.275a2.824 2.824 0 0 0-.36.264"/>
                <path fill="#BFCCD9" d="M78.224 75.745c.503.49 1.915 1.732 4.624 3.248 2.341 1.31 3.792 2.033 5.608 2.637-.026-.145-.047-.282-.068-.41-1.48-.51-3.056-1.26-5.069-2.387-2.8-1.567-4.33-2.944-4.816-3.422-.11.11-.246.272-.28.334"/>
                <path fill="#4F5157" d="M80.698 80.813l4.528 2.64v-1.564l-4.528-2.64z"/>
                <path fill="#36373B" d="M77.097 76.971l.076-.543a.558.558 0 0 0-.022-.247l-.138-.429.084 1.22z"/>
                <g transform="translate(87.802 53)">
                    <mask id="bP" fill="#fff">
                        <use xlink:href="#bO"/>
                    </mask>
                    <path d="M15.73 5.13a130.57 130.57 0 0 1-2.347-1.36C9.675 1.57 8.116.516 7.5.071 6.84.642 4.757 2.485 2.06 5.387a8.784 8.784 0 0 0-.269.31c-.084.1-.172.205-.258.3C.507 7.139-.016 8.413.095 9.494c.08.777.48 1.432 1.189 1.949 1.327.968 5.102 3.179 6.233 3.836L15.729 5.13z" mask="url(#bP)"/>
                </g>
                <path fill="#F7F9FC" d="M93.82 85.4l.635 1.437h-.585a28.527 28.527 0 0 0-.53-1.169c-.25-.523-.478-.811-.988-1.161-.737-.506-2.788-.903-2.788-.903l.285-.151c.623.112 1.342.205 1.738.303 1.12.275 1.772.685 2.234 1.645"/>
                <path fill="#36373B" d="M93.166 85.77l.521 1.206s-.393-.01-1.31-.09c-1.194-.104-2.766-.822-2.766-.822s-.509-2.404-.17-2.343c.622.112 1.095.307 1.491.404 1.121.276 1.772.686 2.234 1.645"/>
                <path fill="#262729" d="M89.44 83.72c.11.02.215.043.316.067-.006.641.286 2.024.286 2.024s1.502.614 2.697.718c.307.027.562.032.767.028l.181.419s-.393-.01-1.31-.09c-1.194-.104-2.766-.822-2.766-.822s-.509-2.404-.17-2.343"/>
                <path fill="#262729" d="M91.536 84.616c0 .42.37 1.48.73 1.691 0 0 .184-.015.301-.078.124-.066.202-.216.202-.433 0-.42-.293-.932-.654-1.142a.54.54 0 0 0-.348-.086c-.183.028-.23.048-.23.048"/>
                <path fill="#FFF" d="M91.27 85.074c0 .421.293.933.654 1.143.36.21.653.04.653-.38 0-.422-.293-.933-.653-1.144-.361-.21-.654-.04-.654.381"/>
                <path fill="#E5E5E5" d="M91.718 84.718c-.066.065-.105.169-.105.307 0 .342.237.758.53.929.123.071.236.088.326.059-.086.19-.288.24-.524.103-.313-.183-.567-.626-.567-.991 0-.27.14-.421.34-.407"/>
                <path fill="#FFF" d="M93.009 82.254s1.098-.657 1.57-1.176c1.357-1.496 2.023-3.267 1.92-3.183 0 0-2.33 1.191-4.395 1.634-1.099.236-2.722.487-2.771.6-.125.286.294 1.666.294 1.666-.018.065 1.257.844 3.382.459"/>
                <path fill="#E6EDF7" d="M89.333 80.128c.015-.034.18-.082.432-.139.068.51.299 1.268.299 1.268-.02.065 1.256.843 3.381.458 0 0 1.099-.656 1.57-1.175l.114-.129a9.524 9.524 0 0 1-.55.667c-.472.519-1.57 1.176-1.57 1.176-2.125.385-3.4-.394-3.382-.459 0 0-.42-1.38-.294-1.667"/>
                <path fill="#E6EDF7" d="M93.206 81.673c1.376-1.143 2.093-2.232 2.093-2.674 0-.482-.86-.196-1.894.174-.14.05-.993.301-1.113.314-.355.038-.811.54-1.113 1.043-.288.48-.292.82-.025 1.005.427.298 1.927.236 2.052.138"/>
                <path fill="#FFF" d="M92.869 81.673c.263 0 .529-.198.529-.64 0-.482-.324-1.048-.737-1.29a.747.747 0 0 0-.376-.112c-.316 0-.529.257-.529.64 0 .482.324 1.048.737 1.289a.748.748 0 0 0 .376.113"/>
                <path fill="#E6EDF7" d="M91.923 80.271c0 .42.293.932.654 1.143.36.21.653.04.653-.381s-.292-.933-.653-1.143c-.36-.21-.654-.04-.654.381"/>
                <path fill="#F7F9FC" d="M93.144 81.12c0-.42-.304-.952-.665-1.162a.504.504 0 0 0-.243-.079c-.204 0-.226.247-.226.353 0 .42 1.134.995 1.134.889"/>
                <path fill="#FFF" d="M77.39 73.568s-.039-.822.117-1.508c.433-1.906 1.975-4.19 1.975-4.19s-.732 1.21-.309 4.666c.066.533.067 1.372.03 1.489-.094.298-1.135 1.146-1.135 1.146-.035-.02-.487-.64-.679-1.603"/>
                <path fill="#E6EDF7" d="M77.507 72.06c.433-1.906 1.975-4.19 1.975-4.19s-.129.42-.316 1.057c-.46.827-1.075 1.996-1.305 3.01-.156.685-.074 1.631-.074 1.631.128.642.437 1.075.596 1.336l-.315.267c-.035-.02-.487-.64-.679-1.603 0 0-.038-.822.118-1.508"/>
            </g>
            <g>
                <g transform="translate(78 68)">
                    <mask id="bR" fill="#fff">
                        <use xlink:href="#bQ"/>
                    </mask>
                    <path fill="#E6EDF7" d="M1.748 5.717c.318-.2.33-.393.33-.809 0-.453-.39-2.907-.502-2.907-.292 0-1.056 1.846-1.078 2.205-.054.896.19 1.39.573 1.617.12.07.51.02.677-.106" mask="url(#bR)"/>
                </g>
                <g transform="translate(78 68)">
                    <mask id="bT" fill="#fff">
                        <use xlink:href="#bS"/>
                    </mask>
                    <path fill="#FFF" d="M1.59 5.51c.243 0 .489-.186.489-.602 0-.453-.3-.985-.682-1.212a.684.684 0 0 0-.348-.106c-.293 0-.49.242-.49.602 0 .453.3.986.683 1.212.119.07.236.106.347.106" mask="url(#bT)"/>
                </g>
                <g transform="translate(78 68)">
                    <mask id="bV" fill="#fff">
                        <use xlink:href="#bU"/>
                    </mask>
                    <path fill="#E6EDF7" d="M.714 4.192c0 .396.271.877.605 1.075.334.197.605.037.605-.359 0-.395-.27-.876-.605-1.074-.334-.198-.605-.038-.605.358" mask="url(#bV)"/>
                </g>
                <g transform="translate(78 68)">
                    <mask id="bX" fill="#fff">
                        <use xlink:href="#bW"/>
                    </mask>
                    <path fill="#F7F9FC" d="M1.844 4.99c0-.394-.281-.895-.615-1.093a.461.461 0 0 0-.225-.074c-.19 0-.21.232-.21.332 0 .395 1.05.936 1.05.836" mask="url(#bX)"/>
                </g>
            </g>
        </g>
        <g>
            <g transform="translate(0 18)">
                <mask id="bZ" fill="#fff">
                    <use xlink:href="#bY"/>
                </mask>
                <path fill="#F55158" d="M66.695 30.768h-51.56c-5.661 0-10.688-2.813-13.327-7.96C-3.433 12.588 3.24.056 15.135.056h51.56c5.662 0 10.689 2.814 13.328 7.96 5.24 10.221-1.432 22.752-13.328 22.752" mask="url(#bZ)"/>
            </g>
            <path fill="#000" d="M17.59 33.9c.455-1.043 2.106-.378 1.65.665C18.654 35.908 17.413 37 15.832 37 13.397 37 12 34.603 12 32.503s1.397-4.498 3.832-4.498c1.581 0 2.822 1.093 3.408 2.436.456 1.043-1.195 1.707-1.65.665-.302-.69-.918-1.38-1.758-1.38-1.38 0-2.042 1.667-2.042 2.777s.663 2.777 2.042 2.777c.84 0 1.456-.69 1.758-1.38zm19.839 0c.455-1.043 2.106-.378 1.65.665C38.494 35.908 37.254 37 35.672 37c-2.435 0-3.832-2.397-3.832-4.497s1.397-4.498 3.832-4.498c1.582 0 2.822 1.093 3.409 2.436.455 1.043-1.196 1.707-1.651.665-.301-.69-.918-1.38-1.758-1.38-1.379 0-2.04 1.667-2.04 2.777s.661 2.777 2.04 2.777c.84 0 1.457-.69 1.758-1.38zm5.223-2.27l3.512-3.373a.884.884 0 0 1 .856-.225c.653.177.917.955.41 1.441l-2.096 2.013 2.54 4.226c.16.267.173.576.009.844-.345.563-1.198.608-1.557.012l-2.3-3.826-1.374 1.32v2.078c0 1.132-1.79 1.132-1.79 0v-7.275c0-1.131 1.79-1.131 1.79 0v2.766zm-19.867 3.644h3.765c1.178 0 1.178 1.72 0 1.72H21.9c-.549 0-.906-.365-.906-.887v-7.242c0-1.131 1.79-1.131 1.79 0l.001 6.409zm7.626.866c0 1.132-1.79 1.132-1.79 0v-7.275c0-1.131 1.79-1.131 1.79 0v7.275z"/>
            <path fill="#FFF" d="M71.662 52.788c.19-.181.433-.287.696-.217.277.074.416.289.526.534l3.303 7.366a.896.896 0 0 0 1.182.45l2.604-1.195a.915.915 0 0 0 .446-1.196l-3.303-7.364c-.109-.244-.178-.493-.054-.751.12-.25.358-.365.62-.391l5.454-.54c.981-.097 1.13-.872.431-1.505L67.332 33.246c-.574-.52-1.341-.168-1.332.612l.265 22.06c.012.944.688 1.345 1.403.665l3.994-3.795z"/>
            <path fill="#000" d="M72.552 52.38l-3.975 3.912c-1.044 1.028-2.295.4-2.312-1.092L66 32.46c-.014-1.298 1.31-1.929 2.232-1.061L84.39 46.584c1.033.97.732 2.392-.739 2.543l-5.428.556c-.25.026-.215.156-.12.375l3.287 7.59c.326.753.003 1.647-.715 1.987l-2.59 1.232c-.719.341-1.571.004-1.897-.748L72.9 52.527c-.095-.22-.166-.326-.348-.147m-4.764 3.034l3.975-3.912c.783-.772 1.763-.45 2.188.53l3.287 7.59a.277.277 0 0 0 .373.145l2.59-1.232a.302.302 0 0 0 .139-.39l-3.287-7.591c-.416-.959-.026-1.96 1.062-2.07l5.428-.557c.424-.043.366-.178.081-.446L67.466 32.297c-.178-.167-.319-.1-.316.15l.264 22.738c.005.408.069.53.374.23"/>
            <path fill="#000" d="M62.8 43.856c.708.245.348 1.354-.362 1.109-2.905-1-5.132-3.188-6.391-6.043-.844-1.913-1.186-3.933-.996-5.897a10.748 10.748 0 0 1 2.102-5.416c2.344-3.15 5.97-4.844 9.818-4.583 2.012.136 3.824.823 5.345 1.94 1.563 1.146 2.815 2.741 3.659 4.653 1.259 2.856 1.392 6.02.211 8.929-.288.71-1.337.26-1.05-.45 1.064-2.618.934-5.426-.2-7.994-.76-1.727-1.884-3.163-3.28-4.187a8.988 8.988 0 0 0-4.758-1.726c-3.472-.235-6.73 1.287-8.845 4.13-2.224 2.988-2.464 6.727-.969 10.117 1.133 2.568 3.1 4.518 5.716 5.418"/>
            <path fill="#000" d="M63.486 38.91c.592.442-.027 1.42-.62.978-2.442-1.819-3.596-5.698-2.375-8.644 1.32-3.188 4.957-4.978 8.038-3.957 2.846.944 4.778 4.44 4.43 7.633-.082.774-1.169.636-1.085-.138.285-2.629-1.322-5.583-3.664-6.36-2.554-.846-5.628.667-6.722 3.31-1.004 2.423-.013 5.68 1.998 7.179"/>
        </g>
    </g>
</svg>
