<svg xmlns="http://www.w3.org/2000/svg" xmlns:xlink="http://www.w3.org/1999/xlink" width="94" height="30" viewBox="0 0 94 30">
    <defs>
        <path id="prefix__a" d="M0 29.409L93.96 29.409 93.96 0 0 0z"/>
    </defs>
    <g fill="none" fill-rule="evenodd">
        <path fill="#004F9E" d="M50.046 13.18l-.373 1.497-.041.17c-.149.589-.439 1.015-1.287 1.015h-2.503c-.876 0-.879-.48-.77-.917l.07-.281.36-1.442c.148-.587.383-1.1 1.231-1.1h2.63c.891 0 .83.47.683 1.059m.653-2.62H30.783l-1.117 4.465c-.146.59-.248.83-1.319.83h-2.309c-1.07 0-1.052-.24-.905-.83l1.114-4.465h-1.79c-.655 0-1.047.292-1.198.896l-.924 3.707c-.399 1.594.327 2.249 2.506 2.258l3.87.001c1.874 0 3.218-.384 3.686-2.259l.742-2.977h3.507c-.113.45-1.1 4.344-1.103 4.35-.015.068-.081.394.126.64.14.163.363.246.665.246h.762c.302 0 .567-.083.789-.248.33-.244.427-.574.445-.646.001-.004.987-3.893 1.099-4.342h3.613c-.077.187-.144.394-.2.626l-.565 2.259c-.434 1.735.376 2.351 2.216 2.351l4.31.001c2.036 0 3.062-.455 3.574-2.506l.494-1.976c.404-1.621.076-2.38-2.172-2.38M36.638 0C30.247 0 27.31 1.21 25.404 2.413c-1.905 1.205-3.938 2.598-6.37 2.745-2.632.158-6.266.163-8.866.659-5.87 1.116-9.107 4.393-9.954 5.91-.084.136-.153.268-.214.399h4.936c.943-1.31 2.499-3.064 5.163-3.71 3.565-.867 7.58-.372 9.522-.682 1.679-.31 3.067-.926 5.32-2.534 2.376-1.697 4.349-2.938 8.49-3.343 4.774-.468 14.545-.394 14.545-.394l.23-.914S38.02 0 36.638 0M18.948 10.561h-6.524l-.043.33c-.074.57.36 1.235 1.83 1.235h3.592c1.07 0 1.054.24.907.83l-.728 2.916h-4.23c-.308 0-.806-.076-.68-.582.13-.519.66-.629 1.083-.629h2.54l1.539-1.542h-4.071c-2.994 0-3.7 1.532-3.863 2.192-.32 1.284.513 2.112 2.12 2.112h6.964c.656 0 1.048-.294 1.2-.898l.924-3.708c.468-1.875-.684-2.256-2.56-2.256"/>
        <path fill="#0094DA" d="M60.568 16.455h-2.783c-.524 0-.883-.133-1.099-.409-.272-.349-.205-.787-.13-1.086l.856-3.43h4.287c.507 0 .851.126 1.053.385.301.383.168.918.08 1.27l-.463 1.853c-.15.609-.504 1.417-1.8 1.417zm-6.378-1.167c-.183.737-.15 1.252.103 1.575.295.379.946.561 1.988.561l4.795.002c2.061 0 3.07-.36 3.604-2.497l.547-2.198c.215-.856.25-1.316-.024-1.663-.326-.412-.664-.507-1.755-.507h-5.766l.532-2.16s.057-.227-.06-.365c-.098-.115-.297-.14-.446-.14h-.849c-.25 0-.469.067-.648.2-.269.2-.344.468-.35.499l-1.67 6.693zM81.105 7.897c-.251 0-.47.066-.648.2-.27.2-.344.467-.35.496L78.03 16.92c-.002.008-.056.233.06.369.097.115.296.138.445.138h.849c.25 0 .469-.066.648-.199.277-.206.35-.491.352-.503l2.072-8.31c0-.005.06-.24-.057-.378-.1-.115-.298-.14-.446-.14h-.848zM85.55 7.897c-.25 0-.469.066-.648.2-.27.2-.344.468-.35.498l-2.076 8.324c-.002.009-.058.232.06.369.096.115.296.138.445.138h.85c.25 0 .468-.066.646-.199.278-.206.35-.49.353-.501l2.072-8.312c.003-.012.059-.24-.058-.378-.098-.115-.296-.14-.445-.14h-.849zM77.276 11.195c-.32-.41-.962-.634-1.808-.634h-5.151c-2.013 0-2.991.319-3.465 2.215l-.652 2.616c-.167.672-.136 1.145.1 1.446.317.407 1.05.588 2.373.588h6.92l.005-.037c.017-.126.003-.316-.153-.494-.252-.286-.786-.443-1.505-.443h-3.993c-.618 0-1.079-.064-1.318-.372-.241-.308-.145-.69-.062-1.03l.501-2.005c.115-.455.381-1.52 1.743-1.52h3.173c.472 0 .809.124 1.003.371.108.14.217.381.128.746-.093.37-.42.989-1.577.989h-3.037l-.947.95h3.975c3.06 0 3.763-1.503 3.925-2.15.126-.507.066-.923-.178-1.236M91.164 5.652c-1.355 0-2.454 1.097-2.454 2.454 0 1.356 1.099 2.455 2.454 2.455 1.356 0 2.456-1.099 2.456-2.455 0-1.357-1.1-2.454-2.456-2.454M92.4 8.106c0 .683-.553 1.237-1.236 1.237-.683 0-1.234-.554-1.234-1.237s.551-1.236 1.234-1.236c.683 0 1.236.553 1.236 1.236"/>
        <path fill="#222" d="M4.605 27.643v-1.064H3.67v-.608h.935v-.73H3.67v-.607h.935v-1.753h.743v4.762h-.743zm-3.472 1.52v-1.739h.743v1.14h3.616v.6h-4.36zm.73-3.737c-.45 0-.812.218-.812.559 0 .34.362.545.812.545.443 0 .812-.204.812-.545 0-.34-.37-.56-.812-.56zm-.935-1.801h1.897v-.594H.928v.594zm.935 3.472c-.867 0-1.515-.444-1.515-1.112 0-.662.642-1.126 1.515-1.126.873 0 1.514.464 1.514 1.126 0 .668-.641 1.112-1.514 1.112zM.048 24.614h3.486v-.587H.048v.587zM11.086 29.348v-3.274h-.655v2.96H9.73v-6.023h.702v2.442h.655V22.88h.717v6.467h-.717zm-1.712-1.76c-.539.123-1.378.178-2.162.178h-.648v-4.1h2.435v.6c-.56 0-1.132-.007-1.685-.007v2.892c.812 0 1.474-.054 1.965-.163l.095.6zM17.697 25.419h.983v.62h-.983v3.309h-.743V22.88h.743v2.538zm-1.514 2.408c-.607-.334-1.385-1.16-1.59-1.829-.17.69-.811 1.542-1.596 1.972l-.464-.553c1.03-.572 1.672-1.616 1.672-2.912v-.342h-1.35v-.606h3.437v.606h-1.316v.342c0 1.31.688 2.258 1.63 2.783l-.423.539zM21.92 27.595c-.907 0-1.472.218-1.472.586 0 .369.565.574 1.473.574.914 0 1.48-.205 1.48-.574 0-.368-.566-.586-1.48-.586zm.008 1.76c-1.433 0-2.245-.457-2.245-1.18 0-.71.812-1.18 2.238-1.18s2.244.47 2.244 1.18c0 .723-.818 1.18-2.237 1.18zm.354-4.086v.675h2.558v.6h-5.839v-.6h2.538v-.675h-1.767v-2.21h4.325v.607h-3.581v1.003h3.629v.6h-1.863zM30.346 25.46h.976v.62h-.976v3.268h-.743v-6.467h.743v2.579zM26.2 23.843h1.93v-.594H26.2v.594zm2.585 4.25c-.641-.287-1.384-1.044-1.596-1.678-.17.661-.832 1.46-1.59 1.835l-.463-.54c.982-.518 1.657-1.404 1.657-2.707v-.028h-1.337v-.593h3.425v.593h-1.317v.028c0 1.303.717 2.108 1.617 2.537l-.396.553zM38.69 23.577c0 1.712-.109 2.926-.286 3.779l-.73-.096c.157-.648.266-2.046.266-3.09h-3.656v-.593h4.406zm-5.082 4.83h5.84v-.6h-5.84v.6z"/>
        <mask id="prefix__b" fill="#fff">
            <use xlink:href="#prefix__a"/>
        </mask>
        <path fill="#222" d="M41.427 28.673h2.844v-.464h-2.844v.464zm-.723-3.097V24.02h3.54v-.423H40.69v-.566h4.298v1.529h-3.54v.443h3.71v.573h-4.454zm-.02 3.69v-2.217h.743v.58h2.844v-.594h.744v2.23h-4.332zm1.787-1.896v-.758h-2.538v-.593h5.84v.593h-2.559v.758h-.743zM50.923 29.348h.744v-6.467h-.744v6.467zm-2.626-5.321c-.505 0-.927.369-.927.9 0 .519.43.853.927.853.505 0 .941-.334.941-.852 0-.56-.422-.901-.94-.901zm0 2.381c-.941 0-1.657-.594-1.657-1.474 0-.886.723-1.541 1.657-1.541.955 0 1.692.634 1.692 1.541 0 .894-.744 1.474-1.692 1.474zm2.32 1.29c-1.385.149-2.777.217-4.298.224l-.11-.64c.683.006 1.392.006 2.143-.035.928-.041 1.65-.089 2.21-.15l.054.6zM57.46 27.581c-.9 0-1.473.205-1.473.587 0 .389.572.58 1.473.58.907 0 1.48-.191 1.48-.58 0-.382-.58-.587-1.48-.587zm2.292-2.08c-.969-.116-1.937-.662-2.285-1.283-.314.669-1.221 1.167-2.293 1.282l-.32-.579c1.024-.069 1.985-.525 2.19-1.249H55.14v-.6h4.653v.6h-1.897c.232.724 1.31 1.194 2.183 1.249l-.327.58zm-2.285 3.847c-1.42 0-2.245-.457-2.245-1.18 0-.655.676-1.092 1.856-1.173v-.546H54.54v-.6h5.84v.6h-2.558v.546c1.193.068 1.882.518 1.882 1.173 0 .723-.826 1.18-2.237 1.18zM65.98 23.502c0 1.119-.02 2.551-.285 3.63l-.71-.11c.19-.846.246-2.047.246-2.92h-3.69v-.6h4.44zm-5.115 4.905v-.6h2.183V25.59h.743v2.216h2.913v.6h-5.84zM72.21 25.46h.976v.62h-.976v3.268h-.744v-6.467h.744v2.579zm-4.147-1.617h1.93v-.594h-1.93v.594zm2.585 4.25c-.641-.287-1.385-1.044-1.596-1.678-.17.661-.833 1.46-1.59 1.835L67 27.71c.982-.518 1.657-1.404 1.657-2.707v-.028h-1.337v-.593h3.424v.593h-1.316v.028c0 1.303.716 2.108 1.616 2.537l-.395.553zM76.222 29.307v-1.542h3.575v-.368h-3.602v-.6h4.345v1.494h-3.568v.416h3.807v.6h-4.557zm-.177-3.984v-.593H77l-.143-.88.736-.069.11.949h1.35l.137-.949.736.062-.17.887h.955v.593h-4.666zm-.014-1.732h4.686v-.594h-4.686v.594zm-.56 2.77h5.84v-.601h-5.84v.6zM86.53 27.24V25.14h-.634v1.549h-.702v-3.691h.702v1.521h.634v-1.637h.71v4.36h-.71zm.669 2.17c-.887-.171-1.828-.826-2.128-1.413-.246.6-1.2 1.255-2.129 1.406l-.355-.587c1.044-.116 2.115-.75 2.115-1.678v-.239h.771v.239c0 .927 1.098 1.521 2.087 1.684l-.361.587zm-2.272-2.94c-.593.122-1.562.19-2.34.204l-.511.007v-2.006h1.699v-.723h-1.72v-.593h2.463v1.896H82.82v.825c.545 0 1.5-.061 2.025-.19l.082.58zM89.608 28.673h2.858v-.955h-2.858v.955zm-.744.586h4.346v-2.121h-4.346v2.12zm-.184-5.628h4.687v-.593H88.68v.593zm-.56 3.07v-.6h2.532v-.553h-1.958v-.593h.975l-.177-1.023.73-.096.143 1.119h1.323l.164-1.126.737.116-.205 1.01h.976v.593h-1.965v.553h2.565v.6h-5.84z" mask="url(#prefix__b)"/>
    </g>
</svg>
