<svg xmlns="http://www.w3.org/2000/svg" xmlns:xlink="http://www.w3.org/1999/xlink" width="193" height="187" viewBox="0 0 193 187">
    <defs>
        <path id="prefix__a" d="M0 0.165L136.982 0.165 136.982 42.815 0 42.815z"/>
    </defs>
    <g fill="none" fill-rule="evenodd" transform="translate(0 15)">
        <path stroke="#FFF" stroke-width="30" d="M192.87 157C149.864 157 115 121.63 115 78M115.393 79c0-43.63 34.863-79 77.87-79 43.006 0 77.87 35.37 77.87 79"/>
        <ellipse cx="89.5" cy="90.219" fill="#249" rx="89.5" ry="11.519"/>
        <g transform="translate(20 44)">
            <path fill="#110F0F" d="M9.174 41.748L38.709 41.748 101.728 40.622 119.755 37.279 122.486 40.659 126.889 33.695 115.216 21.138 79.254 22.551 47.997 25.484 20.097 22.551 7.583 27.618z"/>
            <path fill="#0B1829" d="M31.759 38.411c0 5.93-4.618 10.735-10.313 10.735-5.696 0-10.314-4.806-10.314-10.735 0-5.928 4.618-10.734 10.314-10.734 5.695 0 10.313 4.806 10.313 10.734"/>
            <path fill="#DCDDE7" d="M20.787 46.06l.685-4.502.76 4.49c-.258.03-.52.045-.786.045-.223 0-.442-.012-.659-.032zM16.52 32.694l2.696 3.593-3.674-2.484c.29-.402.619-.773.978-1.109zm10.749 1.004l-3.63 2.549 2.635-3.64c.364.329.698.694.995 1.09zm-3.072 3.41l3.63-2.55c.242.432.443.89.601 1.37l-4.23 1.18zm.258 1.003l4.231-1.18c.09.48.139.975.139 1.482v.016l-4.37-.318zm-.07 1.036l4.37.318c-.067.506-.18.995-.337 1.464l-4.032-1.782zm-.39.957l4.032 1.78c-.22.451-.48.876-.778 1.27l-3.254-3.05zm.584 5.263c-.433.212-.89.381-1.363.503l-.76-4.49 2.123 3.987zm-1.251-4.492l3.254 3.05c-.346.35-.725.664-1.131.937l-2.123-3.987zm-2.842.522l-.685 4.503c-.476-.113-.935-.274-1.371-.477l2.056-4.026zm-.88-.488l-2.057 4.026c-.411-.267-.795-.574-1.146-.917l3.202-3.11zm-.681-.76l-3.204 3.11c-.304-.388-.571-.809-.798-1.254l4.002-1.856zm-.406-.949l-4.004 1.856c-.164-.466-.286-.954-.361-1.458l4.365-.398zm-4.097-3.145c.15-.483.344-.945.577-1.38l3.674 2.483-4.25-1.103zm5.58-.409l-2.696-3.592c.397-.281.822-.523 1.27-.72l1.427 4.312zm.945-.338l-1.427-4.31c.46-.13.937-.213 1.427-.247v4.557zm3.248-4.023c.452.189.88.422 1.282.696l-2.635 3.64 1.353-4.336zm-2.25 3.848V30.75c.445.031.88.102 1.301.212l-1.301 4.17zm-7.879 3.28c0-.461.041-.912.116-1.35l4.25 1.103-4.362.397c-.001-.05-.004-.1-.004-.15zm7.38-8.379c-4.446 0-8.05 3.751-8.05 8.379 0 4.627 3.604 8.378 8.05 8.378 4.445 0 8.049-3.75 8.049-8.378s-3.604-8.379-8.05-8.379z"/>
            <path fill="#729AB2" d="M22.832 38.411c0 .798-.62 1.444-1.386 1.444-.766 0-1.386-.646-1.386-1.444 0-.796.62-1.442 1.386-1.442.765 0 1.386.646 1.386 1.442"/>
            <path fill="#0B1829" d="M119.944 38.411c0 5.93-4.617 10.735-10.313 10.735-5.696 0-10.313-4.806-10.313-10.735 0-5.928 4.617-10.734 10.313-10.734 5.696 0 10.313 4.806 10.313 10.734"/>
            <path fill="#DCDDE7" d="M108.972 46.06l.685-4.501.76 4.49c-.258.028-.52.044-.786.044-.223 0-.442-.012-.659-.033zm-4.267-13.367l2.696 3.593-3.673-2.484c.29-.402.618-.773.977-1.109zm10.749 1.004l-3.63 2.549 2.635-3.64c.365.329.698.694.995 1.09zm-3.072 3.41l3.63-2.55c.242.432.444.89.6 1.37l-4.23 1.18zm.258 1.003l4.232-1.18c.09.48.138.975.138 1.482v.016l-4.37-.318zm-.07 1.036l4.37.318c-.067.506-.18.995-.337 1.464l-4.032-1.782zm-.39.957l4.032 1.78c-.22.451-.48.876-.777 1.27l-3.254-3.05zm.584 5.263c-.433.212-.89.38-1.363.503l-.761-4.49 2.124 3.987zm-1.251-4.492l3.254 3.05c-.346.35-.725.664-1.13.937l-2.124-3.987zm-2.842.522l-.685 4.502c-.476-.112-.935-.273-1.371-.476l2.056-4.026zm-.88-.488l-2.057 4.026c-.41-.267-.794-.574-1.146-.917l3.202-3.109zm-.682-.76l-3.203 3.11c-.304-.389-.571-.809-.798-1.255l4.001-1.854zm-.405-.949l-4.004 1.856c-.164-.466-.286-.954-.361-1.458l4.365-.398zm-4.097-3.145c.15-.483.343-.945.577-1.38l3.674 2.483-4.25-1.103zm5.581-.408l-2.697-3.593c.397-.281.822-.523 1.27-.72l1.427 4.313zm.944-.338l-1.427-4.312c.46-.128.937-.212 1.427-.246v4.558zm3.248-4.024c.451.189.88.422 1.282.696l-2.635 3.64 1.353-4.336zm-2.25 3.847v-4.38c.445.03.88.1 1.301.21l-1.301 4.17zm-7.879 3.28c0-.46.041-.91.116-1.35l4.25 1.104-4.362.397c-.001-.05-.004-.1-.004-.15zm7.38-8.378c-4.446 0-8.05 3.751-8.05 8.379 0 4.627 3.604 8.378 8.05 8.378 4.445 0 8.05-3.75 8.05-8.378s-3.605-8.379-8.05-8.379z"/>
            <path fill="#729AB2" d="M111.017 38.411c0 .798-.62 1.444-1.386 1.444-.766 0-1.387-.646-1.387-1.444 0-.796.621-1.442 1.387-1.442.765 0 1.386.646 1.386 1.442"/>
            <mask id="prefix__b" fill="#fff">
                <use xlink:href="#prefix__a"/>
            </mask>
            <path fill="#DCDDE7" d="M101.98 13.343l-12.432.43c-.778.028-1.39-.69-1.274-1.493l.855-5.921c.094-.637.66-1.087 1.275-1 6.194.882 10.233 3.967 12.299 6.01.709.7.256 1.943-.722 1.974m-17.912-7.58L81.88 13.97l-23.743.776s2.122-2.483-1.664-3.345c0 0 8.972-8.488 26.625-7.075.685.052 1.154.744.971 1.437m52.914 25.116v-2.805c0-.592-.28-1.146-.745-1.489l-1.834-1.333c.05-.357.09-.707.12-1.039.063-.71.08-1.365.067-1.96-.05-2.306-.576-3.75-.742-4.155-.033-.08-.054-.118-.054-.118l.629-3.366c.107-.557-.352-1.06-.891-.963-2.648.475-8.497-.01-11.332-.29-.622-.063-1.224-.242-1.78-.527-.349-.176-.678-.395-.984-.65-4.671-3.92-9.678-6.656-14.728-8.516-18.005-6.631-36.549-2.119-42.201-.44-.426.129-.848.274-1.26.444-.623.252-1.225.554-1.807.9L40.697 15.674c-2.292-.045-4.49-.021-6.587.055h-.003c-15.254.561-25.347 4.01-29.044 5.496-.971.391-1.67 1.284-1.85 2.354l-.691 4.118-.027.16c-.037.214.023.435.16.602.126.156.193.353.193.547 0 .166-.047.328-.14.474l-.768 1.198h-.736C.54 30.678 0 31.24 0 31.932v1.547c0 .381.166.742.45.98h.002c.42.35.68.863.723 1.417l.236 3.088c.03.385.14.762.316 1.102.216.412.522.751.888.993.366.25.792.402 1.237.437 1.102.083 2.865.211 5.397.353v-3.37c0-6.984 5.489-12.697 12.196-12.697 3.353 0 6.404 1.426 8.616 3.73 2.21 2.302 3.583 5.474 3.583 8.968v4.235c14.768.221 42.923.08 63.789-.478v-3.795c0-6.981 5.49-12.695 12.197-12.695h.848c6.71 0 12.2 5.714 12.2 12.695v2.33c6.187-1.285 10.003-1.233 11.633-1.108.572.042 1.111-.27 1.374-.796l.52-1.043c.066-.124.026-.28-.087-.36-.243-.166-.37-.44-.37-.713 0-.204.07-.412.217-.579l.365-.418c.397-.454.496-1.112.257-1.673l-.323-.758c-.17-.395-.087-.856.206-1.16.33-.343.513-.804.513-1.285" mask="url(#prefix__b)"/>
            <path fill="#BBCFDA" d="M10.746 25.65l-3.091 2.24c-.659.478-1.417.738-2.186.78-.875.055-1.766-.177-2.535-.696l-.412-.277.692-4.118.672-.26c.974-.374 2.009-.505 3.027-.394.549.059 1.095.19 1.62.391l2.02.773c.648.249.758 1.15.193 1.561"/>
            <path fill="#0E1133" d="M61.247 3.672L43.831 16.203l-9.721-.474c2.096-.076 4.295-.1 6.587-.055L59.441 4.572c.582-.346 1.184-.647 1.806-.9M120.422 12.834l-.989.43c-4.657-4.488-16.893-9.596-16.893-9.596h2.169c5.05 1.86 10.057 4.595 14.728 8.515.306.256.635.475.985.651M101.98 13.343l-12.432.43c-.778.028-1.39-.69-1.274-1.493l.855-5.921c.094-.637.66-1.087 1.275-1 6.194.882 10.233 3.967 12.299 6.01.709.7.256 1.943-.722 1.974m-17.912-7.58L81.88 13.97l-23.743.776s2.122-2.483-1.664-3.345c0 0 8.972-8.488 26.625-7.075.685.052 1.154.744.971 1.437m22.317 3.377c-4.299-2.857-10.992-6.067-19.888-6.625-19.718-1.226-34.36 8.657-39.084 12.338-.535.42-.236 1.298.432 1.278l29.396-1.056 4.931-.177 22.922-.824c2.528-.09 3.42-3.518 1.29-4.934"/>
            <path fill="#FF9587" d="M134.524 24.213h-5.775l-1.085-1.96-.682-1.235c-.446-.807-.233-1.835.492-2.38l.086-.065c.412-.31.906-.475 1.413-.475h4.876c.21.509.984 2.666.675 6.115"/>
            <path fill="#FFF" d="M134.524 24.213h-5.775l-1.085-1.96h6.927c.013.596-.004 1.25-.067 1.96"/>
            <path fill="#BBCFDA" d="M8.332 32.455l.16-.392c.105-.255.243-.635.49-1.09.117-.23.241-.49.407-.751.165-.262.319-.566.533-.853.21-.29.414-.617.676-.922l.392-.48c.138-.159.292-.31.442-.472.602-.647 1.33-1.27 2.154-1.848.82-.588 1.764-1.083 2.775-1.499 1.012-.42 2.115-.697 3.249-.857.284-.03.569-.08.856-.093l.867-.037c.32-.006.576.02.867.027.284.014.564.013.86.064l.875.126c.29.045.569.129.853.191.571.113 1.111.332 1.658.509.269.101.527.228.79.34.261.115.52.231.763.378l.735.414c.237.148.463.311.691.464.466.294.87.664 1.283.997.204.17.382.367.57.546.182.187.38.352.54.55.676.759 1.261 1.529 1.708 2.299l.333.562c.109.182.19.376.28.558.172.368.348.71.463 1.055.123.34.254.652.346.95l.232.829c.078.247.121.475.153.675l.09.503.076.417-.113-.408-.136-.49c-.05-.194-.11-.415-.203-.655l-.285-.798c-.11-.288-.26-.585-.403-.91-.135-.328-.33-.65-.523-.996-.1-.17-.186-.355-.301-.527l-.35-.528c-.227-.37-.513-.714-.8-1.077-.272-.376-.623-.702-.947-1.068-.161-.185-.358-.337-.538-.51-.188-.165-.365-.347-.566-.503-.411-.3-.799-.654-1.253-.921-.864-.611-1.859-1.055-2.871-1.47-.522-.163-1.037-.37-1.582-.472-.27-.057-.539-.136-.81-.176l-.812-.112c-.265-.05-.555-.053-.837-.069-.275-.01-.585-.039-.831-.033l-.826.03c-.274.01-.545.056-.817.082-1.079.15-2.14.371-3.115.757-.973.382-1.898.814-2.706 1.352-.81.53-1.545 1.094-2.16 1.69-.153.149-.31.288-.452.437l-.408.443c-.276.279-.496.582-.72.852-.23.267-.4.552-.58.799-.183.246-.32.49-.451.71-.27.43-.452.792-.577 1.037l-.194.374M96.721 32.455l.16-.392c.105-.255.244-.635.49-1.09.117-.23.242-.49.408-.751.165-.262.319-.566.533-.853.209-.29.413-.617.676-.922l.392-.48c.138-.159.291-.31.442-.472.601-.647 1.33-1.27 2.154-1.848.819-.588 1.764-1.083 2.775-1.499 1.011-.42 2.115-.697 3.248-.857.285-.03.57-.08.857-.093l.867-.037c.319-.006.575.02.867.027.284.014.564.013.86.064l.875.126c.29.045.569.129.853.191.57.113 1.11.332 1.658.509.268.101.527.228.79.34.26.115.52.231.762.378l.736.414c.237.148.462.311.691.464.466.294.87.664 1.283.997.203.17.382.367.57.546.182.187.379.352.54.55.676.759 1.261 1.529 1.708 2.299l.333.562c.108.182.19.376.279.558.172.368.348.71.463 1.055.124.34.255.652.346.95l.233.829c.078.247.121.475.153.675l.09.503c.05.272.075.417.075.417l-.112-.408-.136-.49c-.051-.194-.11-.415-.203-.655l-.285-.798c-.11-.288-.26-.585-.403-.91-.135-.328-.331-.65-.523-.996-.1-.17-.186-.355-.302-.527l-.35-.528c-.226-.37-.512-.714-.8-1.077-.272-.376-.623-.702-.946-1.068-.162-.185-.358-.337-.538-.51-.188-.165-.365-.347-.567-.503-.41-.3-.798-.654-1.253-.921-.864-.611-1.858-1.055-2.87-1.47-.523-.163-1.038-.37-1.582-.472-.27-.057-.539-.136-.81-.176l-.813-.112c-.265-.05-.554-.053-.837-.069-.275-.01-.584-.039-.83-.033l-.826.03c-.274.01-.546.056-.817.082-1.079.15-2.14.371-3.115.757-.973.382-1.899.814-2.707 1.352-.81.53-1.544 1.094-2.159 1.69-.153.149-.31.288-.452.437-.14.15-.275.299-.408.443-.277.279-.496.582-.72.852-.23.267-.4.552-.58.799-.183.246-.321.49-.452.71-.269.43-.451.792-.577 1.037l-.194.374"/>
            <path stroke="#BBCFDA" d="M47.14 15.439l-4.168 3.07c-.76.56-1.248 1.434-1.337 2.4-.288 3.136-.833 9.919 1.11 16.868M33.555 36.969s29.965 3.815 64.188-1.354"/>
            <path stroke="#BBCFDA" d="M83.717 14.842l2.337 2.793s-1.232 11.323-4.386 19.83"/>
            <path fill="#BBCFDA" d="M27.881 20.405s1.589-.21 4.379-.48c1.394-.137 3.09-.294 5.034-.453l3.1-.25 3.438-.237c2.397-.155 4.995-.315 7.743-.465 2.748-.145 5.647-.303 8.646-.43 3-.144 6.1-.266 9.25-.383 3.15-.131 6.35-.22 9.55-.325 3.202-.097 6.404-.146 9.555-.216 3.152-.073 6.253-.115 9.255-.157 3.002-.041 5.903-.094 8.655-.111l7.754-.068c2.402-.031 4.603-.018 6.554-.017l5.053.007 4.403.007-16.008.203-7.753.107c-2.752.03-5.652.096-8.654.153-3 .057-6.102.114-9.252.203-3.15.084-6.352.151-9.551.26-3.2.09-6.402.163-9.55.279-3.15.102-6.25.208-9.25.337-2.999.114-5.897.256-8.645.388-2.749.137-5.346.284-7.743.427l-6.54.421c-1.947.132-3.643.264-5.04.381-2.792.231-4.383.42-4.383.42"/>
            <path fill="#BBCFDA" d="M76.152 20.532l-.123-.056c-.077-.041-.197-.098-.322-.218-.061-.06-.126-.137-.163-.246-.01-.026-.016-.056-.02-.086-.001-.019-.005-.021-.003-.054l.004-.041.01-.083.038-.096c.121-.25.354-.408.61-.542.519-.264 1.164-.443 1.863-.55.35-.049.713-.096 1.084-.11.37-.019.747-.02 1.12-.009.757.034 1.507.126 2.197.321.344.093.672.22.965.394.145.093.286.188.396.33.06.062.098.15.134.234.018.091.03.2.007.272-.053.193-.163.3-.27.387-.11.085-.223.144-.328.196-.213.098-.405.157-.563.201-.319.083-.504.106-.504.106s.18-.055.482-.175c.15-.06.332-.14.523-.255.18-.112.414-.289.461-.492.023-.122-.021-.22-.115-.317-.086-.099-.215-.175-.346-.248-.273-.137-.589-.234-.92-.315-.664-.156-1.399-.242-2.128-.267-.737-.034-1.47-.002-2.155.07-.68.082-1.32.197-1.818.416-.244.108-.47.243-.574.41-.122.19-.044.376.063.5.105.12.21.2.282.25l.113.073M136.64 27.04s-.05.03-.157.085c-.105.051-.254.124-.45.201-.193.082-.431.166-.706.258-.274.092-.587.184-.93.273-.342.091-.716.173-1.112.258-.397.074-.815.161-1.25.221-.436.073-.887.13-1.346.18-.457.061-.925.093-1.392.133-.466.046-.934.06-1.394.087-.46.029-.913.038-1.352.046-.439.007-.862.024-1.264.016l-1.133-.009c-.701-.006-1.285-.04-1.694-.05l-.642-.023.642.007c.41 0 .993.019 1.694.008l1.132-.02c.401-.001.824-.029 1.26-.047.438-.018.89-.039 1.348-.08.458-.037.924-.063 1.388-.12.464-.052.928-.096 1.382-.167.455-.061.901-.13 1.33-.212.432-.07.843-.167 1.235-.25.389-.093.757-.183 1.091-.282.335-.096.64-.194.905-.29.266-.096.496-.183.679-.267.186-.079.326-.151.419-.2.087-.046.139-.078.139-.078l.179.322zM35.499 41.167s.931-.129 2.566-.32l2.95-.326c1.14-.12 2.427-.25 3.834-.366 1.404-.13 2.929-.235 4.54-.362 1.613-.106 3.313-.234 5.075-.318 1.76-.086 3.58-.184 5.43-.242l2.794-.1 2.816-.066c1.88-.047 3.762-.041 5.613-.05 1.851-.02 3.673.026 5.436.041 1.763.004 3.466.087 5.081.136l2.353.084 2.198.116c1.408.076 2.7.14 3.842.224l2.959.233 2.577.204-2.58-.141-2.963-.162-3.844-.148-2.197-.087-2.352-.051c-1.614-.028-3.316-.082-5.078-.085-1.762-.007-3.581-.046-5.431-.017-1.85.017-3.728.02-5.607.075l-2.814.052c-.935.03-1.867.06-2.791.088-1.85.05-3.668.14-5.427.218l-5.073.265c-1.612.106-3.137.19-4.542.301-2.813.2-5.154.394-6.793.545-1.638.153-2.572.259-2.572.259"/>
            <path fill="#0B1829" d="M1.719 35.56v2.197c0 .786.612 1.424 1.367 1.424h.262c.419 0 .792-.277.929-.689l.59-1.772c.266-.8-.228-1.655-1.03-1.785l-1.198-.194c-.483-.078-.92.311-.92.82"/>
            <path fill="#777" d="M6.718 27.4h-.165c-.887 0-1.613-.755-1.613-1.68 0-.923.726-1.679 1.613-1.679h.165c.887 0 1.614.756 1.614 1.68 0 .924-.727 1.679-1.614 1.679"/>
            <path fill="#FFF" d="M10.746 25.65l-3.091 2.24c-.659.478-1.417.738-2.186.78l1.444-5.745c.549.059 1.095.19 1.62.391l2.02.773c.648.249.758 1.15.193 1.561"/>
            <path fill="#DCDDE7" d="M84.07 5.763l-2.19 8.207-23.744.776s2.123-2.483-1.663-3.345c0 0 8.973-8.487 26.625-7.075.685.052 1.154.745.971 1.437M101.98 13.343l-12.432.43c-.778.028-1.39-.69-1.274-1.493l.855-5.921c.094-.637.66-1.087 1.275-1 6.194.882 10.233 3.967 12.299 6.01.709.7.256 1.943-.722 1.974M52.256 17.52c-1.389 0-2.526-1.183-2.526-2.63v-1.938c0-1.446 1.137-2.63 2.526-2.63 1.39 0 2.526 1.184 2.526 2.63v1.938c0 1.447-1.137 2.63-2.526 2.63"/>
            <path fill="#0E1133" d="M82.283 10.074v4.042c0 .27-.04.533-.11.782l-4.93.177c-.11-.298-.17-.624-.17-.96v-4.04c0-1.493 1.17-2.712 2.605-2.712.719 0 1.367.305 1.84.797.472.491.765 1.166.765 1.914"/>
        </g>
    </g>
</svg>
