<svg xmlns="http://www.w3.org/2000/svg" width="202" height="146" viewBox="0 0 202 146">
    <path fill="none" fill-rule="evenodd" stroke="#FFF" stroke-width="1.094" d="M201 145c-11.735-21.012-23.697-30.49-74.394-34.258-50.696-3.769-30.825-34.275-34.974-35.059-4.15-.782-18.212-3.401-42.109-3.097-22.549.286-20.778-4.325-20.778-4.325 4.486.703 12.198.44 20.856.554 8.659.114 11.954 1.387 10.7-1.01-6.151-11.763-5.354-24.667-2.391-25.58 13.83-1.18 55.709.799 63.114 17.471C128.43 76.368 129.57 73.4 129.57 73.4s-4.102 13.018-14.697 14.617C104.277 89.615 91.86 80.48 95.505 65.52c3.646-14.96 26.504-17.487 21.76 5.367-4.745 22.855-21.76 6.281-23.09-.114-1.332-6.394-1.518-20.669 12.608-24.21 7.02-1.758 16.305.469 24.128 4.693.29.156-3.044 5.353-3.575 9.464-1.975 18.728 17.927 10.33 19.822 15.074 5.764 10.144 22.98 14.467 33.04.215 11.847-16.787-.57-27.165-9.798-26.708-9.229.456-21.077.076-25.975.304-4.9.228-12.578 1.298-14.628 7.922-4.444 14.502 5.696 15.187 25.974 14.616 20.28-.57 22.216-.342 24.494-1.94 13.216-8.223-1.025-18.614-.569-22.155.797-13.589-18.753-35.646-34.132-40.557-15.38-4.91-30.419-3.197-30.419 1.942 0 5.138 8.613 18.631 22.74 15.205 14.127-3.425 28.14.914 32.013 1.713 3.874.8-11.05-20.783-31.33-23.752-20.278-2.97-40.016-.066-32.126 4.225 7.89 4.292 1.937 19.984-2.392 26.493-4.33 6.51-38.622 5.596-44.204 5.71-48.419-1.142-61.748 18.271-54 34.259 7.746 15.987 21.873 6.966 19.253-9.136-2.62-16.102-14.81-14.731-17.317-.685-2.506 14.046 7.291 17.243 11.051 9.592 3.76-7.651.273-18.289-6.563-17.147-6.835 1.142-8.39 10.623-8.39 10.623-7.86-10.277 1.624-24.88 13.358-30.475 11.734-5.596 11.279-15.188 38.849-26.95C83.657-2.654 93.797 7.395 100.973 1"/>
</svg>
