<svg xmlns="http://www.w3.org/2000/svg" width="55" height="82" viewBox="0 0 55 82">
    <g fill="none" fill-rule="evenodd" stroke="#FFF" stroke-linecap="round" stroke-linejoin="round" stroke-width="3">
        <path d="M50.038 70.863v6.286c0 1.133-.928 2.061-2.06 2.061h-31.14c-1.134 0-2.06-.928-2.06-2.06v-6.287c0-1.134.926-2.06 2.06-2.06h31.14c1.132 0 2.06.926 2.06 2.06zM44.929 74.006L35.803 74.006M18.174 67.905s1.075-8.612-6.014-12.664C7.633 52.653 5.021 43.375 2.945 41.3c-2.077-2.077-3.409-3.905-1.581-5.733 1.829-1.828 5.671-1.766 9.142 1.704 3.47 3.471 2.357 3.41 6.716 5.684M46.732 68.184s.322-4.27 3.076-9.77c.965-2.244 1.699-3.825 1.699-7.51V37.552M25.803 14.234L25.803 36.439M17.222 42.954v-28.72c0-2.37 1.92-4.291 4.29-4.291s4.29 1.921 4.29 4.291M25.803 39.26v-6.477c0-2.37 1.92-4.29 4.29-4.29s4.29 1.92 4.29 4.29v2.46M34.384 39.26v-4.017c0-2.37 1.92-4.29 4.29-4.29 2.369 0 4.29 1.92 4.29 4.29v2.634" transform="translate(1 1)"/>
        <path d="M42.964 39.26v-1.707c0-2.37 1.921-4.29 4.291-4.29 2.369 0 4.29 1.92 4.29 4.29M12.303 23.272c-2.49-2.408-4.04-5.785-4.04-9.524C8.264 6.431 14.197.5 21.513.5 28.829.5 34.76 6.431 34.76 13.748c0 3.74-1.55 7.116-4.04 9.525" transform="translate(1 1)"/>
    </g>
</svg>
