<svg xmlns="http://www.w3.org/2000/svg" width="66" height="78" viewBox="0 0 66 78">
    <g fill="none" fill-rule="evenodd" stroke-linecap="round" stroke-linejoin="round" stroke-width="3">
        <path stroke="#4C5772" d="M11.174 31.078v4.743c0 9.047 7.335 16.382 16.383 16.382 9.047 0 16.382-7.335 16.382-16.382V22.604" transform="translate(1 1)"/>
        <path stroke="#4C5772" d="M43.484 22.644s-26.533 3.124-26.533-7.86c0-3.592-.101 10.618-5.777 16.294 0 0-11.298-21.448 3.122-21.448 0 0 1.415-13.106 21.633-7.913 23.51 6.038 8.01 29.361 8.01 29.361M22.23 51.315L22.23 74.961M32.891 51.315L32.891 74.961M32.891 56.677c0 2.946-2.389 5.335-5.334 5.335-2.946 0-5.335-2.389-5.335-5.335l-10.86-.145C5.362 56.532.5 61.396.5 67.394v7.567" transform="translate(1 1)"/>
        <path stroke="#4C5772" d="M22.222 56.677c0 2.946 2.39 5.335 5.335 5.335s5.334-2.389 5.334-5.335l10.861-.145c1.21 0 2.375.2 3.462.564M11.174 37.597c-3.05 0-5.524-2.474-5.524-5.524 0-2.39 1.517-4.426 3.641-5.196M43.939 37.597c3.05 0 5.524-2.474 5.524-5.524 0-2.266-1.363-4.213-3.314-5.066" transform="translate(1 1)"/>
        <path stroke="#3F64C3" d="M45.813 66.161L63.414 66.161M54.613 57.36L54.613 74.962" transform="translate(1 1)"/>
    </g>
</svg>
