<svg xmlns="http://www.w3.org/2000/svg" xmlns:xlink="http://www.w3.org/1999/xlink" width="71" height="73" viewBox="0 0 71 73">
    <defs>
        <path id="prefix__a" d="M0 0.001L70.443 0.001 70.443 72.949 0 72.949z"/>
    </defs>
    <g fill="none" fill-rule="evenodd">
        <mask id="prefix__b" fill="#fff">
            <use xlink:href="#prefix__a"/>
        </mask>
        <path fill="#4C5772" d="M8.62 69.95h53.202V31.632H8.62V69.95zm54.703 3H7.12c-.828 0-1.5-.673-1.5-1.5V30.132c0-.829.672-1.5 1.5-1.5h56.203c.828 0 1.5.671 1.5 1.5V71.45c0 .828-.672 1.5-1.5 1.5z" mask="url(#prefix__b)"/>
        <path fill="#3F64C3" d="M38.617 14.772c-.072 0-.146-.005-.22-.016-.818-.12-1.385-.88-1.266-1.7.21-1.47.195-4.204-.741-5.283-.178-.206-.461-.443-1.067-.443-.604 0-.888.236-1.067.443-.936 1.079-.95 3.814-.74 5.284.118.819-.45 1.58-1.27 1.698-.823.124-1.578-.448-1.698-1.266-.077-.527-.691-5.215 1.437-7.676.839-.971 1.993-1.483 3.338-1.483s2.5.512 3.339 1.483c2.128 2.462 1.515 7.149 1.437 7.676-.11.746-.75 1.283-1.482 1.283" mask="url(#prefix__b)"/>
        <path fill="#3F64C3" d="M18.285 14.773c-.218 0-.44-.048-.648-.148-3.412-1.64-5.23-5.253-4.425-8.79C13.854 3.014 16.363 0 21.474 0c7.34 0 11.012 6.487 11.927 9.918.213.799-.263 1.622-1.063 1.835-.802.213-1.619-.261-1.835-1.058C30.416 10.378 28.326 3 21.474 3c-2.841 0-4.837 1.308-5.337 3.5-.404 1.769.3 4.219 2.797 5.419.747.359 1.063 1.255.703 2-.258.54-.794.853-1.352.853M52.362 14.773c-.56 0-1.095-.313-1.353-.852-.36-.746-.044-1.642.703-2.001 2.497-1.2 3.2-3.65 2.797-5.418C54.009 4.309 52.014 3 49.172 3c-6.853 0-8.943 7.38-9.03 7.695-.216.797-1.042 1.268-1.837 1.056-.798-.216-1.272-1.035-1.06-1.833C38.162 6.488 41.833 0 49.173 0c5.112 0 7.62 3.013 8.262 5.834.806 3.537-1.013 7.15-4.424 8.79-.21.1-.43.148-.648.148" mask="url(#prefix__b)"/>
        <path fill="#4C5772" d="M3 28.633h64.443v-13.86H3v13.86zm65.944 3H1.5c-.828 0-1.5-.672-1.5-1.5v-16.86c0-.83.672-1.5 1.5-1.5h67.444c.828 0 1.5.67 1.5 1.5v16.86c0 .828-.672 1.5-1.5 1.5z" mask="url(#prefix__b)"/>
        <path fill="#3F64C3" d="M33.823 72.949L36.823 72.949 36.823 11.771 33.823 11.771z" mask="url(#prefix__b)"/>
    </g>
</svg>
