<svg xmlns="http://www.w3.org/2000/svg" width="97" height="75" viewBox="0 0 97 75">
    <g fill="none" fill-rule="evenodd" stroke="#FFF" stroke-linecap="round" stroke-linejoin="round" stroke-width="3">
        <path d="M48.16 23.473C48.16 10.785 58.445.5 71.133.5 83.82.5 94.106 10.785 94.106 23.473c0 8.723-4.861 16.311-12.022 20.201" transform="translate(1 1)"/>
        <path d="M69.119 33.197c-.862 0-1.69-.343-2.301-.953l-8.911-8.911c-1.271-1.271-1.271-3.331 0-4.602 1.27-1.271 3.332-1.271 4.602 0l6.61 6.61 10.639-10.638c1.269-1.271 3.33-1.271 4.6 0 1.272 1.27 1.272 3.33 0 4.6L71.42 32.244c-.61.61-1.438.954-2.301.954zM58.393 42.266L45.735 29.608 11.93 29.608 2.101 42.266M28.46 29.608L28.46 42.266M26.71 63.388c0 4.894-3.968 8.86-8.86 8.86-4.895 0-8.862-3.966-8.862-8.86 0-4.895 3.968-8.86 8.861-8.86 4.893 0 8.861 3.965 8.861 8.86zM74.855 63.388c0 4.894-3.968 8.86-8.861 8.86-4.894 0-8.861-3.966-8.861-8.86 0-4.895 3.967-8.86 8.861-8.86 4.893 0 8.861 3.965 8.861 8.86z" transform="translate(1 1)"/>
        <path d="M74.788 64.456h5.386l5.063-2.532v-5.063S77.94 42.267 60.665 42.267H.5v16.231l4.468 5.958h4.089M26.643 64.456L57.2 64.456" transform="translate(1 1)"/>
    </g>
</svg>
