<svg xmlns="http://www.w3.org/2000/svg" width="67" height="81" viewBox="0 0 67 81">
    <g fill="none" fill-rule="evenodd">
        <path fill="#4C5772" d="M13.542 67.854c-.414-.72-1.333-.963-2.05-.55-.717.415-.962 1.332-.548 2.05l2.508 4.345c.277.48.782.75 1.3.75.255 0 .513-.065.749-.201.718-.415.963-1.332.549-2.05l-2.508-4.344zm28.98 1.968H20.44c-.131 0-.256.022-.378.054L13.29 58.149c1.023-1.436 4.506-5.606 10.454-5.606 3.656 0 4.91.462 6.363.997 1.635.6 3.487 1.282 8.447 1.282 4.223 0 6.243.703 7.275 1.309-.313.289-.591.558-.846.806-1.945 1.896-2.467 2.404-14.404 2.404-.828 0-1.5.672-1.5 1.5s.672 1.5 1.5 1.5c12.673 0 13.794-.622 16.497-3.255.43-.42.917-.892 1.552-1.421.204-.17.405-.374.607-.571.036-.03.075-.058.103-.085.01-.01.015-.024.025-.035 1.009-1.006 2-2.288 3.038-3.646 2.01-2.634 4.29-5.62 6.374-5.801.59-.052 1.188.135 1.816.568-2.513 10.257-15.684 20.03-18.068 21.727zM17.97 75.244l-2.84 1.639c-.347.2-.75.252-1.136.15-.386-.104-.708-.351-.908-.698L3.199 59.21c-.2-.345-.253-.75-.15-1.134.104-.386.352-.708.698-.91l2.84-1.64c.23-.132.486-.2.745-.2.13 0 .26.017.39.05.385.105.708.353.908.699L18.518 73.2c.412.714.166 1.63-.548 2.043zM63.268 46.41c-1.5-1.385-3.1-2.006-4.752-1.872-3.404.295-6.111 3.84-8.5 6.969-.682.894-1.341 1.755-1.972 2.489-1.221-.923-3.707-2.174-9.49-2.174-4.426 0-5.875-.533-7.41-1.098-1.578-.581-3.21-1.181-7.4-1.181-6.197 0-10.176 3.56-12.071 5.804l-.445-.771c-.601-1.04-1.57-1.785-2.73-2.095-1.161-.311-2.372-.152-3.411.449l-2.84 1.64C.1 55.81-.638 58.566.602 60.71l9.886 17.125c.6 1.04 1.57 1.785 2.73 2.095.387.105.78.155 1.17.155.78 0 1.55-.204 2.242-.604l2.84-1.64c1.787-1.032 2.578-3.112 2.084-5.02h21.443c.3 0 .593-.09.842-.258.714-.483 17.52-12.004 19.886-24.777.093-.507-.08-1.027-.457-1.376z"/>
        <path fill="#3F64C3" d="M44.325 34.797l-1.158-3.173h2.175l-1.017 3.173zm-7.176-6.173l.744-2.019.748 2.02h-1.492zm-5.464 6.205l-1.025-3.205h2.192l-1.167 3.205zM52.26 22.221h-3.904l-2.053 6.403H42.07l-2.29-6.275h-3.552l-2.285 6.275H29.7l-2.048-6.403h-4.097l2.29 6.403h-3.507v3h4.58l2.59 7.237h3.872l2.664-7.237h3.709l2.683 7.237h3.87l2.589-7.237h4.582v-3H49.97l2.29-6.403zM37.908.001C21.983 0 9.028 12.954 9.028 28.88c0 7.135 2.624 13.987 7.39 19.292.297.33.706.498 1.117.498.356 0 .715-.127 1-.384.618-.554.669-1.502.115-2.118-4.27-4.754-6.622-10.894-6.622-17.289C12.028 14.61 23.638 3 37.908 3s25.88 11.61 25.88 25.88c0 4.294-1.073 8.547-3.104 12.298-.394.73-.123 1.64.606 2.034.725.393 1.639.123 2.033-.606 2.267-4.188 3.465-8.934 3.465-13.726C66.788 12.955 53.833 0 37.908 0z"/>
    </g>
</svg>
