<svg xmlns="http://www.w3.org/2000/svg" xmlns:xlink="http://www.w3.org/1999/xlink" width="25" height="41" viewBox="0 0 25 41">
    <defs>
        <path id="prefix__a" d="M0.114 0.11L22.805 0.11 22.805 39.1 0.114 39.1z"/>
        <path id="prefix__c" d="M0 0.405L24.76 0.405 24.76 11.066 0 11.066z"/>
    </defs>
    <g fill="none" fill-rule="evenodd">
        <g transform="translate(.92 .35)">
            <mask id="prefix__b" fill="#fff">
                <use xlink:href="#prefix__a"/>
            </mask>
            <path fill="#4C5772" d="M21.425 16.034V36.15c0 .866-.704 1.571-1.57 1.571H3.065c-.866 0-1.57-.705-1.57-1.571V16.034L.57 15.55l-.456.188v20.412c0 1.63 1.322 2.951 2.951 2.951h16.79c1.63 0 2.95-1.321 2.95-2.951V15.737l-.455-.188-.925.485zM19.855.11H3.065C1.435.11.115 1.431.115 3.061v10.055l1.38-2.262V3.061c0-.866.704-1.57 1.57-1.57h16.79c.866 0 1.57.704 1.57 1.57v7.793l1.38 2.262V3.061c0-1.63-1.32-2.95-2.95-2.95zM9.428 4.04c0-.417-.338-.756-.756-.756-.417 0-.755.339-.755.757 0 .417.338.755.755.755.418 0 .756-.338.756-.755zm5.575.69c.381 0 .69-.309.69-.69 0-.38-.309-.69-.69-.69H10.65c-.38 0-.69.31-.69.69 0 .381.31.69.69.69h4.353zM3.058 15.926c-.38 0-.69.31-.69.69V35.02c0 1.16.919 2.105 2.048 2.105h14.087c1.13 0 2.049-.944 2.049-2.105V16.356c0-.38-.31-.69-.69-.69-.381 0-.69.31-.69.69V35.02c0 .4-.3.725-.669.725H4.416c-.368 0-.668-.325-.668-.725V16.615c0-.38-.309-.69-.69-.69z" mask="url(#prefix__b)"/>
        </g>
        <g transform="translate(0 6.33)">
            <mask id="prefix__d" fill="#fff">
                <use xlink:href="#prefix__c"/>
            </mask>
            <path fill="#3F64C3" d="M21.732 9.686c-.662 0-1.234-.392-1.496-.956h2.992c-.261.564-.834.956-1.496.956zm-4.676 0c-.662 0-1.235-.392-1.496-.956h2.992c-.261.564-.834.956-1.496.956zm-4.676 0c-.662 0-1.235-.392-1.496-.956h2.992c-.261.564-.834.956-1.496.956zm-4.676 0c-.662 0-1.234-.392-1.496-.956H9.2c-.262.564-.834.956-1.496.956zm-4.676 0c-.663 0-1.234-.392-1.496-.956h2.992c-.262.564-.834.956-1.496.956zM19.896 7.35l-1.811-5.565h1.843l2.988 5.565h-3.02zm-4.565 0l-.665-5.565h1.967l1.811 5.565h-3.113zm-3.847-5.565h1.792l.665 5.565h-3.122l.665-5.565zm-3.357 0h1.967L9.43 7.35H6.316l1.81-5.565zm-3.296 0h1.845L4.865 7.35H1.844L4.83 1.785zm19.926 6.32c0-.021.003-.043.003-.065 0-.01-.003-.019-.003-.03-.001-.023-.004-.048-.007-.074-.004-.021-.007-.042-.013-.063-.005-.022-.012-.042-.02-.064-.008-.023-.017-.046-.028-.068-.004-.009-.006-.019-.011-.027L20.949.769l-.018-.027-.04-.06-.044-.052c-.014-.016-.03-.03-.045-.044-.018-.016-.035-.032-.054-.045-.017-.013-.035-.024-.054-.035-.019-.012-.038-.023-.057-.032-.022-.01-.043-.018-.065-.026-.02-.007-.039-.013-.06-.018-.022-.006-.046-.01-.07-.014-.021-.003-.042-.006-.064-.007-.013 0-.024-.004-.037-.004H4.418c-.012 0-.024.003-.036.004-.022.001-.043.003-.064.007-.025.003-.048.008-.072.014-.02.005-.038.01-.057.018-.023.008-.045.016-.067.027-.019.008-.037.019-.055.03-.02.011-.038.024-.056.037-.018.013-.036.027-.052.042-.017.015-.032.03-.048.047L3.87.68c-.015.02-.028.04-.04.061-.007.01-.014.017-.02.027L.083 7.714c-.005.008-.007.018-.011.027-.01.022-.02.045-.028.068-.008.022-.015.043-.02.064-.005.021-.01.042-.013.063-.003.026-.006.05-.007.075L0 8.04c0 .021.003.043.003.065v.005c.038 1.635 1.38 2.955 3.025 2.955.94 0 1.782-.43 2.338-1.105.556.674 1.397 1.105 2.338 1.105.94 0 1.782-.43 2.338-1.105.556.674 1.397 1.105 2.338 1.105.94 0 1.782-.43 2.338-1.105.556.674 1.397 1.105 2.338 1.105.94 0 1.782-.43 2.338-1.105.556.674 1.398 1.105 2.338 1.105 1.646 0 2.987-1.32 3.024-2.955v-.005z" mask="url(#prefix__d)"/>
        </g>
    </g>
</svg>
