<svg xmlns="http://www.w3.org/2000/svg" width="86" height="74" viewBox="0 0 86 74">
    <g fill="none" fill-rule="evenodd">
        <path stroke="#FCFCFC" stroke-linecap="round" stroke-linejoin="round" stroke-width="3" d="M50.093 46.02c0 13.694-11.103 24.796-24.797 24.796S.5 59.714.5 46.02C.5 32.326 11.6 21.224 25.297 21.224c13.693 0 24.796 11.102 24.796 24.796zM82.971 9.49c0 4.967-11.102 8.992-24.796 8.992-13.694 0-24.796-4.025-24.796-8.991C33.38 4.525 44.481.5 58.175.5 71.87.5 82.971 4.525 82.971 9.49zM82.971 9.491L82.971 54.052M82.971 54.051c0 4.965-11.102 8.99-24.796 8.99-2.496 0-4.907-.134-7.18-.383M82.971 45.06c0 4.966-11.102 8.991-24.796 8.991-.828 0-1.646-.014-2.454-.044M82.971 36.289c0 4.965-11.102 8.99-24.796 8.99-.582 0-1.159-.007-1.73-.021M82.971 27.516c0 4.966-11.102 8.991-24.796 8.991-1.11 0-2.203-.026-3.275-.078M82.971 18.745c0 4.966-11.102 8.99-24.796 8.99-2.496 0-4.907-.133-7.18-.382M33.38 9.491L33.38 16.009" transform="translate(1 1)"/>
        <path fill="#FFF" d="M31.22 50.949l-1.07-2.93h2.007l-.938 2.93zm-6.624-5.698l.686-1.864.691 1.864h-1.377zm-5.045 5.727l-.946-2.958h2.023l-1.077 2.958zm16.88-5.727l2.113-5.911h-3.603l-1.895 5.91H29.14l-2.114-5.792h-3.28l-2.108 5.793H17.72l-1.89-5.911h-3.782l2.114 5.91h-3.238v2.77h4.23l2.39 6.68h3.573l2.46-6.68H27l2.478 6.68h3.573l2.39-6.68h4.228v-2.77H36.43z" transform="translate(1 1)"/>
    </g>
</svg>
