<svg xmlns="http://www.w3.org/2000/svg" xmlns:xlink="http://www.w3.org/1999/xlink" width="43" height="28" viewBox="0 0 43 28">
    <defs>
        <path id="prefix__a" d="M0.283 0.285L21.189 0.285 21.189 26.22 0.283 26.22z"/>
    </defs>
    <g fill="none" fill-rule="evenodd">
        <path fill="#3F64C3" d="M18.092 19.633c-.381 0-.69.31-.69.69v1.49c0 .381.309.69.69.69.38 0 .69-.309.69-.69v-1.49c0-.38-.31-.69-.69-.69m0-4.47c-.381 0-.69.309-.69.69v1.49c0 .38.309.69.69.69.38 0 .69-.31.69-.69v-1.49c0-.381-.31-.69-.69-.69m7.588 7.17v2.461h-6.898c0-.38-.31-.69-.69-.69-.381 0-.69.31-.69.69H1.38v-2.461c1.654-.323 2.905-1.783 2.905-3.53 0-1.746-1.251-3.205-2.905-3.528v-2.461h16.022v.058c0 .38.309.69.69.69.38 0 .69-.31.69-.69v-.058h6.898v2.46c-1.654.324-2.906 1.783-2.906 3.53 0 1.746 1.252 3.206 2.906 3.529m.69-5.745c.38 0 .69-.309.69-.69v-3.774c0-.381-.31-.69-.69-.69H.69c-.38 0-.69.309-.69.69v3.774c0 .381.31.69.69.69 1.222 0 2.215.994 2.215 2.216 0 1.222-.993 2.216-2.215 2.216-.38 0-.69.309-.69.69v3.774c0 .381.31.69.69.69h25.68c.38 0 .69-.309.69-.69V21.71c0-.381-.31-.69-.69-.69-1.222 0-2.216-.994-2.216-2.216 0-1.222.994-2.216 2.216-2.216"/>
        <g transform="translate(20.7 .175)">
            <mask id="prefix__b" fill="#fff">
                <use xlink:href="#prefix__a"/>
            </mask>
            <path fill="#4C5772" d="M10.736 7.345c-5.621 0-9.073-1.654-9.073-2.84s3.452-2.84 9.073-2.84 9.073 1.654 9.073 2.84-3.452 2.84-9.073 2.84m0-7.06C5.669.285.283 1.764.283 4.505v4.107c0 .38.309.69.69.69.38 0 .69-.31.69-.69v-1.93c1.925 1.338 5.575 2.043 9.073 2.043s7.148-.705 9.073-2.044V8.14c0 1.185-3.452 2.839-9.073 2.839-.941 0-1.867-.049-2.752-.146-.377-.04-.72.232-.761.61-.042.38.232.72.61.762.935.102 1.912.154 2.903.154 3.498 0 7.148-.705 9.073-2.044v1.268c0 1.186-3.452 2.84-9.073 2.84-.421 0-.844-.01-1.257-.03-.38-.014-.704.276-.722.657-.018.38.276.704.656.722.434.02.88.031 1.323.031 3.498 0 7.148-.705 9.073-2.044v1.268c0 1.186-3.452 2.84-9.073 2.84-.224 0-.445-.003-.664-.008-.375-.033-.698.29-.707.671-.01.382.29.698.671.708.23.006.464.009.7.009 3.498 0 7.148-.705 9.073-2.044v1.268c0 1.186-3.452 2.84-9.073 2.84-.318 0-.633-.006-.943-.017-.378-.028-.7.285-.714.666-.013.38.285.7.666.713.326.012.656.018.99.018 3.5 0 7.149-.705 9.074-2.044V22c0 1.186-3.452 2.84-9.073 2.84-.939 0-1.864-.05-2.752-.146-.377-.042-.72.231-.761.61-.042.38.232.72.61.761.938.103 1.915.155 2.903.155 5.067 0 10.453-1.479 10.453-4.22V4.505c0-2.741-5.386-4.22-10.453-4.22" mask="url(#prefix__b)"/>
        </g>
    </g>
</svg>
