<svg xmlns="http://www.w3.org/2000/svg" width="86" height="74" viewBox="0 0 86 74">
    <g fill="none" fill-rule="evenodd">
        <path stroke="#4C5772" stroke-linecap="round" stroke-linejoin="round" stroke-width="3" d="M50.093 46.02c0 13.694-11.102 24.797-24.797 24.797C11.602 70.817.5 59.715.5 46.02c0-13.696 11.102-24.797 24.796-24.797 13.695 0 24.797 11.101 24.797 24.796zM82.972 9.491c0 4.965-11.102 8.99-24.796 8.99-13.694 0-24.796-4.025-24.796-8.99 0-4.966 11.102-8.99 24.796-8.99C71.87.5 82.972 4.524 82.972 9.49zM82.972 9.491L82.972 54.051M82.972 54.05c0 4.967-11.102 8.992-24.796 8.992-2.497 0-4.907-.134-7.18-.383M82.972 45.06c0 4.965-11.102 8.99-24.796 8.99-.828 0-1.647-.014-2.455-.042M82.972 36.288c0 4.966-11.102 8.991-24.796 8.991-.582 0-1.16-.008-1.732-.021M82.972 27.517c0 4.966-11.102 8.99-24.796 8.99-1.11 0-2.203-.026-3.275-.078M82.972 18.745c0 4.965-11.102 8.99-24.796 8.99-2.497 0-4.907-.134-7.18-.383M33.38 9.491L33.38 16.008" transform="translate(1 1)"/>
        <path fill="#3F64C3" d="M31.22 50.948l-1.07-2.929h2.008l-.938 2.93zm-6.624-5.698l.687-1.864.69 1.864h-1.377zm-5.044 5.728l-.946-2.959h2.023l-1.077 2.96zM36.43 45.25l2.114-5.91h-3.603l-1.895 5.91H29.14l-2.114-5.792h-3.28l-2.11 5.792H17.72l-1.891-5.91h-3.781l2.114 5.91h-3.238v2.77h4.229l2.389 6.68h3.574l2.46-6.68H27l2.477 6.68h3.573l2.39-6.68h4.229v-2.77H36.43z" transform="translate(1 1)"/>
    </g>
</svg>
