<svg xmlns="http://www.w3.org/2000/svg" width="66" height="78" viewBox="0 0 66 78">
    <g fill="none" fill-rule="evenodd" stroke="#FFF" stroke-linecap="round" stroke-linejoin="round" stroke-width="3">
        <path d="M11.175 31.077v4.743c0 9.048 7.334 16.382 16.381 16.382 9.049 0 16.384-7.334 16.384-16.382V22.604" transform="translate(1 1)"/>
        <path d="M43.484 22.645S16.95 25.768 16.95 14.784c0-3.592-.1 10.619-5.776 16.294 0 0-11.299-21.448 3.121-21.448 0 0 1.415-13.106 21.634-7.913 23.51 6.039 8.01 29.36 8.01 29.36M22.23 51.316L22.23 74.962M32.891 51.316L32.891 74.962M32.891 56.678c0 2.945-2.389 5.334-5.335 5.334-2.945 0-5.334-2.39-5.334-5.334l-10.86-.145c-6 0-10.862 4.863-10.862 10.86v7.568" transform="translate(1 1)"/>
        <path d="M22.222 56.678c0 2.945 2.39 5.334 5.334 5.334 2.946 0 5.335-2.39 5.335-5.334l10.86-.145c1.211 0 2.375.198 3.463.564M11.175 37.597c-3.052 0-5.525-2.474-5.525-5.524 0-2.39 1.518-4.426 3.641-5.196M43.94 37.597c3.05 0 5.523-2.474 5.523-5.524 0-2.266-1.363-4.212-3.314-5.065M45.812 66.161L63.414 66.161M54.613 57.36L54.613 74.961" transform="translate(1 1)"/>
    </g>
</svg>
