<svg xmlns="http://www.w3.org/2000/svg" width="55" height="82" viewBox="0 0 55 82">
    <g fill="none" fill-rule="evenodd" stroke-linecap="round" stroke-linejoin="round" stroke-width="3">
        <path stroke="#4C5772" d="M50.038 70.863v6.287c0 1.133-.927 2.06-2.06 2.06h-31.14c-1.134 0-2.062-.927-2.062-2.06v-6.287c0-1.133.928-2.06 2.061-2.06h31.14c1.134 0 2.06.927 2.06 2.06zM44.929 74.006L35.803 74.006M18.173 67.906s1.076-8.612-6.013-12.665C7.633 52.653 5.021 43.376 2.944 41.3c-2.076-2.077-3.409-3.905-1.58-5.733 1.83-1.828 5.67-1.766 9.141 1.704 3.471 3.47 2.357 3.409 6.717 5.683M46.732 68.185s.32-4.27 3.076-9.771c.964-2.243 1.699-3.825 1.699-7.51V37.553M25.803 14.234L25.803 36.44M17.222 42.953v-28.72c0-2.369 1.921-4.29 4.29-4.29 2.37 0 4.291 1.921 4.291 4.29M25.803 39.26v-6.477c0-2.37 1.921-4.29 4.29-4.29 2.37 0 4.29 1.92 4.29 4.29v2.46M34.383 39.26v-4.017c0-2.369 1.921-4.29 4.291-4.29s4.29 1.921 4.29 4.29v2.634" transform="translate(1 1)"/>
        <path stroke="#4C5772" d="M42.964 39.26v-1.707c0-2.369 1.921-4.29 4.291-4.29s4.29 1.921 4.29 4.29" transform="translate(1 1)"/>
        <path stroke="#3F64C3" d="M12.303 23.273c-2.49-2.41-4.039-5.786-4.039-9.524C8.264 6.432 14.196.5 21.512.5c7.317 0 13.25 5.93 13.25 13.248 0 3.739-1.55 7.116-4.04 9.524" transform="translate(1 1)"/>
    </g>
</svg>
