<svg xmlns="http://www.w3.org/2000/svg" xmlns:xlink="http://www.w3.org/1999/xlink" width="73" height="85" viewBox="0 0 73 85">
    <defs>
        <path id="prefix__a" d="M0.975 0.341L59.115 0.341 59.115 3.341 0.975 3.341z"/>
        <path id="prefix__c" d="M0 0.164L72.096 0.164 72.096 74 0 74z"/>
    </defs>
    <g fill="none" fill-rule="evenodd">
        <g transform="translate(0 -1) translate(6 .66)">
            <mask id="prefix__b" fill="#fff">
                <use xlink:href="#prefix__a"/>
            </mask>
            <path fill="#3F64C3" d="M57.615 3.34H2.475c-.828 0-1.5-.67-1.5-1.5 0-.828.672-1.5 1.5-1.5h55.14c.828 0 1.5.672 1.5 1.5 0 .83-.672 1.5-1.5 1.5" mask="url(#prefix__b)"/>
        </g>
        <g transform="translate(0 -1) translate(0 11.66)">
            <mask id="prefix__d" fill="#fff">
                <use xlink:href="#prefix__c"/>
            </mask>
            <path fill="#4C5772" d="M26.046 34.414c.193 0 .389.037.574.114.56.233.926.78.926 1.386V62.5c0 4.686 3.813 8.5 8.5 8.5 4.687 0 8.5-3.814 8.5-8.5V35.698c0-.606.365-1.153.926-1.386.56-.231 1.205-.103 1.635.326l7.478 7.478c3.315 3.313 8.707 3.313 12.022 0 1.605-1.605 2.489-3.74 2.489-6.011 0-2.27-.884-4.404-2.49-6.01L42.166 5.653c-1.606-1.605-3.741-2.49-6.011-2.49s-4.404.885-6.01 2.49L5.484 30.31c-1.605 1.606-2.49 3.74-2.49 6.01 0 2.272.885 4.406 2.49 6.012 1.607 1.605 3.742 2.489 6.01 2.489 2.27 0 4.406-.884 6.012-2.49l7.479-7.48c.288-.286.67-.438 1.06-.438m10 39.586c-6.34 0-11.5-5.16-11.5-11.5V39.535l-4.918 4.919c-2.173 2.172-5.06 3.368-8.132 3.368-3.071 0-5.96-1.196-8.132-3.368-4.484-4.483-4.484-11.78 0-16.264l24.66-24.658c2.172-2.173 5.06-3.368 8.13-3.368 3.073 0 5.96 1.196 8.133 3.368l24.442 24.442c2.172 2.172 3.368 5.06 3.368 8.13 0 3.074-1.196 5.96-3.368 8.133-4.486 4.483-11.781 4.483-16.264 0l-4.918-4.918v23.18c0 6.342-5.16 11.5-11.5 11.5" mask="url(#prefix__d)"/>
        </g>
    </g>
</svg>
