<svg xmlns="http://www.w3.org/2000/svg" width="51" height="61" viewBox="0 0 51 61">
    <g fill="none" fill-rule="evenodd">
        <path fill="#FFF" d="M39.216 61.001L49.441 61.001 49.441 14.852 39.216 14.852zM.599 61.001L10.805 61.001 10.805 14.852.599 14.852zM10.805 61.001L39.215 61.001 39.215.599 10.805.599z"/>
        <path fill="#2CBEFF" d="M17.896 48.772L17.896 60.999 32.124 61.001 32.124 48.772z"/>
        <path fill="#4C5772" d="M10.206 0v14.252H0v46.749h1.199v-45.55h9.007v45.55h1.2V1.2h27.21v59.801h1.199v-45.55h9.026v45.55h1.199V14.252H39.815V0H10.206zm21.319 45.046h1.2V7.359h-1.2v37.687zm-4.743 0h1.199V7.359h-1.199v37.687zm-4.742 0h1.199V7.359H22.04v37.687zm-4.743 0h1.199V7.359h-1.199v37.687zm25.614-17.964h2.834v-3.098h-2.834v3.098zm-38.626 0H7.12v-3.098H4.285v3.098zm38.626 6.197h2.834V30.18h-2.834v3.099zm-38.626 0H7.12V30.18H4.285v3.099zm38.626 6.197h2.834v-3.098h-2.834v3.098zm-38.626 0H7.12v-3.098H4.285v3.098zm38.626 6.197h2.834v-3.099h-2.834v3.099zm-38.626 0H7.12v-3.099H4.285v3.099zm13.012 2.499v12.827h1.199V49.371h13.029v11.63h1.2V48.172H17.297zm25.614 3.697h2.834v-3.097h-2.834v3.097zm-38.626 0H7.12v-3.097H4.285v3.097zm38.626 6.197h2.834v-3.099h-2.834v3.099zm-38.626 0H7.12v-3.099H4.285v3.099z"/>
    </g>
</svg>
