<?xml version="1.0" encoding="utf-8"?>
<!-- Generator: Adobe Illustrator 24.0.3, SVG Export Plug-In . SVG Version: 6.00 Build 0)  -->
<svg version="1.2" baseProfile="tiny" id="레이어_1"
	 xmlns="http://www.w3.org/2000/svg" xmlns:xlink="http://www.w3.org/1999/xlink" x="0px" y="0px" viewBox="0 0 22 14"
	 xml:space="preserve">
<path fill-rule="evenodd" fill="#3F64C3" d="M19.3,11.1C17.4,12.8,14.5,14,11,14c-3.5,0-6.4-1.2-8.3-2.9C1.5,9.9,0,7.9,0,7
	s1.2-2.8,2.7-4C4.6,1.5,7.8,0,11,0s6.4,1.5,8.3,3C20.8,4.2,22,6.1,22,7S20.5,9.9,19.3,11.1z M11,2C8.3,2,6,4.3,6.1,7
	c0,2.7,2.2,4.9,4.9,5c2.7,0,4.9-2.2,4.9-5C15.9,4.3,13.7,2,11,2z M11,10.3c-1.8,0-3.3-1.5-3.3-3.3c0-0.3,0-0.6,0.1-0.9
	c0.3,0.3,0.7,0.5,1.1,0.5c0.9,0,1.6-0.7,1.6-1.6c0-0.4-0.2-0.8-0.5-1.1c0.3-0.1,0.6-0.1,0.9-0.1c1.8,0.1,3.3,1.6,3.2,3.4
	C14.2,8.9,12.8,10.3,11,10.3z"/>
</svg>
