<svg xmlns="http://www.w3.org/2000/svg" width="97" height="75" viewBox="0 0 97 75">
    <g fill="none" fill-rule="evenodd" stroke-linecap="round" stroke-linejoin="round" stroke-width="3">
        <path stroke="#4C5772" d="M48.16 23.474C48.16 10.786 58.445.5 71.133.5 83.82.5 94.106 10.786 94.106 23.474c0 8.723-4.861 16.31-12.022 20.2" transform="translate(1 1)"/>
        <path stroke="#3F64C3" d="M69.12 33.197c-.864 0-1.692-.343-2.302-.953l-8.911-8.912c-1.27-1.27-1.27-3.33 0-4.602 1.27-1.27 3.332-1.27 4.602 0l6.61 6.611 10.638-10.638c1.27-1.272 3.33-1.272 4.602 0 1.27 1.27 1.27 3.331 0 4.601L71.42 32.244c-.612.61-1.44.953-2.302.953z" transform="translate(1 1)"/>
        <path stroke="#4C5772" d="M58.394 42.267L45.735 29.608 11.93 29.608 2.101 42.267M28.46 29.608L28.46 42.266M26.71 63.388c0 4.894-3.967 8.86-8.86 8.86-4.895 0-8.862-3.966-8.862-8.86 0-4.894 3.967-8.86 8.862-8.86 4.893 0 8.86 3.966 8.86 8.86zM74.855 63.388c0 4.894-3.967 8.86-8.861 8.86s-8.861-3.966-8.861-8.86c0-4.894 3.967-8.86 8.86-8.86 4.895 0 8.862 3.966 8.862 8.86z" transform="translate(1 1)"/>
        <path stroke="#4C5772" d="M74.787 64.456h5.386l5.063-2.532V56.86S77.94 42.267 60.664 42.267H.5v16.232l4.468 5.957h4.088M26.643 64.456L57.2 64.456" transform="translate(1 1)"/>
    </g>
</svg>
