<svg xmlns="http://www.w3.org/2000/svg" xmlns:xlink="http://www.w3.org/1999/xlink" width="113" height="113" viewBox="0 0 113 113">
    <defs>
        <path id="a" d="M0 0h113v113H0z"/>
    </defs>
    <g fill="none" fill-rule="evenodd">
        <mask id="b" fill="#fff">
            <use xlink:href="#a"/>
        </mask>
        <path fill="#E7E7E7" d="M56.504 74.156c-3.888 0-7.053 3.165-7.053 7.056 0 3.884 3.165 7.048 7.053 7.048 3.887 0 7.048-3.164 7.048-7.048 0-3.892-3.16-7.056-7.048-7.056m0-49.377c-4.047 0-7.109 2.112-7.109 5.523v31.287c0 3.414 3.061 5.519 7.109 5.519 3.947 0 7.108-2.193 7.108-5.52V30.303c0-3.33-3.16-5.523-7.108-5.523m-.004 77.627c-25.354 0-45.906-20.552-45.906-45.906S31.146 10.594 56.5 10.594s45.906 20.552 45.906 45.906-20.552 45.906-45.906 45.906M56.5 0C25.298 0 0 25.298 0 56.5 0 87.706 25.298 113 56.5 113c31.206 0 56.5-25.29 56.5-56.5C113 25.298 87.705 0 56.5 0" mask="url(#b)"/>
    </g>
</svg>
