<svg xmlns="http://www.w3.org/2000/svg" xmlns:xlink="http://www.w3.org/1999/xlink" width="81" height="97" viewBox="0 0 81 97">
    <defs>
        <path id="prefix__a" d="M0.033 0.069L69.268 0.069 69.268 49.773 0.033 49.773z"/>
    </defs>
    <g fill="none" fill-rule="evenodd">
        <path fill="#4C5772" d="M16.25 81.452c-.497-.862-1.6-1.156-2.459-.658-.861.496-1.155 1.597-.659 2.458l3.01 5.214c.332.578.938.9 1.56.9.306 0 .616-.078.899-.24.861-.499 1.155-1.6.659-2.46l-3.01-5.214zm34.777 2.363h-26.5c-.157 0-.307.027-.452.064L15.95 69.805c1.226-1.722 5.406-6.726 12.543-6.726 4.388 0 5.894.555 7.637 1.197 1.961.72 4.183 1.54 10.135 1.54 5.067 0 7.49.842 8.73 1.569-.375.347-.709.67-1.015.967-2.333 2.275-2.96 2.885-17.285 2.885-.993 0-1.8.806-1.8 1.8 0 .993.807 1.8 1.8 1.8 15.21 0 16.554-.747 19.798-3.906.516-.503 1.1-1.07 1.861-1.705.235-.198.47-.435.702-.66.054-.042.108-.087.149-.124.017-.014.022-.035.036-.05 1.21-1.206 2.398-2.744 3.64-4.37 2.414-3.162 5.15-6.745 7.65-6.962.709-.066 1.425.163 2.179.682-3.016 12.308-18.821 24.036-21.682 26.073zm-29.463 6.507l-3.408 1.966c-.416.24-.898.303-1.362.18-.464-.124-.85-.422-1.09-.837L3.838 71.08c-.494-.856-.199-1.956.658-2.452l3.408-1.967c.282-.163.59-.24.895-.24.622 0 1.227.322 1.558.898L22.22 87.869c.495.858.2 1.958-.657 2.453zM75.92 55.72c-1.8-1.662-3.713-2.408-5.702-2.247-4.085.354-7.333 4.61-10.199 8.363-.82 1.073-1.61 2.106-2.368 2.987-1.465-1.108-4.45-2.608-11.388-2.608-5.31 0-7.05-.64-8.89-1.319-1.895-.696-3.851-1.417-8.882-1.417-7.435 0-12.21 4.273-14.484 6.965l-.534-.924c-1.486-2.576-4.795-3.463-7.37-1.975l-3.408 1.968C.121 67-.766 70.306.722 72.88l11.864 20.55c.722 1.248 1.884 2.142 3.276 2.514.465.125.936.186 1.406.186.934 0 1.857-.245 2.688-.725l3.408-1.968c2.144-1.238 3.093-3.734 2.502-6.023h25.73c.36 0 .713-.108 1.01-.31.857-.58 21.024-14.407 23.864-29.734.111-.609-.095-1.233-.549-1.651z"/>
        <path fill="#3F64C3" d="M21.398 58.825c-.482 0-.965-.194-1.32-.575-.286-.309-.566-.624-.842-.943-.65-.752-.567-1.888.186-2.538.75-.65 1.886-.57 2.538.184.247.287.5.57.758.846.676.73.634 1.869-.095 2.546-.348.32-.787.48-1.225.48"/>
        <g transform="translate(10.8 .131)">
            <mask id="prefix__b" fill="#fff">
                <use xlink:href="#prefix__a"/>
            </mask>
            <path fill="#3F64C3" d="M28.95 3.997c-.856 0-1.616-.614-1.77-1.488-.172-.979.482-1.912 1.46-2.085.82-.144 1.658-.26 2.492-.346 1-.1 1.874.62 1.974 1.608.101.988-.619 1.872-1.608 1.973-.747.077-1.498.181-2.232.31-.106.019-.21.028-.315.028m14.198.6c-.152 0-.308-.021-.462-.06-.727-.194-1.467-.362-2.2-.5-.976-.184-1.62-1.126-1.435-2.102.184-.977 1.122-1.618 2.103-1.436.817.154 1.643.342 2.454.556.961.256 1.533 1.24 1.279 2.202-.214.806-.942 1.34-1.739 1.34M17.838 8.142c-.612 0-1.209-.312-1.546-.874-.511-.854-.233-1.959.62-2.47.717-.43 1.46-.838 2.205-1.213.889-.447 1.969-.09 2.417.799.446.887.09 1.97-.798 2.417-.668.336-1.332.7-1.974 1.086-.29.173-.609.255-.924.255m36.036 1.534c-.365 0-.734-.11-1.05-.338-.612-.442-1.245-.863-1.88-1.253-.847-.522-1.11-1.631-.589-2.477.521-.847 1.631-1.109 2.476-.59.709.436 1.413.907 2.095 1.396.806.581.99 1.707.41 2.513-.352.489-.904.749-1.462.749m-44.96 6.296c-.39 0-.787-.126-1.117-.388-.779-.617-.91-1.75-.293-2.529.516-.651 1.066-1.295 1.631-1.914.672-.733 1.811-.782 2.543-.113.734.671.785 1.81.113 2.543-.509.557-1.002 1.135-1.465 1.72-.354.449-.881.681-1.412.681m53.19 2.26c-.583 0-1.155-.283-1.502-.805-.416-.628-.858-1.245-1.314-1.835-.607-.787-.462-1.919.326-2.525.786-.606 1.917-.462 2.524.325.509.658 1 1.347 1.464 2.045.55.828.324 1.945-.505 2.495-.306.203-.652.3-.994.3M3.35 26.46c-.179 0-.361-.027-.541-.084-.948-.299-1.475-1.31-1.176-2.257.253-.804.539-1.603.846-2.377.37-.924 1.416-1.37 2.34-1.006.923.369 1.373 1.416 1.005 2.339-.277.692-.531 1.406-.757 2.125-.242.768-.951 1.26-1.717 1.26m63.402 2.69c-.826 0-1.568-.57-1.756-1.407-.163-.726-.355-1.46-.572-2.182-.287-.951.252-1.956 1.204-2.242.951-.287 1.954.253 2.244 1.203.24.804.456 1.624.638 2.434.216.97-.392 1.933-1.363 2.15-.132.029-.265.043-.395.043M1.885 38.24c-.948 0-1.741-.741-1.797-1.7-.036-.656-.055-1.319-.055-1.986l.004-.528c.014-.985.817-1.775 1.8-1.775h.026c.994.015 1.788.832 1.774 1.825l-.004.478c0 .599.017 1.194.05 1.783.056.993-.704 1.843-1.696 1.899-.034.002-.067.003-.102.003m65.337 2.772c-.084 0-.168-.006-.253-.017-.985-.139-1.67-1.048-1.532-2.034.104-.741.185-1.497.236-2.246.067-.992.945-1.735 1.919-1.672.991.069 1.74.928 1.672 1.92-.058.833-.146 1.674-.262 2.5-.126.9-.898 1.55-1.78 1.55m-62.53 8.762c-.688 0-1.344-.396-1.644-1.064-.342-.764-.662-1.55-.945-2.336-.338-.934.144-1.967 1.079-2.304.937-.337 1.967.144 2.305 1.079.255.702.539 1.405.846 2.089.407.907 0 1.973-.907 2.38-.239.105-.488.156-.734.156" mask="url(#prefix__b)"/>
        </g>
        <path fill="#3F64C3" d="M74.76 51.424c-.277 0-.557-.063-.82-.198-.885-.452-1.235-1.536-.781-2.423.171-.333.336-.673.495-1.015.42-.902 1.492-1.29 2.39-.875.902.42 1.293 1.49.875 2.39-.178.386-.364.765-.556 1.142-.318.622-.95.98-1.604.98"/>
    </g>
</svg>
