<svg xmlns="http://www.w3.org/2000/svg" xmlns:xlink="http://www.w3.org/1999/xlink" width="90" height="54" viewBox="0 0 90 54">
    <defs>
        <path id="prefix__a" d="M0.296 0.262L18.838 0.262 18.838 18 0.296 18z"/>
        <path id="prefix__c" d="M0.179 0.262L18.721 0.262 18.721 18 0.179 18z"/>
    </defs>
    <g fill="none" fill-rule="evenodd">
        <path fill="#3F64C3" d="M7.299 31.118L7.299 54.062 11.38 54.062 11.38 44.389 24.395 44.389 24.395 40.951 11.38 40.951 11.38 34.557 25.102 34.557 25.102 31.118z" transform="translate(0 -1)"/>
        <g>
            <path fill="#3F64C3" d="M28.218 53.486V36.777h3.792v2.86c.793-1.007 1.72-1.779 2.78-2.314 1.061-.535 2.19-.804 3.39-.804.515 0 1.114.054 1.8.161l-.45 3.213c-.643-.107-1.233-.16-1.768-.16-1.692 0-3.064.482-4.112 1.445-1.05.944-1.576 2.046-1.576 3.311v8.997h-3.856z" transform="translate(0 -1) translate(0 .576)"/>
            <g transform="translate(0 -1) translate(0 .576) translate(41 36)">
                <mask id="prefix__b" fill="#fff">
                    <use xlink:href="#prefix__a"/>
                </mask>
                <path fill="#3F64C3" d="M15.142 7.524c-.043-1.413-.54-2.51-1.494-3.293-.953-.782-2.277-1.174-3.968-1.174-1.52 0-2.779.403-3.776 1.206-.996.803-1.58 1.891-1.75 3.261h10.988zm-11.085 2.57c.042 1.543.583 2.77 1.622 3.68 1.04.911 2.404 1.366 4.098 1.366 1.327 0 2.414-.22 3.261-.659.846-.438 1.43-1.086 1.75-1.943h3.825c-.47 1.841-1.442 3.213-2.909 4.112-1.467.9-3.454 1.35-5.959 1.35-2.936 0-5.245-.777-6.926-2.33C1.137 14.118.296 11.992.296 9.292c0-1.756.38-3.315 1.141-4.676.761-1.36 1.853-2.425 3.278-3.196C6.14.648 7.805.262 9.712.262c2.892 0 5.135.744 6.732 2.234 1.595 1.49 2.394 3.572 2.394 6.25v1.348H4.058z" mask="url(#prefix__b)"/>
            </g>
            <g transform="translate(0 -1) translate(0 .576) translate(63 36)">
                <mask id="prefix__d" fill="#fff">
                    <use xlink:href="#prefix__c"/>
                </mask>
                <path fill="#3F64C3" d="M15.025 7.524c-.043-1.413-.541-2.51-1.494-3.293-.953-.782-2.277-1.174-3.968-1.174-1.521 0-2.779.403-3.776 1.206-.996.803-1.58 1.891-1.751 3.261h10.989zM3.94 10.094c.042 1.543.583 2.77 1.622 3.68 1.039.911 2.404 1.366 4.098 1.366 1.327 0 2.414-.22 3.261-.659.846-.438 1.429-1.086 1.75-1.943h3.825c-.471 1.841-1.442 3.213-2.909 4.112-1.467.9-3.454 1.35-5.959 1.35-2.936 0-5.245-.777-6.926-2.33C1.02 14.118.179 11.992.179 9.292c0-1.756.381-3.315 1.141-4.676.761-1.36 1.853-2.425 3.278-3.196C6.023.648 7.688.262 9.595.262c2.892 0 5.135.744 6.732 2.234 1.595 1.49 2.394 3.572 2.394 6.25v1.348H3.94z" mask="url(#prefix__d)"/>
            </g>
            <path fill="#4C5772" d="M82.565 10.335c-1.905 0-3.456-1.55-3.456-3.456 0-1.905 1.551-3.455 3.456-3.455s3.455 1.55 3.455 3.455c0 1.906-1.55 3.456-3.455 3.456m0-9.91c-3.56 0-6.456 2.895-6.456 6.454 0 3.56 2.896 6.456 6.456 6.456 3.56 0 6.455-2.896 6.455-6.456 0-3.559-2.895-6.455-6.455-6.455M72.145 5.38h-.318c-.828 0-1.5.672-1.5 1.5 0 .83.672 1.5 1.5 1.5h.318c.828 0 1.5-.67 1.5-1.5 0-.828-.672-1.5-1.5-1.5m-5.632 0h-.319c-.828 0-1.5.672-1.5 1.5 0 .83.672 1.5 1.5 1.5h.319c.828 0 1.5-.67 1.5-1.5 0-.828-.672-1.5-1.5-1.5m-5.633 0h-.318c-.828 0-1.5.672-1.5 1.5 0 .83.672 1.5 1.5 1.5h.318c.829 0 1.5-.67 1.5-1.5 0-.828-.671-1.5-1.5-1.5m-5.632 0h-.319c-.828 0-1.5.672-1.5 1.5 0 .83.672 1.5 1.5 1.5h.319c.828 0 1.5-.67 1.5-1.5 0-.828-.672-1.5-1.5-1.5M6.456 10.335C4.55 10.335 3 8.785 3 6.88c0-1.905 1.55-3.455 3.456-3.455 1.905 0 3.456 1.55 3.456 3.455 0 1.906-1.551 3.456-3.456 3.456M39.554 5.38H12.729C12.05 2.543 9.499.424 6.456.424 2.896.424 0 3.32 0 6.88c0 3.56 2.896 6.456 6.456 6.456 3.043 0 5.594-2.118 6.273-4.956h26.825c.828 0 1.5-.67 1.5-1.5 0-.828-.672-1.5-1.5-1.5" transform="translate(0 -1) translate(0 .576)"/>
            <path fill="#3F64C3" d="M44.51 3.425c-1.905 0-3.456 1.55-3.456 3.456 0 1.905 1.551 3.455 3.456 3.455s3.456-1.55 3.456-3.455c0-1.906-1.55-3.456-3.456-3.456m0 9.91c-3.56 0-6.456-2.895-6.456-6.454 0-3.56 2.896-6.456 6.456-6.456 3.56 0 6.456 2.896 6.456 6.456 0 3.559-2.896 6.455-6.456 6.455" transform="translate(0 -1) translate(0 .576)"/>
        </g>
    </g>
</svg>
