<svg xmlns="http://www.w3.org/2000/svg" xmlns:xlink="http://www.w3.org/1999/xlink" width="85" height="85" viewBox="0 0 85 85">
    <defs>
        <path id="prefix__a" d="M0.484 0.24L39.511 0.24 39.511 27.513 0.484 27.513z"/>
        <path id="prefix__c" d="M0 0.24L84.191 0.24 84.191 85 0 85z"/>
    </defs>
    <g fill="none" fill-rule="evenodd">
        <g transform="translate(0 -1) translate(37 .76)">
            <mask id="prefix__b" fill="#fff">
                <use xlink:href="#prefix__a"/>
            </mask>
            <path fill="#3F64C3" d="M31.827 24.622c2.662 0 3.994-1.762 3.994-5.287 0-1.8-.33-3.138-.989-4.013-.66-.875-1.66-1.312-3.005-1.312-2.663 0-3.994 1.762-3.994 5.287 0 1.8.33 3.138.99 4.013.658.875 1.66 1.312 3.004 1.312zm-.038 2.89c-2.384 0-4.254-.728-5.61-2.186-1.358-1.458-2.036-3.455-2.036-5.991 0-2.51.698-4.507 2.092-5.991 1.395-1.483 3.272-2.225 5.63-2.225 2.383 0 4.254.729 5.61 2.187 1.357 1.459 2.036 3.456 2.036 5.99 0 2.512-.699 4.508-2.092 5.992-1.396 1.483-3.272 2.225-5.63 2.225zm-21.947-.494L25.817.735h4.336L14.178 27.018H9.842zM8.168 13.744c2.662 0 3.994-1.763 3.994-5.288 0-1.8-.33-3.138-.989-4.013-.66-.875-1.66-1.312-3.005-1.312-2.663 0-3.994 1.763-3.994 5.287 0 1.8.33 3.138.99 4.013.658.875 1.66 1.313 3.004 1.313zm-.038 2.89c-2.384 0-4.255-.728-5.61-2.187C1.161 12.989.483 10.992.483 8.456c0-2.51.697-4.507 2.092-5.991C3.971.982 5.848.24 8.206.24c2.383 0 4.253.73 5.61 2.187 1.357 1.459 2.035 3.456 2.035 5.99 0 2.512-.698 4.509-2.092 5.992-1.395 1.484-3.27 2.225-5.629 2.225z" mask="url(#prefix__b)"/>
        </g>
        <g transform="translate(0 -1) translate(0 .76)">
            <mask id="prefix__d" fill="#fff">
                <use xlink:href="#prefix__c"/>
            </mask>
            <path fill="#4C5772" d="M80.677 34.419c-4.68-4.678-12.291-4.678-16.971 0l-9.61 9.61V31.082c0-.828-.672-1.5-1.5-1.5s-1.5.672-1.5 1.5V47.65c0 .607.365 1.154.926 1.386.559.234 1.205.105 1.634-.325l12.17-12.171c3.51-3.508 9.22-3.508 12.73 0 1.7 1.7 2.636 3.96 2.636 6.364 0 2.405-.936 4.664-2.636 6.365L48.46 79.364c-1.7 1.7-3.961 2.636-6.364 2.636s-4.664-.936-6.364-2.636L5.636 49.269C3.936 47.568 3 45.309 3 42.904c0-2.404.936-4.664 2.636-6.364 1.755-1.754 4.06-2.631 6.364-2.631 2.305 0 4.61.877 6.364 2.631l12.17 12.171c.43.43 1.078.56 1.636.325.56-.232.926-.779.926-1.386V1.74c0-.829-.672-1.5-1.5-1.5s-1.5.671-1.5 1.5v42.289l-9.61-9.61c-4.68-4.678-12.291-4.678-16.971 0C1.248 36.686 0 39.699 0 42.904c0 3.205 1.248 6.219 3.515 8.486L33.61 81.485C35.878 83.752 38.89 85 42.096 85c3.204 0 6.218-1.248 8.485-3.515L80.677 51.39c2.267-2.267 3.515-5.281 3.515-8.486 0-3.205-1.248-6.218-3.515-8.485" mask="url(#prefix__d)"/>
        </g>
    </g>
</svg>
