<svg xmlns="http://www.w3.org/2000/svg" width="64" height="81" viewBox="0 0 64 81">
    <g fill="none" fill-rule="evenodd">
        <path fill="#4C5772" d="M15.982 11.943h29.417V0H15.982v11.941zm3-3H42.4V2.999H18.982v5.944z" transform="translate(1)"/>
        <g stroke-linecap="round" stroke-linejoin="round" stroke-width="3">
            <path stroke="#4C5772" d="M45.4.856h9.066c3.543 0 6.415 2.872 6.415 6.415v59.814c0 3.542-2.872 6.415-6.415 6.415H6.916C3.373 73.5.5 70.627.5 67.085V7.271C.5 3.728 3.373.856 6.916.856h9.066" transform="translate(1) translate(0 5.115)"/>
            <path stroke="#3F64C3" d="M28.215 49.13c-1.06 0-2.078-.421-2.828-1.171L14.433 37.005c-1.563-1.562-1.563-4.095 0-5.656 1.56-1.563 4.095-1.563 5.656 0l8.126 8.125 13.076-13.076c1.561-1.563 4.094-1.563 5.656 0 1.563 1.56 1.563 4.094 0 5.656L31.043 47.959c-.75.75-1.767 1.172-2.828 1.172z" transform="translate(1) translate(0 5.115)"/>
        </g>
    </g>
</svg>
