<svg xmlns="http://www.w3.org/2000/svg" width="36" height="34" viewBox="0 0 36 34">
    <g fill="none" fill-rule="evenodd">
        <path fill="#3F64C3" d="M28.502 3.054L20.51.144c-.595-.217-1.24-.188-1.817.081-.577.27-1.014.745-1.23 1.34l-.653 1.79c-.545-.23-1.17-.259-1.742-.05L7.073 6.217c-.595.217-1.07.654-1.34 1.23-.269.577-.298 1.222-.08 1.818l.38 1.046c.102.28.367.454.648.454.08 0 .159-.014.237-.042.358-.13.543-.527.412-.885l-.38-1.045c-.091-.25-.079-.52.034-.763s.312-.426.56-.517l7.995-2.91c.264-.096.55-.064.795.06l-1.885 5.176c-.13.357.054.754.413.884.077.028.157.042.235.042.282 0 .547-.174.649-.455l3.011-8.273c.091-.248.275-.448.517-.56.243-.113.514-.126.763-.036l7.994 2.91c.517.19.784.763.596 1.28l-1.484 4.077c-.13.357.054.753.412.884.357.13.753-.054.884-.413l1.484-4.077c.448-1.231-.189-2.598-1.42-3.047"/>
        <path fill="#4C5772" d="M30.993 20.017l-3.76-3.76h4.757l-.997 3.76zm-3.198 12.067H8.529l-2.857-10.78 5.047-5.047h14.563l5.302 5.303-2.79 10.524zM4.335 16.257h4.433l-3.505 3.505-.929-3.505zm-.898-1.38c-1.134 0-2.057-.922-2.057-2.057 0-1.134.923-2.056 2.057-2.056h29.126c1.135 0 2.058.922 2.058 2.056 0 1.135-.923 2.057-2.058 2.057h-6.71l-2.545-2.544c-.27-.27-.706-.27-.975 0-.27.27-.27.706 0 .975l1.569 1.57H12.099l1.57-1.57c.269-.27.269-.706 0-.975-.27-.27-.707-.27-.976 0l-2.545 2.544h-6.71zm28.685 6.27l1.327-5.01c1.467-.392 2.552-1.728 2.552-3.317 0-1.895-1.542-3.436-3.438-3.436H3.437C1.542 9.384 0 10.925 0 12.82c0 1.71 1.256 3.128 2.893 3.39l1.241 4.68L.98 24.047c-.27.27-.27.706 0 .975.135.135.311.202.487.202.177 0 .354-.067.488-.202l2.588-2.587L7.331 32.95c.08.302.354.513.667.513h20.327c.314 0 .587-.211.667-.513l2.72-10.262 2.333 2.332c.135.135.311.202.488.202.176 0 .353-.067.488-.202.27-.27.27-.706 0-.975l-2.9-2.9zm-14.122-2c-.38 0-.69.308-.69.69v8.79c0 .382.31.69.69.69.381 0 .69-.308.69-.69v-8.79c0-.382-.309-.69-.69-.69zm6.523.613l-1.4 8.759c-.06.376.197.73.573.79.037.006.074.009.11.009.333 0 .626-.242.68-.582l1.4-8.759c.06-.375-.196-.73-.573-.79-.375-.06-.73.196-.79.573zm-13.045 0c-.06-.377-.417-.632-.79-.573-.377.06-.633.415-.573.79l1.4 8.76c.054.339.347.58.68.58.036 0 .073-.002.11-.008.376-.06.633-.414.572-.79l-1.4-8.76z"/>
    </g>
</svg>
