<svg xmlns="http://www.w3.org/2000/svg" xmlns:xlink="http://www.w3.org/1999/xlink" width="44" height="26" viewBox="0 0 44 26">
    <defs>
        <path id="prefix__a" d="M0.341 0.071L6.106 0.071 6.106 12.933 0.341 12.933z"/>
        <path id="prefix__c" d="M0 0.07L42.906 0.07 42.906 24.38 0 24.38z"/>
    </defs>
    <g fill="none" fill-rule="evenodd">
        <path fill="#3F64C3" d="M26.96 7.917c-.38 0-.69.31-.69.69v1.336c0 .38.31.69.69.69.381 0 .69-.31.69-.69V8.607c0-.38-.309-.69-.69-.69m0-4.007c-.38 0-.69.31-.69.69v1.336c0 .381.31.69.69.69.381 0 .69-.309.69-.69V4.6c0-.38-.309-.69-.69-.69m0-3.362c-.38 0-.69.31-.69.69v.69c0 .382.31.69.69.69.381 0 .69-.308.69-.69v-.69c0-.38-.309-.69-.69-.69m0 11.377c-.38 0-.69.309-.69.69v1.335c0 .381.31.69.69.69.381 0 .69-.309.69-.69v-1.335c0-.381-.309-.69-.69-.69m0 8.015c-.38 0-.69.309-.69.69v.69c0 .38.31.69.69.69.381 0 .69-.31.69-.69v-.69c0-.381-.309-.69-.69-.69m0-4.008c-.38 0-.69.31-.69.69v1.336c0 .38.31.69.69.69.381 0 .69-.31.69-.69v-1.336c0-.38-.309-.69-.69-.69m2.76 6.539c-.38 0-.69.31-.69.69v.459c0 .38.31.69.69.69.381 0 .69-.31.69-.69v-.459c0-.38-.309-.69-.69-.69"/>
        <g transform="translate(36.8 3.15)">
            <mask id="prefix__b" fill="#fff">
                <use xlink:href="#prefix__a"/>
            </mask>
            <path fill="#4C5772" d="M1.258 12.933c-.289 0-.558-.182-.654-.47-.175-.52-.263-1.065-.263-1.618 0-2.564 1.912-4.691 4.385-5.03V1.452h-2.01c-.382 0-.69-.31-.69-.69 0-.381.308-.69.69-.69h2.7c.381 0 .69.309.69.69v5.698c0 .381-.309.69-.69.69-2.038 0-3.695 1.658-3.695 3.696 0 .404.064.8.19 1.178.122.362-.072.753-.433.874-.073.025-.147.036-.22.036" mask="url(#prefix__b)"/>
        </g>
        <g transform="translate(0 .39)">
            <mask id="prefix__d" fill="#fff">
                <use xlink:href="#prefix__c"/>
            </mask>
            <path fill="#4C5772" d="M41.526 23H4.14v-1.38h35.316c.381 0 .69-.31.69-.69v-2.695c.439.196.903.333 1.38.399V23zM1.38 15.875c2.474-.338 4.386-2.465 4.386-5.03 0-2.565-1.912-4.691-4.386-5.029V1.45h37.386v4.366c-2.473.338-4.385 2.464-4.385 5.029s1.912 4.691 4.385 5.03v4.365H1.38v-4.365zM42.216 17.3c-.75 0-1.46-.218-2.07-.633V15.23c0-.38-.309-.69-.69-.69-2.038 0-3.695-1.658-3.695-3.696 0-2.038 1.657-3.696 3.695-3.696.381 0 .69-.309.69-.69V.76c0-.38-.309-.69-.69-.69H.69C.31.07 0 .38 0 .76v5.7c0 .38.309.69.69.69 2.038 0 3.696 1.657 3.696 3.695S2.728 14.541.69 14.541c-.381 0-.69.31-.69.69v5.699c0 .38.309.69.69.69h2.07v2.07c0 .38.309.69.69.69h38.766c.381 0 .69-.31.69-.69v-5.699c0-.38-.309-.69-.69-.69z" mask="url(#prefix__d)"/>
        </g>
    </g>
</svg>
