<svg xmlns="http://www.w3.org/2000/svg" xmlns:xlink="http://www.w3.org/1999/xlink" width="90" height="90" viewBox="0 0 90 90">
    <defs>
        <path id="prefix__a" d="M0 0L45.402 0 45.402 62.697 0 62.697z"/>
    </defs>
    <g fill="none" fill-rule="evenodd" transform="translate(-.753 -.843)">
        <circle cx="45.753" cy="45.843" r="44" fill="#FFF" stroke="#E7E7E7" stroke-width="2"/>
        <g transform="translate(23 15)">
            <mask id="prefix__b" fill="#fff">
                <use xlink:href="#prefix__a"/>
            </mask>
            <path fill="#E7E7E7" d="M43.419 60.706h-5.686v-7.388a.993.993 0 00-.991-.996.993.993 0 00-.992.996v7.388h-7.863l5.084-18.217 4.491 1.878a1 1 0 00.062.024c.007.003.67.235 1.537.8 1.988 1.295 4.358 3.82 4.358 8.491v7.024zm-17.564-9.654l.731-1.954 1.162.858a.988.988 0 001.059.073l-1.977 7.085-.975-6.062zm-5.602 9.654l1.408-8.76h2.329l1.408 8.76h-5.145zm-1.425-3.63l-1.945-6.97.046.015a.992.992 0 00.825-.165l1.202-.888.837 2.004-.965 6.004zm-1.631-17.347v.15a1 1 0 00.047.303.998.998 0 00.252 1.013l3.776 3.69-3.735 2.76-2.987-6.163 2.647-1.753zm-3.768-13.294v-7.05c2.535-.157 9.272-1.004 13.605-5.557.748 1.765 2.296 4.343 5.188 5.344v7.263c0 4.638-3.76 8.411-8.38 8.411H21.81c-4.62 0-8.38-3.773-8.38-8.41zm-.988-9.007h-.004a.986.986 0 00-.101.005l-.031.005-.068.01-.042.011-.053.014-.047.017-.044.016-.052.026-.034.016-.05.03-.032.02c-.016.01-.03.022-.045.034l-.031.023c-.014.01-.026.023-.04.035l-.03.029c-.013.012-.024.025-.035.037l-.03.033-.03.04-.027.037c-.009.013-.016.026-.024.04-.009.014-.018.027-.026.042l-.02.04-.022.047-.014.04-.019.051-.01.041-.015.054-.006.044c-.003.018-.007.036-.009.055l-.002.046-.003.043c-.33.034-.65.103-.956.201V13.87c0-6.55 5.308-11.878 11.833-11.878h1.07c6.525 0 11.833 5.329 11.833 11.878v4.764a4.665 4.665 0 00-1.02-.223l-.001-.013a.892.892 0 00-.004-.065l-.005-.04a.997.997 0 00-.008-.056l-.011-.047a.842.842 0 00-.029-.098l-.014-.038A1.054 1.054 0 0034.11 18l-.016-.033a1.146 1.146 0 00-.028-.051l-.02-.033a.861.861 0 00-.089-.117.882.882 0 00-.032-.035l-.031-.031a1.034 1.034 0 00-.039-.035c-.01-.01-.022-.018-.033-.027a.835.835 0 00-.043-.032l-.037-.024a1.11 1.11 0 00-.043-.027l-.045-.023-.04-.02-.055-.021c-.012-.004-.024-.01-.036-.013a.943.943 0 00-.063-.018l-.026-.007c-3.881-.886-5.052-5.793-5.063-5.84a.99.99 0 00-1.77-.363c-4.412 6.12-14.001 6.178-14.158 6.178h-.001zm-.996 8.397a2.746 2.746 0 010-5.404v5.404zm25.015-2.702c0 1.35-.975 2.472-2.255 2.702V20.42a2.747 2.747 0 012.255 2.702zM19.165 40.047c.009-.054.015-.11.015-.167v-3.383c.84.221 1.72.34 2.63.34h2.032c.908 0 1.79-.119 2.63-.34v3.236l-3.693 3.847-3.614-3.533zm5.762 7.824l-.78 2.083h-2.67l-.877-2.1 2.151-1.59 2.176 1.607zm6.025-6.39l-2.987 6.163-3.705-2.737 3.917-4.082a.994.994 0 00.268-.819c.006-.041.01-.083.01-.126v-.052l2.497 1.654zM38.2 42.52l-5.647-2.361-3.98-2.637a.984.984 0 00-.119-.066v-1.708a10.423 10.423 0 005.654-7.903 4.736 4.736 0 004.336-4.72 4.73 4.73 0 00-1.235-3.192v-6.063C37.209 6.222 31.01 0 23.392 0h-1.07C14.704 0 8.506 6.222 8.506 13.87v5.994a4.736 4.736 0 003.037 7.98 10.423 10.423 0 005.654 7.902v1.598l-4.15 2.748a.973.973 0 00-.167.052L7.203 42.52c-.284.102-1.952.745-3.609 2.315C1.954 46.39 0 49.184 0 53.682V61.7c0 .55.444.996.992.996h11.715a.994.994 0 00.991-.996.993.993 0 00-.991-.996H9.652v-7.388a.993.993 0 00-.992-.995.993.993 0 00-.992.995v7.388H1.984v-7.023c0-7.171 5.653-9.208 5.89-9.29l.066-.025 4.73-1.978 5.11 18.317h-1.97a.993.993 0 00-.991.995c0 .55.443.996.991.996h28.6a.996.996 0 00.992-.998v-8.017c0-5.859-3.295-8.881-5.26-10.161-.974-.634-1.757-.935-1.942-1.002z" mask="url(#prefix__b)"/>
        </g>
        <path fill="#E7E7E7" d="M46.66 42.43c.576 0 1.043-.44 1.043-.983 0-.543-.467-.983-1.043-.983h-.77v-2.276c0-.543-.468-.983-1.044-.983-.576 0-1.043.44-1.043.983v3.259c0 .543.467.983 1.043.983h1.814z"/>
    </g>
</svg>
