<svg xmlns="http://www.w3.org/2000/svg" xmlns:xlink="http://www.w3.org/1999/xlink" width="31" height="31" viewBox="0 0 31 31">
    <defs>
        <path id="prefix__a" d="M0 0L30.099 0 30.099 30.099 0 30.099z"/>
    </defs>
    <g fill="none" fill-rule="evenodd">
        <mask id="prefix__b" fill="#fff">
            <use xlink:href="#prefix__a"/>
        </mask>
        <path fill="#FFF" d="M25.634 17.507c-.272 1.162-.732 2.265-1.37 3.276l-.243.387 2.148 2.345-2.653 2.654-2.364-2.165-.386.237c-1.015.623-2.11 1.07-3.251 1.329l-.447.1-.142 3.23h-3.753l-.143-3.266-.438-.106c-1.131-.275-2.203-.727-3.187-1.345l-.388-.243-2.434 2.229-2.654-2.654 2.247-2.452-.236-.385c-.605-.984-1.043-2.048-1.304-3.163l-.104-.443-3.333-.146v-3.753l3.333-.146.104-.443c.262-1.116.7-2.181 1.304-3.164l.236-.385-2.247-2.452 2.654-2.654 2.434 2.23.388-.243c.984-.62 2.056-1.071 3.186-1.345l.439-.105.143-3.267h3.753l.142 3.23.447.1c1.144.259 2.238.706 3.25 1.328l.387.237 2.363-2.165 2.654 2.654-2.148 2.346.244.387c.637 1.012 1.098 2.114 1.369 3.276l.104.442 3.162.139v3.753l-3.162.139-.104.442zm4.465.567v-6.05l-3.41-.15c-.27-.98-.661-1.921-1.171-2.804l2.31-2.524-4.276-4.277-2.55 2.335c-.88-.496-1.81-.876-2.775-1.134L18.074 0h-6.05l-.154 3.52c-.948.267-1.857.65-2.711 1.143L6.546 2.269 2.269 6.546l2.417 2.639c-.478.848-.85 1.748-1.106 2.682L0 12.025v6.049l3.58.158c.257.933.628 1.833 1.106 2.68l-2.417 2.64 4.277 4.277 2.614-2.393c.854.492 1.762.875 2.71 1.142l.155 3.52h6.049l.153-3.47c.965-.257 1.895-.637 2.775-1.134l2.55 2.335 4.277-4.277-2.311-2.524c.51-.882.902-1.823 1.172-2.804l3.409-.15zM15.134 21.21c-3.396 0-6.16-2.764-6.16-6.161 0-3.396 2.764-6.16 6.16-6.16 3.396 0 6.16 2.764 6.16 6.16 0 3.397-2.764 6.16-6.16 6.16zm0-13.52c-4.06 0-7.36 3.3-7.36 7.359s3.3 7.36 7.36 7.36c4.059 0 7.359-3.301 7.359-7.36 0-4.06-3.3-7.36-7.36-7.36zm1.352 9.024l-.431-1.635h.843l-.412 1.635zm-1.732-2.138l.292-1.115.297 1.115h-.59zm-1.092 2.138l-.415-1.635h.849l-.434 1.635zm3.848-4.063l-.485 1.925h-1.103l-.503-1.904h-.684l-.506 1.904h-1.11l-.488-1.925h-.721l.548 1.925h-.47v.503h.613l.715 2.513h.65l.657-2.513h.854l.67 2.513h.67l.697-2.513h.542v-.503h-.402l.534-1.925h-.678z" mask="url(#prefix__b)"/>
    </g>
</svg>
