<svg xmlns="http://www.w3.org/2000/svg" xmlns:xlink="http://www.w3.org/1999/xlink" width="36" height="36" viewBox="0 0 36 36">
    <defs>
        <path id="prefix__a" d="M0 0.955L35.999 0.955 35.999 13 0 13z"/>
    </defs>
    <g fill="none" fill-rule="evenodd">
        <g transform="translate(0 11) translate(0 .7)">
            <mask id="prefix__b" fill="#fff">
                <use xlink:href="#prefix__a"/>
            </mask>
            <path fill="#3F64C3" d="M29.437 6.9c-.596-.612-1.028-.981-1-1.286.027-.308.365-.674 1.041-.674.676 0 1.16.244 1.16.244l.51-.765s-.545-.425-1.653-.428c-1.715-.01-2.828.8-2.972 1.836-.089.647.314 1.04.801 1.548.183.19.375.368.555.567.324.36.487.733.188 1.088-.232.277-.73.353-1.073.32-.829-.078-1.317-.488-1.317-.488l-.625.949s.727.589 2.038.552c2.05-.06 2.917-1.234 2.97-2.084.028-.521-.138-.878-.623-1.38zm-5.9-.102c-1.038 1.975-1.753 2.206-2.09 2.206-.339 0-1.14-.607.048-2.284 1.09-1.541 2.318-1.821 2.921-1.821 0 0-.186.582-.879 1.899zm.647-2.656c-1.468.018-3.618.766-4.722 2.91-1.104 2.147-.295 3.279.823 3.279 1.108 0 1.9-.595 2.811-1.756l-.58 1.603h1.84l1.996-5.564s-.814-.487-2.168-.472zm10.145.798c.676 0 1.345.313 1.345.313L36 4.419s-.544-.425-1.652-.428c-1.714-.01-2.827.8-2.972 1.836-.089.647.313 1.04.801 1.548.183.19.376.368.554.567.326.36.488.733.19 1.088-.233.277-.733.353-1.074.32-.83-.078-1.316-.488-1.316-.488l-.627.949s.73.589 2.04.552c2.048-.06 2.915-1.234 2.967-2.084.031-.521-.135-.878-.622-1.38-.595-.611-1.028-.98-1-1.285.027-.308.366-.674 1.041-.674zM16.95 7.523c-.997 1.807-1.9 1.868-2.678 1.868 0 0 .127-.582.682-1.9.83-1.974 1.52-2.205 1.86-2.205.337 0 1.23.249.136 2.237zm.92-3.438c-.779 0-1.398.324-1.973.88l.271-.73h-1.84L11.083 13h1.84l1.037-2.81c.19.017.385.028.596.028 1.352 0 3.395-.642 4.417-2.911.956-2.122.011-3.223-1.104-3.223zm-12.048 0c-.813 0-1.512.347-2.14.948L5.138.955H3.3L0 10.178h1.838l1.018-2.841c.806-1.832 1.577-2.051 1.905-2.051.493 0 1.026.224.431 2.04L4.15 10.178h1.84l1.05-2.87c.853-2.168-.104-3.223-1.219-3.223zm3.125.15l-2.155 5.943h1.84l2.155-5.943h-1.84zm3.861 1.898h-1.912l-.534 1.474h1.912l.534-1.474z" mask="url(#prefix__b)"/>
        </g>
        <path fill="#E6174B" d="M20.088.59c2.336-.06 4.666.187 7.002.219 1.888.025 3.791-.027 5.67-.245C33.624.463 34.532.316 35.35 0c0 0-3.527 1.886-10.223 1.905-4.394.013-8.602-.211-12.892 1.09-1.005.307-1.764.605-2.979 1.356.073-.047.677-.851 1.886-1.66C12.878 1.528 15.23 1.017 17.27.784c.928-.106 1.871-.17 2.818-.193" transform="translate(0 11)"/>
        <path fill="#E6174B" d="M9.342 4.453c-.02.014 2.676-1.852 8.502-2.248 2.414-.124 2.442-.124 4.953-.096-.035 0 7.892.363 12.376-1.843-.219.106-.424.247-.639.361-.538.288-1.093.55-1.659.784-1.05.436-2.135.776-3.234 1.033-1.663.388-3.342.587-4.998.701-2.125.147-4.212.153-6.263.153-2.264 0-4.5.105-6.764.571-.383.08-.767.146-1.15.243-.335.085-.8.161-1.124.341" transform="translate(0 11)"/>
    </g>
</svg>
