<svg xmlns="http://www.w3.org/2000/svg" xmlns:xlink="http://www.w3.org/1999/xlink" width="36" height="36" viewBox="0 0 36 36">
    <defs>
        <path id="prefix__a" d="M0 0.993L24.119 0.993 24.119 25 0 25z"/>
    </defs>
    <g fill="none" fill-rule="evenodd">
        <path fill="#3F64C3" d="M9.099 0L5.584 2.03l3.515 2.03V2.58h10.108v-1.1H9.099V0zm3.977 12.182l-1.046-1.047-1.051 3.922 3.922-1.05-1.046-1.047 7.146-7.148-.778-.776-7.147 7.146zM23.457 6.83v10.107h-1.481l2.03 3.517 2.03-3.517h-1.479V6.83h-1.1z" transform="translate(5 5)"/>
        <g transform="translate(5 5) translate(0 1.036)">
            <mask id="prefix__b" fill="#fff">
                <use xlink:href="#prefix__a"/>
            </mask>
            <path fill="#E6174B" d="M24.119 22.97l-3.516-2.03v1.207C11.552 20.699 4.369 13.546 2.873 4.51H4.06L2.03.993 0 4.51h1.758c1.515 9.643 9.186 17.284 18.845 18.752V25l3.516-2.03z" mask="url(#prefix__b)"/>
        </g>
    </g>
</svg>
