<svg xmlns="http://www.w3.org/2000/svg" width="21" height="31" viewBox="0 0 21 31">
    <path fill="#FFF" fill-rule="evenodd" d="M10.232 1.199c2.643 0 5.173.807 7.317 2.331l.696-.978C15.896.882 13.126 0 10.232 0 7.34 0 4.571.882 2.222 2.551l.696.978c2.144-1.524 4.673-2.33 7.314-2.33zm6.055 4.099c-1.777-1.26-3.869-1.926-6.055-1.926-2.188 0-4.284.668-6.062 1.931l.696.979c1.573-1.119 3.429-1.711 5.366-1.711 1.935 0 3.788.59 5.359 1.705l.696-.978zm-2.648 3.728l.694-.978c-2.407-1.707-5.795-1.707-8.204.002l.694.978c2.002-1.418 4.818-1.418 6.816-.002zm-1.241 9.385l-.65-2.464h1.271l-.621 2.464zm-2.61-3.223l.439-1.681.448 1.681h-.887zM8.14 18.411l-.625-2.464h1.28l-.655 2.464zm5.802-6.125l-.731 2.902h-1.664l-.756-2.871H9.757l-.761 2.871H7.323l-.737-2.902H5.501l.825 2.902h-.709v.759h.925l1.077 3.789h.98l.99-3.789h1.289l1.008 3.789h1.012l1.051-3.789h.816v-.759h-.605l.804-2.902h-1.022zm5.324 14.844c0 1.23-1.002 2.231-2.232 2.231H3.431c-1.23 0-2.232-1.001-2.232-2.231v-2.485h18.067v2.485zm0-19.646v15.962H1.199V7.484H0V27.13c0 1.891 1.539 3.43 3.431 3.43h13.603c1.892 0 3.431-1.539 3.431-3.43V7.484h-1.199zM8.797 27.603h2.872v-1.199H8.797v1.199z"/>
</svg>
