<svg xmlns="http://www.w3.org/2000/svg" xmlns:xlink="http://www.w3.org/1999/xlink" width="36" height="36" viewBox="0 0 36 36">
    <defs>
        <path id="prefix__a" d="M0 0L25.391 0 25.391 27.9 0 27.9z"/>
    </defs>
    <g fill="none" fill-rule="evenodd" transform="translate(5 4)">
        <mask id="prefix__b" fill="#fff">
            <use xlink:href="#prefix__a"/>
        </mask>
        <path fill="#AAA" d="M0 7.62l3.321 1.916.5-.866-3.32-1.916-.5.866zm24.891-.866L21.57 8.67l.5.866 3.322-1.916-.5-.866zM7.862 4.995l-1.917-3.32-.866.5 1.917 3.32.866-.5zm12.45-2.82l-.867-.5-1.917 3.32.867.5 1.917-3.32zm-8.117 1.66h1V0h-1v3.835zm.5 13.778l-1.653-1.649h3.307l-1.654 1.65zm4.924 1.711l-.026.024-2.126 2.126h-2.272v-2.947l2.717-2.709c.143-.143.186-.358.11-.546-.079-.186-.26-.308-.463-.308H9.832c-.203 0-.385.122-.462.308-.078.188-.035.403.11.546l2.715 2.71v2.946H9.923l-2.126-2.126-.025-.023C6.41 17.99 5.66 16.207 5.66 14.3c0-3.879 3.156-7.035 7.035-7.035 3.88 0 7.035 3.156 7.035 7.035 0 1.907-.749 3.69-2.11 5.025zm-7.403 5.21h4.958v-2.06h-4.958v2.06zm4.037 1.56c0 .444-.36.806-.806.806h-1.504c-.444 0-.806-.362-.806-.806v-.56h3.116v.56zm-1.558-19.83c-4.43 0-8.035 3.604-8.035 8.035 0 2.19.864 4.235 2.434 5.761l.015.014 2.107 2.108v2.851c0 .276.224.5.5.5h.421v.561c0 .996.81 1.806 1.806 1.806h1.504c.996 0 1.806-.81 1.806-1.806v-.56h.421c.276 0 .5-.225.5-.5v-2.852l2.106-2.107.016-.015c1.57-1.526 2.434-3.572 2.434-5.76 0-4.432-3.604-8.036-8.035-8.036z" mask="url(#prefix__b)"/>
    </g>
</svg>
