<svg xmlns="http://www.w3.org/2000/svg" width="34" height="32" viewBox="0 0 34 32">
    <path fill="#FFF" fill-rule="evenodd" d="M11.341 21.815c.617.727 1.97 1.998 4.172 2.383l-1.96 1.988c-.633-.275-2.11-1.183-3.19-3.723.353-.219.684-.437.978-.648zm2.284-2.033c.881.533 1.931.852 3.211.852 1.281 0 2.33-.32 3.211-.852.272.317.713.772 1.338 1.298-.611.7-2.096 2.031-4.549 2.031-2.466 0-3.942-1.327-4.551-2.029.626-.526 1.069-.983 1.34-1.3zm-2.93-6.935c-.826-2.735-.692-6.81 1.163-9.307 1.153-1.553 2.828-2.34 4.978-2.34 2.151 0 3.825.787 4.979 2.34 1.853 2.496 1.987 6.571 1.162 9.307-1.413 4.68-3.193 6.588-6.141 6.588-2.949 0-4.728-1.909-6.141-6.588zm11.636 8.97c.294.21.625.427.978.647-1.08 2.541-2.561 3.45-3.19 3.722l-1.96-1.988c2.203-.385 3.556-1.656 4.172-2.382zM1.703 31.947c-.299-1.148-.9-4.416-.109-5.744.155-.26.347-.41.598-.474 3.05-.733 5.367-1.696 7.12-2.653 1.413 3.221 3.491 4.134 4.095 4.336l1.573 1.438-1.313 3.073.055.024h1.24l1.455-3.407-1.841-1.685 2.26-2.29 2.259 2.29-1.84 1.685 1.455 3.407h1.239l.055-.024-1.311-3.073 1.571-1.438c.604-.202 2.682-1.115 4.097-4.336 1.751.957 4.067 1.92 7.116 2.653.254.063.445.213.6.474.792 1.328.191 4.596-.108 5.744h1.236c.258-1.102.957-4.59-.096-6.359-.323-.54-.775-.884-1.348-1.025-6.78-1.63-9.816-4.457-10.749-5.51 1.556-1.436 2.449-3.659 3.113-5.859.885-2.93.84-7.426-1.347-10.37C21.405.975 19.351 0 16.836 0s-4.57.976-5.942 2.825c-2.188 2.945-2.232 7.44-1.347 10.37.664 2.2 1.557 4.423 3.113 5.86-.934 1.052-3.97 3.878-10.753 5.51-.57.14-1.022.484-1.344 1.024-1.053 1.77-.354 5.257-.096 6.36h1.236z"/>
</svg>
