<svg xmlns="http://www.w3.org/2000/svg" xmlns:xlink="http://www.w3.org/1999/xlink" width="36" height="36" viewBox="0 0 36 36">
    <defs>
        <path id="prefix__a" d="M0 0.001L30.724 0.001 30.724 23.515 0 23.515z"/>
    </defs>
    <g fill="none" fill-rule="evenodd" transform="translate(3 6)">
        <mask id="prefix__b" fill="#fff">
            <use xlink:href="#prefix__a"/>
        </mask>
        <path fill="#AAA" d="M14.738 15.536h1.248v-1.247h-1.248v1.247zm0-2.67h1.248V11.62h-1.248v1.247zm12.429 7.723l-3.824-9.532-1.021.41 3.41 8.5c-3.082-1.244-6.375-1.924-9.746-1.998v-1.074h-1.248v1.073c-3.371.075-6.664.755-9.746 1.998l3.41-8.5-1.021-.41-3.824 9.533c-1.227.578-2.416 1.25-3.557 2.01l.61.916c4.373-2.916 9.474-4.459 14.752-4.459 5.278 0 10.379 1.543 14.752 4.459l.61-.916c-1.141-.762-2.33-1.433-3.557-2.01zm-4.922-15.76c0-1.214.986-2.2 2.2-2.2h.042v2.166l4.152-2.397-4.152-2.399v1.75h-.042c-1.699 0-3.08 1.381-3.08 3.08V6.9h.88V4.829zm-19.218-.02c.061-.136.158-.247.288-.33.131-.083.277-.125.437-.125.224 0 .403.083.536.25.133.167.2.385.2.659 0 .268-.066.484-.198.652-.132.17-.304.253-.518.253-.236 0-.419-.094-.549-.28-.131-.186-.196-.444-.196-.776v-.303zm.766 2.16c.326 0 .617-.073.875-.22.258-.146.457-.351.598-.615.141-.264.211-.559.211-.884 0-.508-.128-.918-.384-1.23-.257-.312-.603-.467-1.038-.467-.406 0-.742.135-1.008.405.055-.404.219-.719.493-.946.274-.227.636-.344 1.085-.35h.096v-.819h-.164c-.507.004-.952.119-1.336.346-.384.228-.679.55-.884.966-.205.417-.307.896-.307 1.438v.357c0 .614.162 1.103.486 1.468.324.367.75.551 1.277.551zm3.252-3.227c.007-.382.066-.664.177-.845.111-.18.284-.27.518-.27.24 0 .417.096.53.285.114.188.171.492.171.906v1.19c-.005.394-.061.684-.169.875-.108.19-.283.285-.526.285-.245 0-.423-.099-.534-.298-.112-.197-.167-.502-.167-.91V3.743zm.701 3.228c.553 0 .972-.184 1.258-.551.287-.366.43-.895.43-1.588v-.922c-.007-.67-.154-1.185-.443-1.544-.289-.36-.706-.539-1.251-.539-.546 0-.964.181-1.253.543-.29.363-.435.893-.435 1.592v.922c.006.671.154 1.188.443 1.546.289.36.706.54 1.251.54zm7.154-2.7c.126-.233.33-.35.612-.35.204 0 .348.049.433.144.085.096.127.252.127.468V6.9h.993l-.003-2.554c.115-.285.321-.428.619-.428.209 0 .354.05.436.147.083.098.124.253.124.463V6.9h.997V4.526c0-.473-.099-.826-.296-1.061-.197-.234-.497-.353-.901-.353-.483 0-.855.19-1.117.567-.179-.377-.507-.567-.986-.567-.449 0-.806.163-1.069.486l-.031-.416h-.932V6.9h.994V4.27zm-3.761 1.497l.357-.359.956 1.492h1.142l-1.461-2.169 1.343-1.55h-1.192l-.953 1.117-.192.247V1.62h-.993V6.9h.993V5.767z" mask="url(#prefix__b)"/>
    </g>
</svg>
