<svg xmlns="http://www.w3.org/2000/svg" xmlns:xlink="http://www.w3.org/1999/xlink" width="54" height="40" viewBox="0 0 54 40">
    <defs>
        <path id="prefix__a" d="M0 0.107L53.935 0.107 53.935 39.999 0 39.999z"/>
        <path id="prefix__c" d="M0 40.893L53.935 40.893 53.935 1 0 1z"/>
    </defs>
    <g fill="none" fill-rule="evenodd" transform="translate(0 -1)">
        <g transform="translate(0 .893)">
            <mask id="prefix__b" fill="#fff">
                <use xlink:href="#prefix__a"/>
            </mask>
            <path fill="#E7E7E7" d="M49.638 15.387c-.706-.849-1.57-1.562-2.545-2.094l.052-.028-.757-1.394h3.066c1.597 0 2.407.531 2.407 1.577-.002.192-.411 1.243-2.223 1.94zm-.064 10.917c0 3.653-2.972 6.625-6.625 6.625H10.987c-3.653 0-6.625-2.972-6.625-6.625v-5.362c0-3.655 2.972-6.626 6.625-6.626h31.962c3.653 0 6.625 2.971 6.625 6.626v5.362zm-4.757 11.181c0 .24-.202.44-.441.44H40.68c-.24 0-.44-.2-.44-.44v-2.482h2.709c.642 0 1.265-.074 1.868-.207v2.69zm-31.12 0c0 .24-.202.44-.441.44H9.56c-.238 0-.44-.2-.44-.44v-2.689c.602.133 1.226.207 1.867.207h2.71v2.482zM2.075 13.448c0-1.046.81-1.577 2.407-1.577h3.066l-.757 1.394.053.028c-.977.532-1.84 1.245-2.545 2.094-1.813-.696-2.222-1.747-2.224-1.939zm11.824-8.923c.82-1.51 1.993-2.327 2.31-2.344h21.515c.32.017 1.493.833 2.313 2.344l4.254 7.831c-.44-.069-.884-.115-1.342-.115H10.987c-.457 0-.903.046-1.342.115l4.254-7.83zm40.037 8.923c0-1.765-1.177-3.65-4.482-3.65h-4.192L41.86 3.533C40.936 1.831 39.219.107 37.726.107H16.209c-1.491 0-3.208 1.724-4.133 3.427L8.675 9.797H4.482C1.178 9.797 0 11.683 0 13.448c0 1.176.999 2.75 3.165 3.711-.556 1.146-.877 2.426-.877 3.783v5.362c0 3.378 1.938 6.305 4.758 7.745v3.436C7.046 38.871 8.174 40 9.56 40h3.696c1.387 0 2.515-1.128 2.515-2.514v-2.482h22.394v2.482c0 1.386 1.128 2.514 2.515 2.514h3.696c1.387 0 2.515-1.128 2.515-2.514V34.05c2.819-1.44 4.757-4.367 4.757-7.745v-5.362c0-1.357-.321-2.637-.876-3.782 2.165-.963 3.164-2.536 3.164-3.712z" mask="url(#prefix__b)"/>
        </g>
        <mask id="prefix__d" fill="#fff">
            <use xlink:href="#prefix__c"/>
        </mask>
        <path fill="#E7E7E7" d="M9.251 27.96h7.58v-2.172h-7.58v2.173zm8.617-4.246H8.214c-.573 0-1.038.464-1.038 1.037v4.248c0 .572.465 1.037 1.038 1.037h9.654c.572 0 1.037-.465 1.037-1.037V24.75c0-.573-.465-1.037-1.037-1.037zM37.44 27.96h7.579v-2.172H37.44v2.173zm8.616-4.246h-9.654c-.572 0-1.037.464-1.037 1.037v4.248c0 .572.465 1.037 1.037 1.037h9.654c.573 0 1.037-.465 1.037-1.037V24.75c0-.573-.464-1.037-1.037-1.037z" mask="url(#prefix__d)"/>
    </g>
</svg>
