<svg xmlns="http://www.w3.org/2000/svg" xmlns:xlink="http://www.w3.org/1999/xlink" width="66" height="66" viewBox="0 0 66 66">
    <defs>
        <path id="prefix__a" d="M0.748 0.688L39.978 0.688 39.978 43.916 0.748 43.916z"/>
    </defs>
    <g fill="none" fill-rule="evenodd">
        <circle cx="33.355" cy="33.355" r="32" fill="#FFF" stroke="#E7E7E7"/>
        <g transform="translate(11 9)">
            <mask id="prefix__b" fill="#fff">
                <use xlink:href="#prefix__a"/>
            </mask>
            <path fill="#E7E7E7" d="M35.643 42.396h-3.74v-4.878c0-.363-.292-.657-.653-.657-.36 0-.652.294-.652.657v4.878h-5.174l3.345-12.028 2.955 1.24.041.017c.005.001.44.154 1.012.527 1.308.856 2.866 2.522 2.866 5.607v4.637zm-11.555-6.373l.481-1.29.764.566c.114.084.25.128.387.128.052 0 .105-.007.156-.02.054-.013.106-.034.154-.06l-1.301 4.678-.641-4.002zm-3.686 6.373l.927-5.784h1.532l.926 5.784h-3.385zM19.464 40l-1.28-4.601.03.01c.053.012.105.019.157.019.138 0 .274-.044.387-.128l.79-.587.551 1.324-.635 3.963zm-1.073-11.452v.099c0 .07.011.137.031.2-.072.229-.016.49.166.668l2.484 2.437-2.457 1.822-1.965-4.07 1.741-1.156zm-2.479-8.778v-4.655c1.668-.103 6.1-.662 8.952-3.668.491 1.165 1.51 2.867 3.413 3.528v4.795c0 3.063-2.474 5.554-5.514 5.554h-1.337c-3.04 0-5.514-2.492-5.514-5.554zm-.65-5.946h-.003c-.022 0-.044 0-.066.003-.007 0-.014.002-.02.003l-.045.007-.027.007-.035.01c-.01.002-.021.007-.031.01l-.029.011-.035.017-.022.01-.033.02-.02.013-.03.023-.021.015-.026.024-.02.018-.023.025-.02.022-.019.026-.018.025-.016.026-.017.028-.013.026-.014.031-.01.026-.012.034-.007.028-.01.035-.004.03-.006.035-.001.031-.002.028c-.217.023-.427.068-.63.133v-3.13c0-4.324 3.493-7.843 7.786-7.843h.704c4.293 0 7.786 3.519 7.786 7.843v3.145c-.215-.073-.44-.124-.672-.147v-.009c0-.014-.001-.029-.003-.043l-.003-.026c-.002-.012-.003-.025-.006-.037l-.007-.031-.007-.03-.012-.035-.009-.025-.016-.035-.01-.022-.019-.033-.013-.022-.02-.03-.017-.022-.021-.025-.021-.024-.021-.02-.025-.023-.022-.018-.028-.02c-.008-.007-.017-.012-.025-.017l-.028-.017-.03-.016-.026-.013-.036-.014-.024-.009-.041-.011-.018-.005c-2.553-.585-3.323-3.825-3.33-3.856-.057-.252-.255-.447-.506-.499-.251-.052-.51.05-.66.259-2.902 4.04-9.211 4.08-9.314 4.08zm-.655 5.543c-.842-.151-1.483-.892-1.483-1.783 0-.892.641-1.633 1.483-1.784v3.567zm16.458-1.783c0 .89-.641 1.632-1.483 1.783V15.8c.842.151 1.483.893 1.483 1.784zM19.686 28.756c.006-.036.01-.072.01-.11v-2.234c.553.147 1.132.225 1.73.225h1.337c.598 0 1.177-.078 1.73-.224v2.136l-2.429 2.54-2.378-2.333zm3.79 5.166l-.512 1.376h-1.757l-.577-1.387 1.416-1.05 1.43 1.061zm3.965-4.218l-1.965 4.069-2.438-1.808 2.577-2.695c.144-.15.202-.35.177-.54.004-.028.006-.056.006-.084v-.034l1.643 1.092zm4.769.685l-3.715-1.56-2.62-1.74c-.024-.017-.05-.031-.077-.044v-1.128c1.977-.994 3.41-2.928 3.72-5.218 1.594-.13 2.852-1.477 2.852-3.116 0-.811-.308-1.551-.812-2.107v-4.003c0-5.05-4.078-9.157-9.09-9.157h-.705c-5.012 0-9.09 4.108-9.09 9.157v3.958c-.529.56-.854 1.318-.854 2.151 0 1.64 1.258 2.987 2.852 3.117.31 2.29 1.742 4.223 3.72 5.218v1.055l-2.73 1.814c-.037.008-.074.02-.11.035l-3.735 1.567c-.187.068-1.285.492-2.374 1.53-1.08 1.025-2.365 2.872-2.365 5.84v5.295c0 .363.292.658.652.658h7.708c.36 0 .652-.295.652-.658 0-.363-.292-.657-.652-.657h-2.01v-4.878c0-.363-.292-.657-.652-.657-.36 0-.653.294-.653.657v4.878h-3.74v-4.637c0-4.735 3.72-6.08 3.876-6.134l.043-.016 3.111-1.306 3.364 12.093h-1.297c-.36 0-.652.294-.652.657 0 .363.292.658.652.658h18.817c.36 0 .652-.296.652-.66V37.76c0-3.869-2.168-5.864-3.46-6.71-.641-.418-1.156-.616-1.278-.66z" mask="url(#prefix__b)"/>
            <path fill="#E7E7E7" d="M23.197 20c.444 0 .803-.253.803-.564 0-.312-.36-.565-.803-.565h-.592v-1.307c0-.311-.36-.564-.802-.564-.444 0-.803.253-.803.564v1.872c0 .311.36.564.803.564h1.394z"/>
        </g>
    </g>
</svg>
