<svg xmlns="http://www.w3.org/2000/svg" xmlns:xlink="http://www.w3.org/1999/xlink" width="48" height="40" viewBox="0 0 48 40">
    <defs>
        <path id="prefix__a" d="M0 0.514L47.806 0.514 47.806 40 0 40z"/>
    </defs>
    <g fill="none" fill-rule="evenodd">
        <mask id="prefix__b" fill="#fff">
            <use xlink:href="#prefix__a"/>
        </mask>
        <path fill="#004F9E" d="M0 0v39.486h35.854c6.601 0 11.952-5.323 11.952-11.888V0H0z" mask="url(#prefix__b)"/>
        <path fill="#FFF" d="M20.692 29.123h1.074v-.594h-2.842v.594h1.046c-.028.674-.428 1.278-1.177 1.616l.35.54c.564-.256 1.017-.71 1.206-1.163.194.448.691.913 1.177 1.099l.367-.546c-.755-.296-1.173-.884-1.201-1.546zm-2.962-1.628h-.698v3.72h.698v-1.796h.853v-.6h-.853v-1.324zm9.365 2.226c-.686.122-1.498.157-2.087.145v-.5h1.527V27.71H24.31v.593h1.527v.477H24.31v1.674c.967.04 2.134-.006 2.854-.169l-.069-.564zM29 28.767v-.592h-.75v-.686h-.697v3.099h.697v-.722H29v-.593h-.75v-.506H29zm-13.58 2.105h-.698v1.907h3.163v-.61H15.42v-1.297zm7.582-3.377h-.697v4.801h.697v-2.505h.841v-.6h-.84v-1.696zm3.802 4.918c-.43 0-.744-.25-.744-.61 0-.35.315-.605.744-.605.412 0 .72.255.72.604 0 .36-.308.611-.72.611zm0-1.797c-.835 0-1.436.506-1.436 1.186 0 .721.601 1.198 1.436 1.198.812 0 1.413-.477 1.413-1.198 0-.68-.601-1.186-1.413-1.186zm-7.25-2.452h1.544v-.6h-1.545v.6zm-7.41 3.098h.698v-3.767h-.698v3.767zm4.426-1.593c-.618.122-1.43.197-2.111.174V28.39h1.716v-.599H13.76v2.645c1.11.064 2.11-.047 2.882-.192l-.073-.575zm-6.147 1.186h-.71v1.9h3.232v-.61h-2.522v-1.29zm.978-.256l.326-.564c-.795-.25-1.247-.767-1.247-1.528v-.088h.989v-.593H8.7v.593h1.041v.104c0 .75-.457 1.326-1.218 1.593l.331.57c.538-.209 1.076-.634 1.265-1.145.217.506.79.878 1.281 1.058zm-.13-11.153h10.43c.982 0 1.571-.449 1.8-1.367l1.398-5.645C25.606 9.58 23.881 9 21.074 9h-9.773l-.066.5c-.112.87.537 1.881 2.739 1.881h5.378c1.604 0 1.577.366 1.354 1.265l-1.1 4.438H13.27c-.46 0-1.206-.115-1.015-.885.196-.79.991-.958 1.624-.958h3.806l2.308-2.348h-6.096c-4.483 0-5.546 2.333-5.793 3.338-.486 1.954.759 3.215 3.167 3.215z"/>
    </g>
</svg>
