<svg xmlns="http://www.w3.org/2000/svg" xmlns:xlink="http://www.w3.org/1999/xlink" width="31" height="38" viewBox="0 0 31 38">
    <defs>
        <path id="prefix__a" d="M0 0L30.392 0 30.392 37.107 0 37.107z"/>
    </defs>
    <g fill="none" fill-rule="evenodd">
        <mask id="prefix__b" fill="#fff">
            <use xlink:href="#prefix__a"/>
        </mask>
        <path fill="#AAA" d="M15.153 12.128l1.766 4.634h-3.5l1.734-4.634zm-2.127 5.754h4.283l1.051 2.786h1.4l-3.878-9.996h-1.358l-3.892 9.996h1.343l1.051-2.786zM5.69 30.048h19.012v-2H5.69v2zm0-3.184h19.012v-2H5.69v2zm22.702 3.684c0 2.514-2.046 4.559-4.559 4.559H6.56C4.046 35.107 2 33.062 2 30.547V6.56C2 4.046 4.046 2 6.56 2h13.804v8.027h8.028v20.52zM22.364 3.414l4.614 4.613h-4.614V3.414zM21.778 0H6.56C2.942 0 0 2.942 0 6.56v23.988c0 3.617 2.942 6.559 6.56 6.559h17.273c3.617 0 6.56-2.942 6.56-6.56V8.614L21.777 0z" mask="url(#prefix__b)"/>
    </g>
</svg>
