<svg xmlns="http://www.w3.org/2000/svg" width="42" height="38" viewBox="0 0 42 38">
    <g fill="none" fill-rule="evenodd" stroke="#FFF" stroke-width="2">
        <path d="M33.273 33.782c3.653-3.576 5.924-8.568 5.924-14.096C39.197 8.814 30.422 0 19.598 0 8.775 0 0 8.814 0 19.686c0 5.528 2.272 10.52 5.924 14.096M19.574 3.404L19.574 5.106M14.044 4.38L14.626 5.979M9.181 7.187L10.275 8.491M5.571 11.489L7.045 12.34M3.65 16.767L5.326 17.062M3.65 22.382L5.326 22.087M5.571 27.66L7.045 26.809M33.578 27.66L32.104 26.809M35.499 22.382L33.822 22.087M33.578 11.489L32.104 12.34M29.968 7.187L28.874 8.491M25.105 4.38L24.523 5.979" transform="translate(1 1)"/>
        <path stroke-linejoin="round" d="M22.979 22.979c0 1.88-1.525 3.404-3.405 3.404s-3.404-1.524-3.404-3.404 1.524-3.405 3.404-3.405S22.98 21.1 22.98 22.98zM16.17 24.223L12.766 25.532M34.894 17.021L22.979 21.603M24.68 35.745H14.469c-.94 0-1.702-.763-1.702-1.702v-.852c0-.94.763-1.702 1.702-1.702h10.213c.94 0 1.702.763 1.702 1.702v.852c0 .94-.763 1.702-1.702 1.702z" transform="translate(1 1)"/>
    </g>
</svg>
