<svg xmlns="http://www.w3.org/2000/svg" xmlns:xlink="http://www.w3.org/1999/xlink" width="36" height="36" viewBox="0 0 36 36">
    <defs>
        <path id="prefix__a" d="M0 0.486L30.724 0.486 30.724 24 0 24z"/>
    </defs>
    <g fill="none" fill-rule="evenodd">
        <path fill="#E6174B" d="M3.752 5.354c-.16 0-.306.04-.437.125-.13.083-.227.193-.288.33v.303c0 .332.065.59.196.777.13.187.314.279.55.279.213 0 .385-.084.517-.252.132-.167.198-.385.198-.653 0-.272-.067-.492-.2-.66-.133-.166-.311-.25-.536-.25zm.969-2.51v.819h-.096c-.45.006-.811.123-1.084.35-.274.227-.438.542-.494.945.266-.27.602-.406 1.008-.406.435 0 .78.156 1.038.468.257.312.385.722.385 1.23 0 .327-.071.62-.212.884-.14.264-.34.469-.598.616-.258.146-.55.219-.874.219-.528 0-.954-.182-1.278-.55-.324-.366-.486-.855-.486-1.467v-.358c0-.543.102-1.022.307-1.438.206-.416.5-.74.884-.966.384-.23.829-.344 1.336-.346h.164zM8.44 4.819c0-.417-.056-.718-.17-.907-.113-.19-.29-.284-.53-.284-.234 0-.406.09-.518.27-.111.18-.17.461-.177.844V5.96c0 .409.056.713.167.91.11.199.29.298.535.298.242 0 .418-.095.526-.285.107-.19.164-.482.168-.875v-1.19zm.994 1.013c0 .69-.143 1.22-.43 1.588-.286.367-.705.548-1.257.548-.546 0-.963-.178-1.252-.538-.288-.36-.436-.877-.443-1.547v-.921c0-.7.145-1.23.435-1.592.289-.363.707-.544 1.253-.544.545 0 .962.18 1.25.538.29.359.437.875.444 1.546v.921zM11.496 6.408L11.139 6.765 11.139 7.9 10.146 7.9 10.146 2.62 11.139 2.62 11.139 5.546 11.332 5.298 12.284 4.18 13.476 4.18 12.133 5.731 13.594 7.9 12.453 7.9zM14.838 4.18l.03.417c.264-.323.62-.484 1.07-.484.479 0 .808.188.986.567.262-.38.634-.567 1.118-.567.403 0 .703.117.9.352.197.235.296.588.296 1.06v2.376h-.997V5.529c0-.211-.041-.366-.124-.462-.082-.098-.227-.147-.436-.147-.298 0-.504.142-.62.426l.005 2.555h-.994V5.533c0-.216-.042-.373-.127-.468-.085-.097-.23-.145-.433-.145-.282 0-.486.117-.612.35V7.9h-.994V4.18h.932z" transform="translate(3 5)"/>
        <g transform="translate(3 5) translate(0 .514)">
            <mask id="prefix__b" fill="#fff">
                <use xlink:href="#prefix__a"/>
            </mask>
            <path fill="#3F64C3" d="M22.244 5.314c0-1.213.988-2.2 2.2-2.2h.043V5.28l4.153-2.398L24.486.486v1.748h-.041c-1.7 0-3.08 1.382-3.08 3.08v2.072h.88V5.314zm-7.506 10.708h1.248v-1.248h-1.248v1.248zm0-2.67h1.248v-1.247h-1.248v1.247zm12.428 7.722l-3.823-9.531-1.02.409 3.409 8.5c-3.082-1.244-6.374-1.923-9.746-1.998V17.38h-1.248v1.073c-3.371.075-6.663.754-9.745 1.998l3.409-8.5-1.021-.41-3.824 9.533c-1.228.578-2.416 1.249-3.558 2.01L.611 24c4.372-2.917 9.473-4.458 14.752-4.458 5.277 0 10.378 1.54 14.75 4.457l.61-.915c-1.14-.761-2.33-1.432-3.556-2.011z" mask="url(#prefix__b)"/>
        </g>
    </g>
</svg>
