<svg xmlns="http://www.w3.org/2000/svg" xmlns:xlink="http://www.w3.org/1999/xlink" width="36" height="36" viewBox="0 0 36 36">
    <defs>
        <path id="prefix__a" d="M0 0L29.03 0 29.03 22.676 0 22.676z"/>
    </defs>
    <g fill="none" fill-rule="evenodd" transform="translate(3 7)">
        <mask id="prefix__b" fill="#fff">
            <use xlink:href="#prefix__a"/>
        </mask>
        <path fill="#AAA" d="M26.246 17.924l-5.647-5.099 5.647-5.099c1.154 1.445 1.784 3.237 1.784 5.1 0 1.861-.63 3.653-1.784 5.098zm.418-11.249c-.185-.205-.501-.222-.706-.036l-6.44 5.815c-.105.095-.165.23-.165.371s.06.277.165.371l6.44 5.815c.096.086.215.13.335.13.136 0 .272-.057.371-.166 1.526-1.689 2.366-3.873 2.366-6.15 0-2.278-.84-4.462-2.366-6.15zm-17.9 15.001c-2.035 0-3.689-1.655-3.689-3.69 0-2.034 1.654-3.689 3.689-3.689 2.034 0 3.69 1.655 3.69 3.69 0 2.034-1.656 3.69-3.69 3.69zM4.637 6.347V1h.799c1.728 0 2.833.578 3.475 1.82.372.721 1.402 2.447 2.054 3.527H4.637zm9.138 0h-1.641c-.56-.923-1.914-3.17-2.335-3.986C8.989.794 7.521.001 5.436.001H0v1h3.637v5.346H0v1h13.775c1.912 0 3.469 1.556 3.469 3.47v3.967c0 1.912-1.557 3.468-3.469 3.468h-.33c.005-.088.009-.177.009-.266 0-2.585-2.104-4.689-4.69-4.689-2.586 0-4.689 2.104-4.689 4.69 0 .088.003.177.007.265H0v1h4.249c.555 1.973 2.368 3.424 4.515 3.424s3.961-1.45 4.514-3.424h.497c2.464 0 4.469-2.004 4.469-4.468v-3.968c0-2.464-2.005-4.469-4.469-4.469zM.628 10.474h3.509v-1H.628v1z" mask="url(#prefix__b)"/>
    </g>
</svg>
