<svg xmlns="http://www.w3.org/2000/svg" width="35" height="30" viewBox="0 0 35 30">
    <path fill="#AAA" fill-rule="evenodd" d="M4.756 0v28.392H0v1.199h34.667v-1.199h-4.756V0H4.756zm1.2 1.2h22.755v27.192h-5.822v-10.66H11.778v10.66H5.956V1.2zm7.021 27.193h8.713v-9.462h-8.713v9.462zm7.944-18.912h4.692V4.788h-4.692v4.693zm1.2-1.199h2.293V5.988h-2.293v2.294zm-7.133 1.199h4.691V4.788h-4.691v4.693zm1.199-1.199h2.293V5.988h-2.293v2.294zM9.054 9.481h4.692V4.788H9.054v4.693zm1.198-1.199h2.294V5.988h-2.294v2.294zm10.669 7.113h4.692v-4.692h-4.692v4.692zm1.2-1.199h2.293v-2.294h-2.293v2.294zm-7.133 1.199h4.691v-4.692h-4.691v4.692zm1.199-1.199h2.293v-2.294h-2.293v2.294zm-7.133 1.199h4.692v-4.692H9.054v4.692zm1.198-1.199h2.294v-2.294h-2.294v2.294z"/>
</svg>
