<svg xmlns="http://www.w3.org/2000/svg" width="31" height="38" viewBox="0 0 31 38">
    <path fill="#FFF" fill-rule="evenodd" d="M15.153 12.128l1.766 4.634h-3.5l1.734-4.634zm-2.128 5.754h4.284l1.05 2.786h1.4l-3.877-9.996h-1.358l-3.891 9.996h1.343l1.05-2.786zM5.69 30.048h19.012v-2H5.69v2zm0-3.184h19.012v-2H5.69v2zm22.702 3.684c0 2.514-2.046 4.559-4.558 4.559H6.56c-2.513 0-4.56-2.045-4.56-4.56V6.56C2 4.046 4.046 2 6.56 2h13.805v8.027h8.027v20.52zM22.365 3.414l4.614 4.613h-4.614V3.414zM21.779 0H6.559C2.942 0 0 2.942 0 6.56v23.988c0 3.617 2.942 6.559 6.56 6.559h17.274c3.617 0 6.558-2.942 6.558-6.56V8.614L21.78 0z"/>
</svg>
