<svg xmlns="http://www.w3.org/2000/svg" xmlns:xlink="http://www.w3.org/1999/xlink" width="36" height="36" viewBox="0 0 36 36">
    <defs>
        <path id="prefix__a" d="M0 0L36 0 36 13.7 0 13.7z"/>
    </defs>
    <g fill="none" fill-rule="evenodd" transform="translate(0 11)">
        <mask id="prefix__b" fill="#fff">
            <use xlink:href="#prefix__a"/>
        </mask>
        <path fill="#AAA" d="M22.797 2.11c-2.51-.03-2.539-.03-4.953.095-5.826.396-8.524 2.262-8.502 2.249.323-.18.788-.256 1.124-.342.383-.098.767-.163 1.15-.242 2.264-.466 4.5-.573 6.764-.573 2.051 0 4.138-.005 6.263-.151 1.656-.114 3.335-.313 4.998-.702 1.1-.257 2.184-.598 3.234-1.033.566-.236 1.121-.495 1.66-.783.214-.115.42-.255.637-.363-4.483 2.207-12.41 1.843-12.375 1.845zm2.331-.204C31.825 1.886 35.351 0 35.351 0c-.818.315-1.726.464-2.592.563-1.878.219-3.78.27-5.669.245C24.754.777 22.424.53 20.088.59c-.947.025-1.89.087-2.818.193-2.04.233-4.392.744-6.127 1.906-1.209.81-1.813 1.613-1.886 1.66 1.215-.75 1.974-1.05 2.98-1.354 4.29-1.303 8.497-1.077 12.891-1.09zM16.95 8.222c-.997 1.807-1.9 1.868-2.677 1.868 0 0 .127-.582.681-1.9.83-1.974 1.52-2.205 1.86-2.205.338 0 1.23.249.136 2.237zm.92-3.438c-.779 0-1.398.325-1.973.882l.271-.732h-1.84L11.084 13.7h1.84l1.037-2.81c.19.017.384.03.595.03 1.352 0 3.395-.643 4.417-2.912.956-2.123.011-3.224-1.104-3.224zm11.568 2.815c-.596-.612-1.028-.98-1-1.286.027-.307.365-.674 1.041-.674.676 0 1.16.244 1.16.244l.51-.765s-.545-.425-1.653-.428c-1.715-.01-2.828.8-2.97 1.836-.09.647.312 1.042.8 1.548.182.192.374.369.554.567.324.363.487.734.19 1.088-.234.277-.733.355-1.075.32-.829-.078-1.317-.488-1.317-.488l-.625.949s.727.589 2.038.552c2.05-.06 2.917-1.233 2.97-2.084.03-.52-.138-.878-.623-1.38zm4.892-1.96c.676 0 1.345.313 1.345.313L36 5.118s-.545-.425-1.653-.428c-1.714-.01-2.827.8-2.97 1.836-.09.647.311 1.042.8 1.548.183.192.375.369.554.567.325.363.487.734.19 1.088-.233.277-.734.355-1.075.32-.83-.078-1.316-.488-1.316-.488l-.627.949s.73.589 2.04.552c2.048-.06 2.916-1.233 2.967-2.084.031-.52-.134-.878-.622-1.38-.595-.611-1.028-.98-1-1.285.027-.307.366-.674 1.041-.674zM23.537 7.498c-1.038 1.974-1.753 2.207-2.09 2.207-.338 0-1.14-.608.048-2.285 1.091-1.541 2.32-1.821 2.922-1.821 0 0-.186.582-.88 1.899zm.647-2.656c-1.468.017-3.617.766-4.722 2.91-1.104 2.146-.294 3.279.823 3.279 1.108 0 1.9-.595 2.811-1.756l-.58 1.603h1.841l1.995-5.565s-.814-.487-2.168-.471zm-15.238.092l-2.155 5.944h1.84l2.155-5.944h-1.84zm-3.125-.15c-.813 0-1.512.347-2.14.948l1.457-4.077H3.3L0 10.878h1.84l1.017-2.842c.805-1.831 1.576-2.051 1.904-2.051.493 0 1.026.226.431 2.04L4.15 10.878h1.84l1.05-2.87c.853-2.168-.104-3.224-1.219-3.224zm6.986 2.05h-1.912l-.534 1.472h1.913l.533-1.472z" mask="url(#prefix__b)"/>
    </g>
</svg>
