<svg xmlns="http://www.w3.org/2000/svg" xmlns:xlink="http://www.w3.org/1999/xlink" width="36" height="20" viewBox="0 0 36 20">
    <defs>
        <path id="prefix__a" d="M0 0L35.678 0 35.678 19.542 0 19.542z"/>
    </defs>
    <g fill="none" fill-rule="evenodd">
        <mask id="prefix__b" fill="#fff">
            <use xlink:href="#prefix__a"/>
        </mask>
        <path fill="#222" d="M2.256 10.152H27.07V2.256H2.256v7.896zm25.942 2.256H1.128C.505 12.408 0 11.903 0 11.28V1.128C0 .504.505 0 1.128 0h27.07c.623 0 1.128.504 1.128 1.128V11.28c0 .623-.505 1.128-1.128 1.128z" mask="url(#prefix__b)"/>
        <path fill="#000222" d="M27.657 7.246c-1.143 0-2.216.444-3.023 1.252-.807.808-1.252 1.88-1.252 3.022 0 1.143.445 2.216 1.252 3.024 1.667 1.666 4.378 1.666 6.045 0 .808-.808 1.252-1.881 1.252-3.024 0-1.141-.444-2.214-1.252-3.022-.807-.808-1.88-1.252-3.022-1.252" mask="url(#prefix__b)"/>
        <path fill="#222" d="M35.39 17.858l-2.686-2.686c.77-1.058 1.202-2.318 1.202-3.652 0-1.668-.651-3.237-1.83-4.417-1.181-1.181-2.75-1.83-4.418-1.83-1.67 0-3.24.649-4.418 1.83-1.181 1.18-1.83 2.749-1.83 4.417 0 1.669.649 3.238 1.83 4.418 1.217 1.219 2.817 1.827 4.418 1.827 1.286 0 2.56-.413 3.649-1.2l2.687 2.688c.193.193.446.289.699.289.252 0 .505-.096.697-.29.385-.384.385-1.008 0-1.394" mask="url(#prefix__b)"/>
        <path fill="#FFF" d="M24.572 8.434c1.704-1.703 4.466-1.703 6.17 0 1.703 1.704 1.703 4.466 0 6.17-1.704 1.703-4.466 1.703-6.17 0-1.703-1.704-1.703-4.466 0-6.17" mask="url(#prefix__b)"/>
    </g>
</svg>
