<svg xmlns="http://www.w3.org/2000/svg" width="45" height="37" viewBox="0 0 45 37">
    <path fill="#FFF" fill-rule="evenodd" d="M21.858 34.477c-8.125 0-14.856-6.006-16.035-13.808l3.013 2.412 1.25-1.562-5.917-4.735L0 23.504l1.7 1.055 2.163-3.488c1.368 8.713 8.904 15.406 17.995 15.406 7.878 0 14.837-5.021 17.315-12.494l-1.898-.629c-2.207 6.653-8.402 11.123-15.417 11.123zm3.898-10.618l-1.284-4.87h2.512l-1.228 4.87zm-5.159-6.37l.869-3.324.885 3.324h-1.754zm-3.256 6.37l-1.236-4.87h2.528l-1.292 4.87zm11.467-12.108l-1.446 5.738h-3.286l-1.496-5.675h-2.042l-1.506 5.675h-3.308l-1.456-5.738h-2.145l1.631 5.738h-1.402v1.5h1.828l2.13 7.489h1.939l1.957-7.489h2.545l1.995 7.489h2l2.077-7.489h1.612v-1.5h-1.196l1.591-5.738h-2.022zm13.996.995l-2.86 3.252C38.835 6.997 31.155 0 21.858 0 14.845 0 8.373 4.097 5.369 10.437l1.806.857C9.851 5.648 15.614 2 21.858 2c7.865 0 14.438 5.622 15.921 13.057l-2.26-2.526-1.49 1.332 5.271 5.896 5.006-5.691-1.502-1.322z"/>
</svg>
