<svg xmlns="http://www.w3.org/2000/svg" xmlns:xlink="http://www.w3.org/1999/xlink" width="50" height="44" viewBox="0 0 50 44">
    <defs>
        <path id="prefix__a" d="M0.166 0.274L16.451 0.274 16.451 18.643 0.166 18.643z"/>
        <path id="prefix__c" d="M0.022 0.562L13.282 0.562 13.282 10 0.022 10z"/>
    </defs>
    <g fill="none" fill-rule="evenodd">
        <g transform="translate(33.125 12.102)">
            <mask id="prefix__b" fill="#fff">
                <use xlink:href="#prefix__a"/>
            </mask>
            <path fill="#E7E7E7" d="M6.263 5.355c-.412.798-.617 2.157-.617 4.078 0 1.921.205 3.284.617 4.09.412.807 1.098 1.21 2.058 1.21.943 0 1.617-.403 2.02-1.21.402-.806.605-2.169.605-4.09 0-1.92-.203-3.28-.605-4.078-.403-.797-1.077-1.196-2.02-1.196-.96 0-1.646.399-2.058 1.196m8.078-2.714c1.407 1.578 2.11 3.843 2.11 6.792 0 2.95-.703 5.222-2.11 6.817-1.407 1.595-3.413 2.393-6.02 2.393-2.64 0-4.66-.793-6.058-2.38C.864 14.678.166 12.4.166 9.434c0-2.95.698-5.214 2.097-6.792C3.66 1.063 5.68.274 8.32.274c2.607 0 4.613.79 6.02 2.367" mask="url(#prefix__b)"/>
        </g>
        <path fill="#E7E7E7" d="M8.434 43.236c-1.387 0-2.498-.39-3.29-1.181C.83 37.74 8.87 25.044 18.627 15.287c.53-.53 1.063-1.05 1.596-1.557l1.293 1.357c-.522.497-1.043 1.006-1.563 1.526C8.874 27.692 3.955 38.214 6.47 40.729c1.455 1.455 6.298.55 13.841-4.747l1.078 1.535c-5.364 3.766-9.85 5.719-12.955 5.719"/>
        <g transform="translate(11.25 33.977)">
            <mask id="prefix__d" fill="#fff">
                <use xlink:href="#prefix__c"/>
            </mask>
            <path fill="#E7E7E7" d="M6.285 10L0.022 3.736 13.282 0.562z" mask="url(#prefix__d)"/>
        </g>
        <path fill="#E7E7E7" d="M8.105 31.11c-1.364 0-2.737-.217-4.083-.645-1.348-.43-2.497-1.005-3.414-1.71l-.209-.16 2.232-4.225.295.243c.743.61 1.53 1.083 2.336 1.405.8.317 1.617.48 2.431.48.77 0 1.356-.145 1.746-.43.363-.266.54-.654.54-1.188 0-.518-.178-.904-.543-1.178-.39-.291-.984-.44-1.769-.44H4.14v-3.249l3.395-3.26H1.438v-4.56h13.54v3.513l-4.22 3.793.29.058c1.426.268 2.595.864 3.47 1.775.886.923 1.334 2.108 1.334 3.522 0 1.224-.325 2.326-.966 3.275-.64.946-1.559 1.689-2.731 2.207-1.158.514-2.52.774-4.05.774"/>
        <path fill="#FEFEFE" d="M15.29 11.88H1.125V17.067h5.632L4.02 19.695l-.193.185v3.695h3.842c.715 0 1.247.127 1.58.377.286.215.418.51.418.928 0 .569-.235.806-.412.935-.334.245-.86.37-1.56.37-.775 0-1.554-.155-2.316-.458-.777-.31-1.535-.765-2.253-1.356l-.592-.486-.358.677-1.93 3.653-.245.466.418.322c.945.727 2.126 1.32 3.51 1.76 1.376.437 2.782.66 4.177.66 1.573 0 2.978-.27 4.176-.8 1.227-.544 2.19-1.324 2.864-2.319.677-1.001 1.02-2.162 1.02-3.45 0-1.498-.478-2.756-1.422-3.739-.853-.887-1.966-1.49-3.315-1.798l3.655-3.285.207-.187V11.88zm-.625.625v3.062l-4.58 4.116.901.18c1.372.257 2.474.82 3.306 1.686.832.865 1.248 1.968 1.248 3.305 0 1.167-.305 2.2-.913 3.1-.61.9-1.476 1.6-2.599 2.097-1.123.498-2.43.746-3.923.746-1.338 0-2.667-.21-3.987-.63-1.322-.42-2.428-.973-3.32-1.66l1.93-3.653c.772.635 1.578 1.119 2.418 1.453.84.335 1.69.502 2.547.502.84 0 1.484-.162 1.93-.489.446-.325.668-.806.668-1.44 0-.618-.222-1.093-.668-1.428-.446-.335-1.098-.502-1.955-.502H4.452v-2.804l3.859-3.704H1.75v-3.937h12.914z"/>
        <path fill="#E7E7E7" d="M24.236 22.671c-.639 0-1.109.163-1.437.498-.33.337-.49.787-.49 1.377 0 .575.154 1.018.47 1.355.31.332.77.493 1.405.493.623 0 1.08-.155 1.4-.475.315-.315.475-.794.475-1.425 0-.59-.153-1.031-.465-1.351-.31-.317-.755-.472-1.358-.472m.154 8.438c-1.665 0-3.123-.384-4.334-1.14-1.213-.759-2.157-1.855-2.806-3.26-.643-1.39-.968-3.043-.968-4.917 0-1.942.357-3.67 1.06-5.138.709-1.48 1.73-2.64 3.037-3.45 1.305-.807 2.845-1.217 4.577-1.217 1.066 0 2.156.142 3.242.422 1.09.28 2.037.675 2.817 1.17l.247.157-2.27 4.153-.29-.222c-.969-.742-2.125-1.119-3.438-1.119-1.153 0-2.032.325-2.61.965-.447.494-.72 1.164-.818 2.001.328-.288.705-.529 1.125-.72.699-.317 1.526-.479 2.458-.479 1.198 0 2.263.261 3.165.775.905.517 1.617 1.256 2.115 2.196.493.934.743 2.022.743 3.234 0 1.32-.295 2.49-.879 3.477-.586.992-1.425 1.768-2.495 2.307-1.06.535-2.297.805-3.678.805"/>
        <path fill="#FEFEFE" d="M24.184 26.081c-.545 0-.93-.128-1.177-.393-.26-.277-.385-.65-.385-1.143 0-.503.131-.882.4-1.158.267-.271.664-.404 1.214-.404.515 0 .886.124 1.135.378.252.26.375.63.375 1.133 0 .545-.129.95-.383 1.204-.258.258-.643.383-1.179.383m.772-14.406c-1.79 0-3.386.425-4.741 1.264-1.36.841-2.42 2.046-3.155 3.58-.723 1.51-1.09 3.285-1.09 5.274 0 1.918.335 3.616.996 5.047.675 1.46 1.66 2.603 2.925 3.394 1.261.788 2.775 1.188 4.499 1.188 1.43 0 2.715-.282 3.818-.839 1.125-.567 2.007-1.383 2.624-2.427.613-1.036.923-2.26.923-3.636 0-1.264-.262-2.4-.78-3.38-.526-.994-1.279-1.775-2.236-2.322-.95-.54-2.067-.815-3.32-.815-.977 0-1.848.17-2.587.507-.185.084-.362.176-.53.279.13-.424.325-.78.583-1.067.525-.58 1.303-.861 2.38-.861 1.259 0 2.32.344 3.247 1.054l.579.444.35-.64 1.955-3.576.28-.513-.494-.315c-.807-.513-1.785-.92-2.905-1.21-1.112-.285-2.23-.43-3.321-.43m-.772 15.031c.703 0 1.243-.188 1.62-.566.378-.377.567-.926.567-1.646 0-.669-.184-1.192-.553-1.57-.37-.376-.896-.566-1.582-.566-.72 0-1.274.198-1.66.592-.386.395-.579.926-.579 1.595 0 .652.184 1.175.553 1.57.369.395.914.591 1.634.591m.772-14.406c1.046 0 2.1.137 3.164.41 1.063.276 1.972.653 2.727 1.133l-1.955 3.576c-1.03-.789-2.238-1.183-3.627-1.183-1.252 0-2.2.355-2.843 1.067-.644.712-.957 1.728-.94 3.05.412-.55.948-.974 1.608-1.275.66-.3 1.437-.45 2.329-.45 1.149 0 2.152.245 3.01.733.858.49 1.522 1.18 1.994 2.072.471.892.707 1.92.707 3.087 0 1.269-.28 2.375-.836 3.318-.558.944-1.346 1.673-2.367 2.187-1.02.515-2.2.772-3.537.772-1.612 0-3.002-.364-4.168-1.094-1.167-.728-2.062-1.77-2.689-3.125-.626-1.355-.938-2.95-.938-4.785 0-1.904.343-3.572 1.028-5.004.687-1.432 1.66-2.538 2.92-3.319 1.261-.78 2.732-1.17 4.413-1.17"/>
        <path fill="#E7E7E7" d="M28.582 28.763l.226-.216c.52-.495 1.04-1.002 1.557-1.52C40.998 16.394 46.253 5.76 43.847 3.352c-.347-.346-.948-.53-1.738-.53-2.629 0-6.894 1.937-11.703 5.312l-.256.18-1.436-2.046.256-.18C34.352 2.31 38.894.313 42.105.313c1.485 0 2.666.429 3.51 1.273 2.107 2.107 1.62 6.158-1.41 11.714-2.612 4.787-7.012 10.436-12.072 15.496-.532.532-1.066 1.053-1.6 1.562l-.227.216-1.724-1.81z"/>
        <path fill="#FEFEFE" d="M42.105 0c-3.275 0-7.88 2.017-13.314 5.833l-.512.359.359.512 1.077 1.534.36.511.511-.36c6.757-4.743 10.31-5.254 11.523-5.254.705 0 1.23.151 1.517.439C45.614 5.562 41.35 15.6 30.145 26.806c-.508.508-1.03 1.018-1.553 1.515l-.452.431.431.453 1.293 1.357.431.453.453-.431c.536-.51 1.076-1.038 1.606-1.568 5.08-5.081 9.5-10.755 12.125-15.567 3.103-5.69 3.572-9.87 1.357-12.085C44.93.46 43.675 0 42.105 0m0 .625c1.387 0 2.498.39 3.289 1.181 4.315 4.315-3.725 17.012-13.482 26.768-.53.53-1.062 1.05-1.595 1.557l-1.293-1.357c.521-.497 1.043-1.006 1.563-1.526C41.665 16.17 46.583 5.647 44.068 3.132c-.4-.4-1.058-.622-1.959-.622-2.369 0-6.417 1.532-11.882 5.369l-1.078-1.535C34.514 2.578 39 .624 42.105.624"/>
        <path fill="#E7E7E7" d="M32.532 0.091L38.796 6.355 25.535 9.53z"/>
    </g>
</svg>
