<svg xmlns="http://www.w3.org/2000/svg" width="36" height="30" viewBox="0 0 36 30">
    <path fill="#FFF" fill-rule="evenodd" d="M6.538 0L0 13.818h3.614v14.574H.403v1.199H35.07v-1.199h-3.217V13.818h3.779L29.092 0H6.538zm17.867 1.2h3.927l5.404 11.419h-6.578L24.405 1.2zm-5.99 5.49l.074-5.49h4.682l2.752 11.419h-7.429l-.079-5.929zM12.461 1.2h4.681l.074 5.49-.08 5.929H9.708L12.461 1.2zm-5.163 0h3.928L8.473 12.619H1.894L7.298 1.2zM4.813 13.818h25.841v14.574h-3.645V16.675h-9.087v11.717H4.813V13.818zm14.309 14.574h6.687V17.874h-6.687v10.518z"/>
</svg>
