<svg xmlns="http://www.w3.org/2000/svg" xmlns:xlink="http://www.w3.org/1999/xlink" width="36" height="36" viewBox="0 0 36 36">
    <defs>
        <path id="prefix__a" d="M0 0L24.006 0 24.006 23.095 0 23.095z"/>
    </defs>
    <g fill="none" fill-rule="evenodd" transform="translate(6 6)">
        <mask id="prefix__b" fill="#fff">
            <use xlink:href="#prefix__a"/>
        </mask>
        <path fill="#AAA" d="M14.16 9.491c-.348.63-1.015 1.038-1.762 1.038-.748 0-1.414-.408-1.762-1.038h3.524zm.23-3.616c0-.747.407-1.414 1.037-1.762v3.524c-.63-.348-1.038-1.014-1.038-1.762zm1.908 3.322c0 .318-.259.578-.578.578-.319 0-.578-.26-.578-.578 0-.318.26-.578.578-.578.32 0 .578.26.578.578zm.754 3.322c0 .747-.409 1.414-1.038 1.763v-3.524c.63.347 1.038 1.014 1.038 1.761zm1.99-4.653c.748 0 1.414.408 1.763 1.037H17.28c.348-.629 1.015-1.037 1.762-1.037zm-6.644 3.463c.943 0 1.792-.466 2.306-1.204.14.153.314.274.51.352v4.387c0 .122.056.238.153.314.071.056.158.085.247.085.031 0 .064-.003.095-.011 1.262-.311 2.143-1.435 2.143-2.733 0-.942-.466-1.792-1.204-2.306.153-.14.275-.314.352-.509h4.387c.123 0 .24-.057.315-.153.075-.097.103-.224.073-.343-.31-1.262-1.435-2.143-2.733-2.143-.943 0-1.792.467-2.306 1.204-.14-.153-.313-.274-.51-.352V3.531c0-.123-.056-.239-.153-.315-.097-.076-.223-.102-.342-.074-1.26.311-2.142 1.435-2.142 2.733 0 .943.466 1.792 1.203 2.306-.153.14-.274.314-.352.51h-4.386c-.123 0-.24.056-.315.154-.076.096-.103.222-.074.341.311 1.262 1.435 2.143 2.733 2.143zM1 2.574c0-.569.116-1.009.334-1.271.167-.202.403-.303.702-.303 1.04 0 2.642 1.25 2.642 2.911 0 1.981-2.537 2.673-3.678 2.884V2.574zm4.678 1.337C5.678 1.745 3.686 0 2.036 0c-.6 0-1.109.229-1.47.662C.19 1.113 0 1.757 0 2.574v4.801c0 .139.06.274.162.369.093.084.213.131.338.131l.045-.003c.051-.004 1.26-.118 2.486-.628 1.732-.72 2.647-1.872 2.647-3.333zm17.29 18.184H7.404L2.463 9.331c1.436-.724 2.62-.802 3.526-.234 1.246.783 2.09 2.818 2.441 5.887.273 2.4.14 4.58.138 4.602-.01.172.068.338.208.438.141.101.323.121.483.055.06-.025 6.096-2.512 10.563-2.512 1.05 0 1.85.32 2.374.949.892 1.073.847 2.797.771 3.579zm0-4.215c-.725-.871-1.783-1.313-3.146-1.313-3.778 0-8.45 1.629-10.225 2.304.054-2.264-.068-8.732-3.076-10.62-1.319-.828-2.977-.69-4.93.412-.217.122-.31.384-.22.615l5.225 13.497c.074.193.26.32.466.32h16.344c.241 0 .447-.171.492-.409.023-.123.545-3.029-.93-4.806z" mask="url(#prefix__b)"/>
    </g>
</svg>
