<svg xmlns="http://www.w3.org/2000/svg" width="31" height="38" viewBox="0 0 31 38">
    <path fill="#AAA" fill-rule="evenodd" d="M5.689 30.047h19.013v-2H5.689v2zm0-3.183h19.013v-2H5.689v2zm5.273-10.012v-1.296h3.586V11.97h1.296v3.586h3.586v1.296h-3.586v3.586h-1.296v-3.586h-3.586zm1.586 5.586h5.296v-3.586h3.586v-5.296h-3.586V9.97h-5.296v3.586H8.962v5.296h3.586v3.586zm15.844 8.109c0 2.514-2.046 4.56-4.56 4.56H6.559C4.045 35.107 2 33.061 2 30.547V6.559C2 4.045 4.045 2 6.559 2H8.4c.28 2.151 2.104 3.824 4.33 3.824h4.931c2.226 0 4.05-1.673 4.329-3.824h1.842c2.514 0 4.56 2.045 4.56 4.559v23.988zM19.973 2c-.254 1.044-1.191 1.824-2.312 1.824H12.73c-1.122 0-2.058-.78-2.312-1.824h9.555zm3.859-2H6.559C2.942 0 0 2.942 0 6.559v23.988c0 3.618 2.942 6.56 6.559 6.56h17.273c3.617 0 6.56-2.942 6.56-6.56V6.559c0-3.617-2.943-6.559-6.56-6.559z"/>
</svg>
