<svg xmlns="http://www.w3.org/2000/svg" xmlns:xlink="http://www.w3.org/1999/xlink" width="42" height="38" viewBox="0 0 42 38">
    <defs>
        <path id="prefix__a" d="M0 0L41.196 0 41.196 37.745 0 37.745z"/>
    </defs>
    <g fill="none" fill-rule="evenodd">
        <mask id="prefix__b" fill="#fff">
            <use xlink:href="#prefix__a"/>
        </mask>
        <path fill="#AAA" d="M26.383 35.043c0 .387-.315.702-.702.702H15.468c-.387 0-.702-.315-.702-.702v-.852c0-.386.315-.702.702-.702H25.68c.387 0 .702.316.702.702v.852zm-.702-3.554H15.468c-1.49 0-2.702 1.212-2.702 2.702v.852c0 1.49 1.212 2.702 2.702 2.702H25.68c1.49 0 2.702-1.212 2.702-2.702v-.852c0-1.49-1.212-2.702-2.702-2.702zm-5.107-9.915c1.327 0 2.405 1.078 2.405 2.405 0 1.326-1.078 2.404-2.405 2.404-1.326 0-2.404-1.078-2.404-2.404 0-1.327 1.078-2.405 2.404-2.405zm-6.45 5.892l2.777-1.068c.789 1.194 2.139 1.985 3.673 1.985 2.429 0 4.405-1.976 4.405-4.404 0-.227-.034-.445-.068-.663l11.342-4.361-.72-1.867-11.358 4.368c-.798-1.135-2.111-1.882-3.601-1.882-2.428 0-4.404 1.976-4.404 4.405 0 .183.032.358.054.536l-2.818 1.084.719 1.867zM25.167 5.038l-.582 1.599 1.879.683.582-1.598-1.88-.684zm5.037 2.507l-1.094 1.304 1.53 1.285 1.096-1.304-1.532-1.285zm3.875 4.078l-1.473.852 1 1.732 1.473-.851-1-1.733zm2.247 12.744l.348-1.969-1.677-.295-.347 1.968 1.676.296zm-1.247 3.426l-1.473-.851-1 1.733 1.473.85 1-1.732zm-26.533.882l-1-1.733-1.474.851 1 1.732 1.474-.85zm-3.722-4.308l1.677-.296-.347-1.968-1.677.295.347 1.969zm1.676-7.291l-1.677-.295-.345 1.971 1.677.295.345-1.971zm-.428-3.72l1.474.851 1-1.732-1.474-.852-1 1.733zM9.415 8.83l1.095 1.304 1.53-1.285-1.094-1.304L9.415 8.83zm6.569-3.792l-1.88.684.583 1.598 1.879-.683-.582-1.599zm3.59 1.068h2V4.404h-2v1.702zM20.599 0C9.239 0-.001 9.28-.001 20.687c0 5.62 2.212 10.879 6.226 14.81l1.398-1.43C3.997 30.517 2 25.765 2 20.687 2 10.383 10.344 2 20.599 2s18.597 8.383 18.597 18.687c0 5.079-1.997 9.831-5.622 13.38l1.399 1.43c4.014-3.93 6.223-9.189 6.223-14.81C41.196 9.28 31.956 0 20.599 0z" mask="url(#prefix__b)"/>
    </g>
</svg>
