<svg xmlns="http://www.w3.org/2000/svg" xmlns:xlink="http://www.w3.org/1999/xlink" width="44" height="38" viewBox="0 0 44 38">
    <defs>
        <path id="prefix__a" d="M0 0L43.563 0 43.563 37.621 0 37.621z"/>
    </defs>
    <g fill="none" fill-rule="evenodd">
        <mask id="prefix__b" fill="#fff">
            <use xlink:href="#prefix__a"/>
        </mask>
        <path fill="#E7E7E7" d="M39.608 5.836c-1.037 0-1.88-.844-1.88-1.881s.843-1.88 1.88-1.88 1.88.843 1.88 1.88-.843 1.88-1.88 1.88m-15.946 27.83c0 1.038-.844 1.882-1.88 1.882-1.038 0-1.88-.844-1.88-1.881s.842-1.88 1.88-1.88c1.036 0 1.88.843 1.88 1.88m-17.827 0c0 1.037-.844 1.88-1.88 1.88-1.037 0-1.88-.843-1.88-1.88s.843-1.88 1.88-1.88c1.036 0 1.88.843 1.88 1.88M2.075 3.955c0-1.037.843-1.88 1.88-1.88 1.036 0 1.88.843 1.88 1.88s-.844 1.88-1.88 1.88c-1.037 0-1.88-.843-1.88-1.88m17.826 0c0-1.037.843-1.88 1.88-1.88s1.881.843 1.881 1.88-.844 1.88-1.88 1.88c-1.038 0-1.88-.843-1.88-1.88m23.661 0C43.563 1.774 41.79 0 39.608 0c-2.18 0-3.955 1.774-3.955 3.955 0 1.82 1.24 3.356 2.918 3.813v9.927H22.818V7.768c1.68-.457 2.918-1.992 2.918-3.813C25.736 1.774 23.962 0 21.781 0c-2.18 0-3.955 1.774-3.955 3.955 0 1.82 1.24 3.356 2.918 3.813v9.927H4.992V7.768C6.67 7.31 7.91 5.776 7.91 3.955 7.91 1.774 6.135 0 3.955 0S0 1.774 0 3.955c0 1.82 1.24 3.356 2.917 3.813v22.086C1.24 30.312 0 31.844 0 33.666c0 2.18 1.774 3.955 3.955 3.955 2.18 0 3.954-1.774 3.954-3.955 0-1.821-1.239-3.354-2.917-3.812V19.77h15.752v10.084c-1.678.458-2.918 1.99-2.918 3.812 0 2.18 1.775 3.955 3.955 3.955 2.181 0 3.955-1.774 3.955-3.955 0-1.821-1.239-3.354-2.918-3.812V19.77h16.698c.03.003.06.008.092.008.573 0 1.037-.463 1.037-1.037V7.768c1.678-.457 2.918-1.992 2.918-3.813" mask="url(#prefix__b)"/>
    </g>
</svg>
