<svg xmlns="http://www.w3.org/2000/svg" width="30" height="30" viewBox="0 0 30 30">
    <path fill="#AAA" fill-rule="evenodd" d="M14.896 0C6.682 0 0 6.683 0 14.896c0 8.215 6.682 14.898 14.896 14.898h.6V26.49h-1.2v2.091C7.221 28.275 1.537 22.57 1.228 15.496h2.075v-1.199H1.229C1.538 7.224 7.223 1.538 14.296 1.229v2.075h1.2V1.229c7.075.308 12.779 5.993 13.085 13.068H26.49v1.199h3.303v-.6C29.793 6.683 23.111 0 14.896 0zM26.81 28.3l-.745-2.827h1.458L26.81 28.3zm-2.994-3.698l.505-1.929.513 1.929h-1.018zm-1.89 3.698l-.718-2.827h1.468l-.75 2.827zm6.656-7.029l-.839 3.331h-1.908l-.869-3.294h-1.184l-.875 3.294h-1.919l-.846-3.331h-1.245l.947 3.331h-.813v.871h1.06l1.237 4.346h1.125l1.135-4.346h1.478l1.158 4.346h1.16l1.206-4.346h.937v-.871h-.695l.923-3.331h-1.173zm-14.286-6.974H7.477v1.199h8.019V5.923h-1.2v8.374z"/>
</svg>
