<svg xmlns="http://www.w3.org/2000/svg" xmlns:xlink="http://www.w3.org/1999/xlink" width="34" height="32" viewBox="0 0 34 32">
    <defs>
        <path id="prefix__a" d="M0 0L33.672 0 33.672 31.948 0 31.948z"/>
    </defs>
    <g fill="none" fill-rule="evenodd">
        <mask id="prefix__b" fill="#fff">
            <use xlink:href="#prefix__a"/>
        </mask>
        <path fill="#AAA" d="M11.341 21.815c.617.727 1.97 1.998 4.172 2.383l-1.96 1.988c-.633-.275-2.11-1.183-3.19-3.723.353-.219.684-.437.978-.648zm2.284-2.033c.881.533 1.931.852 3.211.852 1.28 0 2.33-.32 3.211-.852.272.317.713.772 1.338 1.298-.61.7-2.096 2.031-4.549 2.031-2.466 0-3.942-1.327-4.552-2.029.627-.526 1.07-.983 1.341-1.3zm-2.93-6.935c-.826-2.735-.692-6.81 1.163-9.307 1.153-1.553 2.828-2.34 4.978-2.34 2.151 0 3.825.787 4.98 2.34 1.852 2.496 1.986 6.571 1.161 9.307-1.413 4.68-3.193 6.588-6.14 6.588-2.95 0-4.729-1.909-6.142-6.588zm11.636 8.97c.294.21.625.427.978.647-1.08 2.541-2.562 3.45-3.19 3.722l-1.96-1.988c2.202-.385 3.555-1.656 4.172-2.382zM1.703 31.947c-.299-1.148-.9-4.416-.109-5.744.155-.26.347-.41.598-.474 3.05-.733 5.367-1.696 7.12-2.653 1.413 3.221 3.491 4.134 4.095 4.336l1.573 1.438-1.313 3.073.055.024h1.24l1.455-3.407-1.84-1.685 2.258-2.29 2.26 2.29-1.84 1.685 1.455 3.407h1.24l.054-.024-1.31-3.073 1.57-1.438c.604-.202 2.682-1.115 4.097-4.336 1.751.957 4.067 1.92 7.116 2.653.254.063.445.213.6.474.792 1.328.191 4.596-.108 5.744h1.236c.258-1.102.956-4.59-.096-6.359-.323-.54-.775-.884-1.348-1.025-6.78-1.63-9.816-4.457-10.749-5.51 1.556-1.436 2.448-3.659 3.113-5.859.885-2.93.84-7.426-1.347-10.37C21.405.975 19.351 0 16.836 0s-4.57.976-5.942 2.825c-2.188 2.945-2.232 7.44-1.347 10.37.664 2.2 1.557 4.423 3.113 5.86-.934 1.052-3.97 3.878-10.753 5.51-.57.14-1.022.484-1.344 1.024C-.49 27.36.21 30.846.467 31.95h1.236z" mask="url(#prefix__b)"/>
    </g>
</svg>
