<svg xmlns="http://www.w3.org/2000/svg" xmlns:xlink="http://www.w3.org/1999/xlink" width="36" height="36" viewBox="0 0 36 36">
    <defs>
        <path id="prefix__a" d="M0 0.906L24.006 0.906 24.006 24 0 24z"/>
    </defs>
    <g fill="none" fill-rule="evenodd">
        <g transform="translate(6 5) translate(0 .095)">
            <mask id="prefix__b" fill="#fff">
                <use xlink:href="#prefix__a"/>
            </mask>
            <path fill="#3F64C3" d="M1 3.48c0-.57.116-1.01.334-1.271.167-.202.403-.303.702-.303 1.04 0 2.642 1.25 2.642 2.91C4.678 6.799 2.142 7.49 1 7.702V3.48zm4.678 1.337C5.678 2.65 3.686.906 2.036.906c-.6 0-1.109.228-1.47.662C.19 2.018 0 2.662 0 3.48v4.8c0 .14.06.274.163.369.092.085.212.13.337.13l.045-.001c.051-.005 1.26-.12 2.486-.63 1.732-.72 2.647-1.871 2.647-3.331zM22.968 23H7.404L2.463 10.236c1.436-.723 2.62-.801 3.526-.234 1.246.783 2.09 2.819 2.441 5.887.274 2.4.14 4.58.138 4.603-.01.172.068.338.208.438.141.1.323.12.483.055.06-.026 6.096-2.513 10.563-2.513 1.051 0 1.85.32 2.374.95.892 1.072.847 2.796.771 3.579zm0-4.215c-.724-.871-1.783-1.314-3.146-1.314-3.778 0-8.45 1.629-10.225 2.305.054-2.265-.068-8.732-3.076-10.621-1.318-.827-2.977-.69-4.93.412-.216.122-.31.385-.22.616L6.596 23.68c.074.193.26.32.466.32h16.344c.241 0 .448-.172.492-.41.023-.122.545-3.028-.93-4.805z" mask="url(#prefix__b)"/>
        </g>
        <path fill="#E6174B" d="M17.28 9.903c.348-.63 1.015-1.037 1.762-1.037.748 0 1.414.408 1.762 1.037H17.28zm-1.267 5.378v-3.524c.63.348 1.038 1.014 1.038 1.763 0 .747-.408 1.414-1.038 1.761zM15.72 9.62c.32 0 .578.26.578.579 0 .317-.259.576-.578.576-.319 0-.578-.258-.578-.576 0-.32.26-.579.578-.579zm-.294-4.506v3.523c-.629-.346-1.038-1.013-1.038-1.76 0-.748.41-1.415 1.038-1.764zm-3.028 6.415c-.748 0-1.414-.408-1.763-1.037h3.525c-.348.63-1.015 1.037-1.762 1.037zm9.377-1.32c-.31-1.261-1.435-2.143-2.733-2.143-.943 0-1.792.466-2.306 1.205-.14-.153-.313-.275-.51-.352V4.53c0-.122-.056-.238-.153-.314-.097-.076-.223-.103-.342-.074-1.262.31-2.142 1.434-2.142 2.732 0 .942.465 1.793 1.203 2.306-.153.14-.274.314-.352.51h-4.387c-.123 0-.239.056-.315.152-.075.098-.103.225-.073.344.311 1.26 1.435 2.143 2.733 2.143.943 0 1.792-.467 2.306-1.204.14.152.314.274.51.351v4.386c0 .123.056.24.153.316.071.056.158.085.246.085.032 0 .064-.005.096-.011 1.261-.312 2.143-1.435 2.143-2.733 0-.944-.467-1.793-1.204-2.306.153-.14.275-.315.352-.51h4.386c.123 0 .24-.058.315-.155.076-.095.103-.221.074-.34z" transform="translate(6 5)"/>
    </g>
</svg>
