<svg xmlns="http://www.w3.org/2000/svg" xmlns:xlink="http://www.w3.org/1999/xlink" width="84" height="87" viewBox="0 0 84 87">
    <defs>
        <path id="prefix__a" d="M0 0.766L83.952 0.766 83.952 87.6 0 87.6z"/>
    </defs>
    <g fill="none" fill-rule="evenodd">
        <path fill="#4C5772" d="M49.342 43.54l-4.047-4.048 14.467-4.917 4.048 4.048-14.468 4.916zm9.1 11.896L43.776 60.42V43.064l3.812 3.812c.343.344.803.528 1.273.528.195 0 .389-.032.579-.096l9.002-3.058v11.186zM25.509 44.248l9.003 3.06c.19.064.384.096.578.096.47 0 .929-.184 1.273-.528l3.813-3.812V60.42l-14.667-4.984V44.248zm-1.32-9.672l14.469 4.916-4.048 4.047-14.467-4.916 4.046-4.047zm17.787-6.37l12.672 4.305-12.672 4.306-12.672-4.306 12.672-4.305zM68.4 38.124l-6.886-6.885c-.025-.025-.059-.033-.085-.056-.118-.107-.252-.192-.398-.265-.054-.028-.104-.063-.16-.084-.018-.008-.032-.02-.052-.027L42.555 24.6c-.375-.129-.783-.129-1.158 0L23.13 30.807c-.018.006-.033.02-.052.027-.056.021-.104.056-.16.084-.146.073-.28.158-.4.265-.024.023-.057.031-.082.056l-6.884 6.885c-.44.44-.622 1.075-.482 1.68.143.607.586 1.096 1.175 1.297l5.664 1.925v13.699c0 .771.491 1.457 1.22 1.704l18.268 6.207c.018.006.036.004.053.009.168.051.342.087.526.087s.358-.036.526-.087c.016-.005.035-.003.053-.009L60.82 58.43c.731-.247 1.222-.933 1.222-1.704v-13.7l5.665-1.924c.59-.2 1.033-.69 1.174-1.296.14-.606-.041-1.241-.48-1.681z" transform="translate(0 -1)"/>
        <g transform="translate(0 -1) translate(0 .434)">
            <mask id="prefix__b" fill="#fff">
                <use xlink:href="#prefix__a"/>
            </mask>
            <path fill="#3F64C3" d="M74.663 17.902c-.625-.774-1.758-.897-2.53-.272-.775.624-.896 1.758-.273 2.532 12.304 15.265 11.11 37.247-2.773 51.132C55.2 85.18 33.217 86.372 17.95 74.066c-.539-.435-1.28-.522-1.907-.222-.624.3-1.022.931-1.022 1.623v10.334c0 .993.806 1.8 1.8 1.8s1.8-.807 1.8-1.8v-6.77c16.49 11.106 38.688 9.13 53.01-5.192 15.188-15.187 16.492-39.236 3.031-55.937M65.998 14.3c.54.434 1.28.52 1.907.222.625-.299 1.023-.93 1.023-1.624V2.566c0-.995-.806-1.8-1.8-1.8-.993 0-1.8.805-1.8 1.8v6.77C48.838-1.77 26.643.206 12.321 14.527-2.868 29.718-4.171 53.765 9.288 70.466c.357.44.878.67 1.403.67.397 0 .797-.13 1.13-.398.772-.624.895-1.757.27-2.532C-.211 52.942.983 30.96 14.867 17.074 28.751 3.19 50.734 1.996 65.998 14.3" mask="url(#prefix__b)"/>
        </g>
    </g>
</svg>
