<svg xmlns="http://www.w3.org/2000/svg" xmlns:xlink="http://www.w3.org/1999/xlink" width="38" height="57" viewBox="0 0 38 57">
    <defs>
        <path id="prefix__a" d="M0 56.586L37.437 56.586 37.437 0.001 0 0.001z"/>
    </defs>
    <g fill="none" fill-rule="evenodd">
        <path fill="#FFF" d="M20.18 27.863c0-.297-.251-.55-.55-.55-.306 0-.55.253-.55.55v23.562c0 .308.244.55.55.55.299 0 .55-.242.55-.55V27.863zm0-1.595c.011-.154.22-3.86-3.289-5.808-.262-.143-.605-.055-.748.21-.154.263-.055.604.21.747 2.892 1.606 2.738 4.653 2.727 4.785-.022.297.21.561.519.584h.031c.286 0 .528-.22.55-.518zm-3.982-8.305c3.652 1.705 6.006 5.401 6.006 9.438v25.3c0 1.386-1.122 2.508-2.519 2.508H3.89c-1.384 0-2.519-1.122-2.519-2.508v-25.3c0-4.037 2.365-7.733 6.017-9.438h8.811zM16.374 13.772c.858 0 1.551.693 1.551 1.551 0 .847-.693 1.54-1.55 1.54H7.2c-.845 0-1.54-.693-1.54-1.54 0-.858.695-1.55 1.54-1.55h9.174z"/>
        <mask id="prefix__b" fill="#fff">
            <use xlink:href="#prefix__a"/>
        </mask>
        <path fill="#FFF" d="M16.055 9.45L18.278 9.45 18.278 6.986 16.055 6.986zM8.62 12.673L14.956 12.673 14.956 5.798 8.62 5.798z" mask="url(#prefix__b)"/>
        <path fill="#4C5772" d="M36.615 7.667c.297 0 .55.253.55.55 0 .308-.253.55-.55.55H21.83c-.308 0-.55-.242-.55-.55 0-.297.242-.55.55-.55h14.784zM34.954.308c.286-.099.605.044.704.33.109.286-.044.605-.33.704l-13.893 5.06c-.067.022-.12.033-.187.033-.22 0-.44-.143-.518-.363-.099-.286.044-.605.33-.704L34.954.308zM35.328 15.092c.286.11.439.418.33.704-.078.231-.286.363-.517.363-.056 0-.121-.01-.187-.033l-13.894-5.06c-.285-.099-.428-.418-.33-.704.111-.286.418-.429.705-.319l13.893 5.05zM19.63 27.313c.299 0 .55.253.55.55v23.562c0 .308-.251.55-.55.55-.306 0-.55-.242-.55-.55V27.863c0-.297.244-.55.55-.55M16.891 20.46c3.51 1.947 3.3 5.654 3.29 5.808-.022.297-.265.517-.55.517h-.033c-.308-.022-.539-.286-.518-.583.011-.132.166-3.179-2.727-4.785-.264-.143-.363-.484-.21-.748.143-.264.485-.352.748-.209" mask="url(#prefix__b)"/>
        <path fill="#4C5772" d="M7.388 17.963c-3.652 1.705-6.017 5.401-6.017 9.438v25.3c0 1.386 1.134 2.508 2.519 2.508h15.796c1.397 0 2.519-1.122 2.519-2.508v-25.3c0-4.037-2.354-7.733-6.006-9.438H7.388zM3.89 56.31c-1.991 0-3.62-1.616-3.62-3.608v-25.3c0-4.048 2.146-7.766 5.556-9.834-.76-.462-1.265-1.298-1.265-2.244 0-1.463 1.177-2.65 2.64-2.65h.319V5.246c0-.308.254-.55.55-.55h7.436c.308 0 .55.242.55.55v.638h2.772c.308 0 .55.253.55.55V10c0 .308-.242.55-.55.55h-2.772v2.123h.319c1.463 0 2.65 1.188 2.65 2.651 0 .946-.516 1.782-1.275 2.244 3.41 2.068 5.555 5.786 5.555 9.834v25.3c0 1.992-1.617 3.608-3.62 3.608H3.89zm14.036-40.986c0-.858-.693-1.55-1.551-1.55H7.2c-.846 0-1.54.692-1.54 1.55 0 .847.694 1.54 1.54 1.54h9.174c.858 0 1.55-.693 1.55-1.54zm-1.87-5.874h2.223V6.985h-2.223V9.45zM8.62 12.672h6.336V5.797H8.62v6.875z" mask="url(#prefix__b)"/>
    </g>
</svg>
