<svg xmlns="http://www.w3.org/2000/svg" width="49" height="67" viewBox="0 0 49 67">
    <g fill="none" fill-rule="evenodd">
        <path fill="#FFF" d="M29.394 53.165v14.72H19.92v-14.72s1.21 2.838 4.663 2.838c3.454 0 4.811-2.838 4.811-2.838" transform="translate(0 -1)"/>
        <path fill="#2CBEFF" d="M19.773 51.368v16.518H.898v-7.844c0-3.65 3.461-8.674 9.106-8.674h9.769zM29.394 51.368v16.518H48.27v-7.844c0-3.65-3.46-8.674-9.106-8.674h-9.769z" transform="translate(0 -1)"/>
        <g>
            <path fill="#FFF" d="M28.207 54.099c.096-.096.192-.192.288-.3.048-.062.108-.11.156-.18v4.57l-2.796-2.794c.025-.014.048-.024.073-.024.215-.06.431-.12.636-.204.131-.048.24-.108.36-.168.167-.096.348-.18.515-.288.12-.074.216-.156.325-.24.156-.12.312-.242.443-.372M23.311 55.395l-2.783 2.782V53.63c.048.06.096.108.144.17.096.108.192.204.287.3.144.13.288.252.444.37.108.086.204.168.325.242.167.108.348.192.527.288.11.06.23.12.348.168.204.084.421.144.636.202.025 0 .048.012.072.026M28.651 46.406v3.888c0 2.243-1.824 4.068-4.068 4.068-2.219 0-4.019-1.788-4.056-3.996v-3.96c1.284.36 2.652.575 4.056.575 1.416 0 2.772-.215 4.068-.575M39.524 28.058c.24-.372.887-1.428 1.62-2.916 1.236.768 2.015 2.124 2.015 3.612 0 2.148-1.608 3.912-3.683 4.188.023-.3.048-.6.048-.9v-3.984zM20.3 27.242c0-1.032-.636-1.872-1.417-1.872-.78 0-1.415.84-1.415 1.872 0 1.044.635 1.872 1.415 1.872.781 0 1.416-.828 1.416-1.872m9.792 10.344c.168-.288.073-.648-.216-.816-.288-.168-.659-.072-.828.216-.84 1.464-2.423 2.376-4.116 2.376-1.692 0-3.263-.912-4.115-2.376-.169-.288-.529-.384-.817-.216-.288.168-.383.528-.216.816 1.056 1.836 3.037 2.976 5.148 2.976 2.124 0 4.093-1.14 5.16-2.976M31.7 27.242c0-1.032-.624-1.872-1.416-1.872-.78 0-1.415.84-1.415 1.872 0 1.044.635 1.872 1.415 1.872.792 0 1.416-.828 1.416-1.872m-15-9.252c5.256 4.668 19.417 3.372 21.625 3.144v10.908c0 7.572-6.169 13.74-13.74 13.74-7.573 0-13.74-6.168-13.74-13.74v-3.936c2.172-2.292 3.755-6.264 4.607-11.616.324.54.732 1.044 1.248 1.5M9.643 32.042c0 .3.026.6.048.9-2.074-.276-3.684-2.04-3.684-4.188 0-1.572.888-3.012 2.258-3.744.634 1.548 1.2 2.664 1.378 3.024v4.008z" transform="translate(0 -1) translate(0 .985)"/>
            <path fill="#E9EBF2" d="M14.647 13.454c-.636 6.072-2.136 10.776-4.26 13.38-1.222-2.58-4.848-10.896-2.422-14.904.886-1.476 2.578-2.22 5.014-2.22.3 0 .564-.228.59-.528.01-.036.418-3.36 3.574-5.532 3.252-2.244 8.174-2.544 14.616-.888 5.376 1.38 8.81 3.936 10.214 7.596 2.086 5.436-.756 12.084-2.45 15.288v-5.172c0-.336-.264-.6-.6-.6-.084 0-.168.012-.25.048-.062-.012-.146-.024-.218-.012-.156.012-15.78 1.788-20.964-2.82-1.068-.948-1.596-2.088-1.596-3.468 0-.576 0-1.068-.574-1.104-.566-.024-.626.48-.674.936" transform="translate(0 -1) translate(0 .985)"/>
            <path fill="#4C5772" d="M30.284 25.37c.792 0 1.416.84 1.416 1.872 0 1.044-.624 1.872-1.416 1.872-.78 0-1.416-.828-1.416-1.872 0-1.032.636-1.872 1.416-1.872M19.784 37.586c-.168-.287-.074-.648.216-.816.288-.167.648-.071.816.216.852 1.465 2.424 2.376 4.116 2.376 1.692 0 3.276-.911 4.116-2.376.168-.287.54-.383.828-.216.288.168.382.529.216.816-1.068 1.836-3.036 2.976-5.16 2.976-2.112 0-4.092-1.14-5.148-2.976M18.884 25.37c.78 0 1.416.84 1.416 1.872 0 1.044-.636 1.872-1.416 1.872-.78 0-1.416-.828-1.416-1.872 0-1.032.636-1.872 1.416-1.872" transform="translate(0 -1) translate(0 .985)"/>
            <path fill="#4C5772" d="M10.843 32.042c0 7.572 6.168 13.74 13.74 13.74s13.74-6.168 13.74-13.74V21.134c-2.206.228-16.368 1.524-21.624-3.144-.516-.456-.924-.96-1.248-1.5-.852 5.352-2.434 9.324-4.608 11.616v3.936zm-3.9-20.736c1.044-1.74 2.904-2.676 5.532-2.784.242-1.14 1.116-3.876 3.96-5.844 3.552-2.46 8.808-2.82 15.624-1.08 5.772 1.488 9.48 4.284 11.028 8.328 1.872 4.884.204 10.428-1.44 14.136 1.656.96 2.712 2.736 2.712 4.692 0 2.856-2.208 5.172-5.004 5.4-.78 5.448-4.5 9.948-9.504 11.844v3.684l8.904-.108c5.58 0 10.116 4.524 10.116 10.104v6.624c0 .324-.276.6-.6.6-.336 0-.6-.276-.6-.6v-6.624c0-4.908-3.996-8.904-8.916-8.904l-8.904.12v15.408c0 .324-.264.6-.6.6-.324 0-.6-.276-.6-.6v-6.42l-1.428-1.428-1.654 1.644 1.21 6.204H22.4l1.2-6.204-1.656-1.644-1.416 1.416v6.432c0 .324-.276.6-.6.6-.336 0-.6-.276-.6-.6V50.894l-8.928-.12c-4.908 0-8.904 3.996-8.904 8.904v6.624c0 .324-.264.6-.6.6-.324 0-.6-.276-.6-.6v-6.624c0-5.58 4.536-10.104 10.116-10.104l8.916.108v-3.684c-5.016-1.884-8.736-6.396-9.516-11.844-2.794-.228-5.004-2.544-5.004-5.4 0-2.064 1.2-3.948 3.024-4.848-1.452-3.816-2.88-9.3-.888-12.6zm3.444 15.528c2.124-2.604 3.624-7.308 4.26-13.38.048-.456.108-.96.672-.936.576.036.576.528.576 1.104 0 1.38.528 2.52 1.596 3.468 5.184 4.608 20.808 2.832 20.964 2.82.072-.012.156 0 .216.012.084-.036.168-.048.252-.048.336 0 .6.264.6.6v5.172c1.694-3.204 4.536-9.852 2.448-15.288-1.402-3.66-4.836-6.216-10.212-7.596-6.442-1.656-11.364-1.356-14.616.888-3.156 2.172-3.564 5.496-3.574 5.532-.026.3-.29.528-.59.528-2.436 0-4.128.744-5.014 2.22-2.426 4.008 1.2 12.324 2.422 14.904zm-.696 6.108c-.022-.3-.048-.6-.048-.9v-4.008c-.178-.36-.744-1.476-1.378-3.024-1.37.732-2.258 2.172-2.258 3.744 0 2.148 1.61 3.912 3.684 4.188zm13.62 22.452c-.024-.012-.046-.024-.072-.024-.216-.06-.432-.12-.636-.204-.12-.048-.238-.108-.348-.168-.18-.096-.36-.18-.528-.288-.12-.072-.216-.156-.324-.24-.156-.12-.3-.24-.444-.372-.094-.096-.19-.192-.288-.3-.048-.06-.096-.108-.144-.168v4.548l2.784-2.784zm5.34-8.988c-1.296.36-2.652.576-4.068.576-1.404 0-2.772-.216-4.056-.576v3.96c.038 2.208 1.838 3.996 4.056 3.996 2.244 0 4.068-1.824 4.068-4.068v-3.888zm0 7.212c-.048.072-.108.12-.156.18-.096.108-.192.204-.288.3-.132.132-.288.252-.442.372-.11.084-.206.168-.326.24-.168.108-.348.192-.516.288-.12.06-.228.12-.358.168-.206.084-.422.144-.638.204-.024 0-.048.012-.072.024l2.796 2.796v-4.572zm12.492-28.476c-.732 1.488-1.378 2.544-1.62 2.916v3.984c0 .3-.024.6-.048.9 2.076-.276 3.684-2.04 3.684-4.188 0-1.488-.78-2.844-2.016-3.612z" transform="translate(0 -1) translate(0 .985)"/>
        </g>
    </g>
</svg>
