<svg xmlns="http://www.w3.org/2000/svg" width="31" height="27" viewBox="0 0 31 27">
    <g fill="none" fill-rule="evenodd">
        <path fill="#222" d="M22.701 19.072c-.371 0-.672-.302-.672-.672v-.669h.435c.32 0 .622-.064.909-.16v.83c0 .37-.301.671-.672.671zm-5.212-5.209H7.858c-.545 0-.987.441-.987.986v.91H2.882c-.501 0-.909-.409-.909-.91v-4.006c0-.195.064-.386.18-.542l2.124-2.426h16.792l2.124 2.426c.116.156.18.347.18.542v4.006c0 .501-.407.91-.909.91h-3.989v-.91c0-.545-.442-.986-.986-.986zm-8.645 3.188h7.658v-1.215H8.844v1.215zm-5.527 1.35c0 .37-.302.671-.672.671-.371 0-.672-.302-.672-.672v-.83c.288.097.589.161.909.161h.435v.67zM7.071 2.524c.165-.336.512-.552.885-.552h9.434c.379 0 .718.211.885.552l1.658 3.377H5.413l1.658-3.377zm18.276 8.318c0-.64-.218-1.27-.613-1.776-.011-.015-.023-.028-.035-.042L23.074 7.17l1.436-.712c.487-.242.687-.834.445-1.323-.242-.487-.833-.687-1.322-.445l-1.686.836-1.901-3.87C19.553.65 18.51 0 17.39 0H7.956C6.836 0 5.793.65 5.3 1.655L3.423 5.478 1.831 4.69C1.343 4.447.752 4.647.51 5.134c-.243.49-.043 1.081.445 1.323l1.354.671L.647 9.025l-.034.042C.218 9.572 0 10.202 0 10.843v4.006c0 .108.02.21.032.316-.009.053-.032.102-.032.158V18.4c0 1.46 1.186 2.646 2.645 2.646 1.458 0 2.645-1.187 2.645-2.646v-.669h1.581v.306c0 .545.442.986.987.986h9.631c.544 0 .986-.44.986-.986v-.306h1.581v.67c0 1.458 1.187 2.645 2.645 2.645s2.646-1.187 2.646-2.646v-3.077c0-.056-.023-.105-.033-.158.012-.106.033-.208.033-.316v-4.006z"/>
        <path fill="#222" d="M5.797 9.87c-.733 0-1.327.594-1.327 1.326 0 .734.594 1.327 1.327 1.327s1.327-.593 1.327-1.327c0-.732-.594-1.327-1.327-1.327M19.55 12.523c.732 0 1.326-.594 1.326-1.327S20.282 9.87 19.55 9.87s-1.327.594-1.327 1.327.594 1.327 1.327 1.327M16.474 9.932H8.871c-.226 0-.386.223-.314.438l.434 1.303c.157.47.597.787 1.092.787h5.18c.495 0 .935-.317 1.091-.788l.435-1.303c.072-.213-.088-.437-.315-.437"/>
        <path fill="#000222" d="M17.422 12.443h.003-.003zM22.291 14.048c-1.142 0-2.215.444-3.023 1.252-.807.808-1.252 1.88-1.252 3.022 0 1.143.445 2.216 1.252 3.024 1.667 1.666 4.38 1.666 6.046 0 .807-.808 1.252-1.881 1.252-3.024 0-1.141-.445-2.214-1.252-3.022-.808-.808-1.88-1.252-3.023-1.252"/>
        <path fill="#222" d="M30.024 24.66l-2.686-2.686c.77-1.058 1.201-2.318 1.201-3.652 0-1.668-.65-3.237-1.83-4.417-1.18-1.18-2.749-1.83-4.418-1.83s-3.238.65-4.418 1.83c-1.18 1.18-1.83 2.75-1.83 4.417 0 1.67.65 3.238 1.83 4.418 1.218 1.22 2.818 1.827 4.418 1.827 1.286 0 2.562-.413 3.65-1.2l2.687 2.688c.193.193.446.29.698.29.253 0 .505-.097.697-.29.386-.385.386-1.009.001-1.395"/>
        <path fill="#FFF" d="M19.207 15.236c1.704-1.703 4.465-1.703 6.169 0 1.704 1.704 1.704 4.466 0 6.17-1.704 1.703-4.465 1.703-6.17 0-1.703-1.704-1.703-4.466 0-6.17"/>
    </g>
</svg>
