<svg xmlns="http://www.w3.org/2000/svg" width="32" height="32" viewBox="0 0 32 32">
    <g fill="none" fill-rule="evenodd">
        <path fill="#FFDE00" d="M32 29.286c0 1.5-1.215 2.714-2.714 2.714H2.714C1.215 32 0 30.785 0 29.286V2.714C0 1.215 1.215 0 2.714 0h26.572C30.786 0 32 1.215 32 2.714v26.572z"/>
        <path fill="#3C2323" d="M15.78 4.773c-6.778 0-12.273 4.411-12.273 9.853 0 3.464 2.226 6.51 5.593 8.266L8.058 27.32c-.242.782-.035.817.552.498l5.152-3.471c.657.087 1.331.133 2.019.133 6.779 0 12.274-4.411 12.274-9.853S22.56 4.773 15.78 4.773"/>
        <path fill="#FFDE00" d="M23.059 14.674l1.756-1.795c.223-.229.23-.605.013-.842-.217-.236-.573-.242-.797-.014l-2.303 2.355v-1.945c0-.329-.252-.596-.564-.596-.31 0-.563.267-.563.596v3.226c-.021.092-.021.187 0 .28v1.815c0 .329.252.595.563.595.312 0 .564-.266.564-.595v-1.72l.51-.521 1.706 2.565c.11.165.284.253.462.253.112 0 .225-.035.323-.108.255-.19.316-.56.137-.83l-1.807-2.719zm-3.533 2.429h-1.743V12.45c0-.328-.253-.595-.564-.595-.311 0-.563.267-.563.595v5.247c0 .33.252.596.563.596h2.307c.312 0 .564-.267.564-.596 0-.328-.252-.595-.564-.595zm-6.995-1.377l.832-2.154.76 2.154h-1.592zm3.013.615l.002-.02c0-.156-.058-.297-.152-.403l-1.248-3.534c-.118-.353-.412-.587-.75-.597-.332-.01-.64.21-.78.563l-1.983 5.142c-.118.305.02.652.309.776.288.124.617-.022.735-.326l.395-1.025h2.472l.357 1.008c.084.24.3.387.528.387.065 0 .132-.012.197-.037.291-.115.44-.458.33-.766l-.412-1.168zm-3.967-3.883c0-.33-.252-.596-.563-.596H7.139c-.311 0-.564.267-.564.596 0 .328.253.595.564.595h1.386v4.714c0 .328.252.595.563.595.311 0 .564-.267.564-.595v-4.714h1.362c.311 0 .563-.267.563-.595z"/>
    </g>
</svg>
