<svg xmlns="http://www.w3.org/2000/svg" xmlns:xlink="http://www.w3.org/1999/xlink" width="44" height="54" viewBox="0 0 44 54">
    <defs>
        <path id="prefix__a" d="M0 0.386L43.159 0.386 43.159 54 0 54z"/>
        <path id="prefix__c" d="M0 54.614L43.159 54.614 43.159 1 0 1z"/>
    </defs>
    <g fill="none" fill-rule="evenodd" transform="translate(0 -1)">
        <g transform="translate(0 .614)">
            <mask id="prefix__b" fill="#fff">
                <use xlink:href="#prefix__a"/>
            </mask>
            <path fill="#E7E7E7" d="M36.688 44.98c0 3.83-3.115 6.945-6.944 6.945H13.415c-3.83 0-6.945-3.115-6.945-6.944V17.387c0-8.231 6.696-14.927 14.926-14.927h.366c8.23 0 14.926 6.696 14.926 14.927V44.98zm6.471-21.967l-4.406-5.98C38.564 7.824 31.018.386 21.763.386h-.367c-9.255 0-16.802 7.438-16.99 16.649L0 23.013l1.67 1.23 2.726-3.7v24.438c0 4.974 4.045 9.02 9.02 9.02h16.328c4.972 0 9.018-4.046 9.018-9.02V20.544l2.726 3.7 1.671-1.231z" mask="url(#prefix__b)"/>
        </g>
        <mask id="prefix__d" fill="#fff">
            <use xlink:href="#prefix__c"/>
        </mask>
        <path fill="#E7E7E7" d="M10.598 36.504L12.672 36.504 12.672 25.24 10.598 25.24zM30.487 36.504L32.562 36.504 32.562 25.24 30.487 25.24zM30.487 20.084H12.673v-2.453c0-4.563 3.712-8.276 8.274-8.276h1.265c4.563 0 8.275 3.713 8.275 8.276v2.453zM22.212 7.282h-1.265c-5.706 0-10.35 4.643-10.35 10.349v3.49c0 .574.466 1.038 1.038 1.038h19.889c.573 0 1.038-.464 1.038-1.037V17.63c0-5.707-4.643-10.35-10.35-10.35zM30.487 43.497c0 1.995-1.623 3.619-3.62 3.619H16.293c-1.996 0-3.62-1.624-3.62-3.62v-.43h17.815v.43zm1.037-2.505h-19.89c-.571 0-1.036.464-1.036 1.037v1.468c0 3.14 2.555 5.693 5.694 5.693h10.576c3.14 0 5.694-2.553 5.694-5.693v-1.468c0-.573-.465-1.037-1.038-1.037z" mask="url(#prefix__d)"/>
    </g>
</svg>
