<svg xmlns="http://www.w3.org/2000/svg" xmlns:xlink="http://www.w3.org/1999/xlink" width="36" height="36" viewBox="0 0 36 36">
    <defs>
        <path id="prefix__a" d="M0 0.1L25.391 0.1 25.391 9.637 0 9.637z"/>
    </defs>
    <g fill="none" fill-rule="evenodd">
        <path fill="#3F64C3" d="M17.62 20.324l-.027.024-2.126 2.126h-2.272v-2.947l2.716-2.71c.144-.141.187-.357.11-.544-.078-.187-.26-.308-.463-.308H9.832c-.203 0-.385.12-.463.308-.077.187-.034.403.11.545l2.716 2.709v2.947H9.923l-2.126-2.126-.025-.023C6.41 18.99 5.66 17.207 5.66 15.3c0-3.88 3.156-7.036 7.035-7.036 3.88 0 7.035 3.156 7.035 7.036 0 1.907-.749 3.69-2.11 5.024zm-3.367 6.77c0 .445-.362.806-.806.806h-1.504c-.445 0-.806-.361-.806-.806v-.56h3.116v.56zm-4.037-1.56h4.958v-2.06h-4.958v2.06zm2.48-6.92l-1.655-1.65h3.308l-1.654 1.65zm0-11.35c-4.43 0-8.036 3.605-8.036 8.036 0 2.188.864 4.234 2.434 5.76l.015.015 2.107 2.106v2.853c0 .275.224.5.5.5h.421v.56c0 .996.81 1.806 1.806 1.806h1.504c.996 0 1.806-.81 1.806-1.806v-.56h.421c.276 0 .5-.225.5-.5V23.18l2.106-2.105.016-.016c1.57-1.525 2.434-3.572 2.434-5.76 0-4.431-3.604-8.036-8.035-8.036z" transform="translate(5 3)"/>
        <g transform="translate(5 3) translate(0 .9)">
            <mask id="prefix__b" fill="#fff">
                <use xlink:href="#prefix__a"/>
            </mask>
            <path fill="#E6174B" d="M0 7.72l3.321 1.917.5-.866-3.32-1.917-.5.866zm5.08-5.445l1.916 3.32.866-.5-1.917-3.32-.866.5zM24.89 6.854L21.57 8.77l.5.866 3.322-1.917-.5-.866zm-7.363-1.758l.867.5 1.917-3.321-.867-.5-1.917 3.32zm-5.333-1.161h1V.1h-1v3.835z" mask="url(#prefix__b)"/>
        </g>
    </g>
</svg>
