<svg xmlns="http://www.w3.org/2000/svg" xmlns:xlink="http://www.w3.org/1999/xlink" width="36" height="36" viewBox="0 0 36 36">
    <defs>
        <path id="prefix__a" d="M0 0.603L27.358 0.603 27.358 27 0 27z"/>
    </defs>
    <g fill="none" fill-rule="evenodd">
        <path fill="#E6174B" d="M13.68 6.09c-1.465 0-2.657 1.191-2.657 2.655 0 1.465 1.192 2.657 2.656 2.657 1.464 0 2.656-1.192 2.656-2.657 0-1.464-1.192-2.655-2.656-2.655m0 6.312c-2.016 0-3.656-1.64-3.656-3.657 0-2.015 1.64-3.655 3.656-3.655s3.656 1.64 3.656 3.655c0 2.016-1.64 3.657-3.656 3.657" transform="translate(4 4)"/>
        <g transform="translate(4 4) translate(0 .398)">
            <mask id="prefix__b" fill="#fff">
                <use xlink:href="#prefix__a"/>
            </mask>
            <path fill="#3F64C3" d="M25.964 25.228c-.384.498-1.007.772-1.753.772H3.148c-.746 0-1.37-.274-1.753-.772-.384-.498-.492-1.17-.303-1.892l1.89-7.212c.408-1.553 1.637-2.917 2.63-2.917h1.976l5.669 8.965c.09.146.25.234.422.234s.33-.088.423-.234l5.669-8.965h1.975c.994 0 2.222 1.364 2.63 2.917l1.89 7.212c.189.722.082 1.394-.302 1.892M13.679 1.603c3.72 0 6.746 3.025 6.746 6.745 0 1.243-.341 2.458-.987 3.514l-.007.012-5.752 9.096-5.751-9.096c-.003-.003-.005-.008-.007-.012-.646-1.056-.987-2.271-.987-3.514 0-3.72 3.026-6.745 6.745-6.745m13.555 21.48l-1.891-7.211c-.538-2.055-2.118-3.665-3.597-3.665H20.39c.675-1.17 1.034-2.5 1.034-3.86 0-4.27-3.475-7.744-7.746-7.744-4.271 0-7.745 3.475-7.745 7.745 0 1.359.359 2.689 1.033 3.859H5.612c-1.478 0-3.058 1.61-3.597 3.665l-1.89 7.21c-.27 1.03-.1 2.008.478 2.757.578.749 1.482 1.16 2.545 1.16H24.21c1.063 0 1.967-.411 2.545-1.16.577-.75.747-1.727.478-2.756" mask="url(#prefix__b)"/>
        </g>
    </g>
</svg>
