<svg xmlns="http://www.w3.org/2000/svg" xmlns:xlink="http://www.w3.org/1999/xlink" width="18" height="17" viewBox="0 0 18 17">
    <defs>
        <path id="prefix__a" d="M0.001 0.001L17.411 0.001 17.411 16.885 0.001 16.885z"/>
    </defs>
    <g fill="none" fill-rule="evenodd">
        <mask id="prefix__b" fill="#fff">
            <use xlink:href="#prefix__a"/>
        </mask>
        <path fill="#222" d="M4.368 5.464c.003-2.395 1.942-4.335 4.338-4.34 2.394.004 4.336 1.944 4.339 4.34-.003 2.395-1.945 4.336-4.34 4.339-2.395-.004-4.334-1.944-4.337-4.34m7.014 4.759c1.66-.938 2.787-2.718 2.787-4.758C14.169 2.45 11.719 0 8.706 0h-.001C5.694 0 3.243 2.45 3.243 5.464c.002 1.973 1.067 3.79 2.787 4.758-3.068.965-5.375 3.514-6.03 6.663h1.153c.836-3.493 3.959-5.958 7.552-5.957v-.001h.002c3.593 0 6.717 2.465 7.552 5.958h1.153c-.655-3.15-2.962-5.698-6.03-6.663" mask="url(#prefix__b)"/>
    </g>
</svg>
