<svg xmlns="http://www.w3.org/2000/svg" xmlns:xlink="http://www.w3.org/1999/xlink" width="24" height="24" viewBox="0 0 24 24">
    <defs>
        <path id="prefix__a" d="M0 0L10.8 0 10.8 6.699 0 6.699z"/>
    </defs>
    <g fill="none" fill-rule="evenodd">
        <rect width="24" height="24" fill="#3F64C3" rx="12"/>
        <g transform="translate(6.6 8.4)">
            <mask id="prefix__b" fill="#fff">
                <use xlink:href="#prefix__a"/>
            </mask>
            <path fill="#FFF" d="M8.277 0H2.09l-.041.32c-.072.558.339 1.207 1.733 1.207h3.406c1.015 0 .998.234.857.811l-.697 2.846H3.337c-.292 0-.764-.074-.643-.568.124-.506.628-.614 1.029-.614h2.409l1.462-1.506h-3.86c-2.84 0-3.512 1.497-3.668 2.14C-.241 5.89.546 6.7 2.07 6.7h6.604c.621 0 .994-.288 1.138-.877l.887-3.62C11.147.372 10.055 0 8.277 0" mask="url(#prefix__b)"/>
        </g>
    </g>
</svg>
