<svg xmlns="http://www.w3.org/2000/svg" width="22" height="23" viewBox="0 0 22 23">
    <path fill="#777" fill-rule="evenodd" d="M17.849 20.531c-1.333 0-2.417-1.084-2.417-2.417 0-1.333 1.084-2.417 2.417-2.417 1.333 0 2.417 1.084 2.417 2.417 0 1.333-1.084 2.417-2.417 2.417M3.917 13.433c-1.333 0-2.417-1.085-2.417-2.418 0-1.333 1.084-2.417 2.417-2.417 1.333 0 2.417 1.084 2.417 2.417 0 1.333-1.084 2.418-2.417 2.418M17.849 1.5c1.333 0 2.417 1.084 2.417 2.417 0 1.333-1.084 2.418-2.417 2.418-1.333 0-2.417-1.085-2.417-2.418 0-1.333 1.084-2.417 2.417-2.417m0 12.697c-1.25 0-2.351.599-3.069 1.513l-7.113-3.624c.098-.343.167-.698.167-1.071s-.069-.726-.167-1.069l7.113-3.624c.718.914 1.82 1.513 3.069 1.513 2.16 0 3.917-1.758 3.917-3.918S20.009 0 17.849 0s-3.917 1.757-3.917 3.917c0 .373.069.727.167 1.069L6.986 8.611c-.718-.914-1.82-1.513-3.069-1.513C1.757 7.098 0 8.855 0 11.015c0 2.161 1.757 3.918 3.917 3.918 1.249 0 2.351-.598 3.069-1.512l7.113 3.625c-.098.341-.167.695-.167 1.068 0 2.16 1.757 3.917 3.917 3.917s3.917-1.757 3.917-3.917-1.757-3.917-3.917-3.917"/>
</svg>
