<svg xmlns="http://www.w3.org/2000/svg" xmlns:xlink="http://www.w3.org/1999/xlink" width="38" height="16" viewBox="0 0 38 16">
    <defs>
        <path id="prefix__a" d="M0 0L38 0 38 16 0 16z"/>
    </defs>
    <g fill="none" fill-rule="evenodd" transform="matrix(-1 0 0 1 38 0)">
        <mask id="prefix__b" fill="#fff">
            <use xlink:href="#prefix__a"/>
        </mask>
        <path fill="#fff" d="M33.451 12.582c-.023 1.04-.869 1.877-1.913 1.877-1.041 0-1.886-.836-1.91-1.877 0-.015-.003-.029-.003-.043 0-1.061.857-1.92 1.913-1.92 1.06 0 1.918.859 1.918 1.92 0 .014-.005.028-.005.043m-1.913-3.503c-1.906 0-3.45 1.549-3.45 3.46l.001.043c.024 1.89 1.557 3.418 3.45 3.418 1.892 0 3.425-1.527 3.449-3.418l.002-.043c0-1.911-1.545-3.46-3.452-3.46M9.871 12.582c-.024 1.04-.87 1.877-1.912 1.877-1.043 0-1.888-.836-1.911-1.877 0-.015-.005-.029-.005-.043 0-1.061.859-1.92 1.916-1.92 1.058 0 1.916.859 1.916 1.92 0 .014-.004.028-.004.043M7.959 9.079c-1.908 0-3.453 1.549-3.453 3.46l.002.04C4.53 14.47 6.065 16 7.958 16c1.891 0 3.426-1.527 3.45-3.418l.002-.043c0-1.911-1.546-3.46-3.451-3.46M25.08 4.864h-5.808c-.263 0-.521-.209-.577-.467l-.495-2.27c-.056-.258.11-.436.37-.395 1.282.209 2.432.518 3.295.905 1.289.581 2.474 1.35 3.306 1.946.213.153.171.281-.091.281m-8.424 0H9.395c-.263 0-.524-.209-.585-.465l-.13-.562c-.06-.257.059-.598.27-.752.994-.725 2.226-1.38 3.564-1.53.733-.082 1.515-.123 2.324-.123.362 0 .724.01 1.084.029.263.012.521.236.577.493l.533 2.443c.055.258-.112.467-.375.467M33.495 5.94c-2.929-.853-6.184-1.513-6.184-1.513s-2.199-1.896-4.86-3.095C20.543.472 17.635 0 14.838 0c-.848 0-1.686.044-2.484.132-3.973.445-6.936 3.874-6.936 3.874l-4.599.68C.24 4.918 0 5.466 0 5.846v4.734c0 .773.159 1.335 1.436 1.663.73.188 1.626.273 2.358.31l-.001-.014c0-2.303 1.868-4.176 4.166-4.176 2.296 0 4.164 1.873 4.164 4.176l-.002.043h15.255l-.002-.043c0-2.303 1.868-4.176 4.164-4.176 2.297 0 4.166 1.873 4.166 4.176l-.002.043h1.353c.836 0 .945-.576.945-.958V9.496c0-1.354-1.326-2.63-4.505-3.556" mask="url(#prefix__b)"/>
    </g>
</svg>
