<svg xmlns="http://www.w3.org/2000/svg" xmlns:xlink="http://www.w3.org/1999/xlink" width="36" height="36" viewBox="0 0 36 36">
    <defs>
        <path id="prefix__a" d="M0 0.001L27.861 0.001 27.861 25.921 0 25.921z"/>
    </defs>
    <g fill="none" fill-rule="evenodd" transform="translate(4 5)">
        <mask id="prefix__b" fill="#fff">
            <use xlink:href="#prefix__a"/>
        </mask>
        <path fill="#AAA" d="M11.275 17.77h5.311v-1h-5.311v1zm12.242.791l-4.182-1.293c-.089-.027-.19-.163-.19-.256v-.343c0-.037.032-.067.067-.067h4.239c.036 0 .067.03.067.067l-.001 1.892zm-.066-2.96h-4.239c-.588 0-1.067.48-1.067 1.068v.343c0 .532.385 1.053.894 1.212l4.29 1.325c.1.032.201.047.3.047.192 0 .375-.058.527-.17.23-.17.362-.444.362-.753v-2.004c0-.588-.479-1.068-1.067-1.068zm2.21-2.348c-.371-.45-.829-.828-1.347-1.105l.034-.02-.422-.776h1.651c.852 0 1.284.287 1.284.854 0 .104-.216.678-1.2 1.048zm.015 5.611c0 1.912-1.556 3.468-3.469 3.468H5.653c-1.912 0-3.469-1.556-3.469-3.468v-2.777c0-1.912 1.557-3.47 3.469-3.47h16.554c1.913 0 3.469 1.557 3.469 3.47v2.777zm-2.464 5.79c0 .145-.122.267-.266.267h-1.914c-.144 0-.266-.122-.266-.267v-1.322h1.441c.346 0 .682-.04 1.005-.114v1.436zm-16.118 0c0 .145-.122.267-.265.267H4.914c-.144 0-.265-.122-.265-.267v-1.436c.323.075.659.114 1.004.114h1.441v1.322zM1 12.206c0-.566.432-.854 1.284-.854h1.65l-.421.777.033.019c-.518.277-.975.655-1.346 1.106-.985-.37-1.2-.944-1.2-1.048zm26.861 0c0-.896-.6-1.854-2.284-1.854h-2.194l-1.772-3.264c-.474-.872-1.35-1.756-2.109-1.756h-.857v1h.857c.168.002.789.423 1.23 1.234l2.237 4.119c-.248-.043-.502-.068-.762-.068H5.653c-.26 0-.513.024-.762.067l2.237-4.117c.441-.813 1.062-1.234 1.23-1.235h.857v-1h-.857c-.758 0-1.634.885-2.108 1.756l-1.773 3.264H2.284C.6 10.352 0 11.31 0 12.206c0 .603.52 1.41 1.648 1.902-.296.596-.464 1.268-.464 1.979v2.777c0 1.744 1.005 3.256 2.465 3.992v1.798c0 .7.567 1.267 1.265 1.267h1.915c.697 0 1.265-.567 1.265-1.267v-1.322h11.672v1.322c0 .7.568 1.267 1.266 1.267h1.914c.698 0 1.266-.567 1.266-1.267v-1.797c1.46-.736 2.464-2.248 2.464-3.992v-2.778c0-.71-.167-1.383-.464-1.98 1.128-.49 1.649-1.298 1.649-1.901zM8.715 17.012c0 .093-.101.229-.189.256l-4.183 1.293v-1.892c0-.037.031-.067.067-.067h4.238c.036 0 .067.03.067.067v.343zm-.067-1.41H4.41c-.589 0-1.067.479-1.067 1.067v2.003c0 .31.132.584.362.753.152.113.335.17.527.17.098 0 .2-.014.3-.046l4.289-1.325c.51-.159.894-.68.894-1.212v-.343c0-.588-.478-1.068-1.067-1.068zm1.772-8.286l.565.567 1.444-1.444-.566-.566-1.443 1.443zm2.009-5.011L10.985.86l-.565.568 1.443 1.442.566-.566zM9.738 4.771h2.041v-.8H9.738v.8zm3.792 3.793h.8V6.524h-.8v2.04zm3.911-7.137L16.875.86l-1.443 1.444.566.564 1.443-1.442zm-3.911.613h.8V-.001h-.8v2.042zm1.902 4.398l1.443 1.444.566-.567-1.443-1.442-.566.566zm-1.501-2.942c.482 0 .875.393.875.875 0 .484-.393.875-.875.875-.483 0-.876-.391-.876-.875 0-.482.393-.875.876-.875zm0 2.55c.923 0 1.675-.752 1.675-1.675 0-.925-.752-1.676-1.675-1.676-.925 0-1.676.751-1.676 1.675s.751 1.676 1.676 1.676zm2.15-1.274h2.041v-.8h-2.041v.8z" mask="url(#prefix__b)"/>
    </g>
</svg>
