<svg xmlns="http://www.w3.org/2000/svg" xmlns:xlink="http://www.w3.org/1999/xlink" width="36" height="36" viewBox="0 0 36 36">
    <defs>
        <path id="prefix__a" d="M0 0.324L18.243 0.324 18.243 23 0 23z"/>
    </defs>
    <g fill="none" fill-rule="evenodd">
        <g transform="translate(3 6) translate(0 .676)">
            <mask id="prefix__b" fill="#fff">
                <use xlink:href="#prefix__a"/>
            </mask>
            <path fill="#3F64C3" d="M8.764 22c-2.035 0-3.689-1.654-3.689-3.688 0-2.036 1.654-3.69 3.69-3.69 2.033 0 3.688 1.654 3.688 3.69 0 2.034-1.655 3.688-3.689 3.688zM4.637 6.672V1.324h.8c1.727 0 2.832.579 3.473 1.822.373.719 1.403 2.446 2.055 3.526H4.637zm9.138 0h-1.64c-.56-.923-1.915-3.171-2.336-3.985C8.99 1.119 7.521.324 5.436.324H0v1h3.637v5.348H0v1h13.775c1.912 0 3.468 1.556 3.468 3.468v3.968c0 1.913-1.556 3.469-3.468 3.469h-.33c.005-.088.008-.177.008-.265 0-2.586-2.104-4.69-4.689-4.69-2.586 0-4.689 2.104-4.689 4.69 0 .088.002.177.007.265H0v1h4.25C4.803 21.55 6.616 23 8.763 23c2.147 0 3.96-1.45 4.514-3.423h.497c2.464 0 4.468-2.005 4.468-4.47V11.14c0-2.464-2.004-4.468-4.468-4.468zM.628 10.798h3.51v-1H.627v1z" mask="url(#prefix__b)"/>
        </g>
        <path fill="#E6174B" d="M20.599 13.825l5.647 5.099c1.154-1.446 1.784-3.238 1.784-5.099 0-1.862-.63-3.654-1.784-5.099l-5.647 5.099zm5.694 6.315c-.12 0-.239-.043-.335-.128l-6.44-5.816c-.105-.095-.165-.229-.165-.371s.06-.276.165-.371l6.44-5.816c.205-.184.521-.168.706.037 1.526 1.688 2.366 3.873 2.366 6.15s-.84 4.462-2.366 6.15c-.099.11-.235.165-.371.165z" transform="translate(3 6)"/>
    </g>
</svg>
