<svg xmlns="http://www.w3.org/2000/svg" xmlns:xlink="http://www.w3.org/1999/xlink" width="36" height="36" viewBox="0 0 36 36">
    <defs>
        <path id="prefix__a" d="M0 0.412L27.86 0.412 27.86 21 0 21z"/>
    </defs>
    <g fill="none" fill-rule="evenodd">
        <path fill="#E6174B" d="M12.429 2.305L10.986.862l-.566.565 1.444 1.443.565-.565zm3.003 4.135l1.444 1.443.565-.566-1.443-1.443-.566.566zM9.739 4.772h2.04v-.8H9.74v.8zm6.343 0h2.04v-.8h-2.04v.8zM10.42 7.317l.566.566 1.443-1.443-.565-.566-1.444 1.443zm7.02-5.89l-.564-.565-1.444 1.443.566.565 1.443-1.443zm-3.91 7.137h.8V6.523h-.8v2.04zm0-6.523h.8V0h-.8v2.04zm.4 3.206c-.482 0-.875-.392-.875-.875s.393-.876.876-.876c.482 0 .875.393.875.876s-.393.875-.875.875zm0-2.55c-.923 0-1.675.752-1.675 1.675 0 .924.752 1.676 1.676 1.676.924 0 1.675-.752 1.675-1.676 0-.923-.751-1.675-1.675-1.675z" transform="translate(4 5)"/>
        <g transform="translate(4 5) translate(0 4.92)">
            <mask id="prefix__b" fill="#fff">
                <use xlink:href="#prefix__a"/>
            </mask>
            <path fill="#3F64C3" d="M25.66 8.333c-.37-.45-.828-.829-1.346-1.107l.035-.019-.422-.776h1.65c.851 0 1.283.287 1.283.853 0 .105-.215.678-1.2 1.05zm.015 5.61c0 1.913-1.556 3.47-3.468 3.47H5.654c-1.913 0-3.47-1.557-3.47-3.47v-2.777c0-1.913 1.556-3.469 3.47-3.469h16.553c1.912 0 3.468 1.556 3.468 3.47v2.776zm-2.463 5.791c0 .144-.122.266-.265.266h-1.915c-.143 0-.265-.122-.265-.266v-1.322h1.44c.345 0 .681-.04 1.005-.115v1.437zm-16.119 0c0 .144-.12.266-.264.266H4.913c-.143 0-.265-.122-.265-.266v-1.437c.324.074.659.115 1.005.115h1.44v1.322zM1 7.284c0-.566.431-.853 1.284-.853h1.65l-.421.777.034.02c-.518.276-.977.654-1.347 1.105C1.216 7.963 1 7.39 1 7.284zm26.86 0c0-.895-.6-1.853-2.284-1.853h-2.192L21.61 2.168c-.473-.873-1.35-1.756-2.107-1.756h-.858v1h.858c.168.001.788.422 1.23 1.234l2.235 4.118c-.247-.043-.5-.067-.76-.067H5.654c-.26 0-.514.024-.763.067l2.237-4.118c.441-.812 1.063-1.233 1.23-1.234h.857v-1h-.857c-.759 0-1.635.883-2.109 1.756L4.479 5.431H2.284c-1.686 0-2.286.958-2.286 1.853 0 .604.521 1.412 1.65 1.903-.298.596-.464 1.268-.464 1.98v2.776c0 1.745 1.003 3.256 2.463 3.993v1.798c0 .698.568 1.266 1.265 1.266h1.915c.699 0 1.266-.568 1.266-1.266v-1.322h11.673v1.322c0 .698.567 1.266 1.265 1.266h1.915c.697 0 1.265-.568 1.265-1.266v-1.798c1.46-.737 2.463-2.248 2.463-3.993v-2.777c0-.71-.166-1.383-.463-1.979 1.128-.492 1.648-1.299 1.648-1.903zM11.275 12.85h5.31v-1h-5.31v1zm12.242.79l-4.183-1.293c-.087-.028-.189-.164-.189-.257v-.342c0-.036.032-.067.067-.067h4.24c.034 0 .065.031.065.067v1.892zm-.066-2.959h-4.239c-.588 0-1.067.478-1.067 1.067v.342c0 .533.384 1.055.895 1.213l4.288 1.325c.102.031.203.047.3.047.192 0 .375-.058.527-.17.23-.17.362-.444.362-.754v-2.003c0-.589-.477-1.067-1.066-1.067zm-14.736 1.41c0 .092-.1.228-.19.256L4.342 13.64v-1.892c0-.036.032-.067.068-.067h4.239c.035 0 .067.031.067.067v.342zm-.066-1.41h-4.24c-.587 0-1.067.478-1.067 1.067v2.003c0 .31.132.584.362.754.152.112.336.17.527.17.1 0 .2-.016.3-.047l4.29-1.325c.51-.158.895-.68.895-1.213v-.342c0-.589-.48-1.067-1.067-1.067z" mask="url(#prefix__b)"/>
        </g>
    </g>
</svg>
