<svg xmlns="http://www.w3.org/2000/svg" xmlns:xlink="http://www.w3.org/1999/xlink" width="55" height="30" viewBox="0 0 55 30">
    <defs>
        <path id="prefix__a" d="M0 0L54.973 0 54.973 29.363 0 29.363z"/>
    </defs>
    <g fill="none" fill-rule="evenodd">
        <mask id="prefix__b" fill="#fff">
            <use xlink:href="#prefix__a"/>
        </mask>
        <path fill="#E7E7E7" d="M49.352 14.094v4.972c0 2.168-1.763 3.932-3.931 3.934-.042-3.429-2.841-6.208-6.281-6.208-3.44 0-6.24 2.779-6.282 6.208H21.867c-.042-3.429-2.842-6.208-6.282-6.208S9.345 19.571 9.304 23H7.178c-5.103 0-5.103-1.568-5.103-2.084v-1.251l5.563-1.784c.775-.266 1.359-1.112 1.359-1.97v-.461c0-.993-.774-1.8-1.726-1.8H3.423c2.32-2.383 6.99-3.491 8.724-3.491h33.27c2.17 0 3.935 1.765 3.935 3.935zM39.14 27.289c-2.322 0-4.211-1.889-4.211-4.212 0-2.321 1.889-4.211 4.21-4.211 2.323 0 4.212 1.89 4.212 4.211 0 2.323-1.89 4.212-4.211 4.212zm-23.555 0c-2.322 0-4.211-1.889-4.211-4.212 0-2.321 1.889-4.211 4.21-4.211 2.323 0 4.213 1.89 4.213 4.211 0 2.323-1.89 4.212-4.212 4.212zM2.44 15.725h4.483v.173c-.001.009-.01.026-.017.04l-4.692 1.505.226-1.718zM18.519 5.321c.903-.904 3.807-3.247 6.338-3.247l4.108.113v5.898H16.49c.447-.824 1.112-1.847 2.029-2.764zm21.859-1.054c.405.782 1.415 2.49 2.212 3.818H31.04V2.207h5.35c2.62 0 3.53 1.176 3.988 2.06zm9.953-1.483h4.642V.71H50.33c-1.465 0-2.798.806-3.477 2.102l-2.342 4.443c-.801-1.331-1.89-3.164-2.29-3.94C41.13 1.203 39.169.133 36.39.133h-6.618L24.885 0c-3.934 0-7.676 3.696-7.833 3.854-1.503 1.502-2.418 3.208-2.88 4.231h-2.025C8.69 8.085 0 10.635 0 16.657v4.259c0 2.76 2.415 4.158 7.178 4.158h2.449v-.009c.834 2.494 3.187 4.299 5.958 4.299 2.767 0 5.118-1.8 5.955-4.29h11.645c.837 2.49 3.188 4.29 5.955 4.29s5.118-1.8 5.955-4.29h.322c3.314 0 6.009-2.695 6.009-6.008v-4.972c0-2.986-2.192-5.464-5.05-5.925l2.315-4.392c.32-.613.949-.993 1.64-.993z" mask="url(#prefix__b)"/>
    </g>
</svg>
