<svg xmlns="http://www.w3.org/2000/svg" xmlns:xlink="http://www.w3.org/1999/xlink" width="44" height="44" viewBox="0 0 44 44">
    <defs>
        <path id="prefix__a" d="M0 0.437L43.563 0.437 43.563 44 0 44z"/>
        <path id="prefix__c" d="M0 44.563L43.563 44.563 43.563 1 0 1z"/>
    </defs>
    <g fill="none" fill-rule="evenodd" transform="translate(0 -1)">
        <g transform="translate(0 .563)">
            <mask id="prefix__b" fill="#fff">
                <use xlink:href="#prefix__a"/>
            </mask>
            <path fill="#E7E7E7" d="M21.781 41.925c-10.866 0-19.707-8.84-19.707-19.707 0-10.866 8.841-19.707 19.707-19.707 10.867 0 19.708 8.841 19.708 19.707 0 10.867-8.84 19.707-19.708 19.707m0-41.488C9.771.437.001 10.208.001 22.218 0 34.23 9.77 44 21.78 44c12.01 0 21.782-9.77 21.782-21.782 0-12.01-9.772-21.78-21.782-21.78" mask="url(#prefix__b)"/>
        </g>
        <path fill="#E7E7E7" d="M21.828 20.73c-.016 0-.03-.005-.046-.005-1.134 0-2.056.922-2.056 2.056s.922 2.055 2.056 2.055c1.133 0 2.055-.92 2.055-2.055 0-.347-.094-.668-.246-.955l6.44-9.593-1.721-1.156-6.482 9.653zM4.002 27.99L4.678 29.952 8.451 28.652 7.775 26.691z"/>
        <mask id="prefix__d" fill="#fff">
            <use xlink:href="#prefix__c"/>
        </mask>
        <path fill="#E7E7E7" d="M3.362 24.346L7.546 24.346 7.546 22.271 3.362 22.271zM3.958 18.534L8.016 19.813 8.64 17.835 4.582 16.556zM10.945 14.026L7.516 11.477 6.279 13.142 9.709 15.691zM14.296 11.106L11.818 7.686 10.138 8.904 12.616 12.323zM18.381 9.389L17.122 5.341 15.14 5.957 16.399 10.005zM20.742 8.949L22.817 8.949 22.817 4.758 20.742 4.758zM35.113 28.652L38.886 29.952 39.562 27.99 35.788 26.691zM36.018 24.347L40.202 24.347 40.202 22.272 36.018 22.272zM39.605 18.534L38.981 16.556 34.923 17.835 35.547 19.813zM36.048 11.477L32.618 14.027 33.856 15.691 37.285 13.143zM31.745 7.686L29.268 11.107 30.948 12.323 33.425 8.905zM28.422 5.957L26.442 5.341 25.183 9.39 27.165 10.005zM14.527 32.098L29.036 32.098 29.036 30.024 14.527 30.024zM21.781 12.35c1.41 0 2.774.276 4.061.82l.807-1.912c-1.543-.651-3.18-.982-4.868-.982-6.896 0-12.505 5.61-12.505 12.506 0 1.965.443 3.846 1.317 5.591l1.855-.928c-.729-1.454-1.098-3.024-1.098-4.663 0-5.752 4.68-10.431 10.431-10.431" mask="url(#prefix__d)"/>
    </g>
</svg>
