<svg xmlns="http://www.w3.org/2000/svg" xmlns:xlink="http://www.w3.org/1999/xlink" width="120" height="23" viewBox="0 0 120 23">
    <defs>
        <path id="a" d="M0 .433h61.783v15.54H0z"/>
        <path id="c" d="M.383.119h5.71v12.213H.384z"/>
        <path id="e" d="M.389.119H6.1v12.213H.389z"/>
    </defs>
    <g fill="none" fill-rule="evenodd">
        <path fill="#004F9E" d="M64.141 17.367l-.478 1.918-.053.217c-.19.755-.562 1.301-1.65 1.301h-3.207c-1.123 0-1.126-.614-.987-1.174l.09-.361.461-1.847c.19-.754.49-1.411 1.578-1.411h3.37c1.143 0 1.064.602.876 1.357m.837-3.357H39.453l-1.431 5.722c-.188.757-.32 1.064-1.69 1.064h-2.96c-1.37 0-1.35-.307-1.16-1.064l1.428-5.722h-2.295c-.84 0-1.341.374-1.535 1.148l-1.184 4.752c-.511 2.043.419 2.881 3.211 2.894h4.96c2.402 0 4.125-.491 4.724-2.894l.951-3.817h4.494c-.144.576-1.41 5.568-1.412 5.575-.02.088-.105.506.16.822.181.208.466.314.853.314h.977c.387 0 .726-.106 1.01-.317.423-.313.548-.736.572-.828.001-.006 1.264-4.99 1.407-5.566h4.632c-.099.24-.185.506-.258.803l-.723 2.895c-.556 2.224.482 3.013 2.84 3.013l5.524.002c2.61 0 3.924-.584 4.58-3.212l.633-2.533c.518-2.077.098-3.051-2.783-3.051"/>
        <g transform="translate(0 .042)">
            <mask id="b" fill="#fff">
                <use xlink:href="#a"/>
            </mask>
            <path fill="#004F9E" d="M46.957.433c-8.192 0-11.954 1.549-14.398 3.093-2.442 1.543-5.047 3.33-8.165 3.518-3.373.202-8.03.208-11.362.844C5.51 9.318 1.36 13.518.274 15.463a5.064 5.064 0 0 0-.274.51h6.326c1.208-1.677 3.202-3.926 6.617-4.754 4.569-1.112 9.715-.477 12.204-.874 2.152-.396 3.931-1.186 6.818-3.248 3.045-2.175 5.574-3.765 10.882-4.284 6.119-.6 18.641-.505 18.641-.505l.295-1.171S48.728.433 46.957.433" mask="url(#b)"/>
        </g>
        <path fill="#004F9E" d="M24.285 14.01h-8.362l-.055.422c-.094.73.463 1.583 2.346 1.583h4.603c1.372 0 1.35.307 1.162 1.065l-.932 3.736h-5.423c-.393 0-1.032-.097-.87-.745.167-.665.846-.806 1.388-.806h3.256l1.971-1.977h-5.218c-3.836 0-4.74 1.964-4.95 2.81-.41 1.645.657 2.706 2.718 2.706h8.925c.84 0 1.343-.377 1.536-1.15l1.186-4.752c.6-2.404-.877-2.892-3.28-2.892"/>
        <path fill="#0094DA" d="M77.627 21.564H74.06c-.671 0-1.131-.17-1.408-.524-.35-.447-.263-1.01-.166-1.393l1.096-4.396h5.494c.65 0 1.09.162 1.35.494.386.49.214 1.176.101 1.628l-.592 2.374c-.193.781-.646 1.817-2.308 1.817zm-8.174-1.495c-.235.944-.193 1.604.13 2.018.38.485 1.214.719 2.549.719l6.146.002c2.641 0 3.935-.46 4.619-3.2l.7-2.817c.276-1.097.322-1.687-.03-2.131-.419-.528-.851-.65-2.25-.65h-7.39l.683-2.768s.072-.292-.078-.469c-.126-.147-.38-.178-.57-.178h-1.089c-.322 0-.6.085-.83.256-.345.256-.442.6-.45.639l-2.14 8.579z"/>
        <g transform="translate(99.605 10.476)">
            <mask id="d" fill="#fff">
                <use xlink:href="#c"/>
            </mask>
            <path fill="#0094DA" d="M4.343.119c-.322 0-.603.085-.831.256-.347.257-.44.6-.449.636L.402 11.681c-.003.011-.072.3.076.474.125.147.38.177.572.177h1.087c.322 0 .601-.085.831-.255.355-.264.447-.63.45-.645L6.076.782c0-.007.075-.307-.074-.485C5.874.15 5.62.12 5.429.12H4.343z" mask="url(#d)"/>
        </g>
        <g transform="translate(105.296 10.476)">
            <mask id="f" fill="#fff">
                <use xlink:href="#e"/>
            </mask>
            <path fill="#0094DA" d="M4.348.119c-.321 0-.6.085-.83.256-.346.256-.44.6-.45.638L.408 11.682c-.003.011-.074.298.077.473.124.147.379.177.57.177h1.089c.321 0 .6-.085.828-.255.357-.264.449-.627.453-.643L6.08.781c.004-.014.076-.307-.074-.484C5.881.15 5.626.12 5.436.12H4.348z" mask="url(#f)"/>
        </g>
        <path fill="#0094DA" d="M99.04 14.822c-.41-.524-1.233-.812-2.317-.812h-6.602c-2.58 0-3.834.408-4.441 2.838l-.835 3.354c-.215.86-.175 1.467.127 1.853.407.52 1.346.753 3.042.753h8.869l.007-.047a.783.783 0 0 0-.197-.633c-.323-.367-1.007-.568-1.928-.568h-5.118c-.791 0-1.383-.082-1.69-.476-.308-.396-.185-.886-.079-1.32l.643-2.571c.147-.583.488-1.948 2.233-1.948h4.067c.605 0 1.037.16 1.285.476.138.178.28.488.164.956-.12.473-.538 1.267-2.02 1.267h-3.893l-1.214 1.217h5.095c3.921 0 4.823-1.925 5.03-2.754.162-.65.085-1.184-.228-1.585M116.84 7.718a3.146 3.146 0 1 0 0 6.292 3.146 3.146 0 0 0 0-6.292m1.583 3.146a1.583 1.583 0 1 1-3.165 0 1.582 1.582 0 1 1 3.165 0"/>
    </g>
</svg>
