<svg xmlns="http://www.w3.org/2000/svg" width="180" height="34" viewBox="0 0 180 34">
    <g fill="none" fill-rule="evenodd">
        <path fill="#004F9E" d="M95.833 25.24l-.715 2.865-.079.324c-.284 1.129-.84 1.945-2.464 1.945h-4.792c-1.679 0-1.683-.919-1.474-1.755l.134-.54.688-2.76c.283-1.125.733-2.108 2.358-2.108h5.035c1.707 0 1.59.9 1.309 2.029m1.25-5.017H58.947l-2.138 8.55c-.28 1.13-.477 1.59-2.526 1.59h-4.421c-2.048 0-2.016-.46-1.734-1.59l2.134-8.55h-3.428c-1.255 0-2.004.56-2.294 1.716l-1.77 7.1c-.763 3.052.627 4.305 4.798 4.323l7.411.001c3.59 0 6.163-.735 7.058-4.325l1.422-5.701h6.714c-.215.86-2.106 8.318-2.11 8.33-.03.13-.157.754.24 1.226.27.312.695.47 1.273.47h1.46c.578 0 1.085-.158 1.51-.474.631-.468.818-1.1.853-1.237.002-.009 1.89-7.455 2.103-8.315h6.92c-.147.358-.275.755-.385 1.199l-1.08 4.325c-.83 3.322.72 4.502 4.244 4.502l8.253.002c3.898 0 5.863-.872 6.843-4.799l.945-3.784c.774-3.104.147-4.559-4.157-4.559M70.157 0c-12.238 0-17.86 2.315-21.51 4.621-3.65 2.306-7.542 4.975-12.2 5.256-5.04.302-11.997.312-16.977 1.261C8.232 13.275 2.032 19.551.41 22.456c-.161.26-.292.514-.41.763h9.452c1.805-2.506 4.784-5.867 9.887-7.104 6.825-1.66 14.514-.712 18.233-1.305 3.215-.593 5.874-1.773 10.187-4.853 4.55-3.25 8.328-5.626 16.259-6.4 9.141-.897 27.851-.755 27.851-.755l.441-1.75S72.804 0 70.157 0M36.284 20.223H23.79l-.082.631c-.14 1.092.691 2.366 3.505 2.366h6.878c2.05 0 2.018.458 1.736 1.591l-1.393 5.582h-8.101c-.589 0-1.543-.146-1.302-1.114.25-.994 1.265-1.204 2.075-1.204h4.864l2.946-2.954H27.12c-5.732 0-7.083 2.934-7.396 4.197-.614 2.46.981 4.045 4.06 4.045H37.12c1.255 0 2.007-.563 2.295-1.72l1.772-7.099c.897-3.59-1.31-4.32-4.902-4.32"/>
        <path fill="#0094DA" d="M115.982 31.51h-5.33c-1.003 0-1.69-.255-2.104-.783-.52-.668-.392-1.508-.248-2.08l1.638-6.569h8.21c.97 0 1.629.242 2.015.737.578.734.321 1.759.153 2.433l-.886 3.548c-.288 1.166-.965 2.713-3.448 2.713zm-12.213-2.234c-.351 1.41-.288 2.397.196 3.015.565.725 1.812 1.074 3.807 1.074l9.182.004c3.947 0 5.88-.688 6.901-4.78l1.048-4.21c.41-1.639.48-2.521-.047-3.184-.624-.79-1.27-.972-3.36-.972h-11.04l1.018-4.136s.108-.435-.116-.7c-.188-.22-.568-.266-.853-.266h-1.626c-.48 0-.898.127-1.24.383-.515.382-.66.896-.672.954l-3.198 12.818zM155.307 15.121c-.48 0-.9.127-1.241.383-.518.385-.658.896-.67.95l-3.977 15.944c-.004.015-.106.446.115.706.185.22.567.265.853.265h1.624c.481 0 .899-.127 1.243-.38.53-.396.668-.941.673-.964l3.968-15.914c0-.01.113-.458-.11-.723-.19-.22-.57-.267-.854-.267h-1.624zM163.82 15.121c-.481 0-.898.127-1.241.383-.517.382-.659.896-.672.954l-3.975 15.94c-.004.017-.11.445.115.706.185.22.567.265.852.265h1.627c.48 0 .898-.127 1.238-.38.533-.396.67-.938.676-.961l3.968-15.917c.005-.021.113-.46-.111-.723-.188-.22-.568-.267-.852-.267h-1.626zM147.976 21.437c-.613-.784-1.843-1.214-3.462-1.214h-9.865c-3.854 0-5.728.61-6.635 4.242l-1.248 5.01c-.32 1.286-.26 2.192.19 2.769.608.778 2.01 1.125 4.545 1.125h13.251l.01-.071c.032-.242.006-.606-.294-.945-.481-.548-1.505-.85-2.88-.85h-7.647c-1.182 0-2.066-.121-2.525-.71-.46-.591-.277-1.325-.117-1.972l.96-3.842c.219-.87.728-2.91 3.336-2.91h6.076c.904 0 1.55.238 1.92.711.207.267.418.73.246 1.428-.179.707-.805 1.894-3.019 1.894h-5.817l-1.813 1.818h7.612c5.859 0 7.207-2.877 7.517-4.115.24-.972.126-1.768-.341-2.368M174.57 10.822c-2.595 0-4.7 2.102-4.7 4.7 0 2.598 2.105 4.702 4.7 4.702 2.596 0 4.702-2.104 4.702-4.702s-2.106-4.7-4.702-4.7m2.365 4.701c0 1.307-1.058 2.367-2.365 2.367-1.308 0-2.364-1.06-2.364-2.367 0-1.309 1.056-2.368 2.364-2.368 1.307 0 2.365 1.06 2.365 2.368"/>
    </g>
</svg>
