<svg xmlns="http://www.w3.org/2000/svg" xmlns:xlink="http://www.w3.org/1999/xlink" width="44" height="44" viewBox="0 0 44 44">
    <defs>
        <path id="prefix__a" d="M0 0.437L43.563 0.437 43.563 43.999 0 43.999z"/>
    </defs>
    <g fill="none" fill-rule="evenodd">
        <g transform="translate(0 -1) translate(0 .563)">
            <mask id="prefix__b" fill="#fff">
                <use xlink:href="#prefix__a"/>
            </mask>
            <path fill="#E7E7E7" d="M21.781 41.925c-10.866 0-19.707-8.84-19.707-19.707 0-10.866 8.841-19.707 19.707-19.707 10.867 0 19.707 8.841 19.707 19.707 0 10.866-8.84 19.707-19.707 19.707m0-41.488C9.771.437.001 10.208.001 22.218 0 34.23 9.77 44 21.78 44c12.011 0 21.782-9.77 21.782-21.78 0-12.01-9.77-21.782-21.782-21.782" mask="url(#prefix__b)"/>
        </g>
        <path fill="#E7E7E7" d="M21.781 22.272c.282 0 .51.229.51.51 0 .28-.228.51-.51.51-.28 0-.51-.23-.51-.51 0-.281.23-.51.51-.51m-2.584.51c0 1.425 1.16 2.585 2.584 2.585 1.425 0 2.585-1.16 2.585-2.585s-1.16-2.584-2.585-2.584-2.584 1.159-2.584 2.584" transform="translate(0 -1)"/>
        <path fill="#E7E7E7" d="M24.375 10.712c3.402.734 6.375 2.906 8.115 5.932l-7.678 2.468c-.145-.12-.299-.233-.458-.336l.021-8.064zm-1.488 9.622c.337.152.635.371.886.65.2.221.482.342.77.342.106 0 .213-.016.318-.05l9.425-3.03c.282-.09.511-.298.631-.568.12-.27.12-.579-.003-.849-2.08-4.582-6.468-7.789-11.453-8.368-.294-.033-.588.06-.809.255-.22.196-.347.477-.348.772l-.026 9.898c0 .41.237.78.61.948zM30.925 31.067l-4.72-6.538c.071-.177.131-.357.179-.54l7.676-2.47c.043.419.064.84.064 1.259 0 3.069-1.154 6.03-3.199 8.29m4.996-11.112c-.058-.29-.237-.541-.492-.691-.254-.15-.562-.184-.843-.093l-9.424 3.03c-.389.125-.668.467-.713.873-.041.367-.156.719-.344 1.043-.204.354-.182.795.057 1.127l5.795 8.025c.173.24.44.394.734.424.036.005.071.006.107.006.257 0 .507-.096.699-.272 2.988-2.725 4.702-6.608 4.702-10.65 0-.944-.094-1.893-.278-2.822M19.253 10.698l-.02 8.063c-.16.102-.314.213-.46.333L11.11 16.58c1.757-3.014 4.74-5.168 8.143-5.882m-9.95 7.472l9.408 3.088c.106.035.215.051.323.051.287 0 .567-.119.766-.338.253-.277.553-.494.891-.645.373-.166.613-.536.614-.944l.026-9.898c.001-.295-.124-.577-.345-.774-.219-.198-.51-.294-.807-.259-4.984.552-9.388 3.732-11.494 8.3-.124.268-.127.577-.009.847.118.272.347.48.627.572M12.59 31.01c-2.015-2.251-3.151-5.192-3.151-8.232 0-.446.024-.891.071-1.332l7.661 2.514c.047.185.106.366.176.544L12.59 31.01zm6.859-6.906c-.186-.326-.299-.678-.338-1.044-.042-.407-.319-.751-.708-.878l-9.406-3.088c-.281-.093-.588-.061-.844.089-.255.148-.436.398-.495.688-.195.95-.294 1.929-.294 2.907 0 4.008 1.691 7.869 4.64 10.592.192.178.443.276.703.276.033 0 .067-.002.101-.005.294-.03.562-.182.737-.421l5.841-7.99c.241-.33.266-.771.063-1.126zM16.723 34.035l4.758-6.508c.191.013.382.014.572.002l4.72 6.537c-3.154 1.395-6.903 1.384-10.05-.03zm6.652-8.219c-.239-.33-.65-.49-1.049-.409-.359.074-.736.074-1.103-.004-.4-.086-.812.073-1.053.403l-5.84 7.99c-.175.237-.24.54-.178.828.062.29.244.537.501.683 2.166 1.235 4.631 1.888 7.128 1.888 2.47 0 4.908-.638 7.054-1.845.257-.144.441-.392.504-.68.064-.289.001-.59-.172-.83l-5.792-8.024z" transform="translate(0 -1)"/>
    </g>
</svg>
