<svg xmlns="http://www.w3.org/2000/svg" xmlns:xlink="http://www.w3.org/1999/xlink" width="40" height="35" viewBox="0 0 40 35">
    <defs>
        <filter id="prefix__a" width="208.3%" height="236.8%" x="-54.2%" y="-57.9%" filterUnits="objectBoundingBox">
            <feOffset dy="2" in="SourceAlpha" result="shadowOffsetOuter1"/>
            <feGaussianBlur in="shadowOffsetOuter1" result="shadowBlurOuter1" stdDeviation="4"/>
            <feColorMatrix in="shadowBlurOuter1" values="0 0 0 0 0 0 0 0 0 0 0 0 0 0 0 0 0 0 0.5 0"/>
        </filter>
        <path id="prefix__b" d="M186.161 1057a5.85 5.85 0 00-4.128 1.69l-1.558 1.538a.678.678 0 01-.95 0l-1.557-1.539a5.854 5.854 0 00-4.129-1.689 5.854 5.854 0 00-4.129 1.69 5.719 5.719 0 000 8.156l8.547 8.444.005-.004A2.46 2.46 0 00180 1076a2.46 2.46 0 001.738-.714l.005.004 8.547-8.444a5.719 5.719 0 000-8.157 5.853 5.853 0 00-4.129-1.689m0 1.482c1.159 0 2.249.445 3.068 1.255a4.253 4.253 0 010 6.061l-8.445 8.345c-.039.03-.076.064-.111.099l-.015.015a.95.95 0 01-.658.261.95.95 0 01-.658-.26l-.017-.018a1.609 1.609 0 00-.107-.096l-8.447-8.346a4.253 4.253 0 010-6.06 4.334 4.334 0 013.068-1.256c1.159 0 2.248.445 3.068 1.255l1.559 1.54c.41.404.955.627 1.534.627.579 0 1.124-.223 1.536-.628l1.557-1.539a4.334 4.334 0 013.068-1.255"/>
    </defs>
    <g fill="none" fill-rule="evenodd" transform="translate(-160 -1051)">
        <use fill="#000" filter="url(#prefix__a)" xlink:href="#prefix__b"/>
        <use fill="#FFF" xlink:href="#prefix__b"/>
    </g>
</svg>
