<svg xmlns="http://www.w3.org/2000/svg" xmlns:xlink="http://www.w3.org/1999/xlink" width="36" height="36" viewBox="0 0 36 36">
    <defs>
        <path id="prefix__a" d="M0.234 0.234L18.72 0.234 18.72 23.199 0.234 23.199z"/>
    </defs>
    <g fill="none" fill-rule="evenodd">
        <path fill="#E6174B" d="M17.954 28.766h1v-13.77h-1v13.77zM0 28.766h1v-13.77H0v13.77zm8.961-2.416h1.123v-1.124H8.961v1.124zm0 2.416h1.123v-1.124H8.961v1.124z" transform="translate(8.5 3)"/>
        <g transform="translate(8.5 3) translate(0 .766)">
            <mask id="prefix__b" fill="#fff">
                <use xlink:href="#prefix__a"/>
            </mask>
            <path fill="#3F64C3" d="M13.215 18.403c0 .818-.666 1.484-1.484 1.484H7.223c-.818 0-1.484-.666-1.484-1.484v-.126h7.476v.126zm.5-1.126H5.24c-.276 0-.5.224-.5.5v.626c0 1.37 1.114 2.484 2.484 2.484h4.508c1.37 0 2.484-1.114 2.484-2.484v-.626c0-.276-.224-.5-.5-.5zm-.5-8.91H5.74V7.38c0-1.913 1.556-3.47 3.47-3.47h.537c1.913 0 3.47 1.557 3.47 3.47v.988zM9.746 2.912h-.538C6.743 2.91 4.74 4.916 4.74 7.38v1.488c0 .275.224.5.5.5h8.476c.276 0 .5-.225.5-.5V7.38c0-2.464-2.004-4.47-4.469-4.47zm3.47 12.512h1v-4.8h-1v4.8zm-8.477 0h1v-4.8h-1v4.8zm11.12 3.875c0 1.599-1.303 2.9-2.903 2.9H5.998c-1.6 0-2.902-1.301-2.902-2.9V7.538c0-3.476 2.827-6.304 6.303-6.304h.156c3.475 0 6.303 2.828 6.303 6.304v11.76zm.995-11.931C16.764 3.419 13.525.234 9.555.234H9.4C5.43.234 2.191 3.419 2.1 7.367L.234 9.9l.805.593 1.057-1.435v10.239c0 2.15 1.75 3.9 3.902 3.9h6.958c2.152 0 3.902-1.75 3.902-3.9V9.058l1.057 1.436.805-.593-1.866-2.534z" mask="url(#prefix__b)"/>
        </g>
    </g>
</svg>
