<svg xmlns="http://www.w3.org/2000/svg" xmlns:xlink="http://www.w3.org/1999/xlink" width="36" height="14" viewBox="0 0 36 14">
    <defs>
        <path id="prefix__a" d="M0 0.005L35.995 0.005 35.995 13.973 0 13.973z"/>
    </defs>
    <g fill="none" fill-rule="evenodd" transform="matrix(-1 0 0 1 36 -2)">
        <mask id="prefix__b" fill="#fff">
            <use xlink:href="#prefix__a"/>
        </mask>
        <path fill="#BABABA" d="M20.89 7.692c-2.063-.101-3.968-.18-5.87-.305-.23-.016-.598-.248-.64-.436-.212-.933-.336-1.882-.497-2.871 3.165-.366 5.802.656 8.307 2.388-.85 0-1.3.037-1.3 1.224m-7.465-.25H6.23c-.608 0-1.11-.589-1.128-.693.764-.972 2.391-2.239 3.797-2.492 1.099-.197 2.237-.216 3.356-.214.273 0 .72.352.781.611.197.841.656 2.192.388 2.787m-9.637-.887l-2.029-.179c3.47-2.478 4.767-2.369 4.767-2.369C4.142 5.11 3.788 6.554 3.788 6.554m25.998.955l-.825-.184c-1.27-.281-2.513-.55-3.565-.76-.166-.032-.343-.06-.51-.107l-.277-.1c-.05-.023-.097-.05-.141-.08-4.705-3.274-9.846-3.922-15.36-3.395-2.578.246-5.27 1.584-7.324 2.88-.364.228-.622.75-.745 1.186C.671 8.273.413 9.623.074 10.955c-.364 1.428.065 2.58 1.559 2.467-.1-.337 0-.691 0-1.059 0-2.148 2.218-3.84 4.413-3.84 2.195 0 4.263 1.993 4.263 4.142 0 .469-.085.918-.238 1.335.145.21.182-.039.89-.037 4.502.004 9.004.033 13.507.037.094-.18.141-.708.141-1.584 0-2.42 2.16-3.893 4.352-3.893 2.195 0 4.117 1.744 4.117 3.893 0 .348.09.685 0 1.006.093.074 2.511.161 2.778-.76.464-1.618-.25-3.849-1.92-4.22-1.209-.268-2.675-.603-4.15-.933z" mask="url(#prefix__b)"/>
        <path fill="#BABABA" d="M6 14.816c-.895 0-1.637-.648-1.787-1.5-.019-.103-.029-.209-.029-.317 0-1.002.813-1.815 1.816-1.815 1.003 0 1.816.813 1.816 1.815 0 .108-.01.214-.029.316-.15.853-.892 1.5-1.787 1.5M6 10c-1.656 0-3 1.343-3 2.999 0 .106.006.212.017.316C3.174 14.823 4.45 16 6 16s2.826-1.177 2.983-2.685c.011-.104.017-.21.017-.316C9 11.343 7.656 10 6 10M27.213 13.315c-.02-.102-.029-.208-.029-.316 0-1.002.813-1.815 1.816-1.815 1.003 0 1.816.813 1.816 1.815 0 .108-.01.214-.029.316-.15.853-.892 1.5-1.787 1.5-.895 0-1.637-.647-1.787-1.5zM26 13c0 .106.006.212.017.316C26.174 14.823 27.45 16 29 16s2.826-1.177 2.983-2.685c.011-.104.017-.21.017-.316C32 11.343 30.656 10 29 10s-3 1.343-3 2.999z"/>
    </g>
</svg>
