<svg xmlns="http://www.w3.org/2000/svg" xmlns:xlink="http://www.w3.org/1999/xlink" width="54" height="40" viewBox="0 0 54 40">
    <defs>
        <path id="prefix__a" d="M0 39.893L53.935 39.893 53.935 0 0 0z"/>
    </defs>
    <g fill="none" fill-rule="evenodd">
        <path fill="#E7E7E7" d="M16.827 22.619c0 .148-.174.384-.315.428l-7.984 2.468v-3.557c0-.03.028-.057.057-.057h8.185c.03 0 .057.028.057.057v.66zm-.057-2.792H8.585c-1.175 0-2.13.956-2.13 2.13v3.869c0 .62.264 1.172.727 1.513.307.226.675.342 1.061.342.197 0 .4-.03.6-.092l8.282-2.561c1.013-.313 1.776-1.348 1.776-2.41v-.66c0-1.175-.956-2.131-2.13-2.131zM45.407 25.515l-7.983-2.469c-.142-.044-.315-.279-.315-.427v-.662c0-.028.028-.056.057-.056h8.184c.03 0 .057.027.057.056v3.558zm-.057-5.688h-8.184c-1.176 0-2.132.956-2.132 2.13v.662c0 1.06.764 2.096 1.777 2.41l8.282 2.56c.2.062.402.092.6.092.385 0 .754-.116 1.06-.343.463-.34.728-.892.728-1.512v-3.869c0-1.174-.956-2.13-2.13-2.13z"/>
        <mask id="prefix__b" fill="#fff">
            <use xlink:href="#prefix__a"/>
        </mask>
        <path fill="#E7E7E7" d="M21.841 24.157L32.095 24.157 32.095 22.083 21.841 22.083z" mask="url(#prefix__b)"/>
        <path fill="#E7E7E7" d="M49.638 15.28c-.706-.85-1.569-1.562-2.546-2.094l.053-.028-.757-1.393h3.065c1.598 0 2.408.53 2.408 1.576-.003.192-.412 1.244-2.223 1.94zm-.064 10.918c0 3.653-2.973 6.625-6.625 6.625H10.987c-3.653 0-6.625-2.972-6.625-6.625v-5.363c0-3.654 2.972-6.625 6.625-6.625H42.95c3.652 0 6.625 2.97 6.625 6.625v5.363zm-4.758 11.18c0 .239-.202.44-.44.44H40.68c-.239 0-.44-.201-.44-.44v-2.481h2.71c.64 0 1.264-.074 1.866-.207v2.688zm-31.119 0c0 .239-.203.44-.44.44H9.56c-.239 0-.44-.201-.44-.44V34.69c.601.133 1.225.207 1.867.207h2.71v2.48zM2.074 13.34c0-1.045.811-1.576 2.408-1.576h3.065l-.757 1.393.053.028c-.976.532-1.839 1.245-2.545 2.094-1.812-.696-2.22-1.747-2.224-1.94zm36.291-1.206h-8.93c.381-2.121 2.236-3.736 4.464-3.736 2.23 0 4.084 1.615 4.466 3.736zM13.9 4.418c.82-1.51 1.992-2.327 2.31-2.343h21.515c.32.016 1.493.832 2.313 2.344l4.253 7.83c-.438-.07-.884-.114-1.34-.114H40.46c-.4-3.27-3.187-5.81-6.562-5.81-3.374 0-6.162 2.54-6.56 5.81H10.986c-.458 0-.904.045-1.342.114L13.9 4.418zm40.036 8.923c0-1.765-1.177-3.651-4.482-3.651h-4.192l-3.4-6.262C40.934 1.725 39.218 0 37.725 0H16.21c-1.49 0-3.208 1.724-4.134 3.427l-3.4 6.263H4.481C1.177 9.69 0 11.576 0 13.34c0 1.178 1 2.75 3.164 3.713-.556 1.146-.877 2.425-.877 3.782v5.363c0 3.377 1.94 6.305 4.758 7.745v3.435c0 1.387 1.128 2.515 2.515 2.515h3.696c1.386 0 2.515-1.128 2.515-2.515v-2.481h22.393v2.48c0 1.388 1.13 2.516 2.516 2.516h3.695c1.387 0 2.515-1.128 2.515-2.515v-3.435c2.82-1.44 4.758-4.368 4.758-7.745v-5.363c0-1.357-.32-2.636-.877-3.782 2.165-.963 3.164-2.535 3.164-3.712z" mask="url(#prefix__b)"/>
    </g>
</svg>
