<svg xmlns="http://www.w3.org/2000/svg" xmlns:xlink="http://www.w3.org/1999/xlink" width="58" height="36" viewBox="0 0 58 36">
    <defs>
        <path id="prefix__a" d="M0 0L57.151 0 57.151 35.265 0 35.265z"/>
    </defs>
    <g fill="none" fill-rule="evenodd">
        <mask id="prefix__b" fill="#fff">
            <use xlink:href="#prefix__a"/>
        </mask>
        <path fill="#E7E7E7" d="M55.077 25.75c0 .906-.316 1.79-.893 2.492l-1.364 1.66c-.258.315-.726.39-1.001.166-.081-.066-.11-.118-.113-.12v-5.247c0-.573-.464-1.038-1.037-1.038h-5.064c-.566 0-1.028.454-1.037 1.02l-.065 3.764v.004l-.064 4.496c-.207.156-.461.24-.727.24H33.9l-.71.002c-2.454.008-6.173.026-7.353-1.155-.038-.038-.08-.074-.123-.105l-5.916-4.302c-.178-.13-.391-.198-.61-.198h-.004l-9.897.033c-.665 0-1.207-.541-1.207-1.207v-15.32c0-.635.519-1.114 1.207-1.114h16.987c.098.03.2.052.309.052.108 0 .21-.021.308-.052h7.763c.048 0 .093-.008.14-.014.046.006.09.014.139.014h8.428c.665 0 1.207.54 1.207 1.207v7.219c0 .573.464 1.037 1.037 1.037h5.064c.573 0 1.037-.464 1.037-1.037l-.001-4.7c.004-.012.033-.064.114-.13.276-.225.743-.147 1 .166l1.298 1.578c.619.754.96 1.706.96 2.683v7.906zm.643-11.905l-1.297-1.578c-.992-1.207-2.75-1.412-3.918-.455-.563.46-.873 1.074-.873 1.725v3.673h-2.99v-6.182c0-1.81-1.472-3.281-3.281-3.281h-8.428c-.048 0-.093.008-.14.014-.046-.006-.091-.014-.14-.014H27.62V2.075h5.685V0H19.86v2.075h5.685v5.672H9.287c-1.84 0-3.281 1.399-3.281 3.188v6.678H2.075v-5.416H0v13.445h2.075v-5.954h3.93v6.567c0 1.809 1.473 3.282 3.286 3.282l9.56-.033 5.582 4.058c1.66 1.58 5.01 1.704 7.939 1.704l.827-.002 10.513-.002c1.003 0 1.939-.45 2.567-1.23.145-.18.225-.404.229-.636l.069-4.916v-.001l.047-2.741h3.008v4.21c0 .653.31 1.265.873 1.726.496.405 1.098.602 1.703.602.82 0 1.644-.362 2.215-1.056l1.364-1.661c.88-1.071 1.365-2.423 1.365-3.81v-7.905c0-1.455-.51-2.876-1.432-4z" mask="url(#prefix__b)"/>
    </g>
</svg>
