<svg xmlns="http://www.w3.org/2000/svg" xmlns:xlink="http://www.w3.org/1999/xlink" width="55" height="29" viewBox="0 0 55 29">
    <defs>
        <path id="prefix__a" d="M0 0.85L54.768 0.85 54.768 29 0 29z"/>
    </defs>
    <g fill="none" fill-rule="evenodd">
        <g transform="translate(0 -1) translate(0 .15)">
            <mask id="prefix__b" fill="#fff">
                <use xlink:href="#prefix__a"/>
            </mask>
            <path fill="#E7E7E7" d="M52.274 26.067c-.404.545-1.025.858-1.704.858H4.246c-.695 0-1.33-.32-1.743-.878-.413-.557-.533-1.257-.33-1.921l2.96-9.705c.745-2.257 1.958-3.401 3.606-3.401H46.01c1.597 0 2.811 1.144 3.607 3.399l2.98 9.769c.198.65.08 1.334-.323 1.879m2.308-2.484l-2.987-9.79-.013-.041c-1.395-3.973-3.8-4.807-5.572-4.807H28.68V2.924h7.37V.85h-8.404l-.004-.001-.004.001h-8.404v2.074h7.371v6.021H8.74c-1.487 0-4.19.627-5.584 4.848L.188 23.52c-.396 1.299-.16 2.671.648 3.762C1.644 28.374 2.887 29 4.246 29H50.57c1.343 0 2.572-.62 3.371-1.699.8-1.079 1.033-2.433.641-3.718" mask="url(#prefix__b)"/>
        </g>
        <path fill="#E7E7E7" d="M12.061 15.162L8.935 19.534 9.946 20.258 13.073 15.887zM10.889 22.387L11.901 23.112 16.451 16.751 15.438 16.027z" transform="translate(0 -1)"/>
    </g>
</svg>
