<svg xmlns="http://www.w3.org/2000/svg" xmlns:xlink="http://www.w3.org/1999/xlink" width="44" height="17" viewBox="0 0 44 17">
    <defs>
        <path id="prefix__a" d="M0 0L66 0 66 17 0 17z"/>
    </defs>
    <g fill="none" fill-rule="evenodd" transform="matrix(-1 0 0 1 56 0)">
        <mask id="prefix__b" fill="#fff">
            <use xlink:href="#prefix__a"/>
        </mask>
        <path fill="#fff" d="M48.701 13.368c-.025 1.106-.91 1.995-2.002 1.995-1.09 0-1.974-.889-1.999-1.995 0-.015-.004-.03-.004-.045 0-1.128.898-2.04 2.003-2.04 1.108 0 2.007.912 2.007 2.04 0 .015-.005.03-.005.045m-2.002-3.722c-1.995 0-3.612 1.646-3.612 3.677l.003.045c.024 2.01 1.629 3.632 3.609 3.632s3.586-1.623 3.61-3.632l.003-.045c0-2.031-1.617-3.677-3.613-3.677m-22.677 3.722c-.024 1.106-.909 1.995-2 1.995s-1.976-.889-2-1.995c0-.015-.005-.03-.005-.045 0-1.128.898-2.04 2.005-2.04 1.107 0 2.005.912 2.005 2.04 0 .015-.005.03-.005.045m-5.613-.045l.001.042c.024 2.01 1.63 3.635 3.612 3.635 1.978 0 3.584-1.623 3.609-3.632l.002-.045c0-2.031-1.618-3.677-3.611-3.677-1.996 0-3.613 1.646-3.613 3.677zM39.94 5.168h-6.079c-.275 0-.545-.222-.604-.496l-.518-2.411c-.058-.275.115-.465.387-.42 1.342.22 2.546.55 3.45.961 1.348.617 2.589 1.435 3.46 2.067.222.163.178.3-.096.3m-8.816 0h-7.6c-.275 0-.549-.223-.612-.495l-.137-.597c-.063-.273.062-.635.282-.8 1.042-.77 2.331-1.465 3.73-1.624.768-.088 1.586-.132 2.433-.132.379 0 .758.012 1.134.03.276.014.546.252.604.525l.558 2.596c.058.274-.117.496-.392.496m11.15-.464s-2.301-2.014-5.086-3.288C35.192.502 32.148 0 29.221 0c-.888 0-1.764.046-2.6.14-4.157.473-7.259 4.966-7.259 4.966l-6.505.723c-.606.247-.857.828-.857 1.232v4.18c0 .822.166 1.419 1.503 1.767.763.2 3.394.29 4.16.33l-.001-.015c0-2.447 1.955-4.437 4.36-4.437 2.403 0 4.358 1.99 4.358 4.437l-.002.045h15.965l-.003-.045c0-2.447 1.956-4.437 4.359-4.437s4.36 1.99 4.36 4.437l-.003.045h3.955c.875 0 .989-.611.989-1.017V10.09c0-1.44-1.388-2.796-4.715-3.779-3.065-.906-9.01-1.607-9.01-1.607z" mask="url(#prefix__b)"/>
    </g>
</svg>
