<svg xmlns="http://www.w3.org/2000/svg" xmlns:xlink="http://www.w3.org/1999/xlink" width="36" height="36" viewBox="0 0 36 36">
    <defs>
        <path id="prefix__a" d="M0 0L18.954 0 18.954 27.766 0 27.766z"/>
    </defs>
    <g fill="none" fill-rule="evenodd" transform="translate(8.5 4)">
        <mask id="prefix__b" fill="#fff">
            <use xlink:href="#prefix__a"/>
        </mask>
        <path fill="#AAA" d="M13.215 8.133H5.74v-.987c0-1.913 1.556-3.469 3.47-3.469h.537c1.913 0 3.47 1.556 3.47 3.47v.986zM9.746 2.677h-.538c-2.465 0-4.469 2.004-4.469 4.47v1.486c0 .276.224.5.5.5h8.476c.276 0 .5-.224.5-.5V7.146c0-2.465-2.004-4.469-4.469-4.469zm3.47 12.512h1v-4.8h-1v4.8zm2.642 3.874c0 1.6-1.302 2.901-2.902 2.901H5.998c-1.6 0-2.902-1.3-2.902-2.9V7.303C3.096 3.826 5.923 1 9.4 1h.156c3.475 0 6.303 2.827 6.303 6.303v11.76zm.996-11.93C16.764 3.185 13.525 0 9.555 0H9.4C5.43 0 2.191 3.185 2.1 7.133L.234 9.666l.805.594 1.057-1.436v10.24c0 2.15 1.75 3.9 3.902 3.9h6.958c2.152 0 3.902-1.75 3.902-3.9V8.823l1.057 1.436.805-.594-1.866-2.533zm-3.639 11.035c0 .82-.666 1.485-1.484 1.485H7.223c-.818 0-1.484-.666-1.484-1.485v-.125h7.476v.125zm.5-1.125H5.24c-.276 0-.5.224-.5.5v.625c0 1.37 1.114 2.485 2.484 2.485h4.508c1.37 0 2.484-1.115 2.484-2.485v-.625c0-.276-.224-.5-.5-.5zM4.74 15.19h1v-4.8h-1v4.8zM0 27.766h1v-13.77H0v13.77zm8.961 0h1.124v-1.124H8.961v1.124zm8.993 0h1v-13.77h-1v13.77zm-8.993-2.415h1.124v-1.124H8.961v1.124z" mask="url(#prefix__b)"/>
    </g>
</svg>
