<svg xmlns="http://www.w3.org/2000/svg" xmlns:xlink="http://www.w3.org/1999/xlink" width="58" height="27" viewBox="0 0 58 27">
    <defs>
        <path id="prefix__a" d="M0 0.699L57.335 0.699 57.335 27 0 27z"/>
    </defs>
    <g fill="none" fill-rule="evenodd">
        <path fill="#E7E7E7" d="M16.952 11.472c-.483.118-1.078.264-1.513.337.352-1.344 1.104-2.506 2.114-3.37h8.678c1.01.864 1.762 2.026 2.114 3.37-.435-.073-1.03-.22-1.513-.337-1.4-.346-3.142-.774-4.94-.774-1.798 0-3.54.428-4.94.774m11.842 2.458c.53 0 .958-.13 1.303-.471.277-.273.562-.774.386-1.607-.001-.007 0-.014-.002-.021l-.006-.025-.002-.015-.003-.008c-.814-4.075-4.413-7.028-8.578-7.028-4.167 0-7.765 2.953-8.578 7.029l-.003.007-.002.013-.007.029c-.002.008-.001.016-.002.024-.173.83.11 1.329.387 1.602.77.762 1.96.47 3.76.027 1.292-.318 2.899-.714 4.445-.714 1.546 0 3.153.396 4.444.714.995.245 1.804.444 2.458.444M15.955 17.038c.405.186.904.486 1.48.98.688.586 1.14 1.148 1.422 1.591-1.117-.559-2.145-1.473-2.902-2.57m2.829-.599c-2.153-1.84-4.076-2.034-4.95-1.433-.467.32-.674.867-.551 1.397.005.022.01.043.017.065.008.026.012.053.02.08.006.012.013.023.018.036.005.013.007.025.013.038 1.069 2.417 3.148 4.391 5.477 5.227.017.008.036.012.053.02l.022.007c.012.005.023.012.036.016l.11.035.099.033c.058.018.117.03.175.037.165.034.318.052.457.052.83 0 1.216-.534 1.333-.737.762-1.328-.673-3.457-2.33-4.873M24.926 19.61c.282-.443.734-1.005 1.421-1.592.578-.493 1.077-.794 1.481-.98-.756 1.098-1.784 2.012-2.902 2.573m5.024-4.604c-.874-.6-2.796-.408-4.95 1.434-1.657 1.416-3.092 3.545-2.329 4.873.117.202.503.736 1.333.736.138 0 .291-.016.455-.05.059-.008.117-.02.176-.037.034-.011.067-.025.101-.036.036-.01.071-.02.109-.033.013-.005.023-.012.036-.016 2.359-.823 4.471-2.811 5.552-5.254.006-.012.007-.025.012-.037.005-.013.013-.024.018-.037.009-.027.013-.055.021-.083l.017-.061c.124-.53-.084-1.078-.551-1.4" transform="translate(0 -1)"/>
        <g transform="translate(0 -1) translate(0 .301)">
            <mask id="prefix__b" fill="#fff">
                <use xlink:href="#prefix__a"/>
            </mask>
            <path fill="#E7E7E7" d="M55.003 10.412l-2.822 5.99c-.807 1.713-3.087 3.159-4.98 3.159H33.736c.837-1.728 1.307-3.666 1.307-5.711 0-2.046-.47-3.984-1.307-5.712H53.56c.735 0 1.28.22 1.535.62.254.4.22.989-.093 1.654zM21.892 24.926c-6.107 0-11.076-4.97-11.076-11.076 0-6.108 4.969-11.077 11.076-11.077 6.108 0 11.076 4.969 11.076 11.077 0 6.107-4.968 11.076-11.076 11.076zM8.908 19.56c-1.072 0-2.877-1.296-3.753-3.158l-2.823-5.991c-.313-.665-.346-1.253-.092-1.653.254-.401.799-.621 1.534-.621h6.274c-.837 1.728-1.306 3.666-1.306 5.712 0 2.045.469 3.983 1.306 5.71h-1.14zM56.847 7.647c-.638-1.006-1.836-1.584-3.286-1.584H32.48C30.086 2.812 26.232.699 21.892.699c-4.338 0-8.192 2.113-10.588 5.364h-7.53c-1.448 0-2.646.578-3.285 1.584-.64 1.007-.651 2.337-.033 3.65l2.823 5.99c1.149 2.438 3.62 4.349 5.63 4.349h2.395C13.699 24.886 17.553 27 21.892 27c4.34 0 8.193-2.113 10.59-5.364H47.2c2.696 0 5.708-1.911 6.856-4.35l2.823-5.99c.618-1.312.606-2.642-.033-3.65z" mask="url(#prefix__b)"/>
        </g>
    </g>
</svg>
