<svg xmlns="http://www.w3.org/2000/svg" xmlns:xlink="http://www.w3.org/1999/xlink" width="44" height="35" viewBox="0 0 44 35">
    <defs>
        <path id="prefix__a" d="M0 0.316L43.563 0.316 43.563 35 0 35z"/>
        <path id="prefix__c" d="M0 35L43.563 35 43.563 0.315 0 0.315z"/>
    </defs>
    <g fill="none" fill-rule="evenodd">
        <path fill="#E7E7E7" d="M8.353 9.681L19.242 9.681 19.242 7.607 8.353 7.607zM8.353 13.327L19.242 13.327 19.242 11.253 8.353 11.253z" transform="translate(0 -1)"/>
        <g transform="translate(0 -1) translate(0 .685)">
            <path fill="#E7E7E7" d="M14.58 28.15c-.454 0-.824-.37-.824-.824 0-.455.37-.825.825-.825.455 0 .825.37.825.825 0 .455-.37.824-.825.824m0-3.725c-1.6 0-2.9 1.302-2.9 2.9 0 1.599 1.3 2.9 2.9 2.9 1.599 0 2.9-1.301 2.9-2.9 0-1.598-1.301-2.9-2.9-2.9"/>
            <mask id="prefix__b" fill="#fff">
                <use xlink:href="#prefix__a"/>
            </mask>
            <path fill="#E7E7E7" d="M41.47 8.354c-.48 3.01-2.096 10.41-6.726 14.116-.246.197-.389.495-.389.81v6.045c0 .59-.32 1.126-.834 1.398-1.55.823-5.134 2.203-11.73 2.203-6.542 0-10.12-1.36-11.67-2.171-.553-.29-.896-.865-.896-1.504v-5.97c0-.316-.143-.614-.389-.811C4.163 18.732 2.561 11.26 2.09 8.222c-.075-.481.133-.965.53-1.232 4.391-2.966 11.2-4.6 19.171-4.6 7.9 0 14.67 1.608 19.064 4.527.464.309.706.873.616 1.437m.531-3.164C38.656 2.966 32.433.316 21.791.316 11.047.316 4.803 3.01 1.456 5.27.4 5.986-.158 7.268.04 8.54c.497 3.196 2.172 10.953 7.112 15.226v5.485c0 1.415.77 2.695 2.008 3.342C11.26 33.692 15.156 35 21.79 35c6.693 0 10.602-1.33 12.703-2.445 1.194-.633 1.936-1.871 1.936-3.23v-5.56c4.895-4.235 6.585-11.92 7.09-15.085.217-1.364-.379-2.734-1.518-3.49" mask="url(#prefix__b)"/>
            <mask id="prefix__d" fill="#fff">
                <use xlink:href="#prefix__c"/>
            </mask>
            <path fill="#E7E7E7" d="M24.338 8.996L35.226 8.996 35.226 6.922 24.338 6.922zM24.338 12.642L35.226 12.642 35.226 10.568 24.338 10.568zM30.58 19.338H13l-1.168-2.205h19.916l-1.169 2.205zm2.892-4.279H10.108c-.364 0-.7.19-.889.502-.188.312-.197.699-.027 1.021l2.268 4.279c.18.339.532.551.916.551h18.828c.384 0 .736-.212.916-.551l2.269-4.279c.17-.322.16-.709-.029-1.021-.188-.312-.524-.502-.888-.502zM28.999 28.15c-.455 0-.825-.37-.825-.824 0-.455.37-.825.825-.825.455 0 .826.37.826.825 0 .455-.371.824-.826.824m0-3.725c-1.6 0-2.9 1.302-2.9 2.9 0 1.599 1.3 2.9 2.9 2.9 1.599 0 2.9-1.301 2.9-2.9 0-1.598-1.301-2.9-2.9-2.9M21.79 28.15c-.455 0-.825-.37-.825-.824 0-.455.37-.825.825-.825.455 0 .825.37.825.825 0 .455-.37.824-.825.824m0-3.725c-1.6 0-2.9 1.302-2.9 2.9 0 1.599 1.3 2.9 2.9 2.9 1.599 0 2.9-1.301 2.9-2.9 0-1.598-1.301-2.9-2.9-2.9" mask="url(#prefix__d)"/>
        </g>
    </g>
</svg>
