<svg xmlns="http://www.w3.org/2000/svg" xmlns:xlink="http://www.w3.org/1999/xlink" width="43" height="19" viewBox="0 0 43 19">
    <defs>
        <path id="prefix__a" d="M0.775 0.956L4.962 1.007 4.962 4.989 0.459 5.025z"/>
        <path id="prefix__c" d="M0 0.032L41.969 0.032 41.969 10.956 0 10.956z"/>
    </defs>
    <g fill="none" fill-rule="evenodd">
        <g transform="matrix(-1 0 0 1 43 0) translate(38 10)">
            <mask id="prefix__b" fill="#fff">
                <use xlink:href="#prefix__a"/>
            </mask>
            <path fill="#BABABA" d="M3.18 4.989c-.358 0-.374-.066-.42-.297-.022-.094-.494-.053-.545-.171-.214-1.29-.591-2.606-1.44-3.495l4.187-.019c.147.245.14 1.586-.266 2.711-.307.843-.82 1.27-1.517 1.27z" mask="url(#prefix__b)"/>
        </g>
        <path fill="#BABABA" d="M6.315 11c-1.042.91-1.746 2.34-1.922 3.755-.238.43-.579.252-1.098.243h-.267c-1.595 0-2.605-.572-2.924-1.66-.31-1.064.153-2.231.32-2.338h5.891zM31.56 11.007c-1.006.965-1.732 2.474-1.85 3.982-.566.076-.603-.061-1.173-.061-6.36.004-5.647.018-11.55.067l-.54.005c-.28.004-.863.06-1.024-.011-.1-1.544-.69-3.006-1.709-3.989l17.846.007z" transform="matrix(-1 0 0 1 43 0)"/>
        <g transform="matrix(-1 0 0 1 43 0) translate(1)">
            <mask id="prefix__d" fill="#fff">
                <use xlink:href="#prefix__c"/>
            </mask>
            <path fill="#BABABA" d="M40.505 9.171s-2.126.18-2.618-1.969c0 0 1.759 0 2.33.782.292.405.39.639.288 1.187zM27.397 4.137c-.377 0-.864.116-1.059.35-.141.171-.097.481-.062 1.02-.47 0-1.867.005-2.47.005-2.294.005-1.475.014-3.194-.031-.315-.01-.815-.32-.842-.45-.164-.778-.257-1.501-.35-2.265-.066-.517-.133-1.048-.226-1.637.882 0 1.675-.009 2.388-.013 2.594-.02 4.181.628 6.564 3.02h-.749zM9.606 5.517c-.337 0-.634-.257-.687-.598l-.58-3.87h8.095c.169 0 .332.035.479.107.354.167.602.495.664.886l.518 3.475h-8.49zm-6.537-.09c-.559 0-.824-.324-.824-.994 0-.822 2.98-3.385 3.537-3.385h.873l.58 4.379H3.07zM41.53 8.96c.057-1.349-.421-1.978-1.657-2.176-2.822-.45-3.894-.899-6.645-1.402-3.544-.576-3.22-1.102-4.505-2.257-.337-.306-.718-.647-1.214-1.052C25.85.567 22.925.033 20.927.033h-2.389c-3.349.004-7.646 0-10.902 0L5.064.365c.04.005-2.012 1.186-3.949 3.442l-.044.077c-.164.175-.306.368-.426.58-.766 1.348-.673 3.34-.593 5.124.022.486.04.94.044 1.367h5.33c.996-.805 2.254-1.277 3.614-1.277 1.365 0 2.619.477 3.61 1.277h18.023c.992-.8 2.246-1.277 3.61-1.277.913 0 1.676.277 2.478.686.075.04.137.072.2.108.154.085.314.184.464.292.12.08.24.17.35.26l4.194-.07c-.505-.71-.531-.89-.474-1.5.01-.136.027-.293.036-.495z" mask="url(#prefix__d)"/>
        </g>
        <path fill="#BABABA" d="M10.002 17C8.898 17 8 16.103 8 15s.898-2 2.002-2c1.105 0 1.998.897 1.998 2s-.893 2-1.998 2m1.25-5.801c-.395-.127-.812-.199-1.25-.199-.438 0-.855.072-1.25.199C7.155 11.724 6 13.227 6 15c0 2.21 1.79 4 4.002 4C12.21 19 14 17.21 14 15c0-1.77-1.154-3.276-2.749-3.801M35.002 17C33.898 17 33 16.103 33 15s.898-2 2.002-2c1.105 0 1.998.897 1.998 2s-.893 2-1.998 2m1.25-5.801c-.395-.127-.812-.199-1.25-.199-.438 0-.855.072-1.25.199C32.155 11.724 31 13.227 31 15c0 2.21 1.79 4 4.002 4C37.21 19 39 17.21 39 15c0-1.77-1.154-3.276-2.749-3.801" transform="matrix(-1 0 0 1 43 0)"/>
    </g>
</svg>
