<svg xmlns="http://www.w3.org/2000/svg" xmlns:xlink="http://www.w3.org/1999/xlink" width="36" height="36" viewBox="0 0 36 36">
    <defs>
        <path id="prefix__a" d="M0 0L16.01 0 16.01 28.777 0 28.777z"/>
    </defs>
    <g fill="none" fill-rule="evenodd" transform="translate(10 4)">
        <mask id="prefix__b" fill="#fff">
            <use xlink:href="#prefix__a"/>
        </mask>
        <path fill="#AAA" d="M5.339 3.477l.833.555c.413-.621 1.104-.992 1.849-.992.738 0 1.426.366 1.84.979l.829-.56c-.601-.888-1.6-1.42-2.67-1.42-1.08 0-2.082.539-2.681 1.438zM8.02 1c1.428 0 2.755.71 3.548 1.903l.832-.555C11.42.878 9.785 0 8.02 0 6.256 0 4.618.878 3.64 2.348l.832.555C5.265 1.71 6.59 1 8.02 1zm3.99 22.5H4.03c-.23 0-.415-.185-.415-.414 0-.23.186-.415.415-.415h7.983c.229 0 .415.186.415.415 0 .229-.186.415-.415.415zm0-1.83H4.03c-.78 0-1.415.636-1.415 1.416 0 .78.635 1.415 1.415 1.415h7.983c.78 0 1.415-.634 1.415-1.415 0-.78-.635-1.415-1.415-1.415zm2.32 5.274c-.494.537-1.187.834-1.95.834H3.63c-.764 0-1.457-.297-1.951-.834-.495-.538-.732-1.254-.668-2.014L2.265 9.988C2.4 8.372 3.83 7.056 5.452 7.056h5.106c1.622 0 3.052 1.316 3.188 2.932L15 24.93c.064.76-.174 1.476-.668 2.014zm1.665-2.098L14.742 9.904c-.177-2.121-2.055-3.848-4.184-3.848H5.452c-2.13 0-4.006 1.727-4.184 3.848L.014 24.846c-.087 1.043.242 2.028.929 2.775.686.746 1.64 1.157 2.687 1.157h8.75c1.047 0 2-.411 2.688-1.157.686-.747 1.016-1.732.928-2.775zm-8.49-9.837h1v-3.623h-1v3.623zm.5 3.235c1.695 0 3.074-1.38 3.074-3.076 0-1.183-.661-2.242-1.725-2.762l-.44.898c.719.352 1.165 1.066 1.165 1.864 0 1.145-.93 2.076-2.074 2.076-1.145 0-2.075-.931-2.075-2.076 0-.798.446-1.512 1.164-1.864l-.44-.898c-1.064.52-1.724 1.579-1.724 2.762 0 1.696 1.379 3.076 3.075 3.076z" mask="url(#prefix__b)"/>
    </g>
</svg>
