<svg xmlns="http://www.w3.org/2000/svg" width="24" height="25" viewBox="0 0 24 25">
    <g fill="#222" fill-rule="evenodd">
        <path d="M1.277 9.726h8.449v-8.45h-8.45v8.45zM10.364 0H.638C.285 0 0 .286 0 .638v9.726c0 .352.285.638.638.638h9.726c.352 0 .638-.286.638-.638V.638c0-.352-.286-.638-.638-.638zM14.252 9.726h8.45v-8.45h-8.45v8.45zM23.34 0h-9.726c-.352 0-.638.286-.638.638v9.726c0 .352.286.638.638.638h9.726c.352 0 .638-.286.638-.638V.638c0-.352-.286-.638-.638-.638z"/>
        <path d="M3.412 6.14h1.451v1.45c0 .353.286.64.638.64.353 0 .639-.287.639-.64V6.14h1.45c.353 0 .64-.286.64-.639 0-.352-.287-.638-.64-.638H6.14V3.412c0-.352-.286-.638-.639-.638-.352 0-.638.286-.638.638v1.451H3.412c-.353 0-.638.286-.638.638 0 .353.285.639.638.639M16.387 6.14h4.18c.352 0 .638-.286.638-.639 0-.352-.286-.638-.639-.638h-4.179c-.352 0-.638.286-.638.638 0 .353.286.639.638.639M1.277 23.09h8.449v-8.448h-8.45v8.449zm9.087-9.725H.638c-.353 0-.638.286-.638.638v9.726c0 .352.285.638.638.638h9.726c.352 0 .638-.286.638-.638v-9.726c0-.352-.286-.638-.638-.638zM14.252 23.09h8.45v-8.448h-8.45v8.449zm9.088-9.725h-9.726c-.352 0-.638.286-.638.638v9.726c0 .352.286.638.638.638h9.726c.352 0 .638-.286.638-.638v-9.726c0-.352-.286-.638-.638-.638z"/>
        <path d="M3.572 20.795c.125.124.288.187.452.187.163 0 .326-.063.451-.187l1.026-1.026 1.026 1.026c.125.124.288.187.451.187.164 0 .327-.063.452-.187.249-.25.249-.653 0-.903l-1.027-1.026L7.43 17.84c.249-.25.249-.653 0-.903-.25-.249-.654-.249-.903 0l-1.026 1.027-1.026-1.027c-.25-.249-.653-.249-.903 0-.249.25-.249.654 0 .903l1.026 1.026-1.026 1.026c-.249.25-.249.653 0 .903M16.548 20.795c.124.124.287.187.451.187.164 0 .326-.063.452-.187l2.955-2.955c.249-.25.249-.653 0-.903-.25-.249-.654-.249-.903 0l-2.955 2.955c-.25.25-.25.653 0 .903M17.044 18.21c.429 0 .777-.348.777-.777 0-.429-.348-.776-.777-.776-.429 0-.777.347-.777.776 0 .429.348.777.777.777M19.91 19.523c-.43 0-.777.347-.777.776 0 .429.348.777.777.777.429 0 .777-.348.777-.777 0-.429-.348-.776-.777-.776"/>
    </g>
</svg>
