<svg xmlns="http://www.w3.org/2000/svg" xmlns:xlink="http://www.w3.org/1999/xlink" width="54" height="31" viewBox="0 0 54 31">
    <defs>
        <path id="prefix__a" d="M0 0.001L53.935 0.001 53.935 30.751 0 30.751z"/>
    </defs>
    <g fill="none" fill-rule="evenodd">
        <mask id="prefix__b" fill="#fff">
            <use xlink:href="#prefix__a"/>
        </mask>
        <path fill="#E7E7E7" d="M51.86 19.983c0 2.309-1.877 4.187-4.186 4.187h-.046c-.016-3.6-2.947-6.524-6.551-6.524-3.603 0-6.535 2.925-6.551 6.524h-11.65c-.015-3.6-2.948-6.524-6.551-6.524-3.604 0-6.535 2.925-6.551 6.524H7.49c-4.854 0-5.415-1.28-5.415-2.243v-1.353c.003-.001.007-.001.01-.003l5.87-1.883c.795-.271 1.394-1.14 1.394-2.02v-.485c0-1.013-.79-1.84-1.761-1.84H3.422c2.424-2.576 7.44-3.772 9.29-3.772h34.962c2.309 0 4.187 1.879 4.187 4.187v5.225zm-10.783 8.694c-2.47 0-4.478-2.008-4.478-4.478 0-2.47 2.009-4.478 4.478-4.478 2.47 0 4.478 2.009 4.478 4.478 0 2.47-2.008 4.478-4.478 4.478zm-24.752 0c-2.47 0-4.478-2.008-4.478-4.478 0-2.47 2.009-4.478 4.478-4.478s4.478 2.009 4.478 4.478c0 2.47-2.01 4.478-4.478 4.478zM2.465 16.419h4.81v.243c-.002.02-.02.055-.038.079L2.21 18.35l.254-1.932zM19.37 5.502c.953-.954 4.019-3.427 6.699-3.427l4.369.119v6.303H17.187c.47-.882 1.187-2 2.183-2.995zm23.055-1.095c.432.836 1.528 2.685 2.37 4.09H32.513V2.215h5.676c2.783 0 3.75 1.25 4.237 2.192zm5.249 4.09h-.455c-.79-1.304-2.427-4.03-2.95-5.041C43.132 1.255 41.086.14 38.188.14h-6.954L26.098 0c-4.114 0-8.03 3.87-8.195 4.035-1.59 1.589-2.55 3.394-3.03 4.462h-2.161c-1.71 0-4.792.676-7.378 1.969C1.844 12.212 0 14.626 0 17.45v4.476c0 2.865 2.52 4.318 7.49 4.318h2.574v-.116c.825 2.674 3.319 4.623 6.26 4.623 2.899 0 5.36-1.894 6.222-4.507H34.856c.862 2.613 3.323 4.507 6.22 4.507 2.9 0 5.36-1.894 6.222-4.507h.376c3.453 0 6.262-2.81 6.262-6.262v-5.225c0-3.453-2.81-6.261-6.262-6.261z" mask="url(#prefix__b)"/>
    </g>
</svg>
