<svg xmlns="http://www.w3.org/2000/svg" xmlns:xlink="http://www.w3.org/1999/xlink" width="29" height="17" viewBox="0 0 29 17">
    <defs>
        <path id="prefix__a" d="M0 0.02L27.966 0.02 31.405 14.974 0 14.974z"/>
    </defs>
    <g fill="none" fill-rule="evenodd" transform="matrix(-1 0 0 1 29 0)">
        <mask id="prefix__b" fill="#fff">
            <use xlink:href="#prefix__a"/>
        </mask>
        <path fill="#FFF" d="M18.802 5.998c-1.246 0-2.48.002-3.705.003-.365 0-.645-.335-.593-.71l.513-3.69c.04-.283.286-.486.562-.46l.082.009c.828.084 1.728.469 2.39.996.885.705 1.57 1.678 2.404 2.61-1.069 0-1.653.094-1.653 1.242M8.659 5.953c-.244-.004-.706-.69-.666-1.003.141-1.048.457-2.07.713-3.098.178-.705.622-.948 1.318-.919 1.07.047 2.138.051 3.205.08.294.008.515.281.473.582l-.518 3.728c-.054.387-.376.674-.753.673-1.262-.005-2.516-.016-3.772-.043m-1.99-1.281c-.125.368-.42.928-.678.954-1.094.107-2.203.045-3.335.045.516-3.04 2.806-5.09 5.081-4.56-.369 1.248-.681 2.42-1.068 3.56m20.923 5.15c-.107-.709-.413-1.566-.916-1.996-2.728-2.338-5.471-4.667-8.368-6.769-.953-.692-2.368-.915-3.587-.967C11.549-.041 8.365.053 5.187.04c-.612-.003-1.034.097-1.19.848-.097.459-.444.88-.734 1.27C1.644 4.336.96 6.83.863 9.534c-.022.55-.328.931-.594 1.384-.415.712-.253 1.853-.147 2.791.038.343 1.144.734 1.247.637v-1.012c.006-2.616 1.781-4.518 4.193-4.492 2.394.026 4.153 2.008 4.078 4.599-.044 1.513-.044 1.517 1.378 1.523 2.034.007 4.068.013 6.1.01.359 0 .715-.039 1.068-.062 0-.656-.012-1.222.003-1.785.072-2.484 1.825-4.282 4.166-4.282 2.3.003 4.28 1.792 4.321 4.282.022 1.342.022 1.342 1.531 1.177-.112-1.516-.147-3.046-.375-4.547" mask="url(#prefix__b)"/>
        <path fill="#FFF" d="M22.5 15.619c-1.044 0-1.91-.756-2.085-1.751-.022-.12-.033-.243-.033-.37 0-1.168.948-2.117 2.118-2.117s2.118.949 2.118 2.118c0 .126-.01.25-.033.369-.175.995-1.041 1.75-2.085 1.75m0-5.618c-1.932 0-3.5 1.567-3.5 3.499 0 .124.007.247.02.369C19.203 15.628 20.69 17 22.5 17s3.297-1.373 3.48-3.132c.013-.122.02-.245.02-.37C26 11.569 24.432 10 22.5 10M5.5 15.619c-1.044 0-1.91-.756-2.085-1.751-.022-.12-.033-.243-.033-.37 0-1.168.948-2.117 2.118-2.117s2.118.949 2.118 2.118c0 .126-.01.25-.033.369-.175.995-1.041 1.75-2.085 1.75M5.5 10C3.568 10 2 11.567 2 13.499c0 .124.007.247.02.369C2.203 15.628 3.69 17 5.5 17s3.297-1.373 3.48-3.132c.013-.122.02-.245.02-.37C9 11.569 7.432 10 5.5 10"/>
    </g>
</svg>
