<svg xmlns="http://www.w3.org/2000/svg" xmlns:xlink="http://www.w3.org/1999/xlink" width="36" height="36" viewBox="0 0 36 36">
    <defs>
        <path id="prefix__a" d="M0 0L27.358 0 27.358 26.397 0 26.397z"/>
    </defs>
    <g fill="none" fill-rule="evenodd" transform="translate(4 5)">
        <mask id="prefix__b" fill="#fff">
            <use xlink:href="#prefix__a"/>
        </mask>
        <path fill="#AAA" d="M25.964 24.626c-.384.497-1.007.77-1.753.77H3.148c-.746 0-1.37-.273-1.753-.77-.384-.498-.492-1.17-.303-1.892l1.89-7.212c.408-1.553 1.637-2.917 2.63-2.917h1.976l5.669 8.965c.09.145.25.233.422.233s.33-.088.423-.233l5.669-8.965h1.975c.994 0 2.222 1.363 2.63 2.917l1.89 7.212c.189.722.082 1.394-.302 1.892M6.934 7.746C6.934 4.026 9.96 1 13.679 1c3.72 0 6.746 3.026 6.746 6.746 0 1.242-.341 2.458-.987 3.514l-.007.012-5.752 9.095-5.751-9.095-.007-.012c-.646-1.056-.987-2.272-.987-3.514m20.3 14.734l-1.891-7.211c-.538-2.055-2.118-3.664-3.597-3.664H20.39c.675-1.171 1.034-2.5 1.034-3.86C21.425 3.476 17.95 0 13.679 0 9.408 0 5.934 3.475 5.934 7.746c0 1.359.359 2.688 1.033 3.859H5.612c-1.478 0-3.058 1.609-3.597 3.664l-1.89 7.21c-.27 1.03-.1 2.008.478 2.757.578.749 1.482 1.16 2.545 1.16H24.21c1.063 0 1.967-.411 2.545-1.16.577-.75.747-1.727.478-2.756M13.679 5.09c1.465 0 2.656 1.19 2.656 2.656 0 1.464-1.191 2.655-2.656 2.655-1.464 0-2.655-1.191-2.655-2.655 0-1.465 1.19-2.656 2.655-2.656m0 6.31c2.016 0 3.656-1.638 3.656-3.654s-1.64-3.656-3.656-3.656c-2.015 0-3.655 1.64-3.655 3.656s1.64 3.655 3.655 3.655" mask="url(#prefix__b)"/>
    </g>
</svg>
