<svg xmlns="http://www.w3.org/2000/svg" xmlns:xlink="http://www.w3.org/1999/xlink" width="38" height="38" viewBox="0 0 38 38">
    <defs>
        <filter id="prefix__a" width="281.8%" height="273.9%" x="-90.9%" y="-87%" filterUnits="objectBoundingBox">
            <feOffset dy="2" in="SourceAlpha" result="shadowOffsetOuter1"/>
            <feGaussianBlur in="shadowOffsetOuter1" result="shadowBlurOuter1" stdDeviation="4"/>
            <feColorMatrix in="shadowBlurOuter1" result="shadowMatrixOuter1" values="0 0 0 0 0 0 0 0 0 0 0 0 0 0 0 0 0 0 0.5 0"/>
            <feMerge>
                <feMergeNode in="shadowMatrixOuter1"/>
                <feMergeNode in="SourceGraphic"/>
            </feMerge>
        </filter>
        <path id="prefix__b" d="M0 0L21.766 0 21.766 22.031 0 22.031z"/>
    </defs>
    <g fill="none" fill-rule="evenodd" filter="url(#prefix__a)" transform="translate(8 6)">
        <mask id="prefix__c" fill="#fff">
            <use xlink:href="#prefix__b"/>
        </mask>
        <path fill="#FFF" d="M17.85 20.531c-1.334 0-2.418-1.084-2.418-2.417 0-1.333 1.084-2.417 2.417-2.417 1.333 0 2.417 1.084 2.417 2.417 0 1.333-1.084 2.417-2.417 2.417M3.917 13.433c-1.333 0-2.417-1.085-2.417-2.418 0-1.333 1.084-2.417 2.417-2.417 1.333 0 2.417 1.084 2.417 2.417 0 1.333-1.084 2.418-2.417 2.418M17.85 1.5c1.333 0 2.417 1.084 2.417 2.417 0 1.333-1.084 2.418-2.417 2.418-1.333 0-2.417-1.085-2.417-2.418 0-1.333 1.084-2.417 2.417-2.417m0 12.697c-1.25 0-2.35.6-3.069 1.513l-7.113-3.624c.098-.343.167-.698.167-1.07 0-.374-.069-.727-.167-1.07l7.113-3.624c.718.914 1.82 1.513 3.07 1.513 2.16 0 3.916-1.758 3.916-3.918S20.01 0 17.85 0s-3.917 1.757-3.917 3.917c0 .373.07.727.167 1.07L6.986 8.61c-.718-.914-1.82-1.513-3.069-1.513C1.757 7.098 0 8.855 0 11.015c0 2.161 1.757 3.918 3.917 3.918 1.25 0 2.351-.598 3.07-1.512l7.112 3.625c-.098.341-.167.695-.167 1.068 0 2.16 1.757 3.917 3.917 3.917s3.917-1.757 3.917-3.917-1.757-3.917-3.917-3.917" mask="url(#prefix__c)"/>
    </g>
</svg>
