<svg xmlns="http://www.w3.org/2000/svg" width="72" height="72" viewBox="0 0 72 72">
    <g fill="none" fill-rule="evenodd">
        <circle cx="36" cy="36" r="36" fill="#222" fill-opacity=".7"/>
        <path fill="#FFF" d="M28.7 22.741h2.085c.305 0 .552-.247.552-.552 0-.305-.247-.553-.552-.553H28.7v-1.202l-3.3 1.754 3.3 1.755V22.74zm11.661 0h2.085v1.202l3.3-1.755-3.3-1.754v1.202h-2.085c-.305 0-.552.248-.552.553 0 .305.247.552.552.552zm4.968 23.342l-.037.745H35.11v-1.12l-9.548-9.548.815-.815c.433-.433 1.197-.434 1.63 0l3.338 3.338c.4.4 1.298.823 2.046.514.443-.184.971-.676.971-1.984V22.258c0-.637.516-1.153 1.152-1.153.635 0 1.152.516 1.152 1.153v10.061c0 .305.248.553.553.553.306 0 .552-.248.552-.553v-3.506c.001-.634.517-1.15 1.152-1.15.636 0 1.153.516 1.153 1.151V32.267c0 .306.247.553.552.553.305 0 .553-.247.553-.552V30.39c0-.636.517-1.152 1.153-1.152.635 0 1.152.516 1.152 1.152v4.064c0 .306.247.553.552.553.305 0 .553-.247.553-.552v-1.078c0-.634.516-1.15 1.152-1.15.636 0 1.152.516 1.152 1.15v5.207c0 2.203-.556 4.866-1.566 7.498zm1.16 1.85c.142 0 .262.12.262.262v3.252c0 .142-.12.262-.262.262H33.691c-.142 0-.262-.12-.262-.262v-3.252c0-.143.12-.262.262-.262h12.798zM48 38.585v-5.207c0-1.244-1.012-2.256-2.257-2.256-.42 0-.815.115-1.152.317v-1.048c0-1.244-1.013-2.257-2.257-2.257-.433 0-.837.12-1.18.332-.167-1.08-1.103-1.909-2.23-1.909-.421 0-.815.115-1.153.316v-4.615c0-1.245-1.013-2.258-2.257-2.258-1.245 0-2.257 1.013-2.257 2.258v14.955c0 .528-.108.888-.29.962-.234.101-.687-.12-.842-.273l-3.337-3.338c-.85-.852-2.344-.85-3.192 0L24 36.16l10.005 10.005v.663h-.314c-.754 0-1.367.613-1.367 1.367v3.252c0 .754.613 1.367 1.367 1.367h12.798c.754 0 1.367-.613 1.367-1.367v-3.252c0-.754-.613-1.367-1.367-1.367h-.092v-.446C47.431 43.66 48 40.893 48 38.585z"/>
    </g>
</svg>
