<svg xmlns="http://www.w3.org/2000/svg" xmlns:xlink="http://www.w3.org/1999/xlink" width="45" height="14" viewBox="0 0 45 14">
    <defs>
        <path id="prefix__a" d="M0.007 0.126L7.318 0.126 7.318 13.627 0.007 13.627z"/>
        <path id="prefix__c" d="M0.162 0.003L8.31 0.003 8.31 9.505 0.162 9.505z"/>
    </defs>
    <g fill="none" fill-rule="evenodd">
        <path fill="#1E1E1E" d="M1.609 0L0 .333V13.17h1.609V0zm.577 8.487l4.232 4.917 1.242-.914-3.586-4.085L7.17 4.717l-1.26-.863-3.724 4.633z"/>
        <g>
            <path fill="#1E1E1E" d="M3.007 12.305c.211 0 .43-.028.657-.084.227-.055.454-.128.681-.217.227-.09.442-.198.64-.326.2-.129.378-.265.533-.41V9.126H3.921c-.808 0-1.399.14-1.77.419-.37.279-.557.72-.557 1.321 0 .96.47 1.44 1.413 1.44M.125 10.932c0-.925.308-1.631.927-2.116.617-.485 1.516-.728 2.696-.728h1.77v-.585c0-1.417-.624-2.125-1.87-2.125-.4 0-.821.056-1.26.167-.44.112-.844.251-1.211.419L.726 4.877c.456-.256.949-.454 1.478-.594.528-.139 1.043-.209 1.544-.209 2.16 0 3.239 1.154 3.239 3.463v5.855H5.852l-.184-1.004c-.456.369-.943.653-1.46.854-.518.2-1.01.3-1.479.3-.812 0-1.449-.23-1.91-.693-.463-.463-.694-1.102-.694-1.916" transform="translate(8.617)"/>
            <g transform="translate(8.617) translate(9.714)">
                <mask id="prefix__b" fill="#fff">
                    <use xlink:href="#prefix__a"/>
                </mask>
                <path fill="#1E1E1E" d="M5.649 4.008l1.202.87L3.897 8.59l3.421 4.115-1.184.92-4.04-4.951 3.555-4.667zm-4.107 9.384H.007V.461L1.542.126v13.266z" mask="url(#prefix__b)"/>
            </g>
            <path fill="#1E1E1E" d="M21.276 12.305c.21 0 .429-.028.656-.084.227-.055.454-.128.682-.217.227-.09.44-.198.64-.326.199-.129.376-.265.531-.41V9.126H22.19c-.81 0-1.4.14-1.771.419-.372.279-.556.72-.556 1.321 0 .96.47 1.44 1.413 1.44m-2.883-1.373c0-.925.309-1.631.926-2.116.618-.485 1.516-.728 2.697-.728h1.77v-.585c0-1.417-.623-2.125-1.87-2.125-.402 0-.82.056-1.261.167-.44.112-.844.251-1.21.419l-.451-1.088c.457-.256.949-.454 1.477-.594.528-.139 1.043-.209 1.545-.209 2.159 0 3.239 1.154 3.239 3.463v5.855h-1.136l-.184-1.004c-.456.369-.942.653-1.46.854-.518.2-1.01.3-1.478.3-.813 0-1.45-.23-1.912-.693-.462-.463-.692-1.102-.692-1.916" transform="translate(8.617)"/>
            <g transform="translate(8.617) translate(27.199 4.088)">
                <mask id="prefix__d" fill="#fff">
                    <use xlink:href="#prefix__c"/>
                </mask>
                <path fill="#1E1E1E" d="M4.236 1.24c-.801 0-1.417.302-1.845.904-.43.602-.643 1.483-.643 2.643 0 1.15.214 2.016.643 2.602.428.585 1.044.878 1.845.878.812 0 1.432-.293 1.862-.878.428-.586.642-1.453.642-2.602 0-1.16-.214-2.04-.642-2.643-.43-.602-1.05-.903-1.862-.903m0-1.238C5.504.003 6.5.416 7.224 1.24c.723.825 1.086 2.007 1.086 3.546 0 1.517-.36 2.683-1.078 3.497-.717.814-1.717 1.221-2.996 1.221-1.269 0-2.266-.407-2.989-1.22C.524 7.47.162 6.303.162 4.786c0-1.539.364-2.72 1.093-3.546C1.985.416 2.978.003 4.235.003" mask="url(#prefix__d)"/>
            </g>
        </g>
    </g>
</svg>
