<svg xmlns="http://www.w3.org/2000/svg" xmlns:xlink="http://www.w3.org/1999/xlink" width="47" height="14" viewBox="0 0 47 14">
    <defs>
        <path id="prefix__a" d="M0 0L47 0 47 14 0 14z"/>
    </defs>
    <g fill="none" fill-rule="evenodd" transform="matrix(-1 0 0 1 47 0)">
        <mask id="prefix__b" fill="#fff">
            <use xlink:href="#prefix__a"/>
        </mask>
        <path fill="#BABABA" d="M28.293 3.56H17.612L17.156.776c2.708-.073 6.2-.084 7.84.2.597.105 1.861.476 3.965 2.116.545.425-.167.468-.668.468zm-17.409 0c-1.13 0 1.567-2.011 3.006-2.479.332-.108 1.246-.226 2.085-.263l.45 2.742h-5.54zm32.838 2.084c-2.866-1.351-10.853-2.293-10.853-2.293C31.538 3.187 26.79.523 25.364.236 23.88-.063 16.407-.048 14.15.116c-2.257.163-6.284 2.62-7.17 2.866-.886.246-2.337.451-2.337.451-.019.003-.092-.071-.106-.081-.264-.201-.52-.417-.82-.563-1.006-.491-2.163-.328-3.215-.103-.133.028-.273.065-.388.142-.037.024-.088.06-.104.105-.006.013-.016.036-.006.05 0 0 .688 1.023 1.052 1.392C.17 5.153.337 6.996.337 6.996c-.201.205-.358 1.72-.074 2.253.216.404 2.8 2.078 4.635 2.18C4.388 7.87 6.146 5.207 10 5.207s4.7 3.714 4.42 5.493c-.08.51-.08 1-.227 1.456h18.181c-.123-.52-.393-.655-.393-1.674 0-1.561.246-4.81 4.377-5.056 4.132-.246 5.162 2.821 5.25 5.056.02.513-.222 1.283-.348 1.674h3.286c2.137 0 2.457-1.146 2.454-2.17-.003-1.024-.205-1.065-.205-1.065s-.206-1.925-3.073-3.277zM5.645 10c.005 2.209 1.801 4 4.01 4 2.21 0 3.996-1.791 3.99-4-.006-2.209-1.802-4-4.011-4-2.21 0-3.995 1.791-3.99 4zm27.105 0c.006 2.21 1.801 4 4.01 4 2.21 0 3.995-1.79 3.99-4-.007-2.209-1.802-4-4.011-4-2.21 0-3.995 1.791-3.99 4z" mask="url(#prefix__b)"/>
        <circle cx="37" cy="10" r="2" fill="#F6F7F8" mask="url(#prefix__b)"/>
        <circle cx="10" cy="10" r="2" fill="#F6F7F8" mask="url(#prefix__b)"/>
    </g>
</svg>
