<svg xmlns="http://www.w3.org/2000/svg" xmlns:xlink="http://www.w3.org/1999/xlink" width="32" height="32" viewBox="0 0 32 32">
    <defs>
        <path id="prefix__a" d="M0 0L32 0 32 32 0 32z"/>
    </defs>
    <g fill="none" fill-rule="evenodd">
        <mask id="prefix__b" fill="#fff">
            <use xlink:href="#prefix__a"/>
        </mask>
        <path fill="#475993" d="M27.688 0H4.312C1.93 0 0 1.93 0 4.312v23.376C0 30.069 1.93 32 4.312 32H15.84l.02-11.435H12.89c-.386 0-.7-.312-.701-.698l-.015-3.687c-.001-.388.313-.703.701-.703h2.966v-3.562c0-4.133 2.525-6.383 6.211-6.383h3.026c.387 0 .701.313.701.7V9.34c0 .388-.314.701-.7.701l-1.857.002c-2.006 0-2.394.952-2.394 2.35v3.084h4.406c.42 0 .746.367.696.783l-.437 3.686c-.041.353-.34.619-.696.619h-3.949L20.828 32h6.86C30.07 32 32 30.07 32 27.688V4.312C32 1.93 30.07 0 27.688 0" mask="url(#prefix__b)"/>
    </g>
</svg>
