<svg xmlns="http://www.w3.org/2000/svg" xmlns:xlink="http://www.w3.org/1999/xlink" width="54" height="31" viewBox="0 0 54 31">
    <defs>
        <path id="prefix__a" d="M0 0L53.935 0 53.935 30.751 0 30.751z"/>
    </defs>
    <g fill="none" fill-rule="evenodd">
        <mask id="prefix__b" fill="#fff">
            <use xlink:href="#prefix__a"/>
        </mask>
        <path fill="#E7E7E7" d="M46.446 24.169h-2.284c-.016-3.6-2.947-6.523-6.551-6.523-3.603 0-6.536 2.924-6.551 6.523H19.41c-.016-3.6-2.948-6.523-6.551-6.523s-6.536 2.924-6.551 6.523h-.046c-2.31 0-4.187-1.878-4.187-4.187v-5.224c0-2.31 1.878-4.188 4.187-4.188h34.962c1.849 0 6.866 1.197 9.29 3.774h-4.166c-.971 0-1.761.825-1.761 1.839v.484c0 .88.599 1.749 1.412 2.027l5.833 1.87c.01.004.019.005.029.008v1.355c0 .963-.561 2.242-5.415 2.242zm-8.835 4.508c-2.47 0-4.478-2.01-4.478-4.48 0-2.467 2.009-4.476 4.478-4.476s4.478 2.009 4.478 4.477c0 2.47-2.01 4.479-4.478 4.479zm-24.752 0c-2.47 0-4.478-2.01-4.478-4.48 0-2.467 2.008-4.476 4.478-4.476 2.469 0 4.478 2.009 4.478 4.477 0 2.47-2.01 4.479-4.478 4.479zm-1.35-24.271c.488-.94 1.456-2.191 4.239-2.191h5.675v6.28H9.139c.844-1.403 1.939-3.253 2.37-4.09zm16.329-2.332c2.709 0 5.775 2.474 6.728 3.427.997.996 1.712 2.113 2.183 2.995H23.498V2.193l4.34-.12zm23.887 16.278l-5.027-1.612c-.017-.022-.034-.057-.037-.073v-.25h4.809l.255 1.935zM41.224 8.496h-2.162c-.48-1.067-1.44-2.873-3.03-4.462C35.868 3.869 31.952 0 27.81 0l-5.108.14h-6.954c-2.898 0-4.944 1.115-6.08 3.315-.524 1.012-2.162 3.737-2.951 5.04h-.455C2.809 8.496 0 11.306 0 14.759v5.224c0 3.453 2.809 6.262 6.262 6.262h.376c.86 2.613 3.322 4.507 6.22 4.507 2.899 0 5.36-1.894 6.222-4.507h12.309c.863 2.613 3.324 4.507 6.222 4.507 2.94 0 5.435-1.948 6.26-4.621v.114h2.575c4.97 0 7.49-1.453 7.49-4.317V17.45c0-6.291-9.094-8.954-12.712-8.954z" mask="url(#prefix__b)"/>
    </g>
</svg>
