<svg xmlns="http://www.w3.org/2000/svg" xmlns:xlink="http://www.w3.org/1999/xlink" width="14" height="12" viewBox="0 0 14 12">
    <defs>
        <path id="prefix__a" d="M0 0L13.769 0 13.769 11.764 0 11.764z"/>
    </defs>
    <g fill="none" fill-rule="evenodd">
        <mask id="prefix__b" fill="#fff">
            <use xlink:href="#prefix__a"/>
        </mask>
        <path fill="#999" d="M3.501 11.6c-.794-.212-1.52-.628-2.114-1.223C.491 9.484 0 8.29 0 7.017c0-1.272.493-2.466 1.388-3.36L4.756.29l.706.708-3.368 3.368C1.388 5.07 1 6.013 1 7.018c0 1.005.388 1.947 1.093 2.653.705.704 1.647 1.095 2.653 1.093 1.006 0 1.948-.388 2.654-1.094l4.69-4.687c.436-.44.68-1.025.68-1.651 0-.626-.244-1.211-.682-1.651-.438-.437-1.024-.68-1.65-.681-.626 0-1.213.243-1.652.68L4.167 6.3c-.172.172-.268.403-.268.649.001.245.096.476.27.647.354.36.938.359 1.296 0L9.46 3.603l.706.706-3.995 3.996c-.748.748-1.964.746-2.71 0-.36-.361-.562-.843-.562-1.355 0-.514.201-.995.562-1.357L8.08.974C8.707.346 9.544 0 10.44 0c.891.002 1.728.347 2.356.975.627.627.974 1.464.974 2.357 0 .893-.346 1.73-.974 2.358l-4.689 4.687c-.893.895-2.086 1.388-3.36 1.387-.426 0-.844-.056-1.245-.163" mask="url(#prefix__b)"/>
    </g>
</svg>
