<?xml version="1.0" encoding="UTF-8"?>
<svg width="38px" height="16px" viewBox="0 0 38 16" version="1.1" xmlns="http://www.w3.org/2000/svg" xmlns:xlink="http://www.w3.org/1999/xlink">
    <!-- Generator: sketchtool 63.1 (101010) - https://sketch.com -->
    <title>708A6F90-03E4-436D-9B5A-76E1451FF3C1</title>
    <desc>Created with sketchtool.</desc>
    <defs>
        <polygon id="path-1" points="0 0 38 0 38 16 0 16"></polygon>
    </defs>
    <g id="홈서비스" stroke="none" stroke-width="1" fill="none" fill-rule="evenodd">
        <g id="IA-M-HS-CS-002-01" transform="translate(-212.000000, -259.000000)">
            <g id="차종" transform="translate(20.000000, 209.000000)">
                <g id="btn" transform="translate(0.000000, 32.000000)">
                    <g id="준중형차" transform="translate(172.000000, 0.000000)">
                        <g transform="translate(39.000000, 26.000000) scale(-1, 1) translate(-39.000000, -26.000000) translate(20.000000, 18.000000)">
                            <mask id="mask-2" fill="white">
                                <use xlink:href="#path-1"></use>
                            </mask>
                            <g id="Clip-2" transform="translate(19.000000, 8.000000) scale(-1, 1) translate(-19.000000, -8.000000) "></g>
                            <path d="M33.4511993,12.5819305 C33.4277673,13.6225662 32.582415,14.4592325 31.5381915,14.4592325 C30.4969722,14.4592325 29.6519202,13.6225662 29.6284883,12.5819305 C29.6284883,12.5671676 29.624583,12.5533085 29.624583,12.5388468 C29.624583,11.4780251 30.4822521,10.6184612 31.5381915,10.6184612 C32.5974355,10.6184612 33.4557054,11.4780251 33.4557054,12.5388468 C33.4557054,12.5533085 33.4511993,12.5671676 33.4511993,12.5819305 M31.5381915,9.07859752 C29.6317928,9.07859752 28.0873875,10.627801 28.0873875,12.5388468 C28.0873875,12.5530072 28.0888896,12.5671676 28.0894904,12.5819305 C28.1126219,14.4727903 29.6462125,16 31.5381915,16 C33.4307714,16 34.9643619,14.4727903 34.9877939,12.5819305 C34.9883947,12.5671676 34.9901972,12.5530072 34.9901972,12.5388468 C34.9901972,10.627801 33.4451911,9.07859752 31.5381915,9.07859752 M9.87055513,12.5819305 C9.84712318,13.6225662 9.00177083,14.4592325 7.95874903,14.4592325 C6.91632805,14.4592325 6.0709757,13.6225662 6.04754376,12.5819305 C6.04754376,12.5671676 6.04333802,12.5533085 6.04333802,12.5388468 C6.04333802,11.4780251 6.90160798,10.6184612 7.95874903,10.6184612 C9.01679131,10.6184612 9.87506127,11.4780251 9.87506127,12.5388468 C9.87506127,12.5533085 9.87055513,12.5671676 9.87055513,12.5819305 M7.95874903,9.07859752 C6.05144908,9.07859752 4.50644299,10.627801 4.50644299,12.5388468 C4.50644299,12.5518021 4.50824545,12.5650586 4.50824545,12.5789176 C4.53047575,14.4712838 6.0646671,16 7.95874903,16 C9.84922605,16 11.3837178,14.4727903 11.4071497,12.5819305 C11.4077506,12.5671676 11.409553,12.5530072 11.409553,12.5388468 C11.409553,10.627801 9.86364571,9.07859752 7.95874903,9.07859752 M25.0805888,4.8642338 L19.2727718,4.8642338 C19.0096131,4.8642338 18.7515613,4.65544383 18.6956852,4.39724325 L18.2006103,2.12766919 C18.145335,1.86946861 18.3105602,1.69080707 18.570114,1.73238429 C19.8528626,1.94057169 21.0025298,2.24999058 21.8659067,2.6374421 C23.1549639,3.21831808 24.3403798,3.9874967 25.1719133,4.58253305 C25.385204,4.736188 25.3431467,4.8642338 25.0805888,4.8642338 M16.6571063,4.8642338 L9.39530729,4.8642338 C9.13244897,4.8642338 8.87079229,4.65544383 8.81040998,4.39935224 L8.68003225,3.83685459 C8.61934953,3.58046172 8.73861211,3.23940798 8.94949958,3.08454789 C9.94445586,2.35965804 11.1764352,1.70496742 12.5138584,1.55583173 C13.2468576,1.47327986 14.0285231,1.43170263 14.8378263,1.43170263 C15.1998198,1.43170263 15.5618132,1.44254886 15.9217038,1.46062592 C16.1848625,1.47327986 16.4432147,1.69683275 16.4987905,1.95412948 L17.0317169,4.39724325 C17.0872927,4.65544383 16.920265,4.8642338 16.6571063,4.8642338 M33.4947586,5.94011976 C30.5660664,5.08748541 27.3111294,4.42737167 27.3111294,4.42737167 C27.3111294,4.42737167 25.1124322,2.53139005 22.4514048,1.33227884 C20.5429032,0.472112379 17.6346388,0 14.8378263,0 C13.9897703,0 13.1522286,0.0436862125 12.3543409,0.13196249 C8.38142521,0.577260573 5.41758502,4.00587504 5.41758502,4.00587504 L0.819216722,4.68587354 C0.239726785,4.91816367 0,5.46529582 0,5.84551651 L0,10.5795955 C0,11.3532934 0.158616219,11.9151885 1.43595744,12.243287 C2.16565213,12.4312884 3.06177368,12.5159492 3.79357124,12.5533085 C3.79357124,12.5487892 3.79297042,12.5436674 3.79297042,12.5388468 C3.79297042,10.2364328 5.66121713,8.36334877 7.95874903,8.36334877 C10.2547789,8.36334877 12.123326,10.2364328 12.123326,12.5388468 C12.123326,12.5530072 12.1215236,12.5671676 12.1209227,12.5819305 L27.3757174,12.5819305 C27.3751166,12.5671676 27.3736146,12.5530072 27.3736146,12.5388468 C27.3736146,10.2364328 29.2418613,8.36334877 31.5381915,8.36334877 C33.8348222,8.36334877 35.7036697,10.2364328 35.7036697,12.5388468 C35.7036697,12.5530072 35.7021677,12.5671676 35.7015669,12.5819305 L37.0546113,12.5819305 C37.8912518,12.5819305 38,12.0061763 38,11.6244492 L38,9.49617746 C38,8.14160359 36.6739924,6.86506233 33.4947586,5.94011976" id="Fill-1" fill="#BABABA" mask="url(#mask-2)"></path>
                        </g>
                    </g>
                </g>
            </g>
        </g>
    </g>
</svg>