<svg xmlns="http://www.w3.org/2000/svg" xmlns:xlink="http://www.w3.org/1999/xlink" width="698" height="401" viewBox="0 0 698 401">
    <defs>
        <path id="prefix__a" d="M0 0L646 0 646 279 0 279z"/>
        <path id="prefix__c" d="M0.341 -0.001L19.003 -0.001 19.003 15 0.341 15z"/>
        <path id="prefix__e" d="M0 -0.003L18.662 -0.003 18.662 14.998 0 14.998z"/>
        <circle id="prefix__g" cx="10" cy="13" r="10"/>
        <circle id="prefix__h" cx="10" cy="13" r="10"/>
    </defs>
    <g fill="none" fill-rule="evenodd">
        <g>
            <g transform="translate(3 48) translate(18 21)">
                <mask id="prefix__b" fill="#fff">
                    <use xlink:href="#prefix__a"/>
                </mask>
                <use fill="#7892D5" transform="matrix(-1 0 0 1 646 0)" xlink:href="#prefix__a"/>
                <path fill="#FF7F7F" d="M646 246.263L0 43 0 279 646 282z" mask="url(#prefix__b)" transform="matrix(-1 0 0 1 646 0)"/>
            </g>
            <path fill="#777" d="M14 2L14 303 665 303 665 298.925 17.914 298.925 17.914 2zM14 320L18 320 18 303 14 303zM92 320L96 320 96 303 92 303zM170 320L174 320 174 303 170 303zM246 320L250 320 250 303 246 303zM327 320L331 320 331 303 327 303zM412 320L416 320 416 303 412 303zM493 320L497 320 497 303 493 303zM578 320L582 320 582 303 578 303zM661 320L665 320 665 303 661 303z" transform="translate(3 48)"/>
            <g>
                <path fill="#FFF" d="M672.868 16.49c0 6.853-5.55 12.412-12.397 12.412-6.846 0-12.396-5.559-12.396-12.412 0-6.854 5.55-12.411 12.396-12.411 6.847 0 12.397 5.557 12.397 12.411" transform="translate(3 48) translate(0 47)"/>
                <path fill="#3F64C3" d="M660.471 8.159c-4.588 0-8.32 3.737-8.32 8.331 0 4.595 3.732 8.332 8.32 8.332 4.589 0 8.322-3.737 8.322-8.332 0-4.594-3.733-8.331-8.322-8.331m0 24.824c-9.083 0-16.471-7.398-16.471-16.493 0-9.094 7.388-16.492 16.471-16.492 9.084 0 16.472 7.398 16.472 16.492 0 9.095-7.388 16.493-16.472 16.493" transform="translate(3 48) translate(0 47)"/>
                <path fill="#FFF" d="M28.868 222.49c0 6.853-5.55 12.412-12.397 12.412-6.846 0-12.396-5.559-12.396-12.412 0-6.854 5.55-12.411 12.396-12.411 6.847 0 12.397 5.557 12.397 12.411" transform="translate(3 48) translate(0 47)"/>
                <path fill="#3F64C3" d="M16.471 214.159c-4.588 0-8.32 3.737-8.32 8.331 0 4.595 3.732 8.332 8.32 8.332 4.589 0 8.322-3.737 8.322-8.332 0-4.594-3.733-8.331-8.322-8.331m0 24.824C7.388 238.983 0 231.585 0 222.49c0-9.094 7.388-16.492 16.471-16.492 9.084 0 16.472 7.398 16.472 16.492 0 9.095-7.388 16.493-16.472 16.493" transform="translate(3 48) translate(0 47)"/>
                <path fill="#3F64C3" d="M27.868 25.822L158.21 62.886 296.369 106.5 428.061 149.617 557.5 190.266 649.075 219.223 653.15 211.079 557.5 180.741 428.061 141.5 296.369 97.732 163.593 56.028 31.943 17.49z" transform="translate(3 48) translate(0 47) matrix(-1 0 0 1 681.018 0)"/>
            </g>
        </g>
        <text fill="#FFF" font-family="AppleSDGothicNeo-Bold, Apple SD Gothic Neo" font-size="20" font-weight="bold">
            <tspan x="158.2" y="171">이자</tspan>
        </text>
        <text fill="#FFF" font-family="AppleSDGothicNeo-Bold, Apple SD Gothic Neo" font-size="20" font-weight="bold">
            <tspan x="484.2" y="269">원금</tspan>
        </text>
        <text fill="#333" font-family="NotoSansKR-Regular, Noto Sans KR Regular" font-size="16">
            <tspan x="155.84" y="396">6개월</tspan>
        </text>
        <text fill="#333" font-family="NotoSansKR-Regular, Noto Sans KR Regular" font-size="16">
            <tspan x="233.34" y="396">9개월</tspan>
        </text>
        <text fill="#333" font-family="NotoSansKR-Regular, Noto Sans KR Regular" font-size="16">
            <tspan x="77.84" y="396">3개월</tspan>
        </text>
        <text fill="#333" font-family="NotoSansKR-Regular, Noto Sans KR Regular" font-size="16">
            <tspan x=".84" y="396">1개월</tspan>
        </text>
        <text fill="#333" font-family="NotoSansKR-Regular, Noto Sans KR Regular" font-size="16">
            <tspan x="309.9" y="396">12개월</tspan>
        </text>
        <text fill="#333" font-family="NotoSansKR-Regular, Noto Sans KR Regular" font-size="16">
            <tspan x="393.9" y="396">21개월</tspan>
        </text>
        <text fill="#333" font-family="NotoSansKR-Regular, Noto Sans KR Regular" font-size="16">
            <tspan x="477.9" y="396">30개월</tspan>
        </text>
        <text fill="#333" font-family="NotoSansKR-Regular, Noto Sans KR Regular" font-size="16">
            <tspan x="561.9" y="396">39개월</tspan>
        </text>
        <text fill="#333" font-family="NotoSansKR-Regular, Noto Sans KR Regular" font-size="16">
            <tspan x="647.4" y="396">48개월</tspan>
        </text>
        <text fill="#777" font-family="NotoSansKR-Regular, Noto Sans KR Regular" font-size="18">
            <tspan x="17" y="21">대출기간(개월)</tspan>
        </text>
        <g>
            <g>
                <g transform="translate(412) translate(0 3) translate(1 5.003)">
                    <mask id="prefix__d" fill="#fff">
                        <use xlink:href="#prefix__c"/>
                    </mask>
                    <path fill="#FF7F7F" d="M14.002 13.659c4.783-2.762 6.42-8.877 3.66-13.66L.34 9.999c2.762 4.783 8.878 6.422 13.66 3.66" mask="url(#prefix__d)"/>
                </g>
                <g transform="translate(412) translate(0 3) translate(0 .003)">
                    <mask id="prefix__f" fill="#fff">
                        <use xlink:href="#prefix__e"/>
                    </mask>
                    <path fill="#7892D5" d="M5.002 1.338C.219 4.1-1.42 10.215 1.34 14.998l17.32-10C15.9.215 9.786-1.424 5.002 1.338" mask="url(#prefix__f)"/>
                </g>
            </g>
            <text fill="#777" font-family="NotoSansKR-Regular, Noto Sans KR Regular" font-size="18" transform="translate(412)">
                <tspan x="28" y="21">월 납입금</tspan>
            </text>
            <g transform="translate(412) translate(193)">
                <use fill="#7892D5" xlink:href="#prefix__g"/>
                <text fill="#777" font-family="NotoSansKR-Regular, Noto Sans KR Regular" font-size="18">
                    <tspan x="28" y="21">이자</tspan>
                </text>
            </g>
            <g transform="translate(412) translate(115)">
                <text fill="#777" font-family="NotoSansKR-Regular, Noto Sans KR Regular" font-size="18">
                    <tspan x="28" y="21">원금</tspan>
                </text>
                <use fill="#FF7F7F" xlink:href="#prefix__h"/>
            </g>
        </g>
    </g>
</svg>
