<svg xmlns="http://www.w3.org/2000/svg" width="34" height="45" viewBox="0 0 34 45">
    <path fill="#FFF" fill-rule="evenodd" d="M6.88 3.721h2.831c.414 0 .75-.336.75-.75s-.336-.75-.75-.75H6.88V.59L2.401 2.971 6.88 5.352V3.721zm15.83 0h2.831v1.631l4.479-2.381L25.541.59v1.631H22.71c-.414 0-.75.336-.75.75s.336.75.75.75zm6.744 31.686l-.05 1.011H15.581v-1.521l-12.96-12.96 1.106-1.107c.588-.587 1.624-.588 2.213 0l4.53 4.532c.543.543 1.763 1.117 2.778.697.601-.249 1.318-.918 1.318-2.692V3.065c0-.863.702-1.565 1.564-1.565.863 0 1.564.702 1.564 1.565v13.659c0 .414.336.75.75.75.415 0 .75-.336.75-.75v-4.76c.001-.861.702-1.563 1.565-1.563.862 0 1.564.702 1.564 1.564v1.643l-.001.004v3.042c0 .414.336.75.75.75s.75-.336.75-.75v-2.548h.001c0-.863.702-1.565 1.564-1.565.863 0 1.564.702 1.564 1.565v5.518c0 .414.336.75.75.75s.75-.336.75-.75v-1.463c0-.862.702-1.563 1.564-1.563.863 0 1.565.701 1.565 1.563v7.069c0 2.99-.755 6.604-2.126 10.177zm1.574 2.511c.193 0 .356.163.356.356v4.415c0 .192-.163.355-.356.355H13.656c-.193 0-.356-.163-.356-.355v-4.415c0-.193.163-.356.356-.356h17.372zM33.08 25.23v-7.069c0-1.689-1.375-3.063-3.065-3.063-.571 0-1.106.157-1.564.43v-1.422c0-1.69-1.374-3.065-3.064-3.065-.586 0-1.134.165-1.6.452-.228-1.466-1.499-2.592-3.028-2.592-.571 0-1.107.157-1.565.43V3.065C19.194 1.375 17.82 0 16.13 0c-1.689 0-3.064 1.375-3.064 3.065v20.302c0 .716-.146 1.205-.392 1.306-.318.136-.933-.162-1.143-.372L7 19.77c-1.154-1.155-3.181-1.154-4.333 0L.5 21.937l13.581 13.581v.9h-.425c-1.024 0-1.856.832-1.856 1.856v4.415c0 1.023.832 1.855 1.856 1.855h17.372c1.024 0 1.856-.832 1.856-1.855v-4.415c0-1.024-.832-1.856-1.856-1.856h-.124v-.604c1.404-3.697 2.176-7.451 2.176-10.584z"/>
</svg>
