<svg xmlns="http://www.w3.org/2000/svg" xmlns:xlink="http://www.w3.org/1999/xlink" width="159" height="97" viewBox="0 0 159 97">
    <defs>
        <path id="prefix__a" d="M0 0.131L112.986 0.131 112.986 33.975 0 33.975z"/>
    </defs>
    <g fill="none" fill-rule="evenodd" transform="translate(8)">
        <path stroke="#FFF" stroke-width="30" d="M135.788 0c0 32.189-28.63 58.283-63.949 58.283C36.521 58.283 7.889 32.19 7.889 0"/>
        <ellipse cx="73.5" cy="87.633" fill="#249" rx="73.5" ry="9.159"/>
        <g transform="translate(16 51)">
            <path fill="#110F0F" d="M7.566 33.129L31.928 33.129 83.907 32.236 98.776 29.583 101.028 32.265 104.661 26.738 95.032 16.774 65.37 17.895 39.589 20.223 16.576 17.895 6.255 21.916z"/>
            <path fill="#0B1829" d="M26.195 30.481c0 4.705-3.808 8.519-8.506 8.519s-8.507-3.814-8.507-8.519c0-4.704 3.809-8.518 8.507-8.518 4.698 0 8.506 3.814 8.506 8.518"/>
            <path fill="#DCDDE7" d="M17.146 36.551l.565-3.572.627 3.563c-.214.022-.43.035-.65.035-.183 0-.363-.01-.542-.026zm-3.52-10.607l2.224 2.85-3.03-1.97c.24-.32.51-.614.806-.88zm8.866.796l-2.995 2.023 2.174-2.889c.3.261.576.551.821.866zm-2.534 2.706l2.995-2.023c.199.343.365.706.495 1.086l-3.49.937zm.213.796l3.49-.936c.074.38.114.773.114 1.176v.013l-3.604-.253zm-.057.823l3.603.252c-.055.4-.148.79-.277 1.161l-3.326-1.413zm-.322.758l3.325 1.414c-.18.357-.396.694-.641 1.006l-2.684-2.42zM20.273 36c-.357.169-.734.303-1.124.399l-.628-3.563L20.273 36zm-1.032-3.564l2.684 2.42c-.285.277-.598.526-.933.744l-1.75-3.164zm-2.344.414l-.565 3.573c-.393-.09-.77-.217-1.13-.379l1.695-3.194zm-.726-.388l-1.696 3.195c-.34-.211-.656-.455-.946-.728l2.642-2.467zm-.562-.602l-2.642 2.467c-.25-.308-.471-.641-.659-.995l3.301-1.472zm-.335-.753l-3.302 1.472c-.135-.37-.236-.757-.298-1.157l3.6-.315zm-3.378-2.497c.123-.383.283-.749.476-1.095l3.03 1.971-3.506-.876zm4.603-.324l-2.225-2.85c.328-.223.679-.415 1.048-.572l1.177 3.422zm.778-.268l-1.176-3.42c.379-.103.772-.17 1.176-.196v3.616zm2.68-3.193c.372.15.726.335 1.057.553l-2.174 2.888 1.117-3.44zM18.1 27.88v-3.477c.368.024.727.08 1.074.168L18.1 27.879zm-6.498 2.603c0-.366.034-.724.096-1.072l3.505.875-3.598.316-.003-.12zm6.087-6.65c-3.667 0-6.64 2.977-6.64 6.65 0 3.672 2.973 6.648 6.64 6.648s6.639-2.976 6.639-6.648c0-3.673-2.972-6.65-6.64-6.65z"/>
            <path fill="#729AB2" d="M18.832 30.481c0 .633-.512 1.146-1.143 1.146-.632 0-1.143-.513-1.143-1.146 0-.632.511-1.145 1.143-1.145.631 0 1.143.513 1.143 1.145"/>
            <path fill="#0B1829" d="M98.932 30.481c0 4.705-3.809 8.519-8.507 8.519-4.698 0-8.506-3.814-8.506-8.519 0-4.704 3.808-8.518 8.506-8.518s8.507 3.814 8.507 8.518"/>
            <path fill="#DCDDE7" d="M89.882 36.551l.565-3.572.627 3.563c-.213.022-.43.035-.649.035-.183 0-.364-.01-.543-.026zm-3.52-10.607l2.225 2.85-3.03-1.97c.239-.32.51-.614.806-.88zm8.866.796l-2.994 2.023 2.174-2.889c.3.261.576.551.82.866zm-2.533 2.706l2.994-2.023c.2.342.366.706.495 1.086l-3.49.937zm.213.796l3.49-.936c.074.38.114.773.114 1.176v.013l-3.604-.253zm-.058.823l3.603.252c-.054.4-.148.79-.277 1.161l-3.326-1.413zm-.321.758l3.325 1.414c-.181.357-.396.694-.641 1.006l-2.684-2.42zm.48 4.177c-.357.168-.733.302-1.124.399l-.627-3.563L93.01 36zm-1.031-3.564l2.684 2.42c-.286.277-.598.526-.933.744l-1.751-3.164zm-2.344.414l-.565 3.573c-.393-.09-.771-.217-1.131-.379l1.696-3.194zm-.727-.387l-1.696 3.194c-.339-.211-.655-.455-.945-.728l2.641-2.466zm-.561-.603l-2.642 2.467c-.251-.308-.472-.641-.66-.995l3.302-1.472zm-.335-.753l-3.302 1.472c-.136-.37-.236-.757-.298-1.157l3.6-.315zm-3.379-2.497c.123-.383.283-.749.476-1.095l3.03 1.97-3.506-.875zm4.604-.323l-2.225-2.852c.328-.222.678-.415 1.047-.57l1.178 3.422zm.778-.268l-1.177-3.422c.379-.102.772-.168 1.177-.195v3.617zm2.68-3.194c.371.15.725.335 1.057.552l-2.174 2.889 1.116-3.44zm-1.857 3.053v-3.476c.367.024.726.08 1.073.168l-1.073 3.308zm-6.498 2.604c0-.366.033-.724.095-1.072l3.506.875-3.598.316-.003-.12zm6.086-6.65c-3.667 0-6.639 2.977-6.639 6.65 0 3.672 2.972 6.648 6.64 6.648 3.666 0 6.639-2.976 6.639-6.648 0-3.673-2.973-6.65-6.64-6.65z"/>
            <path fill="#729AB2" d="M91.569 30.481c0 .633-.512 1.146-1.144 1.146-.631 0-1.143-.513-1.143-1.146 0-.632.512-1.145 1.143-1.145.632 0 1.144.513 1.144 1.145"/>
            <mask id="prefix__b" fill="#fff">
                <use xlink:href="#prefix__a"/>
            </mask>
            <path fill="#DCDDE7" d="M84.116 10.589l-10.255.34c-.642.022-1.147-.547-1.05-1.184l.704-4.699c.077-.506.544-.863 1.052-.794 5.109.7 8.44 3.149 10.144 4.77.585.555.211 1.542-.595 1.567M69.342 4.574l-1.806 6.512-19.584.616s1.75-1.97-1.372-2.655c0 0 7.4-6.735 21.96-5.614.566.041.953.59.802 1.14m43.644 19.931v-2.226c0-.47-.231-.91-.615-1.181l-1.512-1.059c.041-.283.074-.56.099-.824.052-.563.066-1.083.055-1.555-.042-1.83-.475-2.976-.612-3.297-.028-.064-.044-.094-.044-.094l.518-2.67c.088-.443-.29-.842-.735-.765-2.184.377-7.008-.008-9.346-.23-.513-.05-1.01-.193-1.468-.418-.288-.14-.56-.314-.812-.517-3.853-3.11-7.983-5.282-12.148-6.757-14.851-5.262-30.146-1.682-34.808-.349-.351.102-.7.217-1.04.352-.513.2-1.01.44-1.49.714l-15.46 8.81c-1.89-.036-3.705-.017-5.433.044h-.003c-12.581.445-20.907 3.182-23.956 4.36-.8.311-1.377 1.02-1.525 1.87l-.571 3.267-.022.126c-.03.17.02.346.132.478.104.124.159.28.159.434 0 .132-.039.261-.115.377l-.634.95H.993c-.548 0-.993.446-.993.995v1.228c0 .303.137.589.37.778h.003c.346.278.56.684.596 1.124l.195 2.451c.024.305.115.605.26.874.179.327.431.596.733.789.302.198.653.319 1.02.346.909.066 2.363.168 4.451.28v-2.673c0-5.543 4.528-10.077 10.06-10.077 2.766 0 5.282 1.132 7.107 2.96 1.822 1.827 2.955 4.344 2.955 7.117v3.36c12.181.176 35.404.063 52.614-.379v-3.012c0-5.54 4.528-10.074 10.06-10.074h.7c5.535 0 10.062 4.534 10.062 10.074v1.85c5.104-1.02 8.252-.979 9.596-.88.472.033.917-.214 1.134-.632l.428-.827c.054-.099.022-.222-.072-.286-.2-.131-.304-.349-.304-.566 0-.162.057-.327.178-.459l.302-.332c.326-.36.409-.882.211-1.327l-.266-.602c-.14-.313-.071-.679.17-.92.272-.273.423-.638.423-1.02" mask="url(#prefix__b)"/>
            <path fill="#BBCFDA" d="M8.863 20.355l-2.55 1.778c-.542.379-1.168.585-1.802.618-.722.044-1.457-.14-2.09-.553l-.341-.22.57-3.267.555-.206c.804-.297 1.657-.4 2.497-.313.453.047.903.151 1.336.31l1.666.613c.535.198.626.913.16 1.24"/>
            <path fill="#0E1133" d="M50.518 2.914l-14.365 9.944-8.018-.376c1.728-.06 3.542-.08 5.433-.044l15.46-8.81c.48-.275.977-.514 1.49-.714M99.326 10.185l-.815.34c-3.842-3.56-13.934-7.614-13.934-7.614h1.789c4.165 1.475 8.295 3.646 12.148 6.757.252.203.524.376.812.517M84.116 10.589l-10.255.34c-.642.022-1.147-.547-1.05-1.184l.704-4.699c.077-.506.544-.863 1.052-.794 5.109.7 8.44 3.149 10.144 4.77.585.555.211 1.542-.595 1.567M69.342 4.574l-1.806 6.512-19.584.616s1.75-1.97-1.372-2.655c0 0 7.4-6.735 21.96-5.614.566.041.953.59.802 1.14m18.407 2.68c-3.546-2.267-9.067-4.815-16.404-5.257-16.264-.973-28.34 6.87-32.237 9.79-.442.333-.195 1.031.357 1.014l24.246-.837 4.067-.14 18.906-.655c2.085-.07 2.821-2.791 1.065-3.915"/>
            <path fill="#FF9587" d="M110.958 19.214h-4.764l-.894-1.555-.563-.98c-.368-.64-.192-1.457.406-1.89l.07-.05c.34-.246.748-.378 1.166-.378h4.022c.173.404.812 2.116.557 4.853"/>
            <path fill="#FFF" d="M110.958 19.214h-4.764l-.894-1.555h5.713c.01.472-.003.992-.055 1.555"/>
            <path fill="#BBCFDA" d="M6.872 25.754l.132-.31c.087-.203.2-.504.404-.865.097-.183.2-.389.336-.596.136-.208.263-.45.44-.677.172-.23.341-.49.557-.732l.324-.38c.114-.127.24-.247.364-.375.497-.514 1.097-1.009 1.777-1.467.676-.467 1.455-.86 2.29-1.19.833-.333 1.744-.553 2.678-.68.235-.023.47-.062.707-.073l.715-.03c.263-.004.475.016.715.022.235.011.465.01.71.05l.721.1c.24.036.47.103.703.152.472.09.917.264 1.368.404.222.08.435.18.652.27.215.091.429.183.629.3l.606.328c.196.117.382.247.57.369.385.233.718.526 1.059.79.167.136.315.292.47.434.15.149.313.28.445.437.558.602 1.04 1.212 1.41 1.824.092.152.184.3.274.446.09.144.156.298.23.442.142.292.287.563.382.838.102.27.21.517.285.754l.192.657c.064.196.1.377.127.536l.074.399.062.332-.093-.325-.112-.389c-.042-.153-.09-.329-.167-.519l-.236-.634c-.09-.228-.214-.464-.332-.721-.111-.26-.273-.517-.431-.79-.084-.135-.154-.282-.249-.419l-.289-.42c-.186-.292-.423-.566-.66-.854-.224-.298-.513-.557-.78-.847-.133-.147-.296-.268-.444-.405-.155-.13-.301-.276-.467-.4-.34-.238-.659-.518-1.034-.73-.712-.485-1.533-.837-2.368-1.167-.43-.129-.855-.293-1.304-.374-.223-.045-.445-.108-.668-.14l-.67-.088c-.219-.04-.458-.042-.69-.055-.228-.008-.483-.03-.686-.026l-.681.023c-.227.008-.45.044-.674.065-.89.12-1.766.295-2.57.601-.802.303-1.565.646-2.232 1.073-.668.42-1.274.868-1.78 1.341-.127.118-.257.229-.374.347l-.336.351c-.228.222-.41.462-.595.677-.19.211-.33.438-.478.633-.15.196-.264.39-.372.563-.222.342-.373.63-.476.823l-.16.297M79.777 25.754l.132-.31c.087-.203.201-.504.404-.865.097-.183.2-.389.337-.596.136-.208.263-.45.44-.677.172-.23.34-.49.557-.732l.323-.38c.114-.127.24-.247.365-.375.496-.514 1.096-1.009 1.776-1.467.676-.467 1.455-.86 2.29-1.19.833-.333 1.744-.553 2.679-.68.234-.023.469-.062.706-.073l.715-.03c.263-.004.475.016.716.022.234.011.465.01.709.05l.721.1c.24.036.47.103.704.152.47.09.916.264 1.367.404.222.08.435.18.652.27.215.091.43.183.63.3l.606.328c.195.117.381.247.57.369.384.233.717.526 1.058.79.168.136.315.292.47.434.15.149.313.28.446.437.557.602 1.04 1.212 1.409 1.824l.274.446c.09.144.156.298.23.442.142.292.288.563.382.838.102.27.21.517.286.754.07.24.133.459.192.657.064.196.1.377.126.536l.074.399.062.332-.093-.325-.111-.389c-.043-.153-.092-.329-.168-.519l-.235-.634c-.09-.228-.215-.464-.333-.721-.11-.26-.273-.517-.43-.79-.084-.135-.155-.282-.25-.419l-.289-.42c-.186-.292-.422-.566-.66-.854-.224-.298-.513-.557-.78-.847-.133-.147-.295-.268-.444-.405-.155-.13-.3-.276-.467-.4-.339-.238-.658-.518-1.033-.73-.713-.485-1.533-.837-2.368-1.167-.431-.129-.856-.293-1.305-.374-.222-.045-.444-.108-.668-.14l-.67-.088c-.219-.04-.458-.042-.69-.055-.228-.008-.483-.03-.686-.026l-.68.023c-.227.008-.45.044-.675.065-.89.12-1.765.295-2.57.601-.801.303-1.565.646-2.231 1.073-.669.42-1.274.868-1.781 1.341-.127.118-.256.229-.373.347l-.337.351c-.228.222-.409.462-.594.677-.19.211-.33.438-.479.633-.15.196-.264.39-.372.563-.222.342-.372.63-.476.823l-.16.297"/>
            <path stroke="#BBCFDA" d="M38.882 12.251l-3.438 2.436c-.627.445-1.029 1.139-1.102 1.905-.238 2.49-.688 7.872.915 13.386M27.677 29.336s24.715 3.028 52.943-1.073"/>
            <path stroke="#BBCFDA" d="M69.051 11.778l1.928 2.216s-1.016 8.986-3.618 15.737"/>
            <path fill="#BBCFDA" d="M22.997 16.193s1.31-.167 3.611-.382c1.15-.109 2.549-.233 4.153-.36l2.557-.197 2.836-.189c1.977-.123 4.12-.25 6.386-.368 2.267-.116 4.657-.24 7.132-.342 2.473-.114 5.03-.21 7.628-.304 2.598-.104 5.239-.174 7.879-.257 2.64-.077 5.281-.117 7.88-.172 2.6-.058 5.158-.09 7.634-.125 2.476-.032 4.869-.074 7.138-.088l6.396-.054c1.981-.024 3.797-.014 5.406-.013l4.168.006 3.632.005-13.204.162c-1.98.025-4.126.054-6.395.084-2.27.023-4.662.077-7.138.121-2.475.046-5.033.091-7.631.161-2.599.067-5.24.12-7.878.208-2.64.07-5.28.128-7.878.22-2.598.08-5.155.165-7.628.268-2.474.09-4.865.203-7.131.308-2.267.108-4.41.225-6.387.339l-5.394.334c-1.606.104-3.005.21-4.157.302-2.303.183-3.615.333-3.615.333"/>
            <path fill="#BBCFDA" d="M62.811 16.293l-.1-.044c-.065-.033-.163-.078-.266-.173-.05-.048-.104-.11-.135-.195-.008-.022-.013-.045-.017-.069 0-.015-.004-.017-.002-.043l.004-.032.007-.066.032-.076c.1-.198.292-.324.503-.43.428-.21.96-.352 1.537-.437.288-.039.588-.076.894-.087.305-.015.616-.016.924-.007.624.027 1.242.1 1.811.255.285.073.555.175.797.312.119.074.236.15.326.261.05.05.082.12.11.187.015.072.026.158.007.216-.044.153-.135.237-.224.307-.09.067-.183.114-.27.155-.176.078-.334.125-.464.16-.263.066-.415.084-.415.084s.147-.044.397-.139c.124-.048.274-.111.432-.203.147-.089.34-.228.38-.39.019-.096-.018-.174-.095-.252-.07-.078-.177-.139-.286-.196-.225-.109-.485-.186-.758-.25-.548-.124-1.154-.192-1.755-.212-.609-.027-1.214-.001-1.778.056-.562.065-1.088.156-1.5.33-.201.085-.388.193-.473.325-.1.151-.036.299.052.396.086.097.173.159.232.199l.093.058M112.704 21.458s-.041.023-.13.067c-.087.04-.21.098-.37.16-.16.065-.357.132-.584.205-.226.072-.484.145-.767.216-.282.072-.59.138-.917.205-.328.059-.672.128-1.032.175-.358.058-.73.103-1.11.143-.377.048-.762.074-1.147.105-.385.037-.771.048-1.15.07-.38.022-.754.03-1.116.036-.361.006-.71.02-1.042.013l-.934-.007c-.579-.006-1.06-.032-1.398-.04l-.53-.019.53.006c.338 0 .82.015 1.398.007l.933-.016c.33-.001.68-.023 1.04-.038.36-.014.734-.03 1.112-.063.377-.03.762-.05 1.144-.096.383-.04.766-.075 1.14-.132.375-.048.743-.103 1.098-.168.356-.056.695-.132 1.017-.199.321-.073.625-.145.9-.224.277-.075.528-.153.747-.229.219-.076.41-.146.56-.212.153-.063.27-.12.346-.158.072-.038.114-.063.114-.063l.148.256zM29.28 32.668s.768-.102 2.117-.255l2.434-.258c.94-.095 2.001-.198 3.16-.29 1.16-.103 2.417-.186 3.746-.287 1.33-.085 2.733-.186 4.186-.252 1.452-.069 2.953-.147 4.479-.193l2.304-.08 2.323-.051c1.551-.038 3.103-.033 4.63-.04 1.526-.017 3.029.02 4.483.032 1.455.004 2.86.07 4.191.109l1.941.066 1.813.092c1.161.06 2.226.11 3.169.177l2.44.186 2.126.162-2.129-.112-2.443-.13-3.17-.116-1.813-.07-1.94-.04c-1.331-.022-2.735-.065-4.188-.067-1.453-.005-2.954-.037-4.48-.014-1.525.014-3.075.017-4.624.06l-2.321.041-2.303.07c-1.525.04-3.025.11-4.476.173l-4.184.21c-1.33.084-2.587.15-3.746.239-2.32.159-4.252.313-5.603.433s-2.122.205-2.122.205"/>
            <path fill="#0B1829" d="M1.418 28.22v1.742c0 .624.505 1.13 1.128 1.13h.215c.346 0 .654-.22.767-.547l.487-1.406c.22-.634-.188-1.313-.85-1.416l-.988-.154c-.399-.062-.76.246-.76.65"/>
            <path fill="#777" d="M5.541 21.743h-.136c-.732 0-1.33-.6-1.33-1.333 0-.732.598-1.332 1.33-1.332h.136c.732 0 1.331.6 1.331 1.332 0 .734-.599 1.333-1.33 1.333"/>
            <path fill="#FFF" d="M8.863 20.355l-2.55 1.778c-.542.379-1.168.585-1.802.618l1.191-4.559c.453.047.903.151 1.336.31l1.666.613c.535.198.626.913.16 1.24"/>
            <path fill="#DCDDE7" d="M69.342 4.573l-1.806 6.513-19.584.616s1.75-1.97-1.372-2.655c0 0 7.4-6.735 21.96-5.614.566.041.953.59.802 1.14M84.116 10.589l-10.255.34c-.642.022-1.147-.547-1.05-1.184l.704-4.699c.077-.506.544-.863 1.052-.794 5.109.7 8.44 3.149 10.144 4.77.585.555.211 1.542-.595 1.567M43.102 13.902c-1.146 0-2.083-.938-2.083-2.086v-1.538c0-1.147.937-2.086 2.083-2.086 1.146 0 2.083.939 2.083 2.086v1.538c0 1.148-.937 2.086-2.083 2.086"/>
            <path fill="#0E1133" d="M67.868 7.995V11.2c0 .215-.033.423-.09.621l-4.067.14c-.09-.236-.14-.494-.14-.76V7.994c0-1.185.966-2.152 2.149-2.152.593 0 1.127.242 1.517.632.39.39.631.926.631 1.52"/>
        </g>
    </g>
</svg>
