<svg xmlns="http://www.w3.org/2000/svg" width="94" height="18" viewBox="0 0 94 18">
    <g fill="none" fill-rule="evenodd">
        <path fill="#004F9E" d="M50.046 13.18l-.373 1.497-.041.17c-.149.589-.439 1.015-1.287 1.015h-2.503c-.876 0-.879-.48-.77-.917l.07-.281.36-1.442c.148-.587.383-1.1 1.231-1.1h2.63c.891 0 .83.47.683 1.059m.653-2.62H30.783l-1.117 4.465c-.146.59-.248.83-1.319.83h-2.309c-1.07 0-1.052-.24-.905-.83l1.114-4.465h-1.79c-.655 0-1.047.292-1.198.896l-.924 3.707c-.399 1.594.327 2.249 2.506 2.258l3.87.001c1.874 0 3.218-.384 3.686-2.259l.742-2.977h3.507c-.113.45-1.1 4.344-1.103 4.35-.015.068-.081.394.126.64.14.163.363.246.665.246h.762c.302 0 .567-.083.789-.248.33-.244.427-.574.445-.646.001-.004.987-3.893 1.099-4.342h3.613c-.077.187-.144.394-.2.626l-.565 2.259c-.434 1.735.376 2.351 2.216 2.351l4.31.001c2.036 0 3.062-.455 3.574-2.506l.494-1.976c.404-1.621.076-2.38-2.172-2.38M36.638 0C30.247 0 27.31 1.21 25.404 2.413c-1.905 1.205-3.938 2.598-6.37 2.745-2.632.158-6.266.163-8.866.659-5.87 1.116-9.107 4.393-9.954 5.91-.084.136-.153.268-.214.399h4.936c.943-1.31 2.499-3.064 5.163-3.71 3.565-.867 7.58-.372 9.522-.682 1.679-.31 3.067-.926 5.32-2.534 2.376-1.697 4.349-2.938 8.49-3.343 4.774-.468 14.545-.394 14.545-.394l.23-.914S38.02 0 36.638 0M18.948 10.561h-6.524l-.043.33c-.074.57.36 1.235 1.83 1.235h3.592c1.07 0 1.054.24.907.83l-.728 2.916h-4.23c-.308 0-.806-.076-.68-.582.13-.519.66-.629 1.083-.629h2.54l1.539-1.542h-4.071c-2.994 0-3.7 1.532-3.863 2.192-.32 1.284.513 2.112 2.12 2.112h6.964c.656 0 1.048-.294 1.2-.898l.924-3.708c.468-1.875-.684-2.256-2.56-2.256"/>
        <path fill="#0094DA" d="M60.568 16.455h-2.783c-.524 0-.883-.133-1.099-.409-.272-.349-.205-.787-.13-1.086l.856-3.43h4.287c.507 0 .851.126 1.053.385.301.383.168.918.08 1.27l-.463 1.853c-.15.609-.504 1.417-1.8 1.417zm-6.378-1.167c-.183.737-.15 1.252.103 1.575.295.379.946.561 1.988.561l4.795.002c2.061 0 3.07-.36 3.604-2.497l.547-2.198c.215-.856.25-1.316-.024-1.663-.326-.412-.664-.507-1.755-.507h-5.766l.532-2.16s.057-.227-.06-.365c-.098-.115-.297-.14-.446-.14h-.849c-.25 0-.469.067-.648.2-.269.2-.344.468-.35.499l-1.67 6.693zM81.105 7.897c-.251 0-.47.066-.648.2-.27.2-.344.467-.35.496L78.03 16.92c-.002.008-.056.233.06.369.097.115.296.138.445.138h.849c.25 0 .469-.066.648-.199.277-.206.35-.491.352-.503l2.072-8.31c0-.005.06-.24-.057-.378-.1-.115-.298-.14-.446-.14h-.848zM85.55 7.897c-.25 0-.469.066-.648.2-.27.2-.344.468-.35.498l-2.076 8.324c-.002.009-.058.232.06.369.096.115.296.138.445.138h.85c.25 0 .468-.066.646-.199.278-.206.35-.49.353-.501l2.072-8.312c.003-.012.059-.24-.058-.378-.098-.115-.296-.14-.445-.14h-.849zM77.276 11.195c-.32-.41-.962-.634-1.808-.634h-5.151c-2.013 0-2.991.319-3.465 2.215l-.652 2.616c-.167.672-.136 1.145.1 1.446.317.407 1.05.588 2.373.588h6.92l.005-.037c.017-.126.003-.316-.153-.494-.252-.286-.786-.443-1.505-.443h-3.993c-.618 0-1.079-.064-1.318-.372-.241-.308-.145-.69-.062-1.03l.501-2.005c.115-.455.381-1.52 1.743-1.52h3.173c.472 0 .809.124 1.003.371.108.14.217.381.128.746-.093.37-.42.989-1.577.989h-3.037l-.947.95h3.975c3.06 0 3.763-1.503 3.925-2.15.126-.507.066-.923-.178-1.236M91.164 5.652c-1.355 0-2.454 1.097-2.454 2.454 0 1.356 1.099 2.455 2.454 2.455 1.356 0 2.456-1.099 2.456-2.455 0-1.357-1.1-2.454-2.456-2.454M92.4 8.106c0 .683-.553 1.237-1.236 1.237-.683 0-1.234-.554-1.234-1.237s.551-1.236 1.234-1.236c.683 0 1.236.553 1.236 1.236"/>
    </g>
</svg>
